<svg width="60" height="16" viewBox="0 0 60 16" fill="none" xmlns="http://www.w3.org/2000/svg">
<path d="M6.64295 10.7453H2.85995L2.20995 12.5913H0.662947L3.89995 3.54331H5.61595L8.85295 12.5913H7.29295L6.64295 10.7453ZM6.22695 9.53631L4.75795 5.33731L3.27595 9.53631H6.22695ZM11.7424 6.49431C11.9937 6.14764 12.3361 5.86598 12.7694 5.64931C13.2114 5.42398 13.7011 5.31131 14.2384 5.31131C14.8711 5.31131 15.4431 5.46298 15.9544 5.76631C16.4657 6.06964 16.8687 6.50298 17.1634 7.06631C17.4581 7.62097 17.6054 8.25797 17.6054 8.97731C17.6054 9.69664 17.4581 10.3423 17.1634 10.9143C16.8687 11.4776 16.4614 11.9196 15.9414 12.2403C15.4301 12.5523 14.8624 12.7083 14.2384 12.7083C13.6837 12.7083 13.1897 12.6 12.7564 12.3833C12.3317 12.1666 11.9937 11.8893 11.7424 11.5513V12.5913H10.2604V2.97131H11.7424V6.49431ZM16.0974 8.97731C16.0974 8.48331 15.9934 8.05864 15.7854 7.70331C15.5861 7.33931 15.3174 7.06631 14.9794 6.88431C14.6501 6.69364 14.2947 6.59831 13.9134 6.59831C13.5407 6.59831 13.1854 6.69364 12.8474 6.88431C12.5181 7.07497 12.2494 7.35231 12.0414 7.71631C11.8421 8.08031 11.7424 8.50931 11.7424 9.00331C11.7424 9.49731 11.8421 9.93064 12.0414 10.3033C12.2494 10.6673 12.5181 10.9446 12.8474 11.1353C13.1854 11.326 13.5407 11.4213 13.9134 11.4213C14.2947 11.4213 14.6501 11.326 14.9794 11.1353C15.3174 10.936 15.5861 10.65 15.7854 10.2773C15.9934 9.90464 16.0974 9.47131 16.0974 8.97731ZM22.1779 12.7083C21.5019 12.7083 20.8909 12.5566 20.3449 12.2533C19.7989 11.9413 19.3699 11.508 19.0579 10.9533C18.7459 10.39 18.5899 9.73998 18.5899 9.00331C18.5899 8.27531 18.7503 7.62964 19.0709 7.06631C19.3916 6.50298 19.8293 6.06964 20.3839 5.76631C20.9386 5.46298 21.5583 5.31131 22.2429 5.31131C22.9276 5.31131 23.5473 5.46298 24.1019 5.76631C24.6566 6.06964 25.0943 6.50298 25.4149 7.06631C25.7356 7.62964 25.8959 8.27531 25.8959 9.00331C25.8959 9.73131 25.7313 10.377 25.4019 10.9403C25.0726 11.5036 24.6219 11.9413 24.0499 12.2533C23.4866 12.5566 22.8626 12.7083 22.1779 12.7083ZM22.1779 11.4213C22.5593 11.4213 22.9146 11.3303 23.2439 11.1483C23.5819 10.9663 23.8549 10.6933 24.0629 10.3293C24.2709 9.96531 24.3749 9.52331 24.3749 9.00331C24.3749 8.48331 24.2753 8.04564 24.0759 7.69031C23.8766 7.32631 23.6123 7.05331 23.2829 6.87131C22.9536 6.68931 22.5983 6.59831 22.2169 6.59831C21.8356 6.59831 21.4803 6.68931 21.1509 6.87131C20.8303 7.05331 20.5746 7.32631 20.3839 7.69031C20.1933 8.04564 20.0979 8.48331 20.0979 9.00331C20.0979 9.77464 20.2929 10.3726 20.6829 10.7973C21.0816 11.2133 21.5799 11.4213 22.1779 11.4213ZM33.848 5.42831V12.5913H32.366V11.7463C32.132 12.041 31.8243 12.275 31.443 12.4483C31.0703 12.613 30.6717 12.6953 30.247 12.6953C29.6837 12.6953 29.1767 12.5783 28.726 12.3443C28.284 12.1103 27.933 11.7636 27.673 11.3043C27.4217 10.845 27.296 10.2903 27.296 9.64031V5.42831H28.765V9.41931C28.765 10.0606 28.9253 10.5546 29.246 10.9013C29.5667 11.2393 30.0043 11.4083 30.559 11.4083C31.1137 11.4083 31.5513 11.2393 31.872 10.9013C32.2013 10.5546 32.366 10.0606 32.366 9.41931V5.42831H33.848ZM37.5324 6.63731V10.6023C37.5324 10.871 37.593 11.066 37.7144 11.1873C37.8444 11.3 38.061 11.3563 38.3644 11.3563H39.2744V12.5913H38.1044C37.437 12.5913 36.9257 12.4353 36.5704 12.1233C36.215 11.8113 36.0374 11.3043 36.0374 10.6023V6.63731H35.1924V5.42831H36.0374V3.64731H37.5324V5.42831H39.2744V6.63731H37.5324ZM50.5042 5.42831V12.5913H49.0222V11.7463C48.7882 12.041 48.4806 12.275 48.0992 12.4483C47.7266 12.613 47.3279 12.6953 46.9032 12.6953C46.3399 12.6953 45.8329 12.5783 45.3822 12.3443C44.9402 12.1103 44.5892 11.7636 44.3292 11.3043C44.0779 10.845 43.9522 10.2903 43.9522 9.64031V5.42831H45.4212V9.41931C45.4212 10.0606 45.5816 10.5546 45.9022 10.9013C46.2229 11.2393 46.6606 11.4083 47.2152 11.4083C47.7699 11.4083 48.2076 11.2393 48.5282 10.9013C48.8576 10.5546 49.0222 10.0606 49.0222 9.41931V5.42831H50.5042ZM55.0596 12.7083C54.4963 12.7083 53.9893 12.6086 53.5386 12.4093C53.0966 12.2013 52.7456 11.924 52.4856 11.5773C52.2256 11.222 52.087 10.8276 52.0696 10.3943H53.6036C53.6296 10.6976 53.7726 10.9533 54.0326 11.1613C54.3013 11.3606 54.635 11.4603 55.0336 11.4603C55.4496 11.4603 55.7703 11.3823 55.9956 11.2263C56.2296 11.0616 56.3466 10.8536 56.3466 10.6023C56.3466 10.3336 56.2166 10.1343 55.9566 10.0043C55.7053 9.87431 55.3023 9.73131 54.7476 9.57531C54.2103 9.42798 53.7726 9.28498 53.4346 9.14631C53.0966 9.00764 52.802 8.79531 52.5506 8.50931C52.308 8.22331 52.1866 7.84631 52.1866 7.37831C52.1866 6.99697 52.2993 6.65031 52.5246 6.33831C52.75 6.01764 53.0706 5.76631 53.4866 5.58431C53.9113 5.40231 54.3966 5.31131 54.9426 5.31131C55.7573 5.31131 56.4116 5.51931 56.9056 5.93531C57.4083 6.34264 57.677 6.90164 57.7116 7.61231H56.2296C56.2036 7.29164 56.0736 7.03597 55.8396 6.84531C55.6056 6.65464 55.2893 6.55931 54.8906 6.55931C54.5006 6.55931 54.2016 6.63298 53.9936 6.78031C53.7856 6.92764 53.6816 7.12264 53.6816 7.36531C53.6816 7.55598 53.751 7.71631 53.8896 7.84631C54.0283 7.97631 54.1973 8.08031 54.3966 8.15831C54.596 8.22764 54.8906 8.31864 55.2806 8.43131C55.8006 8.56997 56.2253 8.71298 56.5546 8.86031C56.8926 8.99898 57.183 9.20697 57.4256 9.48431C57.6683 9.76164 57.794 10.13 57.8026 10.5893C57.8026 10.9966 57.69 11.3606 57.4646 11.6813C57.2393 12.002 56.9186 12.2533 56.5026 12.4353C56.0953 12.6173 55.6143 12.7083 55.0596 12.7083Z" fill="black"/>
</svg>
