<svg width="30" height="17" viewBox="0 0 30 17" fill="none" xmlns="http://www.w3.org/2000/svg">
<path d="M6.03195 7.95031C6.51728 8.03698 6.92895 8.29264 7.26695 8.71731C7.60495 9.14198 7.77395 9.62298 7.77395 10.1603C7.77395 10.6196 7.65261 11.0356 7.40995 11.4083C7.17595 11.7723 6.83361 12.0626 6.38295 12.2793C5.93228 12.4873 5.40795 12.5913 4.80995 12.5913H1.19595V3.55631H4.64095C5.25628 3.55631 5.78495 3.66031 6.22695 3.86831C6.66895 4.07631 7.00261 4.35798 7.22795 4.71331C7.45328 5.05997 7.56595 5.44997 7.56595 5.88331C7.56595 6.40331 7.42728 6.83664 7.14995 7.18331C6.87261 7.52998 6.49995 7.78564 6.03195 7.95031ZM2.67795 7.35231H4.51095C4.99628 7.35231 5.37328 7.24397 5.64195 7.02731C5.91928 6.80197 6.05795 6.48131 6.05795 6.06531C6.05795 5.65797 5.91928 5.34164 5.64195 5.11631C5.37328 4.88231 4.99628 4.76531 4.51095 4.76531H2.67795V7.35231ZM4.67995 11.3823C5.18261 11.3823 5.57695 11.261 5.86295 11.0183C6.14895 10.7756 6.29195 10.4376 6.29195 10.0043C6.29195 9.56231 6.14028 9.21131 5.83695 8.95131C5.53361 8.69131 5.13061 8.56131 4.62795 8.56131H2.67795V11.3823H4.67995ZM10.8664 2.97131V12.5913H9.38442V2.97131H10.8664ZM15.9192 12.7083C15.2432 12.7083 14.6322 12.5566 14.0862 12.2533C13.5402 11.9413 13.1112 11.508 12.7992 10.9533C12.4872 10.39 12.3312 9.73998 12.3312 9.00331C12.3312 8.27531 12.4915 7.62964 12.8122 7.06631C13.1328 6.50298 13.5705 6.06964 14.1252 5.76631C14.6798 5.46298 15.2995 5.31131 15.9842 5.31131C16.6688 5.31131 17.2885 5.46298 17.8432 5.76631C18.3978 6.06964 18.8355 6.50298 19.1562 7.06631C19.4768 7.62964 19.6372 8.27531 19.6372 9.00331C19.6372 9.73131 19.4725 10.377 19.1432 10.9403C18.8138 11.5036 18.3632 11.9413 17.7912 12.2533C17.2278 12.5566 16.6038 12.7083 15.9192 12.7083ZM15.9192 11.4213C16.3005 11.4213 16.6558 11.3303 16.9852 11.1483C17.3232 10.9663 17.5962 10.6933 17.8042 10.3293C18.0122 9.96531 18.1162 9.52331 18.1162 9.00331C18.1162 8.48331 18.0165 8.04564 17.8172 7.69031C17.6178 7.32631 17.3535 7.05331 17.0242 6.87131C16.6948 6.68931 16.3395 6.59831 15.9582 6.59831C15.5768 6.59831 15.2215 6.68931 14.8922 6.87131C14.5715 7.05331 14.3158 7.32631 14.1252 7.69031C13.9345 8.04564 13.8392 8.48331 13.8392 9.00331C13.8392 9.77464 14.0342 10.3726 14.4242 10.7973C14.8228 11.2133 15.3212 11.4213 15.9192 11.4213ZM23.9882 5.31131C24.5429 5.31131 25.0325 5.42398 25.4572 5.64931C25.8905 5.86598 26.2285 6.13898 26.4712 6.46831V5.42831H27.9662V12.7083C27.9662 13.367 27.8275 13.952 27.5502 14.4633C27.2729 14.9833 26.8699 15.3906 26.3412 15.6853C25.8212 15.98 25.1972 16.1273 24.4692 16.1273C23.4985 16.1273 22.6925 15.8976 22.0512 15.4383C21.4099 14.9876 21.0459 14.3723 20.9592 13.5923H22.4282C22.5409 13.965 22.7792 14.264 23.1432 14.4893C23.5159 14.7233 23.9579 14.8403 24.4692 14.8403C25.0672 14.8403 25.5482 14.6583 25.9122 14.2943C26.2849 13.9303 26.4712 13.4016 26.4712 12.7083V11.5123C26.2199 11.8503 25.8775 12.1363 25.4442 12.3703C25.0195 12.5956 24.5342 12.7083 23.9882 12.7083C23.3642 12.7083 22.7922 12.5523 22.2722 12.2403C21.7609 11.9196 21.3535 11.4776 21.0502 10.9143C20.7555 10.3423 20.6082 9.69664 20.6082 8.97731C20.6082 8.25797 20.7555 7.62097 21.0502 7.06631C21.3535 6.51164 21.7609 6.08264 22.2722 5.77931C22.7922 5.46731 23.3642 5.31131 23.9882 5.31131ZM26.4712 9.00331C26.4712 8.50931 26.3672 8.08031 26.1592 7.71631C25.9599 7.35231 25.6955 7.07497 25.3662 6.88431C25.0369 6.69364 24.6815 6.59831 24.3002 6.59831C23.9189 6.59831 23.5635 6.69364 23.2342 6.88431C22.9049 7.06631 22.6362 7.33931 22.4282 7.70331C22.2289 8.05864 22.1292 8.48331 22.1292 8.97731C22.1292 9.47131 22.2289 9.90464 22.4282 10.2773C22.6362 10.65 22.9049 10.936 23.2342 11.1353C23.5722 11.326 23.9275 11.4213 24.3002 11.4213C24.6815 11.4213 25.0369 11.326 25.3662 11.1353C25.6955 10.9446 25.9599 10.6673 26.1592 10.3033C26.3672 9.93064 26.4712 9.49731 26.4712 9.00331Z" fill="black"/>
</svg>
