<svg width="366" height="40" viewBox="0 0 366 40" fill="none" xmlns="http://www.w3.org/2000/svg">
<path d="M0 20C0 8.95431 8.9543 0 20 0H346C357.046 0 366 8.95431 366 20C366 31.0457 357.046 40 346 40H20C8.95431 40 0 31.0457 0 20Z" fill="#FFEDEB"/>
<path d="M150.104 25L147.864 21.108H146.646V25H145.05V15.27H148.41C149.157 15.27 149.787 15.4007 150.3 15.662C150.823 15.9233 151.21 16.2733 151.462 16.712C151.723 17.1507 151.854 17.6407 151.854 18.182C151.854 18.8167 151.667 19.3953 151.294 19.918C150.93 20.4313 150.365 20.7813 149.6 20.968L152.008 25H150.104ZM146.646 19.834H148.41C149.007 19.834 149.455 19.6847 149.754 19.386C150.062 19.0873 150.216 18.686 150.216 18.182C150.216 17.678 150.067 17.286 149.768 17.006C149.469 16.7167 149.017 16.572 148.41 16.572H146.646V19.834ZM160.966 20.954C160.966 21.2433 160.947 21.5047 160.91 21.738H155.016C155.062 22.354 155.291 22.8487 155.702 23.222C156.112 23.5953 156.616 23.782 157.214 23.782C158.072 23.782 158.679 23.4227 159.034 22.704H160.756C160.522 23.4133 160.098 23.9967 159.482 24.454C158.875 24.902 158.119 25.126 157.214 25.126C156.476 25.126 155.814 24.9627 155.226 24.636C154.647 24.3 154.19 23.8333 153.854 23.236C153.527 22.6293 153.364 21.9293 153.364 21.136C153.364 20.3427 153.522 19.6473 153.84 19.05C154.166 18.4433 154.619 17.9767 155.198 17.65C155.786 17.3233 156.458 17.16 157.214 17.16C157.942 17.16 158.59 17.3187 159.16 17.636C159.729 17.9533 160.172 18.4013 160.49 18.98C160.807 19.5493 160.966 20.2073 160.966 20.954ZM159.3 20.45C159.29 19.862 159.08 19.3907 158.67 19.036C158.259 18.6813 157.75 18.504 157.144 18.504C156.593 18.504 156.122 18.6813 155.73 19.036C155.338 19.3813 155.104 19.8527 155.03 20.45H159.3ZM162.004 21.108C162.004 20.3333 162.163 19.6473 162.48 19.05C162.807 18.4527 163.246 17.9907 163.796 17.664C164.356 17.328 164.972 17.16 165.644 17.16C166.251 17.16 166.778 17.2813 167.226 17.524C167.684 17.7573 168.048 18.0513 168.318 18.406V17.286H169.928V25H168.318V23.852C168.048 24.216 167.679 24.5193 167.212 24.762C166.746 25.0047 166.214 25.126 165.616 25.126C164.954 25.126 164.347 24.958 163.796 24.622C163.246 24.2767 162.807 23.8007 162.48 23.194C162.163 22.578 162.004 21.8827 162.004 21.108ZM168.318 21.136C168.318 20.604 168.206 20.142 167.982 19.75C167.768 19.358 167.483 19.0593 167.128 18.854C166.774 18.6487 166.391 18.546 165.98 18.546C165.57 18.546 165.187 18.6487 164.832 18.854C164.478 19.05 164.188 19.344 163.964 19.736C163.75 20.1187 163.642 20.576 163.642 21.108C163.642 21.64 163.75 22.1067 163.964 22.508C164.188 22.9093 164.478 23.2173 164.832 23.432C165.196 23.6373 165.579 23.74 165.98 23.74C166.391 23.74 166.774 23.6373 167.128 23.432C167.483 23.2267 167.768 22.928 167.982 22.536C168.206 22.1347 168.318 21.668 168.318 21.136ZM171.493 21.108C171.493 20.3333 171.651 19.6473 171.969 19.05C172.295 18.4527 172.734 17.9907 173.285 17.664C173.845 17.328 174.465 17.16 175.147 17.16C175.651 17.16 176.145 17.272 176.631 17.496C177.125 17.7107 177.517 18 177.807 18.364V14.64H179.417V25H177.807V23.838C177.545 24.2113 177.181 24.5193 176.715 24.762C176.257 25.0047 175.73 25.126 175.133 25.126C174.461 25.126 173.845 24.958 173.285 24.622C172.734 24.2767 172.295 23.8007 171.969 23.194C171.651 22.578 171.493 21.8827 171.493 21.108ZM177.807 21.136C177.807 20.604 177.695 20.142 177.471 19.75C177.256 19.358 176.971 19.0593 176.617 18.854C176.262 18.6487 175.879 18.546 175.469 18.546C175.058 18.546 174.675 18.6487 174.321 18.854C173.966 19.05 173.677 19.344 173.453 19.736C173.238 20.1187 173.131 20.576 173.131 21.108C173.131 21.64 173.238 22.1067 173.453 22.508C173.677 22.9093 173.966 23.2173 174.321 23.432C174.685 23.6373 175.067 23.74 175.469 23.74C175.879 23.74 176.262 23.6373 176.617 23.432C176.971 23.2267 177.256 22.928 177.471 22.536C177.695 22.1347 177.807 21.668 177.807 21.136ZM194.488 17.16C195.094 17.16 195.636 17.286 196.112 17.538C196.597 17.79 196.975 18.1633 197.246 18.658C197.526 19.1527 197.666 19.75 197.666 20.45V25H196.084V20.688C196.084 19.9973 195.911 19.47 195.566 19.106C195.22 18.7327 194.749 18.546 194.152 18.546C193.554 18.546 193.078 18.7327 192.724 19.106C192.378 19.47 192.206 19.9973 192.206 20.688V25H190.624V20.688C190.624 19.9973 190.451 19.47 190.106 19.106C189.76 18.7327 189.289 18.546 188.692 18.546C188.094 18.546 187.618 18.7327 187.264 19.106C186.918 19.47 186.746 19.9973 186.746 20.688V25H185.15V17.286H186.746V18.168C187.007 17.8507 187.338 17.6033 187.74 17.426C188.141 17.2487 188.57 17.16 189.028 17.16C189.644 17.16 190.194 17.2907 190.68 17.552C191.165 17.8133 191.538 18.1913 191.8 18.686C192.033 18.2193 192.397 17.8507 192.892 17.58C193.386 17.3 193.918 17.16 194.488 17.16ZM203.042 25.126C202.314 25.126 201.656 24.9627 201.068 24.636C200.48 24.3 200.018 23.8333 199.682 23.236C199.346 22.6293 199.178 21.9293 199.178 21.136C199.178 20.352 199.351 19.6567 199.696 19.05C200.042 18.4433 200.513 17.9767 201.11 17.65C201.708 17.3233 202.375 17.16 203.112 17.16C203.85 17.16 204.517 17.3233 205.114 17.65C205.712 17.9767 206.183 18.4433 206.528 19.05C206.874 19.6567 207.046 20.352 207.046 21.136C207.046 21.92 206.869 22.6153 206.514 23.222C206.16 23.8287 205.674 24.3 205.058 24.636C204.452 24.9627 203.78 25.126 203.042 25.126ZM203.042 23.74C203.453 23.74 203.836 23.642 204.19 23.446C204.554 23.25 204.848 22.956 205.072 22.564C205.296 22.172 205.408 21.696 205.408 21.136C205.408 20.576 205.301 20.1047 205.086 19.722C204.872 19.33 204.587 19.036 204.232 18.84C203.878 18.644 203.495 18.546 203.084 18.546C202.674 18.546 202.291 18.644 201.936 18.84C201.591 19.036 201.316 19.33 201.11 19.722C200.905 20.1047 200.802 20.576 200.802 21.136C200.802 21.9667 201.012 22.6107 201.432 23.068C201.862 23.516 202.398 23.74 203.042 23.74ZM210.22 18.406C210.454 18.014 210.762 17.7107 211.144 17.496C211.536 17.272 211.998 17.16 212.53 17.16V18.812H212.124C211.499 18.812 211.023 18.9707 210.696 19.288C210.379 19.6053 210.22 20.156 210.22 20.94V25H208.624V17.286H210.22V18.406ZM221.067 20.954C221.067 21.2433 221.049 21.5047 221.011 21.738H215.117C215.164 22.354 215.393 22.8487 215.803 23.222C216.214 23.5953 216.718 23.782 217.315 23.782C218.174 23.782 218.781 23.4227 219.135 22.704H220.857C220.624 23.4133 220.199 23.9967 219.583 24.454C218.977 24.902 218.221 25.126 217.315 25.126C216.578 25.126 215.915 24.9627 215.327 24.636C214.749 24.3 214.291 23.8333 213.955 23.236C213.629 22.6293 213.465 21.9293 213.465 21.136C213.465 20.3427 213.624 19.6473 213.941 19.05C214.268 18.4433 214.721 17.9767 215.299 17.65C215.887 17.3233 216.559 17.16 217.315 17.16C218.043 17.16 218.692 17.3187 219.261 17.636C219.831 17.9533 220.274 18.4013 220.591 18.98C220.909 19.5493 221.067 20.2073 221.067 20.954ZM219.401 20.45C219.392 19.862 219.182 19.3907 218.771 19.036C218.361 18.6813 217.852 18.504 217.245 18.504C216.695 18.504 216.223 18.6813 215.831 19.036C215.439 19.3813 215.206 19.8527 215.131 20.45H219.401Z" fill="#E91700"/>
</svg>
