<svg width="254" height="50" viewBox="0 0 254 50" fill="none" xmlns="http://www.w3.org/2000/svg">
<rect x="0.5" width="253" height="50" rx="25" fill="#FFEDEB"/>
<path d="M37.364 31.112C36.6173 31.112 35.9453 30.984 35.348 30.728C34.7507 30.4613 34.2813 30.088 33.94 29.608C33.5987 29.128 33.428 28.568 33.428 27.928H35.38C35.4227 28.408 35.6093 28.8027 35.94 29.112C36.2813 29.4213 36.756 29.576 37.364 29.576C37.9933 29.576 38.484 29.4267 38.836 29.128C39.188 28.8187 39.364 28.424 39.364 27.944C39.364 27.5707 39.252 27.2667 39.028 27.032C38.8147 26.7973 38.5427 26.616 38.212 26.488C37.892 26.36 37.444 26.2213 36.868 26.072C36.1427 25.88 35.5507 25.688 35.092 25.496C34.644 25.2933 34.26 24.984 33.94 24.568C33.62 24.152 33.46 23.5973 33.46 22.904C33.46 22.264 33.62 21.704 33.94 21.224C34.26 20.744 34.708 20.376 35.284 20.12C35.86 19.864 36.5267 19.736 37.284 19.736C38.3613 19.736 39.2413 20.008 39.924 20.552C40.6173 21.0853 41.0013 21.8213 41.076 22.76H39.06C39.028 22.3547 38.836 22.008 38.484 21.72C38.132 21.432 37.668 21.288 37.092 21.288C36.5693 21.288 36.1427 21.4213 35.812 21.688C35.4813 21.9547 35.316 22.3387 35.316 22.84C35.316 23.1813 35.4173 23.464 35.62 23.688C35.8333 23.9013 36.1 24.072 36.42 24.2C36.74 24.328 37.1773 24.4667 37.732 24.616C38.468 24.8187 39.0653 25.0213 39.524 25.224C39.9933 25.4267 40.388 25.7413 40.708 26.168C41.0387 26.584 41.204 27.144 41.204 27.848C41.204 28.4133 41.0493 28.9467 40.74 29.448C40.4413 29.9493 39.9987 30.3547 39.412 30.664C38.836 30.9627 38.1533 31.112 37.364 31.112ZM51.3403 22.184V31H49.5163V29.96C49.2283 30.3227 48.8496 30.6107 48.3803 30.824C47.9216 31.0267 47.4309 31.128 46.9083 31.128C46.2149 31.128 45.5909 30.984 45.0363 30.696C44.4923 30.408 44.0603 29.9813 43.7403 29.416C43.4309 28.8507 43.2763 28.168 43.2763 27.368V22.184H45.0843V27.096C45.0843 27.8853 45.2816 28.4933 45.6763 28.92C46.0709 29.336 46.6096 29.544 47.2923 29.544C47.9749 29.544 48.5136 29.336 48.9083 28.92C49.3136 28.4933 49.5163 27.8853 49.5163 27.096V22.184H51.3403ZM55.5709 23.496C55.8802 23.0693 56.3015 22.7227 56.8349 22.456C57.3789 22.1787 57.9815 22.04 58.6429 22.04C59.4215 22.04 60.1255 22.2267 60.7549 22.6C61.3842 22.9733 61.8802 23.5067 62.2429 24.2C62.6055 24.8827 62.7869 25.6667 62.7869 26.552C62.7869 27.4373 62.6055 28.232 62.2429 28.936C61.8802 29.6293 61.3789 30.1733 60.7389 30.568C60.1095 30.952 59.4109 31.144 58.6429 31.144C57.9602 31.144 57.3522 31.0107 56.8189 30.744C56.2962 30.4773 55.8802 30.136 55.5709 29.72V31H53.7469V19.16H55.5709V23.496ZM60.9309 26.552C60.9309 25.944 60.8029 25.4213 60.5469 24.984C60.3015 24.536 59.9709 24.2 59.5549 23.976C59.1495 23.7413 58.7122 23.624 58.2429 23.624C57.7842 23.624 57.3469 23.7413 56.9309 23.976C56.5255 24.2107 56.1949 24.552 55.9389 25C55.6935 25.448 55.5709 25.976 55.5709 26.584C55.5709 27.192 55.6935 27.7253 55.9389 28.184C56.1949 28.632 56.5255 28.9733 56.9309 29.208C57.3469 29.4427 57.7842 29.56 58.2429 29.56C58.7122 29.56 59.1495 29.4427 59.5549 29.208C59.9709 28.9627 60.3015 28.6107 60.5469 28.152C60.8029 27.6933 60.9309 27.16 60.9309 26.552ZM67.7906 31.144C67.0973 31.144 66.4733 31.0213 65.9186 30.776C65.3746 30.52 64.9426 30.1787 64.6226 29.752C64.3026 29.3147 64.132 28.8293 64.1106 28.296H65.9986C66.0306 28.6693 66.2066 28.984 66.5266 29.24C66.8573 29.4853 67.268 29.608 67.7586 29.608C68.2706 29.608 68.6653 29.512 68.9426 29.32C69.2306 29.1173 69.3746 28.8613 69.3746 28.552C69.3746 28.2213 69.2146 27.976 68.8946 27.816C68.5853 27.656 68.0893 27.48 67.4066 27.288C66.7453 27.1067 66.2066 26.9307 65.7906 26.76C65.3746 26.5893 65.012 26.328 64.7026 25.976C64.404 25.624 64.2546 25.16 64.2546 24.584C64.2546 24.1147 64.3933 23.688 64.6706 23.304C64.948 22.9093 65.3426 22.6 65.8546 22.376C66.3773 22.152 66.9746 22.04 67.6466 22.04C68.6493 22.04 69.4546 22.296 70.0626 22.808C70.6813 23.3093 71.012 23.9973 71.0546 24.872H69.2306C69.1986 24.4773 69.0386 24.1627 68.7506 23.928C68.4626 23.6933 68.0733 23.576 67.5826 23.576C67.1026 23.576 66.7346 23.6667 66.4786 23.848C66.2226 24.0293 66.0946 24.2693 66.0946 24.568C66.0946 24.8027 66.18 25 66.3506 25.16C66.5213 25.32 66.7293 25.448 66.9746 25.544C67.22 25.6293 67.5826 25.7413 68.0626 25.88C68.7026 26.0507 69.2253 26.2267 69.6306 26.408C70.0466 26.5787 70.404 26.8347 70.7026 27.176C71.0013 27.5173 71.156 27.9707 71.1666 28.536C71.1666 29.0373 71.028 29.4853 70.7506 29.88C70.4733 30.2747 70.0786 30.584 69.5666 30.808C69.0653 31.032 68.4733 31.144 67.7906 31.144ZM72.5295 26.584C72.5295 25.6773 72.7108 24.8827 73.0735 24.2C73.4468 23.5067 73.9588 22.9733 74.6095 22.6C75.2602 22.2267 76.0068 22.04 76.8495 22.04C77.9162 22.04 78.7962 22.296 79.4895 22.808C80.1935 23.3093 80.6682 24.0293 80.9135 24.968H78.9455C78.7855 24.5307 78.5295 24.1893 78.1775 23.944C77.8255 23.6987 77.3828 23.576 76.8495 23.576C76.1028 23.576 75.5055 23.8427 75.0575 24.376C74.6202 24.8987 74.4015 25.6347 74.4015 26.584C74.4015 27.5333 74.6202 28.2747 75.0575 28.808C75.5055 29.3413 76.1028 29.608 76.8495 29.608C77.9055 29.608 78.6042 29.144 78.9455 28.216H80.9135C80.6575 29.112 80.1775 29.8267 79.4735 30.36C78.7695 30.8827 77.8948 31.144 76.8495 31.144C76.0068 31.144 75.2602 30.9573 74.6095 30.584C73.9588 30.2 73.4468 29.6667 73.0735 28.984C72.7108 28.2907 72.5295 27.4907 72.5295 26.584ZM84.5553 23.464C84.8219 23.016 85.1739 22.6693 85.6113 22.424C86.0593 22.168 86.5873 22.04 87.1953 22.04V23.928H86.7313C86.0166 23.928 85.4726 24.1093 85.0993 24.472C84.7366 24.8347 84.5553 25.464 84.5553 26.36V31H82.7313V22.184H84.5553V23.464ZM89.7999 21.016C89.4692 21.016 89.1919 20.904 88.9679 20.68C88.7439 20.456 88.6319 20.1787 88.6319 19.848C88.6319 19.5173 88.7439 19.24 88.9679 19.016C89.1919 18.792 89.4692 18.68 89.7999 18.68C90.1199 18.68 90.3919 18.792 90.6159 19.016C90.8399 19.24 90.9519 19.5173 90.9519 19.848C90.9519 20.1787 90.8399 20.456 90.6159 20.68C90.3919 20.904 90.1199 21.016 89.7999 21.016ZM90.6959 22.184V31H88.8719V22.184H90.6959ZM94.9146 23.496C95.224 23.0693 95.6453 22.7227 96.1786 22.456C96.7226 22.1787 97.3253 22.04 97.9866 22.04C98.7653 22.04 99.4693 22.2267 100.099 22.6C100.728 22.9733 101.224 23.5067 101.587 24.2C101.949 24.8827 102.131 25.6667 102.131 26.552C102.131 27.4373 101.949 28.232 101.587 28.936C101.224 29.6293 100.723 30.1733 100.083 30.568C99.4533 30.952 98.7546 31.144 97.9866 31.144C97.304 31.144 96.696 31.0107 96.1626 30.744C95.64 30.4773 95.224 30.136 94.9146 29.72V31H93.0906V19.16H94.9146V23.496ZM100.275 26.552C100.275 25.944 100.147 25.4213 99.8906 24.984C99.6453 24.536 99.3146 24.2 98.8986 23.976C98.4933 23.7413 98.056 23.624 97.5866 23.624C97.128 23.624 96.6906 23.7413 96.2746 23.976C95.8693 24.2107 95.5386 24.552 95.2826 25C95.0373 25.448 94.9146 25.976 94.9146 26.584C94.9146 27.192 95.0373 27.7253 95.2826 28.184C95.5386 28.632 95.8693 28.9733 96.2746 29.208C96.6906 29.4427 97.128 29.56 97.5866 29.56C98.056 29.56 98.4933 29.4427 98.8986 29.208C99.3146 28.9627 99.6453 28.6107 99.8906 28.152C100.147 27.6933 100.275 27.16 100.275 26.552ZM112.014 26.376C112.014 26.7067 111.993 27.0053 111.95 27.272H105.214C105.268 27.976 105.529 28.5413 105.998 28.968C106.468 29.3947 107.044 29.608 107.726 29.608C108.708 29.608 109.401 29.1973 109.806 28.376H111.774C111.508 29.1867 111.022 29.8533 110.318 30.376C109.625 30.888 108.761 31.144 107.726 31.144C106.884 31.144 106.126 30.9573 105.454 30.584C104.793 30.2 104.27 29.6667 103.886 28.984C103.513 28.2907 103.326 27.4907 103.326 26.584C103.326 25.6773 103.508 24.8827 103.87 24.2C104.244 23.5067 104.761 22.9733 105.422 22.6C106.094 22.2267 106.862 22.04 107.726 22.04C108.558 22.04 109.3 22.2213 109.95 22.584C110.601 22.9467 111.108 23.4587 111.47 24.12C111.833 24.7707 112.014 25.5227 112.014 26.376ZM110.11 25.8C110.1 25.128 109.86 24.5893 109.39 24.184C108.921 23.7787 108.34 23.576 107.646 23.576C107.017 23.576 106.478 23.7787 106.03 24.184C105.582 24.5787 105.316 25.1173 105.23 25.8H110.11ZM120.094 23.672V28.552C120.094 28.8827 120.168 29.1227 120.318 29.272C120.478 29.4107 120.744 29.48 121.118 29.48H122.238V31H120.798C119.976 31 119.347 30.808 118.91 30.424C118.472 30.04 118.254 29.416 118.254 28.552V23.672H117.214V22.184H118.254V19.992H120.094V22.184H122.238V23.672H120.094ZM127.743 31.144C126.911 31.144 126.159 30.9573 125.487 30.584C124.815 30.2 124.287 29.6667 123.903 28.984C123.519 28.2907 123.327 27.4907 123.327 26.584C123.327 25.688 123.524 24.8933 123.919 24.2C124.313 23.5067 124.852 22.9733 125.535 22.6C126.217 22.2267 126.98 22.04 127.823 22.04C128.665 22.04 129.428 22.2267 130.111 22.6C130.793 22.9733 131.332 23.5067 131.727 24.2C132.121 24.8933 132.319 25.688 132.319 26.584C132.319 27.48 132.116 28.2747 131.711 28.968C131.305 29.6613 130.751 30.2 130.047 30.584C129.353 30.9573 128.585 31.144 127.743 31.144ZM127.743 29.56C128.212 29.56 128.649 29.448 129.055 29.224C129.471 29 129.807 28.664 130.063 28.216C130.319 27.768 130.447 27.224 130.447 26.584C130.447 25.944 130.324 25.4053 130.079 24.968C129.833 24.52 129.508 24.184 129.103 23.96C128.697 23.736 128.26 23.624 127.791 23.624C127.321 23.624 126.884 23.736 126.479 23.96C126.084 24.184 125.769 24.52 125.535 24.968C125.3 25.4053 125.183 25.944 125.183 26.584C125.183 27.5333 125.423 28.2693 125.903 28.792C126.393 29.304 127.007 29.56 127.743 29.56ZM142.726 22.04C143.419 22.04 144.038 22.184 144.582 22.472C145.137 22.76 145.569 23.1867 145.878 23.752C146.187 24.3173 146.342 25 146.342 25.8V31H144.534V26.072C144.534 25.2827 144.337 24.68 143.942 24.264C143.547 23.8373 143.009 23.624 142.326 23.624C141.643 23.624 141.099 23.8373 140.694 24.264C140.299 24.68 140.102 25.2827 140.102 26.072V31H138.278V22.184H140.102V23.192C140.401 22.8293 140.779 22.5467 141.238 22.344C141.707 22.1413 142.203 22.04 142.726 22.04ZM156.749 26.376C156.749 26.7067 156.727 27.0053 156.685 27.272H149.949C150.002 27.976 150.263 28.5413 150.733 28.968C151.202 29.3947 151.778 29.608 152.461 29.608C153.442 29.608 154.135 29.1973 154.541 28.376H156.509C156.242 29.1867 155.757 29.8533 155.053 30.376C154.359 30.888 153.495 31.144 152.461 31.144C151.618 31.144 150.861 30.9573 150.189 30.584C149.527 30.2 149.005 29.6667 148.621 28.984C148.247 28.2907 148.061 27.4907 148.061 26.584C148.061 25.6773 148.242 24.8827 148.605 24.2C148.978 23.5067 149.495 22.9733 150.157 22.6C150.829 22.2267 151.597 22.04 152.461 22.04C153.293 22.04 154.034 22.2213 154.685 22.584C155.335 22.9467 155.842 23.4587 156.205 24.12C156.567 24.7707 156.749 25.5227 156.749 26.376ZM154.845 25.8C154.834 25.128 154.594 24.5893 154.125 24.184C153.655 23.7787 153.074 23.576 152.381 23.576C151.751 23.576 151.213 23.7787 150.765 24.184C150.317 24.5787 150.05 25.1173 149.965 25.8H154.845ZM170.384 22.184L167.648 31H165.728L163.952 24.488L162.176 31H160.256L157.504 22.184H159.36L161.2 29.272L163.072 22.184H164.976L166.768 29.24L168.592 22.184H170.384ZM174.947 31.144C174.254 31.144 173.63 31.0213 173.075 30.776C172.531 30.52 172.099 30.1787 171.779 29.752C171.459 29.3147 171.288 28.8293 171.267 28.296H173.155C173.187 28.6693 173.363 28.984 173.683 29.24C174.014 29.4853 174.424 29.608 174.915 29.608C175.427 29.608 175.822 29.512 176.099 29.32C176.387 29.1173 176.531 28.8613 176.531 28.552C176.531 28.2213 176.371 27.976 176.051 27.816C175.742 27.656 175.246 27.48 174.563 27.288C173.902 27.1067 173.363 26.9307 172.947 26.76C172.531 26.5893 172.168 26.328 171.859 25.976C171.56 25.624 171.411 25.16 171.411 24.584C171.411 24.1147 171.55 23.688 171.827 23.304C172.104 22.9093 172.499 22.6 173.011 22.376C173.534 22.152 174.131 22.04 174.803 22.04C175.806 22.04 176.611 22.296 177.219 22.808C177.838 23.3093 178.168 23.9973 178.211 24.872H176.387C176.355 24.4773 176.195 24.1627 175.907 23.928C175.619 23.6933 175.23 23.576 174.739 23.576C174.259 23.576 173.891 23.6667 173.635 23.848C173.379 24.0293 173.251 24.2693 173.251 24.568C173.251 24.8027 173.336 25 173.507 25.16C173.678 25.32 173.886 25.448 174.131 25.544C174.376 25.6293 174.739 25.7413 175.219 25.88C175.859 26.0507 176.382 26.2267 176.787 26.408C177.203 26.5787 177.56 26.8347 177.859 27.176C178.158 27.5173 178.312 27.9707 178.323 28.536C178.323 29.0373 178.184 29.4853 177.907 29.88C177.63 30.2747 177.235 30.584 176.723 30.808C176.222 31.032 175.63 31.144 174.947 31.144ZM182.118 19.16V31H180.294V19.16H182.118ZM192.593 26.376C192.593 26.7067 192.571 27.0053 192.529 27.272H185.793C185.846 27.976 186.107 28.5413 186.577 28.968C187.046 29.3947 187.622 29.608 188.305 29.608C189.286 29.608 189.979 29.1973 190.385 28.376H192.352C192.086 29.1867 191.601 29.8533 190.897 30.376C190.203 30.888 189.339 31.144 188.305 31.144C187.462 31.144 186.705 30.9573 186.033 30.584C185.371 30.2 184.849 29.6667 184.465 28.984C184.091 28.2907 183.905 27.4907 183.905 26.584C183.905 25.6773 184.086 24.8827 184.449 24.2C184.822 23.5067 185.339 22.9733 186.001 22.6C186.673 22.2267 187.441 22.04 188.305 22.04C189.137 22.04 189.878 22.2213 190.529 22.584C191.179 22.9467 191.686 23.4587 192.049 24.12C192.411 24.7707 192.593 25.5227 192.593 26.376ZM190.689 25.8C190.678 25.128 190.438 24.5893 189.969 24.184C189.499 23.7787 188.918 23.576 188.225 23.576C187.595 23.576 187.057 23.7787 186.609 24.184C186.161 24.5787 185.894 25.1173 185.809 25.8H190.689ZM196.516 23.672V28.552C196.516 28.8827 196.59 29.1227 196.74 29.272C196.9 29.4107 197.166 29.48 197.54 29.48H198.66V31H197.22C196.398 31 195.769 30.808 195.332 30.424C194.894 30.04 194.676 29.416 194.676 28.552V23.672H193.636V22.184H194.676V19.992H196.516V22.184H198.66V23.672H196.516ZM202.469 23.672V28.552C202.469 28.8827 202.543 29.1227 202.693 29.272C202.853 29.4107 203.119 29.48 203.493 29.48H204.613V31H203.173C202.351 31 201.722 30.808 201.285 30.424C200.847 30.04 200.629 29.416 200.629 28.552V23.672H199.589V22.184H200.629V19.992H202.469V22.184H204.613V23.672H202.469ZM214.374 26.376C214.374 26.7067 214.352 27.0053 214.31 27.272H207.574C207.627 27.976 207.888 28.5413 208.358 28.968C208.827 29.3947 209.403 29.608 210.086 29.608C211.067 29.608 211.76 29.1973 212.166 28.376H214.134C213.867 29.1867 213.382 29.8533 212.678 30.376C211.984 30.888 211.12 31.144 210.086 31.144C209.243 31.144 208.486 30.9573 207.814 30.584C207.152 30.2 206.63 29.6667 206.246 28.984C205.872 28.2907 205.686 27.4907 205.686 26.584C205.686 25.6773 205.867 24.8827 206.23 24.2C206.603 23.5067 207.12 22.9733 207.782 22.6C208.454 22.2267 209.222 22.04 210.086 22.04C210.918 22.04 211.659 22.2213 212.31 22.584C212.96 22.9467 213.467 23.4587 213.83 24.12C214.192 24.7707 214.374 25.5227 214.374 26.376ZM212.47 25.8C212.459 25.128 212.219 24.5893 211.75 24.184C211.28 23.7787 210.699 23.576 210.006 23.576C209.376 23.576 208.838 23.7787 208.39 24.184C207.942 24.5787 207.675 25.1173 207.59 25.8H212.47ZM217.993 23.464C218.259 23.016 218.611 22.6693 219.049 22.424C219.497 22.168 220.025 22.04 220.633 22.04V23.928H220.169C219.454 23.928 218.91 24.1093 218.537 24.472C218.174 24.8347 217.993 25.464 217.993 26.36V31H216.169V22.184H217.993V23.464Z" fill="#EB1700"/>
</svg>
