<svg width="170" height="40" viewBox="0 0 170 40" fill="none" xmlns="http://www.w3.org/2000/svg">
<path d="M0.0257568 20C0.0257568 8.95431 8.98006 0 20.0258 0H149.026C160.071 0 169.026 8.95431 169.026 20C169.026 31.0457 160.071 40 149.026 40H20.0258C8.98006 40 0.0257568 31.0457 0.0257568 20Z" fill="#FFEDEB"/>
<path d="M30.1298 25L27.8898 21.108H26.6718V25H25.0758V15.27H28.4358C29.1824 15.27 29.8124 15.4007 30.3258 15.662C30.8484 15.9233 31.2358 16.2733 31.4878 16.712C31.7491 17.1507 31.8798 17.6407 31.8798 18.182C31.8798 18.8167 31.6931 19.3953 31.3198 19.918C30.9558 20.4313 30.3911 20.7813 29.6258 20.968L32.0338 25H30.1298ZM26.6718 19.834H28.4358C29.0331 19.834 29.4811 19.6847 29.7798 19.386C30.0878 19.0873 30.2418 18.686 30.2418 18.182C30.2418 17.678 30.0924 17.286 29.7938 17.006C29.4951 16.7167 29.0424 16.572 28.4358 16.572H26.6718V19.834ZM40.9915 20.954C40.9915 21.2433 40.9728 21.5047 40.9355 21.738H35.0415C35.0881 22.354 35.3168 22.8487 35.7275 23.222C36.1381 23.5953 36.6421 23.782 37.2395 23.782C38.0981 23.782 38.7048 23.4227 39.0595 22.704H40.7815C40.5481 23.4133 40.1235 23.9967 39.5075 24.454C38.9008 24.902 38.1448 25.126 37.2395 25.126C36.5021 25.126 35.8395 24.9627 35.2515 24.636C34.6728 24.3 34.2155 23.8333 33.8795 23.236C33.5528 22.6293 33.3895 21.9293 33.3895 21.136C33.3895 20.3427 33.5481 19.6473 33.8655 19.05C34.1921 18.4433 34.6448 17.9767 35.2235 17.65C35.8115 17.3233 36.4835 17.16 37.2395 17.16C37.9675 17.16 38.6161 17.3187 39.1855 17.636C39.7548 17.9533 40.1981 18.4013 40.5155 18.98C40.8328 19.5493 40.9915 20.2073 40.9915 20.954ZM39.3255 20.45C39.3161 19.862 39.1061 19.3907 38.6955 19.036C38.2848 18.6813 37.7761 18.504 37.1695 18.504C36.6188 18.504 36.1475 18.6813 35.7555 19.036C35.3635 19.3813 35.1301 19.8527 35.0555 20.45H39.3255ZM42.0301 21.108C42.0301 20.3333 42.1888 19.6473 42.5061 19.05C42.8328 18.4527 43.2714 17.9907 43.8221 17.664C44.3821 17.328 44.9981 17.16 45.6701 17.16C46.2768 17.16 46.8041 17.2813 47.2521 17.524C47.7094 17.7573 48.0734 18.0513 48.3441 18.406V17.286H49.9541V25H48.3441V23.852C48.0734 24.216 47.7048 24.5193 47.2381 24.762C46.7714 25.0047 46.2394 25.126 45.6421 25.126C44.9794 25.126 44.3728 24.958 43.8221 24.622C43.2714 24.2767 42.8328 23.8007 42.5061 23.194C42.1888 22.578 42.0301 21.8827 42.0301 21.108ZM48.3441 21.136C48.3441 20.604 48.2321 20.142 48.0081 19.75C47.7934 19.358 47.5088 19.0593 47.1541 18.854C46.7994 18.6487 46.4168 18.546 46.0061 18.546C45.5954 18.546 45.2128 18.6487 44.8581 18.854C44.5034 19.05 44.2141 19.344 43.9901 19.736C43.7754 20.1187 43.6681 20.576 43.6681 21.108C43.6681 21.64 43.7754 22.1067 43.9901 22.508C44.2141 22.9093 44.5034 23.2173 44.8581 23.432C45.2221 23.6373 45.6048 23.74 46.0061 23.74C46.4168 23.74 46.7994 23.6373 47.1541 23.432C47.5088 23.2267 47.7934 22.928 48.0081 22.536C48.2321 22.1347 48.3441 21.668 48.3441 21.136ZM51.5184 21.108C51.5184 20.3333 51.677 19.6473 51.9944 19.05C52.321 18.4527 52.7597 17.9907 53.3104 17.664C53.8704 17.328 54.491 17.16 55.1724 17.16C55.6764 17.16 56.171 17.272 56.6564 17.496C57.151 17.7107 57.543 18 57.8324 18.364V14.64H59.4424V25H57.8324V23.838C57.571 24.2113 57.207 24.5193 56.7404 24.762C56.283 25.0047 55.7557 25.126 55.1584 25.126C54.4864 25.126 53.8704 24.958 53.3104 24.622C52.7597 24.2767 52.321 23.8007 51.9944 23.194C51.677 22.578 51.5184 21.8827 51.5184 21.108ZM57.8324 21.136C57.8324 20.604 57.7204 20.142 57.4964 19.75C57.2817 19.358 56.997 19.0593 56.6424 18.854C56.2877 18.6487 55.905 18.546 55.4944 18.546C55.0837 18.546 54.701 18.6487 54.3464 18.854C53.9917 19.05 53.7024 19.344 53.4784 19.736C53.2637 20.1187 53.1564 20.576 53.1564 21.108C53.1564 21.64 53.2637 22.1067 53.4784 22.508C53.7024 22.9093 53.9917 23.2173 54.3464 23.432C54.7104 23.6373 55.093 23.74 55.4944 23.74C55.905 23.74 56.2877 23.6373 56.6424 23.432C56.997 23.2267 57.2817 22.928 57.4964 22.536C57.7204 22.1347 57.8324 21.668 57.8324 21.136ZM64.6434 20.114C64.6434 19.162 64.8627 18.308 65.3014 17.552C65.7494 16.796 66.3514 16.208 67.1074 15.788C67.8727 15.3587 68.708 15.144 69.6134 15.144C70.6494 15.144 71.5687 15.4007 72.3714 15.914C73.1834 16.418 73.7714 17.1367 74.1354 18.07H72.2174C71.9654 17.5567 71.6154 17.174 71.1674 16.922C70.7194 16.67 70.2014 16.544 69.6134 16.544C68.9694 16.544 68.3954 16.6887 67.8914 16.978C67.3874 17.2673 66.9907 17.6827 66.7014 18.224C66.4214 18.7653 66.2814 19.3953 66.2814 20.114C66.2814 20.8327 66.4214 21.4627 66.7014 22.004C66.9907 22.5453 67.3874 22.9653 67.8914 23.264C68.3954 23.5533 68.9694 23.698 69.6134 23.698C70.2014 23.698 70.7194 23.572 71.1674 23.32C71.6154 23.068 71.9654 22.6853 72.2174 22.172H74.1354C73.7714 23.1053 73.1834 23.824 72.3714 24.328C71.5687 24.832 70.6494 25.084 69.6134 25.084C68.6987 25.084 67.8634 24.874 67.1074 24.454C66.3514 24.0247 65.7494 23.432 65.3014 22.676C64.8627 21.92 64.6434 21.066 64.6434 20.114ZM75.4715 21.108C75.4715 20.3333 75.6302 19.6473 75.9475 19.05C76.2742 18.4527 76.7128 17.9907 77.2635 17.664C77.8235 17.328 78.4395 17.16 79.1115 17.16C79.7182 17.16 80.2455 17.2813 80.6935 17.524C81.1508 17.7573 81.5148 18.0513 81.7855 18.406V17.286H83.3955V25H81.7855V23.852C81.5148 24.216 81.1462 24.5193 80.6795 24.762C80.2128 25.0047 79.6808 25.126 79.0835 25.126C78.4208 25.126 77.8142 24.958 77.2635 24.622C76.7128 24.2767 76.2742 23.8007 75.9475 23.194C75.6302 22.578 75.4715 21.8827 75.4715 21.108ZM81.7855 21.136C81.7855 20.604 81.6735 20.142 81.4495 19.75C81.2348 19.358 80.9502 19.0593 80.5955 18.854C80.2408 18.6487 79.8582 18.546 79.4475 18.546C79.0368 18.546 78.6542 18.6487 78.2995 18.854C77.9448 19.05 77.6555 19.344 77.4315 19.736C77.2168 20.1187 77.1095 20.576 77.1095 21.108C77.1095 21.64 77.2168 22.1067 77.4315 22.508C77.6555 22.9093 77.9448 23.2173 78.2995 23.432C78.6635 23.6373 79.0462 23.74 79.4475 23.74C79.8582 23.74 80.2408 23.6373 80.5955 23.432C80.9502 23.2267 81.2348 22.928 81.4495 22.536C81.6735 22.1347 81.7855 21.668 81.7855 21.136ZM88.2918 25.126C87.6851 25.126 87.1391 25.0187 86.6538 24.804C86.1778 24.58 85.7998 24.2813 85.5198 23.908C85.2398 23.5253 85.0904 23.1007 85.0718 22.634H86.7238C86.7518 22.9607 86.9058 23.236 87.1858 23.46C87.4751 23.6747 87.8344 23.782 88.2638 23.782C88.7118 23.782 89.0571 23.698 89.2998 23.53C89.5518 23.3527 89.6778 23.1287 89.6778 22.858C89.6778 22.5687 89.5378 22.354 89.2578 22.214C88.9871 22.074 88.5531 21.92 87.9558 21.752C87.3771 21.5933 86.9058 21.4393 86.5418 21.29C86.1778 21.1407 85.8604 20.912 85.5898 20.604C85.3284 20.296 85.1978 19.89 85.1978 19.386C85.1978 18.9753 85.3191 18.602 85.5618 18.266C85.8044 17.9207 86.1498 17.65 86.5978 17.454C87.0551 17.258 87.5778 17.16 88.1658 17.16C89.0431 17.16 89.7478 17.384 90.2798 17.832C90.8211 18.2707 91.1104 18.8727 91.1478 19.638H89.5518C89.5238 19.2927 89.3838 19.0173 89.1318 18.812C88.8798 18.6067 88.5391 18.504 88.1098 18.504C87.6898 18.504 87.3678 18.5833 87.1438 18.742C86.9198 18.9007 86.8078 19.1107 86.8078 19.372C86.8078 19.5773 86.8824 19.75 87.0318 19.89C87.1811 20.03 87.3631 20.142 87.5778 20.226C87.7924 20.3007 88.1098 20.3987 88.5298 20.52C89.0898 20.6693 89.5471 20.8233 89.9018 20.982C90.2658 21.1313 90.5784 21.3553 90.8398 21.654C91.1011 21.9527 91.2364 22.3493 91.2458 22.844C91.2458 23.2827 91.1244 23.6747 90.8818 24.02C90.6391 24.3653 90.2938 24.636 89.8458 24.832C89.4071 25.028 88.8891 25.126 88.2918 25.126ZM100.04 20.954C100.04 21.2433 100.022 21.5047 99.9843 21.738H94.0903C94.137 22.354 94.3656 22.8487 94.7763 23.222C95.187 23.5953 95.691 23.782 96.2883 23.782C97.147 23.782 97.7536 23.4227 98.1083 22.704H99.8303C99.597 23.4133 99.1723 23.9967 98.5563 24.454C97.9496 24.902 97.1936 25.126 96.2883 25.126C95.551 25.126 94.8883 24.9627 94.3003 24.636C93.7216 24.3 93.2643 23.8333 92.9283 23.236C92.6016 22.6293 92.4383 21.9293 92.4383 21.136C92.4383 20.3427 92.597 19.6473 92.9143 19.05C93.241 18.4433 93.6936 17.9767 94.2723 17.65C94.8603 17.3233 95.5323 17.16 96.2883 17.16C97.0163 17.16 97.665 17.3187 98.2343 17.636C98.8036 17.9533 99.247 18.4013 99.5643 18.98C99.8816 19.5493 100.04 20.2073 100.04 20.954ZM98.3743 20.45C98.365 19.862 98.155 19.3907 97.7443 19.036C97.3336 18.6813 96.825 18.504 96.2183 18.504C95.6676 18.504 95.1963 18.6813 94.8043 19.036C94.4123 19.3813 94.179 19.8527 94.1043 20.45H98.3743ZM108.454 25.098C107.8 25.098 107.212 24.986 106.69 24.762C106.167 24.5287 105.756 24.202 105.458 23.782C105.159 23.362 105.01 22.872 105.01 22.312H106.718C106.755 22.732 106.918 23.0773 107.208 23.348C107.506 23.6187 107.922 23.754 108.454 23.754C109.004 23.754 109.434 23.6233 109.742 23.362C110.05 23.0913 110.204 22.746 110.204 22.326C110.204 21.9993 110.106 21.7333 109.91 21.528C109.723 21.3227 109.485 21.164 109.196 21.052C108.916 20.94 108.524 20.8187 108.02 20.688C107.385 20.52 106.867 20.352 106.466 20.184C106.074 20.0067 105.738 19.736 105.458 19.372C105.178 19.008 105.038 18.5227 105.038 17.916C105.038 17.356 105.178 16.866 105.458 16.446C105.738 16.026 106.13 15.704 106.634 15.48C107.138 15.256 107.721 15.144 108.384 15.144C109.326 15.144 110.096 15.382 110.694 15.858C111.3 16.3247 111.636 16.9687 111.702 17.79H109.938C109.91 17.4353 109.742 17.132 109.434 16.88C109.126 16.628 108.72 16.502 108.216 16.502C107.758 16.502 107.385 16.6187 107.096 16.852C106.806 17.0853 106.662 17.4213 106.662 17.86C106.662 18.1587 106.75 18.406 106.928 18.602C107.114 18.7887 107.348 18.938 107.628 19.05C107.908 19.162 108.29 19.2833 108.776 19.414C109.42 19.5913 109.942 19.7687 110.344 19.946C110.754 20.1233 111.1 20.3987 111.38 20.772C111.669 21.136 111.814 21.626 111.814 22.242C111.814 22.7367 111.678 23.2033 111.408 23.642C111.146 24.0807 110.759 24.4353 110.246 24.706C109.742 24.9673 109.144 25.098 108.454 25.098ZM115.559 18.588V22.858C115.559 23.1473 115.624 23.3573 115.755 23.488C115.895 23.6093 116.128 23.67 116.455 23.67H117.435V25H116.175C115.456 25 114.906 24.832 114.523 24.496C114.14 24.16 113.949 23.614 113.949 22.858V18.588H113.039V17.286H113.949V15.368H115.559V17.286H117.435V18.588H115.559ZM125.892 17.286V25H124.296V24.09C124.044 24.4073 123.713 24.6593 123.302 24.846C122.901 25.0233 122.471 25.112 122.014 25.112C121.407 25.112 120.861 24.986 120.376 24.734C119.9 24.482 119.522 24.1087 119.242 23.614C118.971 23.1193 118.836 22.522 118.836 21.822V17.286H120.418V21.584C120.418 22.2747 120.591 22.8067 120.936 23.18C121.281 23.544 121.753 23.726 122.35 23.726C122.947 23.726 123.419 23.544 123.764 23.18C124.119 22.8067 124.296 22.2747 124.296 21.584V17.286H125.892ZM127.466 21.108C127.466 20.3333 127.624 19.6473 127.942 19.05C128.268 18.4527 128.707 17.9907 129.258 17.664C129.818 17.328 130.438 17.16 131.12 17.16C131.624 17.16 132.118 17.272 132.604 17.496C133.098 17.7107 133.49 18 133.78 18.364V14.64H135.39V25H133.78V23.838C133.518 24.2113 133.154 24.5193 132.688 24.762C132.23 25.0047 131.703 25.126 131.106 25.126C130.434 25.126 129.818 24.958 129.258 24.622C128.707 24.2767 128.268 23.8007 127.942 23.194C127.624 22.578 127.466 21.8827 127.466 21.108ZM133.78 21.136C133.78 20.604 133.668 20.142 133.444 19.75C133.229 19.358 132.944 19.0593 132.59 18.854C132.235 18.6487 131.852 18.546 131.442 18.546C131.031 18.546 130.648 18.6487 130.294 18.854C129.939 19.05 129.65 19.344 129.426 19.736C129.211 20.1187 129.104 20.576 129.104 21.108C129.104 21.64 129.211 22.1067 129.426 22.508C129.65 22.9093 129.939 23.2173 130.294 23.432C130.658 23.6373 131.04 23.74 131.442 23.74C131.852 23.74 132.235 23.6373 132.59 23.432C132.944 23.2267 133.229 22.928 133.444 22.536C133.668 22.1347 133.78 21.668 133.78 21.136ZM144.43 17.286L139.698 28.626H138.046L139.614 24.874L136.576 17.286H138.354L140.524 23.166L142.778 17.286H144.43Z" fill="#E91700"/>
</svg>
