<svg width="94" height="93" viewBox="0 0 94 93" fill="none" xmlns="http://www.w3.org/2000/svg">
<path d="M0.5 46.5C0.5 20.8188 21.3188 0 47 0C72.6812 0 93.5 20.8188 93.5 46.5C93.5 72.1812 72.6812 93 47 93C21.3188 93 0.5 72.1812 0.5 46.5Z" fill="#FFF6F5"/>
<path d="M63.4175 30.8286H30.5825C29.7908 30.8286 29.0316 31.1431 28.4718 31.7029C27.912 32.2627 27.5975 33.0219 27.5975 33.8136V59.1861C27.5975 59.9778 27.912 60.737 28.4718 61.2968C29.0316 61.8566 29.7908 62.1711 30.5825 62.1711H63.4175C64.2091 62.1711 64.9684 61.8566 65.5282 61.2968C66.088 60.737 66.4025 59.9778 66.4025 59.1861V33.8136C66.4025 33.0219 66.088 32.2627 65.5282 31.7029C64.9684 31.1431 64.2091 30.8286 63.4175 30.8286Z" fill="#FFDFDC"/>
<path d="M63.4175 30.8286H30.5825C29.7908 30.8286 29.0316 31.1431 28.4718 31.7029C27.912 32.2627 27.5975 33.0219 27.5975 33.8136V59.1861C27.5975 59.9778 27.912 60.737 28.4718 61.2968C29.0316 61.8566 29.7908 62.1711 30.5825 62.1711H63.4175C64.2091 62.1711 64.9684 61.8566 65.5282 61.2968C66.088 60.737 66.4025 59.9778 66.4025 59.1861V33.8136C66.4025 33.0219 66.088 32.2627 65.5282 31.7029C64.9684 31.1431 64.2091 30.8286 63.4175 30.8286Z" stroke="#EB1700" stroke-width="3.21" stroke-linecap="round" stroke-linejoin="round"/>
<path d="M27.5975 34.5601L45.0896 49.4851C45.6259 49.9318 46.3019 50.1765 47 50.1765C47.698 50.1765 48.374 49.9318 48.9104 49.4851L66.4025 34.5601" stroke="#EB1700" stroke-width="3.21" stroke-linecap="round" stroke-linejoin="round"/>
</svg>
