<svg width="478" height="106" viewBox="0 0 478 106" fill="none" xmlns="http://www.w3.org/2000/svg">
<path d="M114 30H110.352L99.3761 13.392V30H95.7281V7.728H99.3761L110.352 24.304V7.728H114V30ZM134.951 20.752C134.951 21.4133 134.908 22.0107 134.823 22.544H121.351C121.457 23.952 121.98 25.0827 122.919 25.936C123.857 26.7893 125.009 27.216 126.375 27.216C128.337 27.216 129.724 26.3947 130.535 24.752H134.471C133.937 26.3733 132.967 27.7067 131.559 28.752C130.172 29.776 128.444 30.288 126.375 30.288C124.689 30.288 123.175 29.9147 121.831 29.168C120.508 28.4 119.463 27.3333 118.695 25.968C117.948 24.5813 117.575 22.9813 117.575 21.168C117.575 19.3547 117.937 17.7653 118.663 16.4C119.409 15.0133 120.444 13.9467 121.767 13.2C123.111 12.4533 124.647 12.08 126.375 12.08C128.039 12.08 129.521 12.4427 130.823 13.168C132.124 13.8933 133.137 14.9173 133.863 16.24C134.588 17.5413 134.951 19.0453 134.951 20.752ZM131.143 19.6C131.121 18.256 130.641 17.1787 129.703 16.368C128.764 15.5573 127.601 15.152 126.215 15.152C124.956 15.152 123.879 15.5573 122.983 16.368C122.087 17.1573 121.553 18.2347 121.383 19.6H131.143ZM162.221 12.368L156.749 30H152.909L149.357 16.976L145.805 30H141.965L136.461 12.368H140.173L143.853 26.544L147.597 12.368H151.405L154.989 26.48L158.637 12.368H162.221ZM171.347 30.288C169.96 30.288 168.712 30.0427 167.603 29.552C166.515 29.04 165.651 28.3573 165.011 27.504C164.371 26.6293 164.03 25.6587 163.987 24.592H167.763C167.827 25.3387 168.179 25.968 168.819 26.48C169.48 26.9707 170.302 27.216 171.283 27.216C172.307 27.216 173.096 27.024 173.651 26.64C174.227 26.2347 174.515 25.7227 174.515 25.104C174.515 24.4427 174.195 23.952 173.555 23.632C172.936 23.312 171.944 22.96 170.579 22.576C169.256 22.2133 168.179 21.8613 167.347 21.52C166.515 21.1787 165.79 20.656 165.171 19.952C164.574 19.248 164.275 18.32 164.275 17.168C164.275 16.2293 164.552 15.376 165.107 14.608C165.662 13.8187 166.451 13.2 167.475 12.752C168.52 12.304 169.715 12.08 171.059 12.08C173.064 12.08 174.675 12.592 175.891 13.616C177.128 14.6187 177.79 15.9947 177.875 17.744H174.227C174.163 16.9547 173.843 16.3253 173.267 15.856C172.691 15.3867 171.912 15.152 170.931 15.152C169.971 15.152 169.235 15.3333 168.723 15.696C168.211 16.0587 167.955 16.5387 167.955 17.136C167.955 17.6053 168.126 18 168.467 18.32C168.808 18.64 169.224 18.896 169.715 19.088C170.206 19.2587 170.931 19.4827 171.891 19.76C173.171 20.1013 174.216 20.4533 175.027 20.816C175.859 21.1573 176.574 21.6693 177.171 22.352C177.768 23.0347 178.078 23.9413 178.099 25.072C178.099 26.0747 177.822 26.9707 177.267 27.76C176.712 28.5493 175.923 29.168 174.899 29.616C173.896 30.064 172.712 30.288 171.347 30.288ZM185.689 6.32V30H182.041V6.32H185.689ZM206.638 20.752C206.638 21.4133 206.595 22.0107 206.51 22.544H193.038C193.145 23.952 193.667 25.0827 194.606 25.936C195.545 26.7893 196.697 27.216 198.062 27.216C200.025 27.216 201.411 26.3947 202.222 24.752H206.158C205.625 26.3733 204.654 27.7067 203.246 28.752C201.859 29.776 200.131 30.288 198.062 30.288C196.377 30.288 194.862 29.9147 193.518 29.168C192.195 28.4 191.15 27.3333 190.382 25.968C189.635 24.5813 189.262 22.9813 189.262 21.168C189.262 19.3547 189.625 17.7653 190.35 16.4C191.097 15.0133 192.131 13.9467 193.454 13.2C194.798 12.4533 196.334 12.08 198.062 12.08C199.726 12.08 201.209 12.4427 202.51 13.168C203.811 13.8933 204.825 14.9173 205.55 16.24C206.275 17.5413 206.638 19.0453 206.638 20.752ZM202.83 19.6C202.809 18.256 202.329 17.1787 201.39 16.368C200.451 15.5573 199.289 15.152 197.902 15.152C196.643 15.152 195.566 15.5573 194.67 16.368C193.774 17.1573 193.241 18.2347 193.07 19.6H202.83ZM214.484 15.344V25.104C214.484 25.7653 214.633 26.2453 214.932 26.544C215.252 26.8213 215.785 26.96 216.532 26.96H218.772V30H215.892C214.249 30 212.991 29.616 212.116 28.848C211.241 28.08 210.804 26.832 210.804 25.104V15.344H208.724V12.368H210.804V7.984H214.484V12.368H218.772V15.344H214.484ZM226.39 15.344V25.104C226.39 25.7653 226.54 26.2453 226.838 26.544C227.158 26.8213 227.692 26.96 228.438 26.96H230.678V30H227.798C226.156 30 224.897 29.616 224.022 28.848C223.148 28.08 222.71 26.832 222.71 25.104V15.344H220.63V12.368H222.71V7.984H226.39V12.368H230.678V15.344H226.39ZM250.201 20.752C250.201 21.4133 250.158 22.0107 250.073 22.544H236.601C236.707 23.952 237.23 25.0827 238.169 25.936C239.107 26.7893 240.259 27.216 241.625 27.216C243.587 27.216 244.974 26.3947 245.785 24.752H249.721C249.187 26.3733 248.217 27.7067 246.809 28.752C245.422 29.776 243.694 30.288 241.625 30.288C239.939 30.288 238.425 29.9147 237.081 29.168C235.758 28.4 234.713 27.3333 233.945 25.968C233.198 24.5813 232.825 22.9813 232.825 21.168C232.825 19.3547 233.187 17.7653 233.913 16.4C234.659 15.0133 235.694 13.9467 237.017 13.2C238.361 12.4533 239.897 12.08 241.625 12.08C243.289 12.08 244.771 12.4427 246.073 13.168C247.374 13.8933 248.387 14.9173 249.113 16.24C249.838 17.5413 250.201 19.0453 250.201 20.752ZM246.393 19.6C246.371 18.256 245.891 17.1787 244.953 16.368C244.014 15.5573 242.851 15.152 241.465 15.152C240.206 15.152 239.129 15.5573 238.233 16.368C237.337 17.1573 236.803 18.2347 236.633 19.6H246.393ZM257.439 14.928C257.972 14.032 258.676 13.3387 259.551 12.848C260.447 12.336 261.503 12.08 262.719 12.08V15.856H261.791C260.361 15.856 259.273 16.2187 258.527 16.944C257.801 17.6693 257.439 18.928 257.439 20.72V30H253.791V12.368H257.439V14.928ZM281.712 30.224C280.219 30.224 278.875 29.968 277.68 29.456C276.486 28.9227 275.547 28.176 274.864 27.216C274.182 26.256 273.84 25.136 273.84 23.856H277.744C277.83 24.816 278.203 25.6053 278.864 26.224C279.547 26.8427 280.496 27.152 281.712 27.152C282.971 27.152 283.952 26.8533 284.656 26.256C285.36 25.6373 285.712 24.848 285.712 23.888C285.712 23.1413 285.488 22.5333 285.04 22.064C284.614 21.5947 284.07 21.232 283.408 20.976C282.768 20.72 281.872 20.4427 280.72 20.144C279.27 19.76 278.086 19.376 277.168 18.992C276.272 18.5867 275.504 17.968 274.864 17.136C274.224 16.304 273.904 15.1947 273.904 13.808C273.904 12.528 274.224 11.408 274.864 10.448C275.504 9.488 276.4 8.752 277.552 8.24C278.704 7.728 280.038 7.472 281.552 7.472C283.707 7.472 285.467 8.016 286.832 9.104C288.219 10.1707 288.987 11.6427 289.136 13.52H285.104C285.04 12.7093 284.656 12.016 283.952 11.44C283.248 10.864 282.32 10.576 281.168 10.576C280.123 10.576 279.27 10.8427 278.608 11.376C277.947 11.9093 277.616 12.6773 277.616 13.68C277.616 14.3627 277.819 14.928 278.224 15.376C278.651 15.8027 279.184 16.144 279.824 16.4C280.464 16.656 281.339 16.9333 282.448 17.232C283.92 17.6373 285.115 18.0427 286.032 18.448C286.971 18.8533 287.76 19.4827 288.4 20.336C289.062 21.168 289.392 22.288 289.392 23.696C289.392 24.8267 289.083 25.8933 288.464 26.896C287.867 27.8987 286.982 28.7093 285.808 29.328C284.656 29.9253 283.291 30.224 281.712 30.224ZM295.553 10.032C294.892 10.032 294.337 9.808 293.889 9.36C293.441 8.912 293.217 8.35733 293.217 7.696C293.217 7.03467 293.441 6.48 293.889 6.032C294.337 5.584 294.892 5.36 295.553 5.36C296.193 5.36 296.737 5.584 297.185 6.032C297.633 6.48 297.857 7.03467 297.857 7.696C297.857 8.35733 297.633 8.912 297.185 9.36C296.737 9.808 296.193 10.032 295.553 10.032ZM297.345 12.368V30H293.697V12.368H297.345ZM309.238 12.08C310.604 12.08 311.809 12.3573 312.854 12.912C313.921 13.4453 314.753 14.1173 315.35 14.928V12.368H319.03V30.288C319.03 31.9093 318.689 33.3493 318.006 34.608C317.324 35.888 316.332 36.8907 315.03 37.616C313.75 38.3413 312.214 38.704 310.422 38.704C308.033 38.704 306.049 38.1387 304.47 37.008C302.892 35.8987 301.996 34.384 301.782 32.464H305.398C305.676 33.3813 306.262 34.1173 307.158 34.672C308.076 35.248 309.164 35.536 310.422 35.536C311.894 35.536 313.078 35.088 313.974 34.192C314.892 33.296 315.35 31.9947 315.35 30.288V27.344C314.732 28.176 313.889 28.88 312.822 29.456C311.777 30.0107 310.582 30.288 309.238 30.288C307.702 30.288 306.294 29.904 305.014 29.136C303.756 28.3467 302.753 27.2587 302.006 25.872C301.281 24.464 300.918 22.8747 300.918 21.104C300.918 19.3333 301.281 17.7653 302.006 16.4C302.753 15.0347 303.756 13.9787 305.014 13.232C306.294 12.464 307.702 12.08 309.238 12.08ZM315.35 21.168C315.35 19.952 315.094 18.896 314.582 18C314.092 17.104 313.441 16.4213 312.63 15.952C311.82 15.4827 310.945 15.248 310.006 15.248C309.068 15.248 308.193 15.4827 307.382 15.952C306.572 16.4 305.91 17.072 305.398 17.968C304.908 18.8427 304.662 19.888 304.662 21.104C304.662 22.32 304.908 23.3867 305.398 24.304C305.91 25.2213 306.572 25.9253 307.382 26.416C308.214 26.8853 309.089 27.12 310.006 27.12C310.945 27.12 311.82 26.8853 312.63 26.416C313.441 25.9467 314.092 25.264 314.582 24.368C315.094 23.4507 315.35 22.384 315.35 21.168ZM332.718 12.08C334.105 12.08 335.342 12.368 336.43 12.944C337.539 13.52 338.403 14.3733 339.022 15.504C339.641 16.6347 339.95 18 339.95 19.6V30H336.334V20.144C336.334 18.5653 335.939 17.36 335.15 16.528C334.361 15.6747 333.283 15.248 331.918 15.248C330.553 15.248 329.465 15.6747 328.654 16.528C327.865 17.36 327.47 18.5653 327.47 20.144V30H323.822V12.368H327.47V14.384C328.067 13.6587 328.825 13.0933 329.742 12.688C330.681 12.2827 331.673 12.08 332.718 12.08ZM360.571 12.368V30H356.923V27.92C356.347 28.6453 355.59 29.2213 354.651 29.648C353.734 30.0533 352.752 30.256 351.707 30.256C350.32 30.256 349.072 29.968 347.963 29.392C346.875 28.816 346.011 27.9627 345.371 26.832C344.752 25.7013 344.443 24.336 344.443 22.736V12.368H348.059V22.192C348.059 23.7707 348.454 24.9867 349.243 25.84C350.032 26.672 351.11 27.088 352.475 27.088C353.84 27.088 354.918 26.672 355.707 25.84C356.518 24.9867 356.923 23.7707 356.923 22.192V12.368H360.571ZM369.032 14.96C369.651 14.1493 370.494 13.4667 371.56 12.912C372.627 12.3573 373.832 12.08 375.176 12.08C376.712 12.08 378.11 12.464 379.368 13.232C380.648 13.9787 381.651 15.0347 382.376 16.4C383.102 17.7653 383.464 19.3333 383.464 21.104C383.464 22.8747 383.102 24.464 382.376 25.872C381.651 27.2587 380.648 28.3467 379.368 29.136C378.11 29.904 376.712 30.288 375.176 30.288C373.832 30.288 372.638 30.0213 371.592 29.488C370.547 28.9333 369.694 28.2507 369.032 27.44V38.384H365.384V12.368H369.032V14.96ZM379.752 21.104C379.752 19.888 379.496 18.8427 378.984 17.968C378.494 17.072 377.832 16.4 377 15.952C376.19 15.4827 375.315 15.248 374.376 15.248C373.459 15.248 372.584 15.4827 371.752 15.952C370.942 16.4213 370.28 17.104 369.768 18C369.278 18.896 369.032 19.952 369.032 21.168C369.032 22.384 369.278 23.4507 369.768 24.368C370.28 25.264 370.942 25.9467 371.752 26.416C372.584 26.8853 373.459 27.12 374.376 27.12C375.315 27.12 376.19 26.8853 377 26.416C377.832 25.9253 378.494 25.2213 378.984 24.304C379.496 23.3867 379.752 22.32 379.752 21.104Z" fill="black"/>
<path opacity="0.8" d="M124.634 73.119C123.852 73.119 123.15 72.983 122.526 72.711C121.914 72.4277 121.433 72.0423 121.081 71.555C120.73 71.0563 120.549 70.484 120.537 69.838H122.186C122.243 70.3933 122.47 70.8637 122.866 71.249C123.274 71.623 123.864 71.81 124.634 71.81C125.371 71.81 125.949 71.6287 126.368 71.266C126.799 70.892 127.014 70.416 127.014 69.838C127.014 69.3847 126.89 69.0163 126.64 68.733C126.391 68.4497 126.079 68.2343 125.705 68.087C125.331 67.9397 124.827 67.781 124.192 67.611C123.41 67.407 122.781 67.203 122.305 66.999C121.841 66.795 121.438 66.4777 121.098 66.047C120.77 65.605 120.605 65.0157 120.605 64.279C120.605 63.633 120.77 63.0607 121.098 62.562C121.427 62.0633 121.886 61.678 122.475 61.406C123.076 61.134 123.762 60.998 124.532 60.998C125.643 60.998 126.55 61.2757 127.252 61.831C127.966 62.3863 128.369 63.123 128.459 64.041H126.759C126.703 63.5877 126.465 63.191 126.045 62.851C125.626 62.4997 125.071 62.324 124.379 62.324C123.733 62.324 123.206 62.494 122.798 62.834C122.39 63.1627 122.186 63.6273 122.186 64.228C122.186 64.6587 122.305 65.01 122.543 65.282C122.793 65.554 123.093 65.7637 123.444 65.911C123.807 66.047 124.311 66.2057 124.957 66.387C125.739 66.6023 126.368 66.8177 126.844 67.033C127.32 67.237 127.728 67.56 128.068 68.002C128.408 68.4327 128.578 69.022 128.578 69.77C128.578 70.348 128.425 70.892 128.119 71.402C127.813 71.912 127.36 72.3257 126.759 72.643C126.159 72.9603 125.45 73.119 124.634 73.119ZM132.742 64.959V70.45C132.742 70.9033 132.838 71.2263 133.031 71.419C133.224 71.6003 133.558 71.691 134.034 71.691H135.173V73H133.779C132.918 73 132.272 72.8017 131.841 72.405C131.41 72.0083 131.195 71.3567 131.195 70.45V64.959H129.988V63.684H131.195V61.338H132.742V63.684H135.173V64.959H132.742ZM136.469 68.308C136.469 67.356 136.662 66.523 137.047 65.809C137.433 65.0837 137.96 64.5227 138.628 64.126C139.308 63.7293 140.062 63.531 140.889 63.531C141.705 63.531 142.414 63.7067 143.014 64.058C143.615 64.4093 144.063 64.8513 144.357 65.384V63.684H145.921V73H144.357V71.266C144.051 71.81 143.592 72.2633 142.98 72.626C142.38 72.9773 141.677 73.153 140.872 73.153C140.045 73.153 139.297 72.949 138.628 72.541C137.96 72.133 137.433 71.5607 137.047 70.824C136.662 70.0873 136.469 69.2487 136.469 68.308ZM144.357 68.325C144.357 67.6223 144.216 67.0103 143.932 66.489C143.649 65.9677 143.264 65.571 142.776 65.299C142.3 65.0157 141.773 64.874 141.195 64.874C140.617 64.874 140.09 65.01 139.614 65.282C139.138 65.554 138.759 65.9507 138.475 66.472C138.192 66.9933 138.05 67.6053 138.05 68.308C138.05 69.022 138.192 69.6453 138.475 70.178C138.759 70.6993 139.138 71.1017 139.614 71.385C140.09 71.657 140.617 71.793 141.195 71.793C141.773 71.793 142.3 71.657 142.776 71.385C143.264 71.1017 143.649 70.6993 143.932 70.178C144.216 69.6453 144.357 69.0277 144.357 68.325ZM156.56 63.684L150.95 77.386H149.352L151.188 72.898L147.431 63.684H149.148L152.072 71.232L154.962 63.684H156.56ZM170.909 63.684V73H169.362V71.623C169.067 72.099 168.654 72.473 168.121 72.745C167.6 73.0057 167.022 73.136 166.387 73.136C165.662 73.136 165.01 72.9887 164.432 72.694C163.854 72.388 163.395 71.9347 163.055 71.334C162.726 70.7333 162.562 70.0023 162.562 69.141V63.684H164.092V68.937C164.092 69.855 164.324 70.5633 164.789 71.062C165.254 71.5493 165.888 71.793 166.693 71.793C167.52 71.793 168.172 71.538 168.648 71.028C169.124 70.518 169.362 69.7757 169.362 68.801V63.684H170.909ZM175.068 65.401C175.374 64.8683 175.827 64.4263 176.428 64.075C177.04 63.7123 177.748 63.531 178.553 63.531C179.38 63.531 180.128 63.7293 180.797 64.126C181.477 64.5227 182.01 65.0837 182.395 65.809C182.78 66.523 182.973 67.356 182.973 68.308C182.973 69.2487 182.78 70.0873 182.395 70.824C182.01 71.5607 181.477 72.133 180.797 72.541C180.128 72.949 179.38 73.153 178.553 73.153C177.76 73.153 177.057 72.9773 176.445 72.626C175.844 72.2633 175.385 71.8157 175.068 71.283V77.42H173.521V63.684H175.068V65.401ZM181.392 68.308C181.392 67.6053 181.25 66.9933 180.967 66.472C180.684 65.9507 180.298 65.554 179.811 65.282C179.335 65.01 178.808 64.874 178.23 64.874C177.663 64.874 177.136 65.0157 176.649 65.299C176.173 65.571 175.788 65.9733 175.493 66.506C175.21 67.0273 175.068 67.6337 175.068 68.325C175.068 69.0277 175.21 69.6453 175.493 70.178C175.788 70.6993 176.173 71.1017 176.649 71.385C177.136 71.657 177.663 71.793 178.23 71.793C178.808 71.793 179.335 71.657 179.811 71.385C180.298 71.1017 180.684 70.6993 180.967 70.178C181.25 69.6453 181.392 69.022 181.392 68.308ZM191.469 66.115V67.424H184.686V66.115H191.469ZM196.259 64.959V70.45C196.259 70.9033 196.356 71.2263 196.548 71.419C196.741 71.6003 197.075 71.691 197.551 71.691H198.69V73H197.296C196.435 73 195.789 72.8017 195.358 72.405C194.928 72.0083 194.712 71.3567 194.712 70.45V64.959H193.505V63.684H194.712V61.338H196.259V63.684H198.69V64.959H196.259ZM204.628 73.153C203.755 73.153 202.962 72.9547 202.248 72.558C201.545 72.1613 200.99 71.6003 200.582 70.875C200.185 70.1383 199.987 69.2883 199.987 68.325C199.987 67.373 200.191 66.5343 200.599 65.809C201.018 65.0723 201.585 64.5113 202.299 64.126C203.013 63.7293 203.812 63.531 204.696 63.531C205.58 63.531 206.379 63.7293 207.093 64.126C207.807 64.5113 208.368 65.0667 208.776 65.792C209.195 66.5173 209.405 67.3617 209.405 68.325C209.405 69.2883 209.19 70.1383 208.759 70.875C208.34 71.6003 207.767 72.1613 207.042 72.558C206.317 72.9547 205.512 73.153 204.628 73.153ZM204.628 71.793C205.183 71.793 205.705 71.6627 206.192 71.402C206.679 71.1413 207.07 70.7503 207.365 70.229C207.671 69.7077 207.824 69.073 207.824 68.325C207.824 67.577 207.677 66.9423 207.382 66.421C207.087 65.8997 206.702 65.5143 206.226 65.265C205.75 65.0043 205.234 64.874 204.679 64.874C204.112 64.874 203.591 65.0043 203.115 65.265C202.65 65.5143 202.276 65.8997 201.993 66.421C201.71 66.9423 201.568 67.577 201.568 68.325C201.568 69.0843 201.704 69.7247 201.976 70.246C202.259 70.7673 202.633 71.1583 203.098 71.419C203.563 71.6683 204.073 71.793 204.628 71.793ZM217.899 66.115V67.424H211.116V66.115H217.899ZM220.224 68.308C220.224 67.356 220.417 66.523 220.802 65.809C221.187 65.0837 221.714 64.5227 222.383 64.126C223.063 63.7293 223.822 63.531 224.661 63.531C225.386 63.531 226.061 63.701 226.684 64.041C227.307 64.3697 227.783 64.806 228.112 65.35V60.42H229.676V73H228.112V71.249C227.806 71.8043 227.353 72.2633 226.752 72.626C226.151 72.9773 225.449 73.153 224.644 73.153C223.817 73.153 223.063 72.949 222.383 72.541C221.714 72.133 221.187 71.5607 220.802 70.824C220.417 70.0873 220.224 69.2487 220.224 68.308ZM228.112 68.325C228.112 67.6223 227.97 67.0103 227.687 66.489C227.404 65.9677 227.018 65.571 226.531 65.299C226.055 65.0157 225.528 64.874 224.95 64.874C224.372 64.874 223.845 65.01 223.369 65.282C222.893 65.554 222.513 65.9507 222.23 66.472C221.947 66.9933 221.805 67.6053 221.805 68.308C221.805 69.022 221.947 69.6453 222.23 70.178C222.513 70.6993 222.893 71.1017 223.369 71.385C223.845 71.657 224.372 71.793 224.95 71.793C225.528 71.793 226.055 71.657 226.531 71.385C227.018 71.1017 227.404 70.6993 227.687 70.178C227.97 69.6453 228.112 69.0277 228.112 68.325ZM231.712 68.308C231.712 67.356 231.905 66.523 232.29 65.809C232.676 65.0837 233.203 64.5227 233.871 64.126C234.551 63.7293 235.305 63.531 236.132 63.531C236.948 63.531 237.657 63.7067 238.257 64.058C238.858 64.4093 239.306 64.8513 239.6 65.384V63.684H241.164V73H239.6V71.266C239.294 71.81 238.835 72.2633 238.223 72.626C237.623 72.9773 236.92 73.153 236.115 73.153C235.288 73.153 234.54 72.949 233.871 72.541C233.203 72.133 232.676 71.5607 232.29 70.824C231.905 70.0873 231.712 69.2487 231.712 68.308ZM239.6 68.325C239.6 67.6223 239.459 67.0103 239.175 66.489C238.892 65.9677 238.507 65.571 238.019 65.299C237.543 65.0157 237.016 64.874 236.438 64.874C235.86 64.874 235.333 65.01 234.857 65.282C234.381 65.554 234.002 65.9507 233.718 66.472C233.435 66.9933 233.293 67.6053 233.293 68.308C233.293 69.022 233.435 69.6453 233.718 70.178C234.002 70.6993 234.381 71.1017 234.857 71.385C235.333 71.657 235.86 71.793 236.438 71.793C237.016 71.793 237.543 71.657 238.019 71.385C238.507 71.1017 238.892 70.6993 239.175 70.178C239.459 69.6453 239.6 69.0277 239.6 68.325ZM245.666 64.959V70.45C245.666 70.9033 245.762 71.2263 245.955 71.419C246.147 71.6003 246.482 71.691 246.958 71.691H248.097V73H246.703C245.841 73 245.195 72.8017 244.765 72.405C244.334 72.0083 244.119 71.3567 244.119 70.45V64.959H242.912V63.684H244.119V61.338H245.666V63.684H248.097V64.959H245.666ZM258.471 67.985C258.471 68.2797 258.454 68.5913 258.42 68.92H250.974C251.031 69.838 251.342 70.5577 251.909 71.079C252.487 71.589 253.184 71.844 254 71.844C254.669 71.844 255.224 71.691 255.666 71.385C256.119 71.0677 256.437 70.6483 256.618 70.127H258.284C258.035 71.0223 257.536 71.7533 256.788 72.32C256.04 72.8753 255.111 73.153 254 73.153C253.116 73.153 252.323 72.9547 251.62 72.558C250.929 72.1613 250.385 71.6003 249.988 70.875C249.591 70.1383 249.393 69.2883 249.393 68.325C249.393 67.3617 249.586 66.5173 249.971 65.792C250.356 65.0667 250.895 64.5113 251.586 64.126C252.289 63.7293 253.093 63.531 254 63.531C254.884 63.531 255.666 63.7237 256.346 64.109C257.026 64.4943 257.547 65.027 257.91 65.707C258.284 66.3757 258.471 67.135 258.471 67.985ZM256.873 67.662C256.873 67.0727 256.743 66.5683 256.482 66.149C256.221 65.7183 255.864 65.3953 255.411 65.18C254.969 64.9533 254.476 64.84 253.932 64.84C253.15 64.84 252.481 65.0893 251.926 65.588C251.382 66.0867 251.07 66.778 250.991 67.662H256.873ZM269.108 73.153C268.236 73.153 267.442 72.9547 266.728 72.558C266.026 72.1613 265.47 71.6003 265.062 70.875C264.666 70.1383 264.467 69.2883 264.467 68.325C264.467 67.373 264.671 66.5343 265.079 65.809C265.499 65.0723 266.065 64.5113 266.779 64.126C267.493 63.7293 268.292 63.531 269.176 63.531C270.06 63.531 270.859 63.7293 271.573 64.126C272.287 64.5113 272.848 65.0667 273.256 65.792C273.676 66.5173 273.885 67.3617 273.885 68.325C273.885 69.2883 273.67 70.1383 273.239 70.875C272.82 71.6003 272.248 72.1613 271.522 72.558C270.797 72.9547 269.992 73.153 269.108 73.153ZM269.108 71.793C269.664 71.793 270.185 71.6627 270.672 71.402C271.16 71.1413 271.551 70.7503 271.845 70.229C272.151 69.7077 272.304 69.073 272.304 68.325C272.304 67.577 272.157 66.9423 271.862 66.421C271.568 65.8997 271.182 65.5143 270.706 65.265C270.23 65.0043 269.715 64.874 269.159 64.874C268.593 64.874 268.071 65.0043 267.595 65.265C267.131 65.5143 266.757 65.8997 266.473 66.421C266.19 66.9423 266.048 67.577 266.048 68.325C266.048 69.0843 266.184 69.7247 266.456 70.246C266.74 70.7673 267.114 71.1583 267.578 71.419C268.043 71.6683 268.553 71.793 269.108 71.793ZM280.458 63.514C281.592 63.514 282.51 63.8597 283.212 64.551C283.915 65.231 284.266 66.217 284.266 67.509V73H282.736V67.73C282.736 66.8007 282.504 66.0923 282.039 65.605C281.575 65.1063 280.94 64.857 280.135 64.857C279.319 64.857 278.668 65.112 278.18 65.622C277.704 66.132 277.466 66.8743 277.466 67.849V73H275.919V63.684H277.466V65.01C277.772 64.534 278.186 64.1657 278.707 63.905C279.24 63.6443 279.824 63.514 280.458 63.514ZM292.125 62.171C291.83 62.171 291.581 62.069 291.377 61.865C291.173 61.661 291.071 61.4117 291.071 61.117C291.071 60.8223 291.173 60.573 291.377 60.369C291.581 60.165 291.83 60.063 292.125 60.063C292.408 60.063 292.646 60.165 292.839 60.369C293.043 60.573 293.145 60.8223 293.145 61.117C293.145 61.4117 293.043 61.661 292.839 61.865C292.646 62.069 292.408 62.171 292.125 62.171ZM292.873 63.684V73H291.326V63.684H292.873ZM300.048 63.514C301.182 63.514 302.1 63.8597 302.802 64.551C303.505 65.231 303.856 66.217 303.856 67.509V73H302.326V67.73C302.326 66.8007 302.094 66.0923 301.629 65.605C301.165 65.1063 300.53 64.857 299.725 64.857C298.909 64.857 298.258 65.112 297.77 65.622C297.294 66.132 297.056 66.8743 297.056 67.849V73H295.509V63.684H297.056V65.01C297.362 64.534 297.776 64.1657 298.297 63.905C298.83 63.6443 299.414 63.514 300.048 63.514ZM305.805 68.308C305.805 67.356 305.998 66.523 306.383 65.809C306.769 65.0837 307.296 64.5227 307.964 64.126C308.644 63.7293 309.404 63.531 310.242 63.531C310.968 63.531 311.642 63.701 312.265 64.041C312.889 64.3697 313.365 64.806 313.693 65.35V60.42H315.257V73H313.693V71.249C313.387 71.8043 312.934 72.2633 312.333 72.626C311.733 72.9773 311.03 73.153 310.225 73.153C309.398 73.153 308.644 72.949 307.964 72.541C307.296 72.133 306.769 71.5607 306.383 70.824C305.998 70.0873 305.805 69.2487 305.805 68.308ZM313.693 68.325C313.693 67.6223 313.552 67.0103 313.268 66.489C312.985 65.9677 312.6 65.571 312.112 65.299C311.636 65.0157 311.109 64.874 310.531 64.874C309.953 64.874 309.426 65.01 308.95 65.282C308.474 65.554 308.095 65.9507 307.811 66.472C307.528 66.9933 307.386 67.6053 307.386 68.308C307.386 69.022 307.528 69.6453 307.811 70.178C308.095 70.6993 308.474 71.1017 308.95 71.385C309.426 71.657 309.953 71.793 310.531 71.793C311.109 71.793 311.636 71.657 312.112 71.385C312.6 71.1017 312.985 70.6993 313.268 70.178C313.552 69.6453 313.693 69.0277 313.693 68.325ZM326.134 63.684V73H324.587V71.623C324.292 72.099 323.878 72.473 323.346 72.745C322.824 73.0057 322.246 73.136 321.612 73.136C320.886 73.136 320.235 72.9887 319.657 72.694C319.079 72.388 318.62 71.9347 318.28 71.334C317.951 70.7333 317.787 70.0023 317.787 69.141V63.684H319.317V68.937C319.317 69.855 319.549 70.5633 320.014 71.062C320.478 71.5493 321.113 71.793 321.918 71.793C322.745 71.793 323.397 71.538 323.873 71.028C324.349 70.518 324.587 69.7757 324.587 68.801V63.684H326.134ZM332.044 73.153C331.33 73.153 330.689 73.034 330.123 72.796C329.556 72.5467 329.108 72.2067 328.78 71.776C328.451 71.334 328.27 70.8297 328.236 70.263H329.834C329.879 70.7277 330.094 71.1073 330.48 71.402C330.876 71.6967 331.392 71.844 332.027 71.844C332.616 71.844 333.081 71.7137 333.421 71.453C333.761 71.1923 333.931 70.8637 333.931 70.467C333.931 70.059 333.749 69.7587 333.387 69.566C333.024 69.362 332.463 69.1637 331.704 68.971C331.012 68.7897 330.446 68.6083 330.004 68.427C329.573 68.2343 329.199 67.9567 328.882 67.594C328.576 67.22 328.423 66.7327 328.423 66.132C328.423 65.656 328.564 65.2197 328.848 64.823C329.131 64.4263 329.533 64.1147 330.055 63.888C330.576 63.65 331.171 63.531 331.84 63.531C332.871 63.531 333.704 63.7917 334.339 64.313C334.973 64.8343 335.313 65.5483 335.359 66.455H333.812C333.778 65.9677 333.579 65.5767 333.217 65.282C332.865 64.9873 332.389 64.84 331.789 64.84C331.233 64.84 330.791 64.959 330.463 65.197C330.134 65.435 329.97 65.7467 329.97 66.132C329.97 66.438 330.066 66.693 330.259 66.897C330.463 67.0897 330.712 67.2483 331.007 67.373C331.313 67.4863 331.732 67.6167 332.265 67.764C332.933 67.9453 333.477 68.1267 333.897 68.308C334.316 68.478 334.673 68.7387 334.968 69.09C335.274 69.4413 335.432 69.9003 335.444 70.467C335.444 70.977 335.302 71.436 335.019 71.844C334.735 72.252 334.333 72.575 333.812 72.813C333.302 73.0397 332.712 73.153 332.044 73.153ZM339.514 64.959V70.45C339.514 70.9033 339.611 71.2263 339.803 71.419C339.996 71.6003 340.33 71.691 340.806 71.691H341.945V73H340.551C339.69 73 339.044 72.8017 338.613 72.405C338.183 72.0083 337.967 71.3567 337.967 70.45V64.959H336.76V63.684H337.967V61.338H339.514V63.684H341.945V64.959H339.514ZM345.367 65.197C345.639 64.6643 346.024 64.2507 346.523 63.956C347.033 63.6613 347.65 63.514 348.376 63.514V65.112H347.968C346.234 65.112 345.367 66.0527 345.367 67.934V73H343.82V63.684H345.367V65.197ZM358.186 63.684L352.576 77.386H350.978L352.814 72.898L349.057 63.684H350.774L353.698 71.232L356.588 63.684H358.186ZM178.633 89.514C179.766 89.514 180.684 89.8597 181.387 90.551C182.089 91.231 182.441 92.217 182.441 93.509V99H180.911V93.73C180.911 92.8007 180.678 92.0923 180.214 91.605C179.749 91.1063 179.114 90.857 178.31 90.857C177.494 90.857 176.842 91.112 176.355 91.622C175.879 92.132 175.641 92.8743 175.641 93.849V99H174.094V89.684H175.641V91.01C175.947 90.534 176.36 90.1657 176.882 89.905C177.414 89.6443 177.998 89.514 178.633 89.514ZM193.468 93.985C193.468 94.2797 193.451 94.5913 193.417 94.92H185.971C186.027 95.838 186.339 96.5577 186.906 97.079C187.484 97.589 188.181 97.844 188.997 97.844C189.665 97.844 190.221 97.691 190.663 97.385C191.116 97.0677 191.433 96.6483 191.615 96.127H193.281C193.031 97.0223 192.533 97.7533 191.785 98.32C191.037 98.8753 190.107 99.153 188.997 99.153C188.113 99.153 187.319 98.9547 186.617 98.558C185.925 98.1613 185.381 97.6003 184.985 96.875C184.588 96.1383 184.39 95.2883 184.39 94.325C184.39 93.3617 184.582 92.5173 184.968 91.792C185.353 91.0667 185.891 90.5113 186.583 90.126C187.285 89.7293 188.09 89.531 188.997 89.531C189.881 89.531 190.663 89.7237 191.343 90.109C192.023 90.4943 192.544 91.027 192.907 91.707C193.281 92.3757 193.468 93.135 193.468 93.985ZM191.87 93.662C191.87 93.0727 191.739 92.5683 191.479 92.149C191.218 91.7183 190.861 91.3953 190.408 91.18C189.966 90.9533 189.473 90.84 188.929 90.84C188.147 90.84 187.478 91.0893 186.923 91.588C186.379 92.0867 186.067 92.778 185.988 93.662H191.87ZM207.92 89.684L205.013 99H203.415L201.171 91.605L198.927 99H197.329L194.405 89.684H195.986L198.128 97.504L200.44 89.684H202.021L204.282 97.521L206.39 89.684H207.92ZM212.753 99.153C212.039 99.153 211.399 99.034 210.832 98.796C210.265 98.5467 209.818 98.2067 209.489 97.776C209.16 97.334 208.979 96.8297 208.945 96.263H210.543C210.588 96.7277 210.804 97.1073 211.189 97.402C211.586 97.6967 212.101 97.844 212.736 97.844C213.325 97.844 213.79 97.7137 214.13 97.453C214.47 97.1923 214.64 96.8637 214.64 96.467C214.64 96.059 214.459 95.7587 214.096 95.566C213.733 95.362 213.172 95.1637 212.413 94.971C211.722 94.7897 211.155 94.6083 210.713 94.427C210.282 94.2343 209.908 93.9567 209.591 93.594C209.285 93.22 209.132 92.7327 209.132 92.132C209.132 91.656 209.274 91.2197 209.557 90.823C209.84 90.4263 210.243 90.1147 210.764 89.888C211.285 89.65 211.88 89.531 212.549 89.531C213.58 89.531 214.413 89.7917 215.048 90.313C215.683 90.8343 216.023 91.5483 216.068 92.455H214.521C214.487 91.9677 214.289 91.5767 213.926 91.282C213.575 90.9873 213.099 90.84 212.498 90.84C211.943 90.84 211.501 90.959 211.172 91.197C210.843 91.435 210.679 91.7467 210.679 92.132C210.679 92.438 210.775 92.693 210.968 92.897C211.172 93.0897 211.421 93.2483 211.716 93.373C212.022 93.4863 212.441 93.6167 212.974 93.764C213.643 93.9453 214.187 94.1267 214.606 94.308C215.025 94.478 215.382 94.7387 215.677 95.09C215.983 95.4413 216.142 95.9003 216.153 96.467C216.153 96.977 216.011 97.436 215.728 97.844C215.445 98.252 215.042 98.575 214.521 98.813C214.011 99.0397 213.422 99.153 212.753 99.153ZM222.291 94.308C222.291 93.356 222.484 92.523 222.869 91.809C223.254 91.0837 223.781 90.5227 224.45 90.126C225.13 89.7293 225.884 89.531 226.711 89.531C227.527 89.531 228.235 89.7067 228.836 90.058C229.437 90.4093 229.884 90.8513 230.179 91.384V89.684H231.743V99H230.179V97.266C229.873 97.81 229.414 98.2633 228.802 98.626C228.201 98.9773 227.499 99.153 226.694 99.153C225.867 99.153 225.119 98.949 224.45 98.541C223.781 98.133 223.254 97.5607 222.869 96.824C222.484 96.0873 222.291 95.2487 222.291 94.308ZM230.179 94.325C230.179 93.6223 230.037 93.0103 229.754 92.489C229.471 91.9677 229.085 91.571 228.598 91.299C228.122 91.0157 227.595 90.874 227.017 90.874C226.439 90.874 225.912 91.01 225.436 91.282C224.96 91.554 224.58 91.9507 224.297 92.472C224.014 92.9933 223.872 93.6053 223.872 94.308C223.872 95.022 224.014 95.6453 224.297 96.178C224.58 96.6993 224.96 97.1017 225.436 97.385C225.912 97.657 226.439 97.793 227.017 97.793C227.595 97.793 228.122 97.657 228.598 97.385C229.085 97.1017 229.471 96.6993 229.754 96.178C230.037 95.6453 230.179 95.0277 230.179 94.325ZM238.896 89.514C240.03 89.514 240.948 89.8597 241.65 90.551C242.353 91.231 242.704 92.217 242.704 93.509V99H241.174V93.73C241.174 92.8007 240.942 92.0923 240.477 91.605C240.013 91.1063 239.378 90.857 238.573 90.857C237.757 90.857 237.106 91.112 236.618 91.622C236.142 92.132 235.904 92.8743 235.904 93.849V99H234.357V89.684H235.904V91.01C236.21 90.534 236.624 90.1657 237.145 89.905C237.678 89.6443 238.262 89.514 238.896 89.514ZM244.653 94.308C244.653 93.356 244.846 92.523 245.231 91.809C245.617 91.0837 246.144 90.5227 246.812 90.126C247.492 89.7293 248.252 89.531 249.09 89.531C249.816 89.531 250.49 89.701 251.113 90.041C251.737 90.3697 252.213 90.806 252.541 91.35V86.42H254.105V99H252.541V97.249C252.235 97.8043 251.782 98.2633 251.181 98.626C250.581 98.9773 249.878 99.153 249.073 99.153C248.246 99.153 247.492 98.949 246.812 98.541C246.144 98.133 245.617 97.5607 245.231 96.824C244.846 96.0873 244.653 95.2487 244.653 94.308ZM252.541 94.325C252.541 93.6223 252.4 93.0103 252.116 92.489C251.833 91.9677 251.448 91.571 250.96 91.299C250.484 91.0157 249.957 90.874 249.379 90.874C248.801 90.874 248.274 91.01 247.798 91.282C247.322 91.554 246.943 91.9507 246.659 92.472C246.376 92.9933 246.234 93.6053 246.234 94.308C246.234 95.022 246.376 95.6453 246.659 96.178C246.943 96.6993 247.322 97.1017 247.798 97.385C248.274 97.657 248.801 97.793 249.379 97.793C249.957 97.793 250.484 97.657 250.96 97.385C251.448 97.1017 251.833 96.6993 252.116 96.178C252.4 95.6453 252.541 95.0277 252.541 94.325ZM272.455 89.514C273.18 89.514 273.826 89.667 274.393 89.973C274.96 90.2677 275.407 90.7153 275.736 91.316C276.065 91.9167 276.229 92.6477 276.229 93.509V99H274.699V93.73C274.699 92.8007 274.467 92.0923 274.002 91.605C273.549 91.1063 272.931 90.857 272.149 90.857C271.344 90.857 270.704 91.1177 270.228 91.639C269.752 92.149 269.514 92.8913 269.514 93.866V99H267.984V93.73C267.984 92.8007 267.752 92.0923 267.287 91.605C266.834 91.1063 266.216 90.857 265.434 90.857C264.629 90.857 263.989 91.1177 263.513 91.639C263.037 92.149 262.799 92.8913 262.799 93.866V99H261.252V89.684H262.799V91.027C263.105 90.5397 263.513 90.1657 264.023 89.905C264.544 89.6443 265.117 89.514 265.74 89.514C266.522 89.514 267.213 89.6897 267.814 90.041C268.415 90.3923 268.862 90.908 269.157 91.588C269.418 90.9307 269.848 90.4207 270.449 90.058C271.05 89.6953 271.718 89.514 272.455 89.514ZM282.83 99.153C281.957 99.153 281.164 98.9547 280.45 98.558C279.747 98.1613 279.192 97.6003 278.784 96.875C278.387 96.1383 278.189 95.2883 278.189 94.325C278.189 93.373 278.393 92.5343 278.801 91.809C279.22 91.0723 279.787 90.5113 280.501 90.126C281.215 89.7293 282.014 89.531 282.898 89.531C283.782 89.531 284.581 89.7293 285.295 90.126C286.009 90.5113 286.57 91.0667 286.978 91.792C287.397 92.5173 287.607 93.3617 287.607 94.325C287.607 95.2883 287.391 96.1383 286.961 96.875C286.541 97.6003 285.969 98.1613 285.244 98.558C284.518 98.9547 283.714 99.153 282.83 99.153ZM282.83 97.793C283.385 97.793 283.906 97.6627 284.394 97.402C284.881 97.1413 285.272 96.7503 285.567 96.229C285.873 95.7077 286.026 95.073 286.026 94.325C286.026 93.577 285.878 92.9423 285.584 92.421C285.289 91.8997 284.904 91.5143 284.428 91.265C283.952 91.0043 283.436 90.874 282.881 90.874C282.314 90.874 281.793 91.0043 281.317 91.265C280.852 91.5143 280.478 91.8997 280.195 92.421C279.911 92.9423 279.77 93.577 279.77 94.325C279.77 95.0843 279.906 95.7247 280.178 96.246C280.461 96.7673 280.835 97.1583 281.3 97.419C281.764 97.6683 282.274 97.793 282.83 97.793ZM291.188 91.197C291.46 90.6643 291.845 90.2507 292.344 89.956C292.854 89.6613 293.471 89.514 294.197 89.514V91.112H293.789C292.055 91.112 291.188 92.0527 291.188 93.934V99H289.641V89.684H291.188V91.197ZM304.482 93.985C304.482 94.2797 304.465 94.5913 304.431 94.92H296.985C297.042 95.838 297.354 96.5577 297.92 97.079C298.498 97.589 299.195 97.844 300.011 97.844C300.68 97.844 301.235 97.691 301.677 97.385C302.131 97.0677 302.448 96.6483 302.629 96.127H304.295C304.046 97.0223 303.547 97.7533 302.799 98.32C302.051 98.8753 301.122 99.153 300.011 99.153C299.127 99.153 298.334 98.9547 297.631 98.558C296.94 98.1613 296.396 97.6003 295.999 96.875C295.603 96.1383 295.404 95.2883 295.404 94.325C295.404 93.3617 295.597 92.5173 295.982 91.792C296.368 91.0667 296.906 90.5113 297.597 90.126C298.3 89.7293 299.105 89.531 300.011 89.531C300.895 89.531 301.677 89.7237 302.357 90.109C303.037 90.4943 303.559 91.027 303.921 91.707C304.295 92.3757 304.482 93.135 304.482 93.985ZM302.884 93.662C302.884 93.0727 302.754 92.5683 302.493 92.149C302.233 91.7183 301.876 91.3953 301.422 91.18C300.98 90.9533 300.487 90.84 299.943 90.84C299.161 90.84 298.493 91.0893 297.937 91.588C297.393 92.0867 297.082 92.778 297.002 93.662H302.884Z" fill="black"/>
</svg>
