<svg width="593" height="255" viewBox="0 0 593 255" fill="none" xmlns="http://www.w3.org/2000/svg">
<rect width="592.644" height="254" transform="translate(0.355469 0.975586)" fill="#FAF9F9"/>
<path opacity="0.8" d="M79.9575 45.1266V46.3846H76.7275V56.9756H75.1805V46.3846H71.9335V45.1266H79.9575ZM86.4857 47.4896C87.1884 47.4896 87.8231 47.6426 88.3897 47.9486C88.9564 48.2433 89.3984 48.6909 89.7157 49.2916C90.0444 49.8923 90.2087 50.6233 90.2087 51.4846V56.9756H88.6787V51.7056C88.6787 50.7763 88.4464 50.0679 87.9817 49.5806C87.5171 49.0819 86.8824 48.8326 86.0777 48.8326C85.2617 48.8326 84.6101 49.0876 84.1227 49.5976C83.6467 50.1076 83.4087 50.8499 83.4087 51.8246V56.9756H81.8617V44.3956H83.4087V48.9856C83.7147 48.5096 84.1341 48.1413 84.6667 47.8806C85.2107 47.6199 85.8171 47.4896 86.4857 47.4896ZM101.236 51.9606C101.236 52.2553 101.219 52.5669 101.185 52.8956H93.7388C93.7954 53.8136 94.1071 54.5333 94.6738 55.0546C95.2518 55.5646 95.9488 55.8196 96.7648 55.8196C97.4334 55.8196 97.9888 55.6666 98.4308 55.3606C98.8841 55.0433 99.2014 54.6239 99.3828 54.1026H101.049C100.799 54.9979 100.301 55.7289 99.5528 56.2956C98.8048 56.8509 97.8754 57.1286 96.7648 57.1286C95.8808 57.1286 95.0874 56.9303 94.3848 56.5336C93.6934 56.1369 93.1494 55.5759 92.7528 54.8506C92.3561 54.1139 92.1578 53.2639 92.1578 52.3006C92.1578 51.3373 92.3504 50.4929 92.7358 49.7676C93.1211 49.0423 93.6594 48.4869 94.3508 48.1016C95.0534 47.7049 95.8581 47.5066 96.7648 47.5066C97.6488 47.5066 98.4308 47.6993 99.1108 48.0846C99.7908 48.4699 100.312 49.0026 100.675 49.6826C101.049 50.3513 101.236 51.1106 101.236 51.9606ZM99.6378 51.6376C99.6378 51.0483 99.5074 50.5439 99.2468 50.1246C98.9861 49.6939 98.6291 49.3709 98.1758 49.1556C97.7338 48.9289 97.2408 48.8156 96.6968 48.8156C95.9148 48.8156 95.2461 49.0649 94.6908 49.5636C94.1468 50.0623 93.8351 50.7536 93.7558 51.6376H99.6378ZM111.302 47.6596L105.692 61.3616H104.094L105.93 56.8736L102.173 47.6596H103.89L106.814 55.2076L109.704 47.6596H111.302ZM113.639 43.4436L113.435 46.8266H112.364L112.143 43.4436H113.639ZM117.11 49.1726C117.382 48.6399 117.767 48.2263 118.266 47.9316C118.776 47.6369 119.394 47.4896 120.119 47.4896V49.0876H119.711C117.977 49.0876 117.11 50.0283 117.11 51.9096V56.9756H115.563V47.6596H117.11V49.1726ZM130.405 51.9606C130.405 52.2553 130.388 52.5669 130.354 52.8956H122.908C122.964 53.8136 123.276 54.5333 123.843 55.0546C124.421 55.5646 125.118 55.8196 125.934 55.8196C126.602 55.8196 127.158 55.6666 127.6 55.3606C128.053 55.0433 128.37 54.6239 128.552 54.1026H130.218C129.968 54.9979 129.47 55.7289 128.722 56.2956C127.974 56.8509 127.044 57.1286 125.934 57.1286C125.05 57.1286 124.256 56.9303 123.554 56.5336C122.862 56.1369 122.318 55.5759 121.922 54.8506C121.525 54.1139 121.327 53.2639 121.327 52.3006C121.327 51.3373 121.519 50.4929 121.905 49.7676C122.29 49.0423 122.828 48.4869 123.52 48.1016C124.222 47.7049 125.027 47.5066 125.934 47.5066C126.818 47.5066 127.6 47.6993 128.28 48.0846C128.96 48.4699 129.481 49.0026 129.844 49.6826C130.218 50.3513 130.405 51.1106 130.405 51.9606ZM128.807 51.6376C128.807 51.0483 128.676 50.5439 128.416 50.1246C128.155 49.6939 127.798 49.3709 127.345 49.1556C126.903 48.9289 126.41 48.8156 125.866 48.8156C125.084 48.8156 124.415 49.0649 123.86 49.5636C123.316 50.0623 123.004 50.7536 122.925 51.6376H128.807ZM136.401 52.2836C136.401 51.3316 136.594 50.4986 136.979 49.7846C137.364 49.0593 137.891 48.4983 138.56 48.1016C139.24 47.7049 139.994 47.5066 140.821 47.5066C141.637 47.5066 142.345 47.6823 142.946 48.0336C143.547 48.3849 143.994 48.8269 144.289 49.3596V47.6596H145.853V56.9756H144.289V55.2416C143.983 55.7856 143.524 56.2389 142.912 56.6016C142.311 56.9529 141.609 57.1286 140.804 57.1286C139.977 57.1286 139.229 56.9246 138.56 56.5166C137.891 56.1086 137.364 55.5363 136.979 54.7996C136.594 54.0629 136.401 53.2243 136.401 52.2836ZM144.289 52.3006C144.289 51.5979 144.147 50.9859 143.864 50.4646C143.581 49.9433 143.195 49.5466 142.708 49.2746C142.232 48.9913 141.705 48.8496 141.127 48.8496C140.549 48.8496 140.022 48.9856 139.546 49.2576C139.07 49.5296 138.69 49.9263 138.407 50.4476C138.124 50.9689 137.982 51.5809 137.982 52.2836C137.982 52.9976 138.124 53.6209 138.407 54.1536C138.69 54.6749 139.07 55.0773 139.546 55.3606C140.022 55.6326 140.549 55.7686 141.127 55.7686C141.705 55.7686 142.232 55.6326 142.708 55.3606C143.195 55.0773 143.581 54.6749 143.864 54.1536C144.147 53.6209 144.289 53.0033 144.289 52.3006ZM156.79 48.9346H154.835V56.9756H153.288V48.9346H152.081V47.6596H153.288V46.9966C153.288 45.9539 153.555 45.1946 154.087 44.7186C154.631 44.2313 155.498 43.9876 156.688 43.9876V45.2796C156.008 45.2796 155.527 45.4156 155.243 45.6876C154.971 45.9483 154.835 46.3846 154.835 46.9966V47.6596H156.79V48.9346ZM166.856 47.6596V56.9756H165.309V55.5986C165.014 56.0746 164.601 56.4486 164.068 56.7206C163.547 56.9813 162.969 57.1116 162.334 57.1116C161.609 57.1116 160.957 56.9643 160.379 56.6696C159.801 56.3636 159.342 55.9103 159.002 55.3096C158.673 54.7089 158.509 53.9779 158.509 53.1166V47.6596H160.039V52.9126C160.039 53.8306 160.271 54.5389 160.736 55.0376C161.201 55.5249 161.835 55.7686 162.64 55.7686C163.467 55.7686 164.119 55.5136 164.595 55.0036C165.071 54.4936 165.309 53.7513 165.309 52.7766V47.6596H166.856ZM171.015 44.3956V56.9756H169.468V44.3956H171.015ZM175.199 44.3956V56.9756H173.652V44.3956H175.199ZM184.295 50.0906V51.3996H177.512V50.0906H184.295ZM188.746 49.3766C189.052 48.8439 189.505 48.4019 190.106 48.0506C190.718 47.6879 191.426 47.5066 192.231 47.5066C193.058 47.5066 193.806 47.7049 194.475 48.1016C195.155 48.4983 195.687 49.0593 196.073 49.7846C196.458 50.4986 196.651 51.3316 196.651 52.2836C196.651 53.2243 196.458 54.0629 196.073 54.7996C195.687 55.5363 195.155 56.1086 194.475 56.5166C193.806 56.9246 193.058 57.1286 192.231 57.1286C191.437 57.1286 190.735 56.9529 190.123 56.6016C189.522 56.2389 189.063 55.7913 188.746 55.2586V61.3956H187.199V47.6596H188.746V49.3766ZM195.07 52.2836C195.07 51.5809 194.928 50.9689 194.645 50.4476C194.361 49.9263 193.976 49.5296 193.489 49.2576C193.013 48.9856 192.486 48.8496 191.908 48.8496C191.341 48.8496 190.814 48.9913 190.327 49.2746C189.851 49.5466 189.465 49.9489 189.171 50.4816C188.887 51.0029 188.746 51.6093 188.746 52.3006C188.746 53.0033 188.887 53.6209 189.171 54.1536C189.465 54.6749 189.851 55.0773 190.327 55.3606C190.814 55.6326 191.341 55.7686 191.908 55.7686C192.486 55.7686 193.013 55.6326 193.489 55.3606C193.976 55.0773 194.361 54.6749 194.645 54.1536C194.928 53.6209 195.07 52.9976 195.07 52.2836ZM198.109 52.2836C198.109 51.3316 198.302 50.4986 198.687 49.7846C199.072 49.0593 199.599 48.4983 200.268 48.1016C200.948 47.7049 201.702 47.5066 202.529 47.5066C203.345 47.5066 204.053 47.6823 204.654 48.0336C205.255 48.3849 205.702 48.8269 205.997 49.3596V47.6596H207.561V56.9756H205.997V55.2416C205.691 55.7856 205.232 56.2389 204.62 56.6016C204.019 56.9529 203.317 57.1286 202.512 57.1286C201.685 57.1286 200.937 56.9246 200.268 56.5166C199.599 56.1086 199.072 55.5363 198.687 54.7996C198.302 54.0629 198.109 53.2243 198.109 52.2836ZM205.997 52.3006C205.997 51.5979 205.855 50.9859 205.572 50.4646C205.289 49.9433 204.903 49.5466 204.416 49.2746C203.94 48.9913 203.413 48.8496 202.835 48.8496C202.257 48.8496 201.73 48.9856 201.254 49.2576C200.778 49.5296 200.398 49.9263 200.115 50.4476C199.832 50.9689 199.69 51.5809 199.69 52.2836C199.69 52.9976 199.832 53.6209 200.115 54.1536C200.398 54.6749 200.778 55.0773 201.254 55.3606C201.73 55.6326 202.257 55.7686 202.835 55.7686C203.413 55.7686 203.94 55.6326 204.416 55.3606C204.903 55.0773 205.289 54.6749 205.572 54.1536C205.855 53.6209 205.997 53.0033 205.997 52.3006ZM209.597 52.3006C209.597 51.3373 209.79 50.4986 210.175 49.7846C210.561 49.0593 211.093 48.4983 211.773 48.1016C212.465 47.7049 213.252 47.5066 214.136 47.5066C215.281 47.5066 216.222 47.7843 216.958 48.3396C217.706 48.8949 218.199 49.6656 218.437 50.6516H216.771C216.613 50.0849 216.301 49.6373 215.836 49.3086C215.383 48.9799 214.816 48.8156 214.136 48.8156C213.252 48.8156 212.538 49.1216 211.994 49.7336C211.45 50.3343 211.178 51.1899 211.178 52.3006C211.178 53.4226 211.45 54.2896 211.994 54.9016C212.538 55.5136 213.252 55.8196 214.136 55.8196C214.816 55.8196 215.383 55.6609 215.836 55.3436C216.29 55.0263 216.601 54.5729 216.771 53.9836H218.437C218.188 54.9356 217.689 55.7006 216.941 56.2786C216.193 56.8453 215.258 57.1286 214.136 57.1286C213.252 57.1286 212.465 56.9303 211.773 56.5336C211.093 56.1369 210.561 55.5759 210.175 54.8506C209.79 54.1253 209.597 53.2753 209.597 52.3006ZM225.703 56.9756L222.048 52.8616V56.9756H220.501V44.3956H222.048V51.7906L225.635 47.6596H227.794L223.408 52.3006L227.811 56.9756H225.703ZM228.672 52.2836C228.672 51.3316 228.865 50.4986 229.25 49.7846C229.636 49.0593 230.163 48.4983 230.831 48.1016C231.511 47.7049 232.265 47.5066 233.092 47.5066C233.908 47.5066 234.617 47.6823 235.217 48.0336C235.818 48.3849 236.266 48.8269 236.56 49.3596V47.6596H238.124V56.9756H236.56V55.2416C236.254 55.7856 235.795 56.2389 235.183 56.6016C234.583 56.9529 233.88 57.1286 233.075 57.1286C232.248 57.1286 231.5 56.9246 230.831 56.5166C230.163 56.1086 229.636 55.5363 229.25 54.7996C228.865 54.0629 228.672 53.2243 228.672 52.2836ZM236.56 52.3006C236.56 51.5979 236.419 50.9859 236.135 50.4646C235.852 49.9433 235.467 49.5466 234.979 49.2746C234.503 48.9913 233.976 48.8496 233.398 48.8496C232.82 48.8496 232.293 48.9856 231.817 49.2576C231.341 49.5296 230.962 49.9263 230.678 50.4476C230.395 50.9689 230.253 51.5809 230.253 52.2836C230.253 52.9976 230.395 53.6209 230.678 54.1536C230.962 54.6749 231.341 55.0773 231.817 55.3606C232.293 55.6326 232.82 55.7686 233.398 55.7686C233.976 55.7686 234.503 55.6326 234.979 55.3606C235.467 55.0773 235.852 54.6749 236.135 54.1536C236.419 53.6209 236.56 53.0033 236.56 52.3006ZM244.581 47.5066C245.385 47.5066 246.088 47.6823 246.689 48.0336C247.301 48.3849 247.754 48.8269 248.049 49.3596V47.6596H249.613V57.1796C249.613 58.0296 249.431 58.7833 249.069 59.4406C248.706 60.1093 248.185 60.6306 247.505 61.0046C246.836 61.3786 246.054 61.5656 245.159 61.5656C243.935 61.5656 242.915 61.2766 242.099 60.6986C241.283 60.1206 240.801 59.3329 240.654 58.3356H242.184C242.354 58.9023 242.705 59.3556 243.238 59.6956C243.77 60.0469 244.411 60.2226 245.159 60.2226C246.009 60.2226 246.7 59.9563 247.233 59.4236C247.777 58.8909 248.049 58.1429 248.049 57.1796V55.2246C247.743 55.7686 247.289 56.2219 246.689 56.5846C246.088 56.9473 245.385 57.1286 244.581 57.1286C243.753 57.1286 243 56.9246 242.32 56.5166C241.651 56.1086 241.124 55.5363 240.739 54.7996C240.353 54.0629 240.161 53.2243 240.161 52.2836C240.161 51.3316 240.353 50.4986 240.739 49.7846C241.124 49.0593 241.651 48.4983 242.32 48.1016C243 47.7049 243.753 47.5066 244.581 47.5066ZM248.049 52.3006C248.049 51.5979 247.907 50.9859 247.624 50.4646C247.34 49.9433 246.955 49.5466 246.468 49.2746C245.992 48.9913 245.465 48.8496 244.887 48.8496C244.309 48.8496 243.782 48.9856 243.306 49.2576C242.83 49.5296 242.45 49.9263 242.167 50.4476C241.883 50.9689 241.742 51.5809 241.742 52.2836C241.742 52.9976 241.883 53.6209 242.167 54.1536C242.45 54.6749 242.83 55.0773 243.306 55.3606C243.782 55.6326 244.309 55.7686 244.887 55.7686C245.465 55.7686 245.992 55.6326 246.468 55.3606C246.955 55.0773 247.34 54.6749 247.624 54.1536C247.907 53.6209 248.049 53.0033 248.049 52.3006ZM260.727 51.9606C260.727 52.2553 260.71 52.5669 260.676 52.8956H253.23C253.287 53.8136 253.598 54.5333 254.165 55.0546C254.743 55.5646 255.44 55.8196 256.256 55.8196C256.925 55.8196 257.48 55.6666 257.922 55.3606C258.375 55.0433 258.693 54.6239 258.874 54.1026H260.54C260.291 54.9979 259.792 55.7289 259.044 56.2956C258.296 56.8509 257.367 57.1286 256.256 57.1286C255.372 57.1286 254.579 56.9303 253.876 56.5336C253.185 56.1369 252.641 55.5759 252.244 54.8506C251.847 54.1139 251.649 53.2639 251.649 52.3006C251.649 51.3373 251.842 50.4929 252.227 49.7676C252.612 49.0423 253.151 48.4869 253.842 48.1016C254.545 47.7049 255.349 47.5066 256.256 47.5066C257.14 47.5066 257.922 47.6993 258.602 48.0846C259.282 48.4699 259.803 49.0026 260.166 49.6826C260.54 50.3513 260.727 51.1106 260.727 51.9606ZM259.129 51.6376C259.129 51.0483 258.999 50.5439 258.738 50.1246C258.477 49.6939 258.12 49.3709 257.667 49.1556C257.225 48.9289 256.732 48.8156 256.188 48.8156C255.406 48.8156 254.737 49.0649 254.182 49.5636C253.638 50.0623 253.326 50.7536 253.247 51.6376H259.129ZM266.723 52.2836C266.723 51.3316 266.916 50.4986 267.301 49.7846C267.687 49.0593 268.214 48.4983 268.882 48.1016C269.562 47.7049 270.316 47.5066 271.143 47.5066C271.959 47.5066 272.668 47.6823 273.268 48.0336C273.869 48.3849 274.317 48.8269 274.611 49.3596V47.6596H276.175V56.9756H274.611V55.2416C274.305 55.7856 273.846 56.2389 273.234 56.6016C272.634 56.9529 271.931 57.1286 271.126 57.1286C270.299 57.1286 269.551 56.9246 268.882 56.5166C268.214 56.1086 267.687 55.5363 267.301 54.7996C266.916 54.0629 266.723 53.2243 266.723 52.2836ZM274.611 52.3006C274.611 51.5979 274.47 50.9859 274.186 50.4646C273.903 49.9433 273.518 49.5466 273.03 49.2746C272.554 48.9913 272.027 48.8496 271.449 48.8496C270.871 48.8496 270.344 48.9856 269.868 49.2576C269.392 49.5296 269.013 49.9263 268.729 50.4476C268.446 50.9689 268.304 51.5809 268.304 52.2836C268.304 52.9976 268.446 53.6209 268.729 54.1536C269.013 54.6749 269.392 55.0773 269.868 55.3606C270.344 55.6326 270.871 55.7686 271.449 55.7686C272.027 55.7686 272.554 55.6326 273.03 55.3606C273.518 55.0773 273.903 54.6749 274.186 54.1536C274.47 53.6209 274.611 53.0033 274.611 52.3006ZM282.631 47.5066C283.436 47.5066 284.139 47.6823 284.739 48.0336C285.351 48.3849 285.805 48.8269 286.099 49.3596V47.6596H287.663V57.1796C287.663 58.0296 287.482 58.7833 287.119 59.4406C286.757 60.1093 286.235 60.6306 285.555 61.0046C284.887 61.3786 284.105 61.5656 283.209 61.5656C281.985 61.5656 280.965 61.2766 280.149 60.6986C279.333 60.1206 278.852 59.3329 278.704 58.3356H280.234C280.404 58.9023 280.756 59.3556 281.288 59.6956C281.821 60.0469 282.461 60.2226 283.209 60.2226C284.059 60.2226 284.751 59.9563 285.283 59.4236C285.827 58.8909 286.099 58.1429 286.099 57.1796V55.2246C285.793 55.7686 285.34 56.2219 284.739 56.5846C284.139 56.9473 283.436 57.1286 282.631 57.1286C281.804 57.1286 281.05 56.9246 280.37 56.5166C279.702 56.1086 279.175 55.5363 278.789 54.7996C278.404 54.0629 278.211 53.2243 278.211 52.2836C278.211 51.3316 278.404 50.4986 278.789 49.7846C279.175 49.0593 279.702 48.4983 280.37 48.1016C281.05 47.7049 281.804 47.5066 282.631 47.5066ZM286.099 52.3006C286.099 51.5979 285.958 50.9859 285.674 50.4646C285.391 49.9433 285.006 49.5466 284.518 49.2746C284.042 48.9913 283.515 48.8496 282.937 48.8496C282.359 48.8496 281.832 48.9856 281.356 49.2576C280.88 49.5296 280.501 49.9263 280.217 50.4476C279.934 50.9689 279.792 51.5809 279.792 52.2836C279.792 52.9976 279.934 53.6209 280.217 54.1536C280.501 54.6749 280.88 55.0773 281.356 55.3606C281.832 55.6326 282.359 55.7686 282.937 55.7686C283.515 55.7686 284.042 55.6326 284.518 55.3606C285.006 55.0773 285.391 54.6749 285.674 54.1536C285.958 53.6209 286.099 53.0033 286.099 52.3006ZM298.778 51.9606C298.778 52.2553 298.761 52.5669 298.727 52.8956H291.281C291.337 53.8136 291.649 54.5333 292.216 55.0546C292.794 55.5646 293.491 55.8196 294.307 55.8196C294.975 55.8196 295.531 55.6666 295.973 55.3606C296.426 55.0433 296.743 54.6239 296.925 54.1026H298.591C298.341 54.9979 297.843 55.7289 297.095 56.2956C296.347 56.8509 295.417 57.1286 294.307 57.1286C293.423 57.1286 292.629 56.9303 291.927 56.5336C291.235 56.1369 290.691 55.5759 290.295 54.8506C289.898 54.1139 289.7 53.2639 289.7 52.3006C289.7 51.3373 289.892 50.4929 290.278 49.7676C290.663 49.0423 291.201 48.4869 291.893 48.1016C292.595 47.7049 293.4 47.5066 294.307 47.5066C295.191 47.5066 295.973 47.6993 296.653 48.0846C297.333 48.4699 297.854 49.0026 298.217 49.6826C298.591 50.3513 298.778 51.1106 298.778 51.9606ZM297.18 51.6376C297.18 51.0483 297.049 50.5439 296.789 50.1246C296.528 49.6939 296.171 49.3709 295.718 49.1556C295.276 48.9289 294.783 48.8156 294.239 48.8156C293.457 48.8156 292.788 49.0649 292.233 49.5636C291.689 50.0623 291.377 50.7536 291.298 51.6376H297.18ZM305.359 47.4896C306.492 47.4896 307.41 47.8353 308.113 48.5266C308.815 49.2066 309.167 50.1926 309.167 51.4846V56.9756H307.637V51.7056C307.637 50.7763 307.404 50.0679 306.94 49.5806C306.475 49.0819 305.84 48.8326 305.036 48.8326C304.22 48.8326 303.568 49.0876 303.081 49.5976C302.605 50.1076 302.367 50.8499 302.367 51.8246V56.9756H300.82V47.6596H302.367V48.9856C302.673 48.5096 303.086 48.1413 303.608 47.8806C304.14 47.6199 304.724 47.4896 305.359 47.4896ZM311.116 52.3006C311.116 51.3373 311.308 50.4986 311.694 49.7846C312.079 49.0593 312.612 48.4983 313.292 48.1016C313.983 47.7049 314.771 47.5066 315.655 47.5066C316.799 47.5066 317.74 47.7843 318.477 48.3396C319.225 48.8949 319.718 49.6656 319.956 50.6516H318.29C318.131 50.0849 317.819 49.6373 317.355 49.3086C316.901 48.9799 316.335 48.8156 315.655 48.8156C314.771 48.8156 314.057 49.1216 313.513 49.7336C312.969 50.3343 312.697 51.1899 312.697 52.3006C312.697 53.4226 312.969 54.2896 313.513 54.9016C314.057 55.5136 314.771 55.8196 315.655 55.8196C316.335 55.8196 316.901 55.6609 317.355 55.3436C317.808 55.0263 318.12 54.5729 318.29 53.9836H319.956C319.706 54.9356 319.208 55.7006 318.46 56.2786C317.712 56.8453 316.777 57.1286 315.655 57.1286C314.771 57.1286 313.983 56.9303 313.292 56.5336C312.612 56.1369 312.079 55.5759 311.694 54.8506C311.308 54.1253 311.116 53.2753 311.116 52.3006ZM330.044 47.6596L324.434 61.3616H322.836L324.672 56.8736L320.915 47.6596H322.632L325.556 55.2076L328.446 47.6596H330.044ZM332.092 57.0776C331.797 57.0776 331.548 56.9756 331.344 56.7716C331.14 56.5676 331.038 56.3183 331.038 56.0236C331.038 55.7289 331.14 55.4796 331.344 55.2756C331.548 55.0716 331.797 54.9696 332.092 54.9696C332.375 54.9696 332.613 55.0716 332.806 55.2756C333.01 55.4796 333.112 55.7289 333.112 56.0236C333.112 56.3183 333.01 56.5676 332.806 56.7716C332.613 56.9756 332.375 57.0776 332.092 57.0776Z" fill="#242321"/>
<rect x="71.3555" y="155.976" width="64" height="64.0002" rx="32" fill="black"/>
<path fill-rule="evenodd" clip-rule="evenodd" d="M77.7677 166.865C77.7596 167.017 77.7554 167.169 77.7554 167.322C77.7554 167.475 77.7596 167.627 77.7677 167.779C77.7596 167.931 77.7554 168.083 77.7554 168.236C77.7554 176.31 89.217 182.856 103.355 182.856C117.494 182.856 128.955 176.31 128.955 168.236C128.955 168.083 128.951 167.931 128.943 167.779C128.951 167.627 128.955 167.475 128.955 167.322C128.955 167.169 128.951 167.017 128.943 166.865C128.951 166.714 128.955 166.561 128.955 166.409C128.955 166.256 128.951 166.104 128.943 165.952C128.951 165.8 128.955 165.648 128.955 165.495C128.955 165.342 128.951 165.19 128.943 165.038C128.951 164.886 128.955 164.734 128.955 164.581C128.955 164.428 128.951 164.276 128.943 164.124C128.951 163.973 128.955 163.82 128.955 163.668C128.955 163.515 128.951 163.362 128.943 163.211C128.946 163.156 128.949 163.101 128.95 163.046C127.782 164.212 126.374 165.29 124.765 166.257C123.751 167.203 122.535 168.084 121.14 168.881C116.62 171.462 110.334 173.079 103.355 173.079C96.3769 173.079 90.0904 171.462 85.5709 168.881C83.8304 167.887 82.3695 166.762 81.2297 165.543C85.6681 169.886 93.915 172.805 103.355 172.805C112.175 172.805 119.953 170.257 124.557 166.381C123.196 167.183 121.696 167.906 120.078 168.539C115.66 170.784 109.803 172.165 103.355 172.165C96.3769 172.165 90.0904 170.548 85.5709 167.967C85.1828 167.745 84.8087 167.517 84.4489 167.283C81.7189 165.908 79.4422 164.244 77.7639 162.375C77.7583 162.501 77.7554 162.627 77.7554 162.754C77.7554 162.907 77.7596 163.059 77.7677 163.211C77.7596 163.362 77.7554 163.515 77.7554 163.668C77.7554 163.82 77.7596 163.973 77.7677 164.124C77.7596 164.276 77.7554 164.428 77.7554 164.581C77.7554 164.734 77.7596 164.886 77.7677 165.038C77.7596 165.19 77.7554 165.342 77.7554 165.495C77.7554 165.648 77.7596 165.8 77.7677 165.952C77.7596 166.103 77.7554 166.256 77.7554 166.409C77.7554 166.561 77.7596 166.714 77.7677 166.865ZM81.2352 166.463C85.6749 170.803 93.9189 173.719 103.355 173.719C112.792 173.719 121.036 170.803 125.476 166.463C124.337 167.679 122.878 168.802 121.14 169.794C116.62 172.375 110.334 173.992 103.355 173.992C96.3769 173.992 90.0904 172.375 85.5709 169.794C83.8333 168.802 82.3742 167.679 81.2352 166.463ZM85.5709 170.708C83.8318 169.715 82.3719 168.591 81.2325 167.374C85.6715 171.715 93.917 174.632 103.355 174.632C112.794 174.632 121.039 171.715 125.478 167.374C124.339 168.591 122.879 169.715 121.14 170.708C116.62 173.289 110.334 174.906 103.355 174.906C96.3769 174.906 90.0904 173.289 85.5709 170.708ZM81.2325 168.287C82.3719 169.505 83.8318 170.629 85.5709 171.622C90.0904 174.203 96.3769 175.82 103.355 175.82C110.334 175.82 116.62 174.203 121.14 171.622C122.879 170.629 124.339 169.505 125.478 168.287C121.039 172.629 112.794 175.546 103.355 175.546C93.917 175.546 85.6715 172.629 81.2325 168.287ZM85.5709 172.536C83.8318 171.542 82.3719 170.418 81.2325 169.201C85.6715 173.543 93.917 176.46 103.355 176.46C112.794 176.46 121.039 173.543 125.478 169.201C124.339 170.419 122.879 171.542 121.14 172.536C116.62 175.117 110.334 176.733 103.355 176.733C96.3769 176.733 90.0904 175.117 85.5709 172.536ZM81.2325 170.115C82.3719 171.332 83.8319 172.456 85.5709 173.449C90.0904 176.03 96.3769 177.647 103.355 177.647C110.334 177.647 116.62 176.03 121.14 173.449C122.879 172.456 124.339 171.332 125.478 170.115C121.039 174.456 112.794 177.373 103.355 177.373C93.917 177.373 85.6715 174.456 81.2325 170.115ZM85.5709 174.363C83.8333 173.371 82.3743 172.248 81.2353 171.031C85.6749 175.371 93.919 178.287 103.355 178.287C112.792 178.287 121.036 175.371 125.476 171.031C124.337 172.248 122.878 173.371 121.14 174.363C116.62 176.944 110.334 178.561 103.355 178.561C96.3769 178.561 90.0904 176.944 85.5709 174.363ZM81.2297 171.939C82.3695 173.158 83.8305 174.283 85.5709 175.277C90.0904 177.858 96.3769 179.475 103.355 179.475C110.334 179.475 116.62 177.858 121.14 175.277C122.88 174.283 124.341 173.158 125.481 171.939C121.043 176.282 112.796 179.201 103.355 179.201C93.915 179.201 85.6681 176.282 81.2297 171.939ZM85.5709 176.19C83.8333 175.198 82.3743 174.075 81.2353 172.859C85.6749 177.199 93.9189 180.115 103.355 180.115C112.792 180.115 121.036 177.199 125.476 172.859C124.337 174.075 122.878 175.198 121.14 176.19C116.62 178.771 110.334 180.388 103.355 180.388C96.3769 180.388 90.0904 178.771 85.5709 176.19ZM81.2325 173.77C85.6715 178.111 93.917 181.028 103.355 181.028C112.794 181.028 121.039 178.111 125.478 173.77C124.339 174.987 122.879 176.111 121.14 177.104C116.62 179.685 110.334 181.302 103.355 181.302C96.3769 181.302 90.0904 179.685 85.5709 177.104C83.8319 176.111 82.3719 174.987 81.2325 173.77ZM121.14 178.018C122.879 177.025 124.339 175.901 125.478 174.683C121.039 179.025 112.794 181.942 103.355 181.942C93.917 181.942 85.6715 179.025 81.2325 174.683C82.3719 175.901 83.8318 177.025 85.5709 178.018C90.0904 180.599 96.3769 182.216 103.355 182.216C110.334 182.216 116.62 180.599 121.14 178.018Z" fill="url(#paint0_linear_95_164)"/>
<path fill-rule="evenodd" clip-rule="evenodd" d="M128.943 209.086C128.951 208.934 128.955 208.782 128.955 208.629C128.955 208.476 128.951 208.324 128.943 208.172C128.951 208.02 128.955 207.868 128.955 207.715C128.955 199.641 117.494 193.096 103.355 193.096C89.217 193.096 77.7555 199.641 77.7555 207.715C77.7555 207.868 77.7596 208.02 77.7678 208.172C77.7596 208.324 77.7555 208.476 77.7555 208.629C77.7555 208.782 77.7596 208.934 77.7678 209.086C77.7596 209.237 77.7555 209.39 77.7555 209.543C77.7555 209.695 77.7596 209.848 77.7677 209.999C77.7596 210.151 77.7555 210.303 77.7555 210.456C77.7555 210.609 77.7596 210.761 77.7678 210.913C77.7596 211.065 77.7555 211.217 77.7555 211.37C77.7555 211.523 77.7596 211.675 77.7677 211.827C77.7596 211.979 77.7555 212.131 77.7555 212.284C77.7555 212.436 77.7596 212.589 77.7678 212.74C77.7648 212.795 77.7624 212.85 77.7605 212.905C78.9292 211.739 80.337 210.661 81.9456 209.694C82.9601 208.748 84.1757 207.867 85.5709 207.07C90.0905 204.489 96.3769 202.873 103.355 202.873C110.334 202.873 116.62 204.489 121.14 207.07C122.88 208.064 124.341 209.189 125.481 210.408C121.043 206.065 112.796 203.147 103.355 203.147C94.5357 203.147 86.7577 205.694 82.1538 209.57C83.5147 208.768 85.0151 208.045 86.6326 207.412C91.051 205.167 96.9078 203.787 103.355 203.787C110.334 203.787 116.62 205.403 121.14 207.984C121.528 208.206 121.902 208.434 122.262 208.668C124.992 210.044 127.269 211.707 128.947 213.576C128.953 213.45 128.955 213.324 128.955 213.197C128.955 213.044 128.951 212.892 128.943 212.74C128.951 212.589 128.955 212.436 128.955 212.284C128.955 212.131 128.951 211.979 128.943 211.827C128.951 211.675 128.955 211.523 128.955 211.37C128.955 211.217 128.951 211.065 128.943 210.913C128.951 210.761 128.955 210.609 128.955 210.456C128.955 210.303 128.951 210.151 128.943 209.999C128.951 209.848 128.955 209.695 128.955 209.543C128.955 209.39 128.951 209.237 128.943 209.086ZM125.476 209.488C121.036 205.148 112.792 202.233 103.355 202.233C93.919 202.233 85.675 205.148 81.2353 209.488C82.3743 208.272 83.8333 207.149 85.5709 206.157C90.0905 203.576 96.3769 201.959 103.355 201.959C110.334 201.959 116.62 203.576 121.14 206.157C122.878 207.149 124.337 208.272 125.476 209.488ZM121.14 205.243C122.879 206.236 124.339 207.36 125.478 208.578C121.039 204.236 112.794 201.319 103.355 201.319C93.917 201.319 85.6715 204.236 81.2325 208.578C82.3719 207.36 83.8319 206.236 85.5709 205.243C90.0905 202.662 96.3769 201.045 103.355 201.045C110.334 201.045 116.62 202.662 121.14 205.243ZM125.478 207.664C124.339 206.446 122.879 205.322 121.14 204.329C116.62 201.748 110.334 200.132 103.355 200.132C96.3769 200.132 90.0905 201.748 85.5709 204.329C83.8319 205.322 82.3719 206.446 81.2325 207.664C85.6715 203.322 93.917 200.405 103.355 200.405C112.794 200.405 121.039 203.322 125.478 207.664ZM121.14 203.416C122.879 204.409 124.339 205.533 125.478 206.75C121.039 202.409 112.794 199.492 103.355 199.492C93.917 199.492 85.6715 202.409 81.2325 206.75C82.3719 205.533 83.8319 204.409 85.5709 203.416C90.0905 200.835 96.3769 199.218 103.355 199.218C110.334 199.218 116.62 200.835 121.14 203.416ZM125.478 205.836C124.339 204.619 122.879 203.495 121.14 202.502C116.62 199.921 110.334 198.304 103.355 198.304C96.3769 198.304 90.0905 199.921 85.5709 202.502C83.8319 203.495 82.3719 204.619 81.2326 205.836C85.6716 201.495 93.917 198.578 103.355 198.578C112.794 198.578 121.039 201.495 125.478 205.836ZM121.14 201.588C122.878 202.581 124.337 203.704 125.476 204.92C121.036 200.58 112.792 197.664 103.355 197.664C93.919 197.664 85.675 200.58 81.2353 204.92C82.3743 203.704 83.8333 202.581 85.5709 201.588C90.0905 199.007 96.3769 197.391 103.355 197.391C110.334 197.391 116.62 199.007 121.14 201.588ZM125.481 204.012C124.341 202.793 122.88 201.668 121.14 200.674C116.62 198.093 110.334 196.477 103.355 196.477C96.3769 196.477 90.0905 198.093 85.5709 200.674C83.8305 201.668 82.3696 202.793 81.2298 204.012C85.6682 199.669 93.9151 196.751 103.355 196.751C112.796 196.751 121.043 199.669 125.481 204.012ZM121.14 199.761C122.878 200.753 124.337 201.876 125.476 203.092C121.036 198.752 112.792 195.837 103.355 195.837C93.919 195.837 85.675 198.752 81.2353 203.092C82.3743 201.876 83.8333 200.753 85.5709 199.761C90.0905 197.18 96.3769 195.563 103.355 195.563C110.334 195.563 116.62 197.18 121.14 199.761ZM125.478 202.181C121.039 197.84 112.794 194.923 103.355 194.923C93.917 194.923 85.6715 197.84 81.2325 202.182C82.3719 200.964 83.8319 199.84 85.5709 198.847C90.0905 196.266 96.3769 194.649 103.355 194.649C110.334 194.649 116.62 196.266 121.14 198.847C122.879 199.84 124.339 200.964 125.478 202.181ZM85.5709 197.933C83.8319 198.926 82.3719 200.05 81.2325 201.268C85.6715 196.926 93.917 194.009 103.355 194.009C112.794 194.009 121.039 196.926 125.478 201.268C124.339 200.05 122.879 198.926 121.14 197.933C116.62 195.352 110.334 193.736 103.355 193.736C96.3769 193.736 90.0905 195.352 85.5709 197.933Z" fill="url(#paint1_linear_95_164)"/>
<path fill-rule="evenodd" clip-rule="evenodd" d="M124.466 162.388C124.314 162.38 124.162 162.375 124.009 162.375C123.856 162.375 123.704 162.38 123.552 162.388C123.4 162.38 123.248 162.375 123.095 162.375C115.021 162.375 108.475 173.837 108.475 187.976C108.475 202.114 115.021 213.576 123.095 213.576C123.248 213.576 123.4 213.572 123.552 213.563C123.704 213.572 123.856 213.576 124.009 213.576C124.162 213.576 124.314 213.572 124.466 213.563C124.617 213.572 124.77 213.576 124.922 213.576C125.075 213.576 125.227 213.572 125.379 213.563C125.531 213.572 125.683 213.576 125.836 213.576C125.989 213.576 126.141 213.572 126.293 213.563C126.445 213.572 126.597 213.576 126.75 213.576C126.903 213.576 127.055 213.572 127.207 213.563C127.358 213.572 127.511 213.576 127.663 213.576C127.816 213.576 127.969 213.572 128.12 213.563C128.175 213.566 128.23 213.569 128.285 213.571C127.119 212.402 126.041 210.994 125.074 209.385C124.128 208.371 123.247 207.155 122.45 205.76C119.869 201.241 118.252 194.954 118.252 187.976C118.252 180.997 119.869 174.711 122.45 170.191C123.444 168.451 124.569 166.99 125.788 165.85C121.445 170.288 118.526 178.535 118.526 187.976C118.526 196.795 121.074 204.573 124.95 209.177C124.148 207.816 123.425 206.316 122.792 204.698C120.547 200.28 119.166 194.423 119.166 187.976C119.166 180.997 120.783 174.711 123.364 170.191C123.586 169.803 123.814 169.429 124.048 169.069C125.424 166.339 127.087 164.062 128.956 162.384C128.83 162.378 128.704 162.375 128.577 162.375C128.424 162.375 128.272 162.38 128.12 162.388C127.969 162.38 127.816 162.375 127.663 162.375C127.511 162.375 127.358 162.38 127.207 162.388C127.055 162.38 126.903 162.375 126.75 162.375C126.597 162.375 126.445 162.38 126.293 162.388C126.141 162.38 125.989 162.375 125.836 162.375C125.683 162.375 125.531 162.38 125.379 162.388C125.228 162.38 125.075 162.375 124.922 162.375C124.77 162.375 124.617 162.38 124.466 162.388ZM124.868 165.855C120.528 170.295 117.612 178.539 117.612 187.976C117.612 197.412 120.528 205.656 124.868 210.096C123.652 208.957 122.529 207.498 121.537 205.76C118.956 201.241 117.339 194.954 117.339 187.976C117.339 180.997 118.956 174.711 121.537 170.191C122.529 168.453 123.652 166.994 124.868 165.855ZM120.623 170.191C121.616 168.452 122.74 166.992 123.957 165.853C119.616 170.292 116.699 178.537 116.699 187.976C116.699 197.414 119.616 205.66 123.957 210.099C122.74 208.959 121.616 207.499 120.623 205.76C118.042 201.241 116.425 194.954 116.425 187.976C116.425 180.997 118.042 174.711 120.623 170.191ZM123.044 165.853C121.826 166.992 120.702 168.452 119.709 170.191C117.128 174.711 115.511 180.997 115.511 187.976C115.511 194.954 117.128 201.241 119.709 205.76C120.702 207.499 121.826 208.959 123.044 210.099C118.702 205.66 115.785 197.414 115.785 187.976C115.785 178.537 118.702 170.292 123.044 165.853ZM118.795 170.191C119.789 168.452 120.913 166.992 122.13 165.853C117.788 170.292 114.871 178.537 114.871 187.976C114.871 197.414 117.788 205.66 122.13 210.099C120.912 208.959 119.789 207.499 118.795 205.76C116.214 201.241 114.598 194.954 114.598 187.976C114.598 180.997 116.214 174.711 118.795 170.191ZM121.216 165.853C119.999 166.992 118.875 168.452 117.882 170.191C115.301 174.711 113.684 180.997 113.684 187.976C113.684 194.954 115.301 201.241 117.882 205.76C118.875 207.499 119.999 208.959 121.216 210.099C116.875 205.66 113.958 197.414 113.958 187.976C113.958 178.537 116.875 170.292 121.216 165.853ZM116.968 170.191C117.96 168.453 119.083 166.994 120.3 165.855C115.96 170.295 113.044 178.539 113.044 187.976C113.044 197.412 115.96 205.656 120.3 210.096C119.083 208.957 117.96 207.498 116.968 205.76C114.387 201.241 112.77 194.954 112.77 187.976C112.77 180.997 114.387 174.711 116.968 170.191ZM119.392 165.85C118.173 166.99 117.048 168.451 116.054 170.191C113.473 174.711 111.856 180.997 111.856 187.976C111.856 194.954 113.473 201.241 116.054 205.76C117.048 207.501 118.173 208.962 119.392 210.101C115.049 205.663 112.13 197.416 112.13 187.976C112.13 178.535 115.049 170.288 119.392 165.85ZM115.141 170.191C116.133 168.453 117.256 166.994 118.472 165.855C114.132 170.295 111.216 178.539 111.216 187.976C111.216 197.412 114.132 205.656 118.472 210.096C117.256 208.957 116.133 207.498 115.141 205.76C112.56 201.241 110.943 194.954 110.943 187.976C110.943 180.997 112.56 174.711 115.141 170.191ZM117.561 165.853C113.22 170.292 110.303 178.537 110.303 187.976C110.303 197.414 113.22 205.66 117.561 210.099C116.344 208.959 115.22 207.499 114.227 205.76C111.646 201.241 110.029 194.954 110.029 187.976C110.029 180.997 111.646 174.711 114.227 170.191C115.22 168.452 116.344 166.992 117.561 165.853ZM113.313 205.76C114.306 207.499 115.43 208.959 116.648 210.099C112.306 205.66 109.389 197.414 109.389 187.976C109.389 178.537 112.306 170.292 116.648 165.853C115.43 166.992 114.306 168.452 113.313 170.191C110.732 174.711 109.115 180.997 109.115 187.976C109.115 194.954 110.732 201.241 113.313 205.76Z" fill="url(#paint2_linear_95_164)"/>
<path fill-rule="evenodd" clip-rule="evenodd" d="M82.2453 162.388C82.397 162.38 82.5493 162.375 82.7022 162.375C82.8551 162.375 83.0073 162.38 83.1591 162.388C83.3108 162.38 83.4631 162.375 83.6159 162.375C91.6901 162.375 98.2354 173.837 98.2354 187.976C98.2354 202.114 91.6901 213.576 83.6159 213.576C83.4631 213.576 83.3108 213.572 83.1591 213.563C83.0074 213.572 82.855 213.576 82.7022 213.576C82.5493 213.576 82.397 213.572 82.2453 213.563C82.0936 213.572 81.9413 213.576 81.7884 213.576C81.6356 213.576 81.4834 213.572 81.3317 213.563C81.18 213.572 81.0278 213.576 80.8749 213.576C80.7221 213.576 80.5697 213.572 80.4179 213.563C80.2662 213.572 80.1138 213.576 79.9609 213.576C79.8081 213.576 79.6559 213.572 79.5042 213.563C79.3525 213.572 79.2003 213.576 79.0474 213.576C78.8946 213.576 78.7423 213.572 78.5906 213.563C78.5357 213.566 78.4808 213.569 78.4258 213.571C79.5921 212.402 80.6699 210.994 81.6371 209.385C82.5829 208.371 83.4639 207.155 84.2607 205.76C86.8417 201.241 88.4584 194.954 88.4584 187.976C88.4584 180.997 86.8417 174.711 84.2607 170.191C83.2668 168.451 82.1418 166.99 80.9233 165.85C85.2662 170.288 88.1844 178.535 88.1844 187.976C88.1844 196.795 85.6373 204.573 81.761 209.177C82.5626 207.816 83.2861 206.316 83.9187 204.698C86.1643 200.28 87.5444 194.423 87.5444 187.976C87.5444 180.997 85.9277 174.711 83.3467 170.191C83.1251 169.803 82.897 169.429 82.6628 169.069C81.2874 166.339 79.6239 164.062 77.7554 162.384C77.8811 162.378 78.0072 162.375 78.1337 162.375C78.2866 162.375 78.4388 162.38 78.5906 162.388C78.7423 162.38 78.8946 162.375 79.0474 162.375C79.2003 162.375 79.3525 162.38 79.5042 162.388C79.6559 162.38 79.8081 162.375 79.9609 162.375C80.1138 162.375 80.2662 162.38 80.4179 162.388C80.5697 162.38 80.7221 162.375 80.8749 162.375C81.0278 162.375 81.18 162.38 81.3317 162.388C81.4834 162.38 81.6356 162.375 81.7884 162.375C81.9413 162.375 82.0936 162.38 82.2453 162.388ZM81.8427 165.855C86.1827 170.295 89.0984 178.539 89.0984 187.976C89.0984 197.412 86.1827 205.656 81.8427 210.096C83.0589 208.957 84.1819 207.498 85.1742 205.76C87.7552 201.241 89.3719 194.954 89.3719 187.976C89.3719 180.997 87.7552 174.711 85.1742 170.191C84.1819 168.453 83.0589 166.994 81.8427 165.855ZM86.088 170.191C85.0948 168.452 83.9709 166.992 82.7535 165.853C87.0949 170.292 90.0119 178.537 90.0119 187.976C90.0119 197.414 87.0949 205.66 82.7535 210.099C83.9709 208.959 85.0948 207.499 86.088 205.76C88.669 201.241 90.2857 194.954 90.2857 187.976C90.2857 180.997 88.669 174.711 86.088 170.191ZM83.6672 165.853C84.8846 166.992 86.0086 168.452 87.0017 170.191C89.5827 174.711 91.1994 180.997 91.1994 187.976C91.1994 194.954 89.5827 201.241 87.0017 205.76C86.0086 207.499 84.8846 208.959 83.6672 210.099C88.0087 205.66 90.9257 197.414 90.9257 187.976C90.9257 178.537 88.0087 170.292 83.6672 165.853ZM87.9155 170.191C86.9223 168.452 85.7984 166.992 84.581 165.853C88.9224 170.292 91.8394 178.537 91.8394 187.976C91.8394 197.414 88.9224 205.66 84.581 210.099C85.7984 208.959 86.9223 207.499 87.9155 205.76C90.4965 201.241 92.1132 194.954 92.1132 187.976C92.1132 180.997 90.4965 174.711 87.9155 170.191ZM85.4947 165.853C86.7121 166.992 87.8361 168.452 88.8292 170.191C91.4102 174.711 93.0269 180.997 93.0269 187.976C93.0269 194.954 91.4102 201.241 88.8292 205.76C87.8361 207.499 86.7121 208.959 85.4948 210.099C89.8362 205.66 92.7532 197.414 92.7532 187.976C92.7532 178.537 89.8362 170.292 85.4947 165.853ZM89.7427 170.191C88.7504 168.453 87.6275 166.994 86.4112 165.855C90.7512 170.295 93.6669 178.539 93.6669 187.976C93.6669 197.412 90.7512 205.656 86.4112 210.096C87.6275 208.957 88.7504 207.498 89.7427 205.76C92.3237 201.241 93.9404 194.954 93.9404 187.976C93.9404 180.997 92.3237 174.711 89.7427 170.191ZM87.3193 165.85C88.5378 166.99 89.6628 168.451 90.6567 170.191C93.2377 174.711 94.8544 180.997 94.8544 187.976C94.8544 194.954 93.2377 201.241 90.6567 205.76C89.6628 207.501 88.5378 208.962 87.3193 210.101C91.6622 205.663 94.5804 197.416 94.5804 187.976C94.5804 178.535 91.6622 170.288 87.3193 165.85ZM91.5702 170.191C90.5779 168.453 89.455 166.994 88.2387 165.855C92.5787 170.295 95.4944 178.539 95.4944 187.976C95.4944 197.412 92.5787 205.656 88.2387 210.096C89.4549 208.957 90.5779 207.498 91.5702 205.76C94.1512 201.241 95.7679 194.954 95.7679 187.976C95.7679 180.997 94.1512 174.711 91.5702 170.191ZM89.1495 165.853C93.491 170.292 96.4079 178.537 96.4079 187.976C96.4079 197.414 93.4909 205.66 89.1495 210.099C90.3669 208.959 91.4908 207.499 92.484 205.76C95.065 201.241 96.6817 194.954 96.6817 187.976C96.6817 180.997 95.065 174.711 92.484 170.191C91.4909 168.452 90.3669 166.992 89.1495 165.853ZM93.3977 205.76C92.4046 207.499 91.2806 208.959 90.0632 210.099C94.4047 205.66 97.3217 197.414 97.3217 187.976C97.3217 178.537 94.4047 170.292 90.0632 165.853C91.2806 166.992 92.4046 168.452 93.3977 170.191C95.9787 174.711 97.5954 180.997 97.5954 187.976C97.5954 194.954 95.9787 201.241 93.3977 205.76Z" fill="url(#paint3_linear_95_164)"/>
<path d="M156.095 169.996C156.095 168.636 156.409 167.416 157.035 166.336C157.675 165.256 158.535 164.416 159.615 163.816C160.709 163.202 161.902 162.896 163.195 162.896C164.675 162.896 165.989 163.262 167.135 163.996C168.295 164.716 169.135 165.742 169.655 167.076H166.915C166.555 166.342 166.055 165.796 165.415 165.436C164.775 165.076 164.035 164.896 163.195 164.896C162.275 164.896 161.455 165.102 160.735 165.516C160.015 165.929 159.449 166.522 159.035 167.296C158.635 168.069 158.435 168.969 158.435 169.996C158.435 171.022 158.635 171.922 159.035 172.696C159.449 173.469 160.015 174.069 160.735 174.496C161.455 174.909 162.275 175.116 163.195 175.116C164.035 175.116 164.775 174.936 165.415 174.576C166.055 174.216 166.555 173.669 166.915 172.936H169.655C169.135 174.269 168.295 175.296 167.135 176.016C165.989 176.736 164.675 177.096 163.195 177.096C161.889 177.096 160.695 176.796 159.615 176.196C158.535 175.582 157.675 174.736 157.035 173.656C156.409 172.576 156.095 171.356 156.095 169.996ZM178.024 165.776C178.864 165.776 179.611 165.956 180.264 166.316C180.931 166.676 181.451 167.209 181.824 167.916C182.211 168.622 182.404 169.476 182.404 170.476V176.976H180.144V170.816C180.144 169.829 179.898 169.076 179.404 168.556C178.911 168.022 178.238 167.756 177.384 167.756C176.531 167.756 175.851 168.022 175.344 168.556C174.851 169.076 174.604 169.829 174.604 170.816V176.976H172.324V162.176H174.604V167.236C174.991 166.769 175.478 166.409 176.064 166.156C176.664 165.902 177.318 165.776 178.024 165.776ZM187.593 167.556C187.926 166.996 188.366 166.562 188.913 166.256C189.473 165.936 190.133 165.776 190.893 165.776V168.136H190.313C189.419 168.136 188.739 168.362 188.273 168.816C187.819 169.269 187.593 170.056 187.593 171.176V176.976H185.313V165.956H187.593V167.556ZM194.148 164.496C193.735 164.496 193.388 164.356 193.108 164.076C192.828 163.796 192.688 163.449 192.688 163.036C192.688 162.622 192.828 162.276 193.108 161.996C193.388 161.716 193.735 161.576 194.148 161.576C194.548 161.576 194.888 161.716 195.168 161.996C195.448 162.276 195.588 162.622 195.588 163.036C195.588 163.449 195.448 163.796 195.168 164.076C194.888 164.356 194.548 164.496 194.148 164.496ZM195.268 165.956V176.976H192.988V165.956H195.268ZM202.262 177.156C201.395 177.156 200.615 177.002 199.922 176.696C199.242 176.376 198.702 175.949 198.302 175.416C197.902 174.869 197.688 174.262 197.662 173.596H200.022C200.062 174.062 200.282 174.456 200.682 174.776C201.095 175.082 201.608 175.236 202.222 175.236C202.862 175.236 203.355 175.116 203.702 174.876C204.062 174.622 204.242 174.302 204.242 173.916C204.242 173.502 204.042 173.196 203.642 172.996C203.255 172.796 202.635 172.576 201.782 172.336C200.955 172.109 200.282 171.889 199.762 171.676C199.242 171.462 198.788 171.136 198.402 170.696C198.028 170.256 197.842 169.676 197.842 168.956C197.842 168.369 198.015 167.836 198.362 167.356C198.708 166.862 199.202 166.476 199.842 166.196C200.495 165.916 201.242 165.776 202.082 165.776C203.335 165.776 204.342 166.096 205.102 166.736C205.875 167.362 206.288 168.222 206.342 169.316H204.062C204.022 168.822 203.822 168.429 203.462 168.136C203.102 167.842 202.615 167.696 202.002 167.696C201.402 167.696 200.942 167.809 200.622 168.036C200.302 168.262 200.142 168.562 200.142 168.936C200.142 169.229 200.248 169.476 200.462 169.676C200.675 169.876 200.935 170.036 201.242 170.156C201.548 170.262 202.002 170.402 202.602 170.576C203.402 170.789 204.055 171.009 204.562 171.236C205.082 171.449 205.528 171.769 205.902 172.196C206.275 172.622 206.468 173.189 206.482 173.896C206.482 174.522 206.308 175.082 205.962 175.576C205.615 176.069 205.122 176.456 204.482 176.736C203.855 177.016 203.115 177.156 202.262 177.156ZM211.605 167.816V173.916C211.605 174.329 211.699 174.629 211.885 174.816C212.085 174.989 212.419 175.076 212.885 175.076H214.285V176.976H212.485C211.459 176.976 210.672 176.736 210.125 176.256C209.579 175.776 209.305 174.996 209.305 173.916V167.816H208.005V165.956H209.305V163.216H211.605V165.956H214.285V167.816H211.605ZM217.547 164.496C217.133 164.496 216.787 164.356 216.507 164.076C216.227 163.796 216.087 163.449 216.087 163.036C216.087 162.622 216.227 162.276 216.507 161.996C216.787 161.716 217.133 161.576 217.547 161.576C217.947 161.576 218.287 161.716 218.567 161.996C218.847 162.276 218.987 162.622 218.987 163.036C218.987 163.449 218.847 163.796 218.567 164.076C218.287 164.356 217.947 164.496 217.547 164.496ZM218.667 165.956V176.976H216.387V165.956H218.667ZM220.9 171.416C220.9 170.309 221.127 169.329 221.58 168.476C222.047 167.622 222.673 166.962 223.46 166.496C224.26 166.016 225.14 165.776 226.1 165.776C226.967 165.776 227.72 165.949 228.36 166.296C229.013 166.629 229.533 167.049 229.92 167.556V165.956H232.22V176.976H229.92V175.336C229.533 175.856 229.007 176.289 228.34 176.636C227.673 176.982 226.913 177.156 226.06 177.156C225.113 177.156 224.247 176.916 223.46 176.436C222.673 175.942 222.047 175.262 221.58 174.396C221.127 173.516 220.9 172.522 220.9 171.416ZM229.92 171.456C229.92 170.696 229.76 170.036 229.44 169.476C229.133 168.916 228.727 168.489 228.22 168.196C227.713 167.902 227.167 167.756 226.58 167.756C225.993 167.756 225.447 167.902 224.94 168.196C224.433 168.476 224.02 168.896 223.7 169.456C223.393 170.002 223.24 170.656 223.24 171.416C223.24 172.176 223.393 172.842 223.7 173.416C224.02 173.989 224.433 174.429 224.94 174.736C225.46 175.029 226.007 175.176 226.58 175.176C227.167 175.176 227.713 175.029 228.22 174.736C228.727 174.442 229.133 174.016 229.44 173.456C229.76 172.882 229.92 172.216 229.92 171.456ZM240.775 165.776C241.642 165.776 242.415 165.956 243.095 166.316C243.788 166.676 244.328 167.209 244.715 167.916C245.102 168.622 245.295 169.476 245.295 170.476V176.976H243.035V170.816C243.035 169.829 242.788 169.076 242.295 168.556C241.802 168.022 241.128 167.756 240.275 167.756C239.422 167.756 238.742 168.022 238.235 168.556C237.742 169.076 237.495 169.829 237.495 170.816V176.976H235.215V165.956H237.495V167.216C237.868 166.762 238.342 166.409 238.915 166.156C239.502 165.902 240.122 165.776 240.775 165.776ZM265.378 163.076L260.158 176.976H257.518L252.278 163.076H254.718L258.838 174.636L262.978 163.076H265.378ZM268.445 164.496C268.032 164.496 267.685 164.356 267.405 164.076C267.125 163.796 266.985 163.449 266.985 163.036C266.985 162.622 267.125 162.276 267.405 161.996C267.685 161.716 268.032 161.576 268.445 161.576C268.845 161.576 269.185 161.716 269.465 161.996C269.745 162.276 269.885 162.622 269.885 163.036C269.885 163.449 269.745 163.796 269.465 164.076C269.185 164.356 268.845 164.496 268.445 164.496ZM269.565 165.956V176.976H267.285V165.956H269.565ZM282.659 171.196C282.659 171.609 282.632 171.982 282.579 172.316H274.159C274.225 173.196 274.552 173.902 275.139 174.436C275.725 174.969 276.445 175.236 277.299 175.236C278.525 175.236 279.392 174.722 279.899 173.696H282.359C282.025 174.709 281.419 175.542 280.539 176.196C279.672 176.836 278.592 177.156 277.299 177.156C276.245 177.156 275.299 176.922 274.459 176.456C273.632 175.976 272.979 175.309 272.499 174.456C272.032 173.589 271.799 172.589 271.799 171.456C271.799 170.322 272.025 169.329 272.479 168.476C272.945 167.609 273.592 166.942 274.419 166.476C275.259 166.009 276.219 165.776 277.299 165.776C278.339 165.776 279.265 166.002 280.079 166.456C280.892 166.909 281.525 167.549 281.979 168.376C282.432 169.189 282.659 170.129 282.659 171.196ZM280.279 170.476C280.265 169.636 279.965 168.962 279.379 168.456C278.792 167.949 278.065 167.696 277.199 167.696C276.412 167.696 275.739 167.949 275.179 168.456C274.619 168.949 274.285 169.622 274.179 170.476H280.279ZM287.182 162.176V176.976H284.902V162.176H287.182ZM303.516 165.776C304.382 165.776 305.156 165.956 305.836 166.316C306.529 166.676 307.069 167.209 307.456 167.916C307.856 168.622 308.056 169.476 308.056 170.476V176.976H305.796V170.816C305.796 169.829 305.549 169.076 305.056 168.556C304.562 168.022 303.889 167.756 303.036 167.756C302.182 167.756 301.502 168.022 300.996 168.556C300.502 169.076 300.256 169.829 300.256 170.816V176.976H297.996V170.816C297.996 169.829 297.749 169.076 297.256 168.556C296.762 168.022 296.089 167.756 295.236 167.756C294.382 167.756 293.702 168.022 293.196 168.556C292.702 169.076 292.456 169.829 292.456 170.816V176.976H290.176V165.956H292.456V167.216C292.829 166.762 293.302 166.409 293.876 166.156C294.449 165.902 295.062 165.776 295.716 165.776C296.596 165.776 297.382 165.962 298.076 166.336C298.769 166.709 299.302 167.249 299.676 167.956C300.009 167.289 300.529 166.762 301.236 166.376C301.942 165.976 302.702 165.776 303.516 165.776ZM310.197 171.416C310.197 170.309 310.424 169.329 310.877 168.476C311.344 167.622 311.97 166.962 312.757 166.496C313.557 166.016 314.437 165.776 315.397 165.776C316.264 165.776 317.017 165.949 317.657 166.296C318.31 166.629 318.83 167.049 319.217 167.556V165.956H321.517V176.976H319.217V175.336C318.83 175.856 318.304 176.289 317.637 176.636C316.97 176.982 316.21 177.156 315.357 177.156C314.41 177.156 313.544 176.916 312.757 176.436C311.97 175.942 311.344 175.262 310.877 174.396C310.424 173.516 310.197 172.522 310.197 171.416ZM319.217 171.456C319.217 170.696 319.057 170.036 318.737 169.476C318.43 168.916 318.024 168.489 317.517 168.196C317.01 167.902 316.464 167.756 315.877 167.756C315.29 167.756 314.744 167.902 314.237 168.196C313.73 168.476 313.317 168.896 312.997 169.456C312.69 170.002 312.537 170.656 312.537 171.416C312.537 172.176 312.69 172.842 312.997 173.416C313.317 173.989 313.73 174.429 314.237 174.736C314.757 175.029 315.304 175.176 315.877 175.176C316.464 175.176 317.01 175.029 317.517 174.736C318.024 174.442 318.43 174.016 318.737 173.456C319.057 172.882 319.217 172.216 319.217 171.456ZM330.072 165.776C330.938 165.776 331.712 165.956 332.392 166.316C333.085 166.676 333.625 167.209 334.012 167.916C334.398 168.622 334.592 169.476 334.592 170.476V176.976H332.332V170.816C332.332 169.829 332.085 169.076 331.592 168.556C331.098 168.022 330.425 167.756 329.572 167.756C328.718 167.756 328.038 168.022 327.532 168.556C327.038 169.076 326.792 169.829 326.792 170.816V176.976H324.512V165.956H326.792V167.216C327.165 166.762 327.638 166.409 328.212 166.156C328.798 165.902 329.418 165.776 330.072 165.776Z" fill="#242321"/>
<path opacity="0.8" d="M157.091 198.058C156.849 198.058 156.643 197.974 156.475 197.806C156.307 197.638 156.223 197.432 156.223 197.19C156.223 196.947 156.307 196.742 156.475 196.574C156.643 196.406 156.849 196.322 157.091 196.322C157.325 196.322 157.521 196.406 157.679 196.574C157.847 196.742 157.931 196.947 157.931 197.19C157.931 197.432 157.847 197.638 157.679 197.806C157.521 197.974 157.325 198.058 157.091 198.058ZM157.707 199.304V206.976H156.433V199.304H157.707ZM164.765 201.95C165.119 202.006 165.441 202.15 165.731 202.384C166.029 202.617 166.263 202.906 166.431 203.252C166.608 203.597 166.697 203.966 166.697 204.358C166.697 204.852 166.571 205.3 166.319 205.702C166.067 206.094 165.698 206.406 165.213 206.64C164.737 206.864 164.172 206.976 163.519 206.976H159.879V197.218H163.379C164.041 197.218 164.606 197.33 165.073 197.554C165.539 197.768 165.889 198.062 166.123 198.436C166.356 198.809 166.473 199.229 166.473 199.696C166.473 200.274 166.314 200.755 165.997 201.138C165.689 201.511 165.278 201.782 164.765 201.95ZM161.153 201.432H163.295C163.892 201.432 164.354 201.292 164.681 201.012C165.007 200.732 165.171 200.344 165.171 199.85C165.171 199.355 165.007 198.968 164.681 198.688C164.354 198.408 163.883 198.268 163.267 198.268H161.153V201.432ZM163.407 205.926C164.041 205.926 164.536 205.776 164.891 205.478C165.245 205.179 165.423 204.764 165.423 204.232C165.423 203.69 165.236 203.266 164.863 202.958C164.489 202.64 163.99 202.482 163.365 202.482H161.153V205.926H163.407ZM169.711 197.218V203.392C169.711 204.26 169.921 204.904 170.341 205.324C170.77 205.744 171.363 205.954 172.119 205.954C172.865 205.954 173.449 205.744 173.869 205.324C174.298 204.904 174.513 204.26 174.513 203.392V197.218H175.787V203.378C175.787 204.19 175.623 204.876 175.297 205.436C174.97 205.986 174.527 206.397 173.967 206.668C173.416 206.938 172.795 207.074 172.105 207.074C171.414 207.074 170.789 206.938 170.229 206.668C169.678 206.397 169.239 205.986 168.913 205.436C168.595 204.876 168.437 204.19 168.437 203.378V197.218H169.711ZM184.744 197.218L181.566 203.294V206.976H180.292V203.294L177.1 197.218H178.514L180.922 202.16L183.33 197.218H184.744ZM192.612 200.074C192.612 200.886 192.332 201.562 191.772 202.104C191.221 202.636 190.376 202.902 189.238 202.902H187.362V206.976H186.088V197.218H189.238C190.339 197.218 191.174 197.484 191.744 198.016C192.322 198.548 192.612 199.234 192.612 200.074ZM189.238 201.852C189.947 201.852 190.47 201.698 190.806 201.39C191.142 201.082 191.31 200.643 191.31 200.074C191.31 198.87 190.619 198.268 189.238 198.268H187.362V201.852H189.238ZM198.619 207.074C197.714 207.074 196.888 206.864 196.141 206.444C195.395 206.014 194.802 205.422 194.363 204.666C193.934 203.9 193.719 203.042 193.719 202.09C193.719 201.138 193.934 200.284 194.363 199.528C194.802 198.762 195.395 198.17 196.141 197.75C196.888 197.32 197.714 197.106 198.619 197.106C199.534 197.106 200.365 197.32 201.111 197.75C201.858 198.17 202.446 198.758 202.875 199.514C203.305 200.27 203.519 201.128 203.519 202.09C203.519 203.051 203.305 203.91 202.875 204.666C202.446 205.422 201.858 206.014 201.111 206.444C200.365 206.864 199.534 207.074 198.619 207.074ZM198.619 205.968C199.301 205.968 199.912 205.809 200.453 205.492C201.004 205.174 201.433 204.722 201.741 204.134C202.059 203.546 202.217 202.864 202.217 202.09C202.217 201.306 202.059 200.624 201.741 200.046C201.433 199.458 201.009 199.005 200.467 198.688C199.926 198.37 199.31 198.212 198.619 198.212C197.929 198.212 197.313 198.37 196.771 198.688C196.23 199.005 195.801 199.458 195.483 200.046C195.175 200.624 195.021 201.306 195.021 202.09C195.021 202.864 195.175 203.546 195.483 204.134C195.801 204.722 196.23 205.174 196.771 205.492C197.322 205.809 197.938 205.968 198.619 205.968ZM217.465 197.218L214.637 206.976H213.209L210.941 199.122L208.589 206.976L207.175 206.99L204.445 197.218H205.803L207.931 205.492L210.283 197.218H211.711L213.951 205.464L216.093 197.218H217.465ZM220.133 198.254V201.516H223.689V202.566H220.133V205.926H224.109V206.976H218.859V197.204H224.109V198.254H220.133ZM231.175 206.976L228.851 202.986H227.311V206.976H226.037V197.218H229.187C229.924 197.218 230.545 197.344 231.049 197.596C231.562 197.848 231.945 198.188 232.197 198.618C232.449 199.047 232.575 199.537 232.575 200.088C232.575 200.76 232.379 201.352 231.987 201.866C231.604 202.379 231.026 202.72 230.251 202.888L232.701 206.976H231.175ZM227.311 201.964H229.187C229.878 201.964 230.396 201.796 230.741 201.46C231.086 201.114 231.259 200.657 231.259 200.088C231.259 199.509 231.086 199.061 230.741 198.744C230.405 198.426 229.887 198.268 229.187 198.268H227.311V201.964Z" fill="#242321"/>
<defs>
<linearGradient id="paint0_linear_95_164" x1="102.715" y1="184.456" x2="104.206" y2="167.628" gradientUnits="userSpaceOnUse">
<stop stop-color="#EB1700"/>
<stop offset="1" stop-color="#EC1700" stop-opacity="0"/>
</linearGradient>
<linearGradient id="paint1_linear_95_164" x1="104.315" y1="192.328" x2="102.561" y2="212.14" gradientUnits="userSpaceOnUse">
<stop stop-color="#EB1700"/>
<stop offset="1" stop-color="#EA1700" stop-opacity="0"/>
</linearGradient>
<linearGradient id="paint2_linear_95_164" x1="107.707" y1="187.016" x2="124.98" y2="188.545" gradientUnits="userSpaceOnUse">
<stop stop-color="#EB1700"/>
<stop offset="1" stop-color="#FF1900" stop-opacity="0"/>
</linearGradient>
<linearGradient id="paint3_linear_95_164" x1="99.0034" y1="187.016" x2="81.4134" y2="188.574" gradientUnits="userSpaceOnUse">
<stop stop-color="#EB1700"/>
<stop offset="1" stop-color="#F01700" stop-opacity="0"/>
</linearGradient>
</defs>
</svg>
