<svg width="367" height="40" viewBox="0 0 367 40" fill="none" xmlns="http://www.w3.org/2000/svg">
<path d="M0.904663 20C0.904663 8.95431 9.85897 0 20.9047 0H346.905C357.95 0 366.905 8.95431 366.905 20C366.905 31.0457 357.95 40 346.905 40H20.9047C9.85897 40 0.904663 31.0457 0.904663 20Z" fill="#FFEDEB"/>
<path d="M129.509 25L127.269 21.108H126.051V25H124.455V15.27H127.815C128.561 15.27 129.191 15.4007 129.705 15.662C130.227 15.9233 130.615 16.2733 130.867 16.712C131.128 17.1507 131.259 17.6407 131.259 18.182C131.259 18.8167 131.072 19.3953 130.699 19.918C130.335 20.4313 129.77 20.7813 129.005 20.968L131.413 25H129.509ZM126.051 19.834H127.815C128.412 19.834 128.86 19.6847 129.159 19.386C129.467 19.0873 129.621 18.686 129.621 18.182C129.621 17.678 129.471 17.286 129.173 17.006C128.874 16.7167 128.421 16.572 127.815 16.572H126.051V19.834ZM140.37 20.954C140.37 21.2433 140.352 21.5047 140.314 21.738H134.42C134.467 22.354 134.696 22.8487 135.106 23.222C135.517 23.5953 136.021 23.782 136.618 23.782C137.477 23.782 138.084 23.4227 138.438 22.704H140.16C139.927 23.4133 139.502 23.9967 138.886 24.454C138.28 24.902 137.524 25.126 136.618 25.126C135.881 25.126 135.218 24.9627 134.63 24.636C134.052 24.3 133.594 23.8333 133.258 23.236C132.932 22.6293 132.768 21.9293 132.768 21.136C132.768 20.3427 132.927 19.6473 133.244 19.05C133.571 18.4433 134.024 17.9767 134.602 17.65C135.19 17.3233 135.862 17.16 136.618 17.16C137.346 17.16 137.995 17.3187 138.564 17.636C139.134 17.9533 139.577 18.4013 139.894 18.98C140.212 19.5493 140.37 20.2073 140.37 20.954ZM138.704 20.45C138.695 19.862 138.485 19.3907 138.074 19.036C137.664 18.6813 137.155 18.504 136.548 18.504C135.998 18.504 135.526 18.6813 135.134 19.036C134.742 19.3813 134.509 19.8527 134.434 20.45H138.704ZM141.409 21.108C141.409 20.3333 141.568 19.6473 141.885 19.05C142.212 18.4527 142.65 17.9907 143.201 17.664C143.761 17.328 144.377 17.16 145.049 17.16C145.656 17.16 146.183 17.2813 146.631 17.524C147.088 17.7573 147.452 18.0513 147.723 18.406V17.286H149.333V25H147.723V23.852C147.452 24.216 147.084 24.5193 146.617 24.762C146.15 25.0047 145.618 25.126 145.021 25.126C144.358 25.126 143.752 24.958 143.201 24.622C142.65 24.2767 142.212 23.8007 141.885 23.194C141.568 22.578 141.409 21.8827 141.409 21.108ZM147.723 21.136C147.723 20.604 147.611 20.142 147.387 19.75C147.172 19.358 146.888 19.0593 146.533 18.854C146.178 18.6487 145.796 18.546 145.385 18.546C144.974 18.546 144.592 18.6487 144.237 18.854C143.882 19.05 143.593 19.344 143.369 19.736C143.154 20.1187 143.047 20.576 143.047 21.108C143.047 21.64 143.154 22.1067 143.369 22.508C143.593 22.9093 143.882 23.2173 144.237 23.432C144.601 23.6373 144.984 23.74 145.385 23.74C145.796 23.74 146.178 23.6373 146.533 23.432C146.888 23.2267 147.172 22.928 147.387 22.536C147.611 22.1347 147.723 21.668 147.723 21.136ZM150.897 21.108C150.897 20.3333 151.056 19.6473 151.373 19.05C151.7 18.4527 152.139 17.9907 152.689 17.664C153.249 17.328 153.87 17.16 154.551 17.16C155.055 17.16 155.55 17.272 156.035 17.496C156.53 17.7107 156.922 18 157.211 18.364V14.64H158.821V25H157.211V23.838C156.95 24.2113 156.586 24.5193 156.119 24.762C155.662 25.0047 155.135 25.126 154.537 25.126C153.865 25.126 153.249 24.958 152.689 24.622C152.139 24.2767 151.7 23.8007 151.373 23.194C151.056 22.578 150.897 21.8827 150.897 21.108ZM157.211 21.136C157.211 20.604 157.099 20.142 156.875 19.75C156.661 19.358 156.376 19.0593 156.021 18.854C155.667 18.6487 155.284 18.546 154.873 18.546C154.463 18.546 154.08 18.6487 153.725 18.854C153.371 19.05 153.081 19.344 152.857 19.736C152.643 20.1187 152.535 20.576 152.535 21.108C152.535 21.64 152.643 22.1067 152.857 22.508C153.081 22.9093 153.371 23.2173 153.725 23.432C154.089 23.6373 154.472 23.74 154.873 23.74C155.284 23.74 155.667 23.6373 156.021 23.432C156.376 23.2267 156.661 22.928 156.875 22.536C157.099 22.1347 157.211 21.668 157.211 21.136ZM164.022 20.114C164.022 19.162 164.242 18.308 164.68 17.552C165.128 16.796 165.73 16.208 166.486 15.788C167.252 15.3587 168.087 15.144 168.992 15.144C170.028 15.144 170.948 15.4007 171.75 15.914C172.562 16.418 173.15 17.1367 173.514 18.07H171.596C171.344 17.5567 170.994 17.174 170.546 16.922C170.098 16.67 169.58 16.544 168.992 16.544C168.348 16.544 167.774 16.6887 167.27 16.978C166.766 17.2673 166.37 17.6827 166.08 18.224C165.8 18.7653 165.66 19.3953 165.66 20.114C165.66 20.8327 165.8 21.4627 166.08 22.004C166.37 22.5453 166.766 22.9653 167.27 23.264C167.774 23.5533 168.348 23.698 168.992 23.698C169.58 23.698 170.098 23.572 170.546 23.32C170.994 23.068 171.344 22.6853 171.596 22.172H173.514C173.15 23.1053 172.562 23.824 171.75 24.328C170.948 24.832 170.028 25.084 168.992 25.084C168.078 25.084 167.242 24.874 166.486 24.454C165.73 24.0247 165.128 23.432 164.68 22.676C164.242 21.92 164.022 21.066 164.022 20.114ZM174.85 21.108C174.85 20.3333 175.009 19.6473 175.326 19.05C175.653 18.4527 176.092 17.9907 176.642 17.664C177.202 17.328 177.818 17.16 178.49 17.16C179.097 17.16 179.624 17.2813 180.072 17.524C180.53 17.7573 180.894 18.0513 181.164 18.406V17.286H182.774V25H181.164V23.852C180.894 24.216 180.525 24.5193 180.058 24.762C179.592 25.0047 179.06 25.126 178.462 25.126C177.8 25.126 177.193 24.958 176.642 24.622C176.092 24.2767 175.653 23.8007 175.326 23.194C175.009 22.578 174.85 21.8827 174.85 21.108ZM181.164 21.136C181.164 20.604 181.052 20.142 180.828 19.75C180.614 19.358 180.329 19.0593 179.974 18.854C179.62 18.6487 179.237 18.546 178.826 18.546C178.416 18.546 178.033 18.6487 177.678 18.854C177.324 19.05 177.034 19.344 176.81 19.736C176.596 20.1187 176.488 20.576 176.488 21.108C176.488 21.64 176.596 22.1067 176.81 22.508C177.034 22.9093 177.324 23.2173 177.678 23.432C178.042 23.6373 178.425 23.74 178.826 23.74C179.237 23.74 179.62 23.6373 179.974 23.432C180.329 23.2267 180.614 22.928 180.828 22.536C181.052 22.1347 181.164 21.668 181.164 21.136ZM187.671 25.126C187.064 25.126 186.518 25.0187 186.033 24.804C185.557 24.58 185.179 24.2813 184.899 23.908C184.619 23.5253 184.469 23.1007 184.451 22.634H186.103C186.131 22.9607 186.285 23.236 186.565 23.46C186.854 23.6747 187.213 23.782 187.643 23.782C188.091 23.782 188.436 23.698 188.679 23.53C188.931 23.3527 189.057 23.1287 189.057 22.858C189.057 22.5687 188.917 22.354 188.637 22.214C188.366 22.074 187.932 21.92 187.335 21.752C186.756 21.5933 186.285 21.4393 185.921 21.29C185.557 21.1407 185.239 20.912 184.969 20.604C184.707 20.296 184.577 19.89 184.577 19.386C184.577 18.9753 184.698 18.602 184.941 18.266C185.183 17.9207 185.529 17.65 185.977 17.454C186.434 17.258 186.957 17.16 187.545 17.16C188.422 17.16 189.127 17.384 189.659 17.832C190.2 18.2707 190.489 18.8727 190.527 19.638H188.931C188.903 19.2927 188.763 19.0173 188.511 18.812C188.259 18.6067 187.918 18.504 187.489 18.504C187.069 18.504 186.747 18.5833 186.523 18.742C186.299 18.9007 186.187 19.1107 186.187 19.372C186.187 19.5773 186.261 19.75 186.411 19.89C186.56 20.03 186.742 20.142 186.957 20.226C187.171 20.3007 187.489 20.3987 187.909 20.52C188.469 20.6693 188.926 20.8233 189.281 20.982C189.645 21.1313 189.957 21.3553 190.219 21.654C190.48 21.9527 190.615 22.3493 190.625 22.844C190.625 23.2827 190.503 23.6747 190.261 24.02C190.018 24.3653 189.673 24.636 189.225 24.832C188.786 25.028 188.268 25.126 187.671 25.126ZM199.419 20.954C199.419 21.2433 199.401 21.5047 199.363 21.738H193.469C193.516 22.354 193.745 22.8487 194.155 23.222C194.566 23.5953 195.07 23.782 195.667 23.782C196.526 23.782 197.133 23.4227 197.487 22.704H199.209C198.976 23.4133 198.551 23.9967 197.935 24.454C197.329 24.902 196.573 25.126 195.667 25.126C194.93 25.126 194.267 24.9627 193.679 24.636C193.101 24.3 192.643 23.8333 192.307 23.236C191.981 22.6293 191.817 21.9293 191.817 21.136C191.817 20.3427 191.976 19.6473 192.293 19.05C192.62 18.4433 193.073 17.9767 193.651 17.65C194.239 17.3233 194.911 17.16 195.667 17.16C196.395 17.16 197.044 17.3187 197.613 17.636C198.183 17.9533 198.626 18.4013 198.943 18.98C199.261 19.5493 199.419 20.2073 199.419 20.954ZM197.753 20.45C197.744 19.862 197.534 19.3907 197.123 19.036C196.713 18.6813 196.204 18.504 195.597 18.504C195.047 18.504 194.575 18.6813 194.183 19.036C193.791 19.3813 193.558 19.8527 193.483 20.45H197.753ZM207.833 25.098C207.179 25.098 206.591 24.986 206.069 24.762C205.546 24.5287 205.135 24.202 204.837 23.782C204.538 23.362 204.389 22.872 204.389 22.312H206.097C206.134 22.732 206.297 23.0773 206.587 23.348C206.885 23.6187 207.301 23.754 207.833 23.754C208.383 23.754 208.813 23.6233 209.121 23.362C209.429 23.0913 209.583 22.746 209.583 22.326C209.583 21.9993 209.485 21.7333 209.289 21.528C209.102 21.3227 208.864 21.164 208.575 21.052C208.295 20.94 207.903 20.8187 207.399 20.688C206.764 20.52 206.246 20.352 205.845 20.184C205.453 20.0067 205.117 19.736 204.837 19.372C204.557 19.008 204.417 18.5227 204.417 17.916C204.417 17.356 204.557 16.866 204.837 16.446C205.117 16.026 205.509 15.704 206.013 15.48C206.517 15.256 207.1 15.144 207.763 15.144C208.705 15.144 209.475 15.382 210.073 15.858C210.679 16.3247 211.015 16.9687 211.081 17.79H209.317C209.289 17.4353 209.121 17.132 208.813 16.88C208.505 16.628 208.099 16.502 207.595 16.502C207.137 16.502 206.764 16.6187 206.475 16.852C206.185 17.0853 206.041 17.4213 206.041 17.86C206.041 18.1587 206.129 18.406 206.307 18.602C206.493 18.7887 206.727 18.938 207.007 19.05C207.287 19.162 207.669 19.2833 208.155 19.414C208.799 19.5913 209.321 19.7687 209.723 19.946C210.133 20.1233 210.479 20.3987 210.759 20.772C211.048 21.136 211.193 21.626 211.193 22.242C211.193 22.7367 211.057 23.2033 210.787 23.642C210.525 24.0807 210.138 24.4353 209.625 24.706C209.121 24.9673 208.523 25.098 207.833 25.098ZM214.938 18.588V22.858C214.938 23.1473 215.003 23.3573 215.134 23.488C215.274 23.6093 215.507 23.67 215.834 23.67H216.814V25H215.554C214.835 25 214.284 24.832 213.902 24.496C213.519 24.16 213.328 23.614 213.328 22.858V18.588H212.418V17.286H213.328V15.368H214.938V17.286H216.814V18.588H214.938ZM225.271 17.286V25H223.675V24.09C223.423 24.4073 223.091 24.6593 222.681 24.846C222.279 25.0233 221.85 25.112 221.393 25.112C220.786 25.112 220.24 24.986 219.755 24.734C219.279 24.482 218.901 24.1087 218.621 23.614C218.35 23.1193 218.215 22.522 218.215 21.822V17.286H219.797V21.584C219.797 22.2747 219.969 22.8067 220.315 23.18C220.66 23.544 221.131 23.726 221.729 23.726C222.326 23.726 222.797 23.544 223.143 23.18C223.497 22.8067 223.675 22.2747 223.675 21.584V17.286H225.271ZM226.845 21.108C226.845 20.3333 227.003 19.6473 227.321 19.05C227.647 18.4527 228.086 17.9907 228.637 17.664C229.197 17.328 229.817 17.16 230.499 17.16C231.003 17.16 231.497 17.272 231.983 17.496C232.477 17.7107 232.869 18 233.159 18.364V14.64H234.769V25H233.159V23.838C232.897 24.2113 232.533 24.5193 232.067 24.762C231.609 25.0047 231.082 25.126 230.485 25.126C229.813 25.126 229.197 24.958 228.637 24.622C228.086 24.2767 227.647 23.8007 227.321 23.194C227.003 22.578 226.845 21.8827 226.845 21.108ZM233.159 21.136C233.159 20.604 233.047 20.142 232.823 19.75C232.608 19.358 232.323 19.0593 231.969 18.854C231.614 18.6487 231.231 18.546 230.821 18.546C230.41 18.546 230.027 18.6487 229.673 18.854C229.318 19.05 229.029 19.344 228.805 19.736C228.59 20.1187 228.483 20.576 228.483 21.108C228.483 21.64 228.59 22.1067 228.805 22.508C229.029 22.9093 229.318 23.2173 229.673 23.432C230.037 23.6373 230.419 23.74 230.821 23.74C231.231 23.74 231.614 23.6373 231.969 23.432C232.323 23.2267 232.608 22.928 232.823 22.536C233.047 22.1347 233.159 21.668 233.159 21.136ZM243.809 17.286L239.077 28.626H237.425L238.993 24.874L235.955 17.286H237.733L239.903 23.166L242.157 17.286H243.809Z" fill="#E91700"/>
</svg>
