<svg width="451" height="185" viewBox="0 0 451 185" fill="none" xmlns="http://www.w3.org/2000/svg">
<path opacity="0.8" d="M8.95747 10.1266V11.3846H5.72747V21.9756H4.18047V11.3846H0.933469V10.1266H8.95747ZM15.4857 12.4896C16.1884 12.4896 16.8231 12.6426 17.3897 12.9486C17.9564 13.2433 18.3984 13.6909 18.7157 14.2916C19.0444 14.8923 19.2087 15.6233 19.2087 16.4846V21.9756H17.6787V16.7056C17.6787 15.7763 17.4464 15.0679 16.9817 14.5806C16.5171 14.0819 15.8824 13.8326 15.0777 13.8326C14.2617 13.8326 13.6101 14.0876 13.1227 14.5976C12.6467 15.1076 12.4087 15.8499 12.4087 16.8246V21.9756H10.8617V9.39559H12.4087V13.9856C12.7147 13.5096 13.1341 13.1413 13.6667 12.8806C14.2107 12.6199 14.8171 12.4896 15.4857 12.4896ZM30.2358 16.9606C30.2358 17.2553 30.2188 17.5669 30.1848 17.8956H22.7388C22.7954 18.8136 23.1071 19.5333 23.6738 20.0546C24.2518 20.5646 24.9488 20.8196 25.7648 20.8196C26.4334 20.8196 26.9888 20.6666 27.4308 20.3606C27.8841 20.0433 28.2014 19.6239 28.3828 19.1026H30.0488C29.7994 19.9979 29.3008 20.7289 28.5528 21.2956C27.8048 21.8509 26.8754 22.1286 25.7648 22.1286C24.8808 22.1286 24.0874 21.9303 23.3848 21.5336C22.6934 21.1369 22.1494 20.5759 21.7528 19.8506C21.3561 19.1139 21.1578 18.2639 21.1578 17.3006C21.1578 16.3373 21.3504 15.4929 21.7358 14.7676C22.1211 14.0423 22.6594 13.4869 23.3508 13.1016C24.0534 12.7049 24.8581 12.5066 25.7648 12.5066C26.6488 12.5066 27.4308 12.6993 28.1108 13.0846C28.7908 13.4699 29.3121 14.0026 29.6748 14.6826C30.0488 15.3513 30.2358 16.1106 30.2358 16.9606ZM28.6378 16.6376C28.6378 16.0483 28.5074 15.5439 28.2468 15.1246C27.9861 14.6939 27.6291 14.3709 27.1758 14.1556C26.7338 13.9289 26.2408 13.8156 25.6968 13.8156C24.9148 13.8156 24.2461 14.0649 23.6908 14.5636C23.1468 15.0623 22.8351 15.7536 22.7558 16.6376H28.6378ZM40.3018 12.6596L34.6918 26.3616H33.0938L34.9298 21.8736L31.1728 12.6596H32.8898L35.8138 20.2076L38.7038 12.6596H40.3018ZM42.6389 8.44358L42.4349 11.8266H41.3639L41.1429 8.44358H42.6389ZM46.1099 14.1726C46.3819 13.6399 46.7672 13.2263 47.2659 12.9316C47.7759 12.6369 48.3936 12.4896 49.1189 12.4896V14.0876H48.7109C46.9769 14.0876 46.1099 15.0283 46.1099 16.9096V21.9756H44.5629V12.6596H46.1099V14.1726ZM59.4047 16.9606C59.4047 17.2553 59.3877 17.5669 59.3537 17.8956H51.9077C51.9644 18.8136 52.276 19.5333 52.8427 20.0546C53.4207 20.5646 54.1177 20.8196 54.9337 20.8196C55.6024 20.8196 56.1577 20.6666 56.5997 20.3606C57.053 20.0433 57.3704 19.6239 57.5517 19.1026H59.2177C58.9684 19.9979 58.4697 20.7289 57.7217 21.2956C56.9737 21.8509 56.0444 22.1286 54.9337 22.1286C54.0497 22.1286 53.2564 21.9303 52.5537 21.5336C51.8624 21.1369 51.3184 20.5759 50.9217 19.8506C50.525 19.1139 50.3267 18.2639 50.3267 17.3006C50.3267 16.3373 50.5194 15.4929 50.9047 14.7676C51.29 14.0423 51.8284 13.4869 52.5197 13.1016C53.2224 12.7049 54.027 12.5066 54.9337 12.5066C55.8177 12.5066 56.5997 12.6993 57.2797 13.0846C57.9597 13.4699 58.481 14.0026 58.8437 14.6826C59.2177 15.3513 59.4047 16.1106 59.4047 16.9606ZM57.8067 16.6376C57.8067 16.0483 57.6764 15.5439 57.4157 15.1246C57.155 14.6939 56.798 14.3709 56.3447 14.1556C55.9027 13.9289 55.4097 13.8156 54.8657 13.8156C54.0837 13.8156 53.415 14.0649 52.8597 14.5636C52.3157 15.0623 52.004 15.7536 51.9247 16.6376H57.8067ZM65.4009 17.2836C65.4009 16.3316 65.5936 15.4986 65.9789 14.7846C66.3643 14.0593 66.8913 13.4983 67.5599 13.1016C68.2399 12.7049 68.9936 12.5066 69.8209 12.5066C70.6369 12.5066 71.3453 12.6823 71.9459 13.0336C72.5466 13.3849 72.9943 13.8269 73.2889 14.3596V12.6596H74.8529V21.9756H73.2889V20.2416C72.9829 20.7856 72.5239 21.2389 71.9119 21.6016C71.3113 21.9529 70.6086 22.1286 69.8039 22.1286C68.9766 22.1286 68.2286 21.9246 67.5599 21.5166C66.8913 21.1086 66.3643 20.5363 65.9789 19.7996C65.5936 19.0629 65.4009 18.2243 65.4009 17.2836ZM73.2889 17.3006C73.2889 16.5979 73.1473 15.9859 72.8639 15.4646C72.5806 14.9433 72.1953 14.5466 71.7079 14.2746C71.2319 13.9913 70.7049 13.8496 70.1269 13.8496C69.5489 13.8496 69.0219 13.9856 68.5459 14.2576C68.0699 14.5296 67.6903 14.9263 67.4069 15.4476C67.1236 15.9689 66.9819 16.5809 66.9819 17.2836C66.9819 17.9976 67.1236 18.6209 67.4069 19.1536C67.6903 19.6749 68.0699 20.0773 68.5459 20.3606C69.0219 20.6326 69.5489 20.7686 70.1269 20.7686C70.7049 20.7686 71.2319 20.6326 71.7079 20.3606C72.1953 20.0773 72.5806 19.6749 72.8639 19.1536C73.1473 18.6209 73.2889 18.0033 73.2889 17.3006ZM85.7904 13.9346H83.8354V21.9756H82.2884V13.9346H81.0814V12.6596H82.2884V11.9966C82.2884 10.9539 82.5548 10.1946 83.0874 9.71859C83.6314 9.23125 84.4984 8.98758 85.6884 8.98758V10.2796C85.0084 10.2796 84.5268 10.4156 84.2434 10.6876C83.9714 10.9483 83.8354 11.3846 83.8354 11.9966V12.6596H85.7904V13.9346ZM95.8562 12.6596V21.9756H94.3092V20.5986C94.0145 21.0746 93.6008 21.4486 93.0682 21.7206C92.5468 21.9813 91.9688 22.1116 91.3342 22.1116C90.6088 22.1116 89.9572 21.9643 89.3792 21.6696C88.8012 21.3636 88.3422 20.9103 88.0022 20.3096C87.6735 19.7089 87.5092 18.9779 87.5092 18.1166V12.6596H89.0392V17.9126C89.0392 18.8306 89.2715 19.5389 89.7362 20.0376C90.2008 20.5249 90.8355 20.7686 91.6402 20.7686C92.4675 20.7686 93.1192 20.5136 93.5952 20.0036C94.0712 19.4936 94.3092 18.7513 94.3092 17.7766V12.6596H95.8562ZM100.015 9.39559V21.9756H98.4682V9.39559H100.015ZM104.199 9.39559V21.9756H102.652V9.39559H104.199ZM113.295 15.0906V16.3996H106.512V15.0906H113.295ZM117.746 14.3766C118.052 13.8439 118.505 13.4019 119.106 13.0506C119.718 12.6879 120.426 12.5066 121.231 12.5066C122.058 12.5066 122.806 12.7049 123.475 13.1016C124.155 13.4983 124.687 14.0593 125.073 14.7846C125.458 15.4986 125.651 16.3316 125.651 17.2836C125.651 18.2243 125.458 19.0629 125.073 19.7996C124.687 20.5363 124.155 21.1086 123.475 21.5166C122.806 21.9246 122.058 22.1286 121.231 22.1286C120.437 22.1286 119.735 21.9529 119.123 21.6016C118.522 21.2389 118.063 20.7913 117.746 20.2586V26.3956H116.199V12.6596H117.746V14.3766ZM124.07 17.2836C124.07 16.5809 123.928 15.9689 123.645 15.4476C123.361 14.9263 122.976 14.5296 122.489 14.2576C122.013 13.9856 121.486 13.8496 120.908 13.8496C120.341 13.8496 119.814 13.9913 119.327 14.2746C118.851 14.5466 118.465 14.9489 118.171 15.4816C117.887 16.0029 117.746 16.6093 117.746 17.3006C117.746 18.0033 117.887 18.6209 118.171 19.1536C118.465 19.6749 118.851 20.0773 119.327 20.3606C119.814 20.6326 120.341 20.7686 120.908 20.7686C121.486 20.7686 122.013 20.6326 122.489 20.3606C122.976 20.0773 123.361 19.6749 123.645 19.1536C123.928 18.6209 124.07 17.9976 124.07 17.2836ZM127.109 17.2836C127.109 16.3316 127.302 15.4986 127.687 14.7846C128.072 14.0593 128.599 13.4983 129.268 13.1016C129.948 12.7049 130.702 12.5066 131.529 12.5066C132.345 12.5066 133.053 12.6823 133.654 13.0336C134.255 13.3849 134.702 13.8269 134.997 14.3596V12.6596H136.561V21.9756H134.997V20.2416C134.691 20.7856 134.232 21.2389 133.62 21.6016C133.019 21.9529 132.317 22.1286 131.512 22.1286C130.685 22.1286 129.937 21.9246 129.268 21.5166C128.599 21.1086 128.072 20.5363 127.687 19.7996C127.302 19.0629 127.109 18.2243 127.109 17.2836ZM134.997 17.3006C134.997 16.5979 134.855 15.9859 134.572 15.4646C134.289 14.9433 133.903 14.5466 133.416 14.2746C132.94 13.9913 132.413 13.8496 131.835 13.8496C131.257 13.8496 130.73 13.9856 130.254 14.2576C129.778 14.5296 129.398 14.9263 129.115 15.4476C128.832 15.9689 128.69 16.5809 128.69 17.2836C128.69 17.9976 128.832 18.6209 129.115 19.1536C129.398 19.6749 129.778 20.0773 130.254 20.3606C130.73 20.6326 131.257 20.7686 131.835 20.7686C132.413 20.7686 132.94 20.6326 133.416 20.3606C133.903 20.0773 134.289 19.6749 134.572 19.1536C134.855 18.6209 134.997 18.0033 134.997 17.3006ZM138.597 17.3006C138.597 16.3373 138.79 15.4986 139.175 14.7846C139.561 14.0593 140.093 13.4983 140.773 13.1016C141.465 12.7049 142.252 12.5066 143.136 12.5066C144.281 12.5066 145.222 12.7843 145.958 13.3396C146.706 13.8949 147.199 14.6656 147.437 15.6516H145.771C145.613 15.0849 145.301 14.6373 144.836 14.3086C144.383 13.9799 143.816 13.8156 143.136 13.8156C142.252 13.8156 141.538 14.1216 140.994 14.7336C140.45 15.3343 140.178 16.1899 140.178 17.3006C140.178 18.4226 140.45 19.2896 140.994 19.9016C141.538 20.5136 142.252 20.8196 143.136 20.8196C143.816 20.8196 144.383 20.6609 144.836 20.3436C145.29 20.0263 145.601 19.5729 145.771 18.9836H147.437C147.188 19.9356 146.689 20.7006 145.941 21.2786C145.193 21.8453 144.258 22.1286 143.136 22.1286C142.252 22.1286 141.465 21.9303 140.773 21.5336C140.093 21.1369 139.561 20.5759 139.175 19.8506C138.79 19.1253 138.597 18.2753 138.597 17.3006ZM154.703 21.9756L151.048 17.8616V21.9756H149.501V9.39559H151.048V16.7906L154.635 12.6596H156.794L152.408 17.3006L156.811 21.9756H154.703ZM157.672 17.2836C157.672 16.3316 157.865 15.4986 158.25 14.7846C158.636 14.0593 159.163 13.4983 159.831 13.1016C160.511 12.7049 161.265 12.5066 162.092 12.5066C162.908 12.5066 163.617 12.6823 164.217 13.0336C164.818 13.3849 165.266 13.8269 165.56 14.3596V12.6596H167.124V21.9756H165.56V20.2416C165.254 20.7856 164.795 21.2389 164.183 21.6016C163.583 21.9529 162.88 22.1286 162.075 22.1286C161.248 22.1286 160.5 21.9246 159.831 21.5166C159.163 21.1086 158.636 20.5363 158.25 19.7996C157.865 19.0629 157.672 18.2243 157.672 17.2836ZM165.56 17.3006C165.56 16.5979 165.419 15.9859 165.135 15.4646C164.852 14.9433 164.467 14.5466 163.979 14.2746C163.503 13.9913 162.976 13.8496 162.398 13.8496C161.82 13.8496 161.293 13.9856 160.817 14.2576C160.341 14.5296 159.962 14.9263 159.678 15.4476C159.395 15.9689 159.253 16.5809 159.253 17.2836C159.253 17.9976 159.395 18.6209 159.678 19.1536C159.962 19.6749 160.341 20.0773 160.817 20.3606C161.293 20.6326 161.82 20.7686 162.398 20.7686C162.976 20.7686 163.503 20.6326 163.979 20.3606C164.467 20.0773 164.852 19.6749 165.135 19.1536C165.419 18.6209 165.56 18.0033 165.56 17.3006ZM173.581 12.5066C174.385 12.5066 175.088 12.6823 175.689 13.0336C176.301 13.3849 176.754 13.8269 177.049 14.3596V12.6596H178.613V22.1796C178.613 23.0296 178.431 23.7833 178.069 24.4406C177.706 25.1093 177.185 25.6306 176.505 26.0046C175.836 26.3786 175.054 26.5656 174.159 26.5656C172.935 26.5656 171.915 26.2766 171.099 25.6986C170.283 25.1206 169.801 24.3329 169.654 23.3356H171.184C171.354 23.9023 171.705 24.3556 172.238 24.6956C172.77 25.0469 173.411 25.2226 174.159 25.2226C175.009 25.2226 175.7 24.9563 176.233 24.4236C176.777 23.8909 177.049 23.1429 177.049 22.1796V20.2246C176.743 20.7686 176.289 21.2219 175.689 21.5846C175.088 21.9473 174.385 22.1286 173.581 22.1286C172.753 22.1286 172 21.9246 171.32 21.5166C170.651 21.1086 170.124 20.5363 169.739 19.7996C169.353 19.0629 169.161 18.2243 169.161 17.2836C169.161 16.3316 169.353 15.4986 169.739 14.7846C170.124 14.0593 170.651 13.4983 171.32 13.1016C172 12.7049 172.753 12.5066 173.581 12.5066ZM177.049 17.3006C177.049 16.5979 176.907 15.9859 176.624 15.4646C176.34 14.9433 175.955 14.5466 175.468 14.2746C174.992 13.9913 174.465 13.8496 173.887 13.8496C173.309 13.8496 172.782 13.9856 172.306 14.2576C171.83 14.5296 171.45 14.9263 171.167 15.4476C170.883 15.9689 170.742 16.5809 170.742 17.2836C170.742 17.9976 170.883 18.6209 171.167 19.1536C171.45 19.6749 171.83 20.0773 172.306 20.3606C172.782 20.6326 173.309 20.7686 173.887 20.7686C174.465 20.7686 174.992 20.6326 175.468 20.3606C175.955 20.0773 176.34 19.6749 176.624 19.1536C176.907 18.6209 177.049 18.0033 177.049 17.3006ZM189.727 16.9606C189.727 17.2553 189.71 17.5669 189.676 17.8956H182.23C182.287 18.8136 182.598 19.5333 183.165 20.0546C183.743 20.5646 184.44 20.8196 185.256 20.8196C185.925 20.8196 186.48 20.6666 186.922 20.3606C187.375 20.0433 187.693 19.6239 187.874 19.1026H189.54C189.291 19.9979 188.792 20.7289 188.044 21.2956C187.296 21.8509 186.367 22.1286 185.256 22.1286C184.372 22.1286 183.579 21.9303 182.876 21.5336C182.185 21.1369 181.641 20.5759 181.244 19.8506C180.847 19.1139 180.649 18.2639 180.649 17.3006C180.649 16.3373 180.842 15.4929 181.227 14.7676C181.612 14.0423 182.151 13.4869 182.842 13.1016C183.545 12.7049 184.349 12.5066 185.256 12.5066C186.14 12.5066 186.922 12.6993 187.602 13.0846C188.282 13.4699 188.803 14.0026 189.166 14.6826C189.54 15.3513 189.727 16.1106 189.727 16.9606ZM188.129 16.6376C188.129 16.0483 187.999 15.5439 187.738 15.1246C187.477 14.6939 187.12 14.3709 186.667 14.1556C186.225 13.9289 185.732 13.8156 185.188 13.8156C184.406 13.8156 183.737 14.0649 183.182 14.5636C182.638 15.0623 182.326 15.7536 182.247 16.6376H188.129ZM195.723 17.2836C195.723 16.3316 195.916 15.4986 196.301 14.7846C196.687 14.0593 197.214 13.4983 197.882 13.1016C198.562 12.7049 199.316 12.5066 200.143 12.5066C200.959 12.5066 201.668 12.6823 202.268 13.0336C202.869 13.3849 203.317 13.8269 203.611 14.3596V12.6596H205.175V21.9756H203.611V20.2416C203.305 20.7856 202.846 21.2389 202.234 21.6016C201.634 21.9529 200.931 22.1286 200.126 22.1286C199.299 22.1286 198.551 21.9246 197.882 21.5166C197.214 21.1086 196.687 20.5363 196.301 19.7996C195.916 19.0629 195.723 18.2243 195.723 17.2836ZM203.611 17.3006C203.611 16.5979 203.47 15.9859 203.186 15.4646C202.903 14.9433 202.518 14.5466 202.03 14.2746C201.554 13.9913 201.027 13.8496 200.449 13.8496C199.871 13.8496 199.344 13.9856 198.868 14.2576C198.392 14.5296 198.013 14.9263 197.729 15.4476C197.446 15.9689 197.304 16.5809 197.304 17.2836C197.304 17.9976 197.446 18.6209 197.729 19.1536C198.013 19.6749 198.392 20.0773 198.868 20.3606C199.344 20.6326 199.871 20.7686 200.449 20.7686C201.027 20.7686 201.554 20.6326 202.03 20.3606C202.518 20.0773 202.903 19.6749 203.186 19.1536C203.47 18.6209 203.611 18.0033 203.611 17.3006ZM211.631 12.5066C212.436 12.5066 213.139 12.6823 213.739 13.0336C214.351 13.3849 214.805 13.8269 215.099 14.3596V12.6596H216.663V22.1796C216.663 23.0296 216.482 23.7833 216.119 24.4406C215.757 25.1093 215.235 25.6306 214.555 26.0046C213.887 26.3786 213.105 26.5656 212.209 26.5656C210.985 26.5656 209.965 26.2766 209.149 25.6986C208.333 25.1206 207.852 24.3329 207.704 23.3356H209.234C209.404 23.9023 209.756 24.3556 210.288 24.6956C210.821 25.0469 211.461 25.2226 212.209 25.2226C213.059 25.2226 213.751 24.9563 214.283 24.4236C214.827 23.8909 215.099 23.1429 215.099 22.1796V20.2246C214.793 20.7686 214.34 21.2219 213.739 21.5846C213.139 21.9473 212.436 22.1286 211.631 22.1286C210.804 22.1286 210.05 21.9246 209.37 21.5166C208.702 21.1086 208.175 20.5363 207.789 19.7996C207.404 19.0629 207.211 18.2243 207.211 17.2836C207.211 16.3316 207.404 15.4986 207.789 14.7846C208.175 14.0593 208.702 13.4983 209.37 13.1016C210.05 12.7049 210.804 12.5066 211.631 12.5066ZM215.099 17.3006C215.099 16.5979 214.958 15.9859 214.674 15.4646C214.391 14.9433 214.006 14.5466 213.518 14.2746C213.042 13.9913 212.515 13.8496 211.937 13.8496C211.359 13.8496 210.832 13.9856 210.356 14.2576C209.88 14.5296 209.501 14.9263 209.217 15.4476C208.934 15.9689 208.792 16.5809 208.792 17.2836C208.792 17.9976 208.934 18.6209 209.217 19.1536C209.501 19.6749 209.88 20.0773 210.356 20.3606C210.832 20.6326 211.359 20.7686 211.937 20.7686C212.515 20.7686 213.042 20.6326 213.518 20.3606C214.006 20.0773 214.391 19.6749 214.674 19.1536C214.958 18.6209 215.099 18.0033 215.099 17.3006ZM227.778 16.9606C227.778 17.2553 227.761 17.5669 227.727 17.8956H220.281C220.337 18.8136 220.649 19.5333 221.216 20.0546C221.794 20.5646 222.491 20.8196 223.307 20.8196C223.975 20.8196 224.531 20.6666 224.973 20.3606C225.426 20.0433 225.743 19.6239 225.925 19.1026H227.591C227.341 19.9979 226.843 20.7289 226.095 21.2956C225.347 21.8509 224.417 22.1286 223.307 22.1286C222.423 22.1286 221.629 21.9303 220.927 21.5336C220.235 21.1369 219.691 20.5759 219.295 19.8506C218.898 19.1139 218.7 18.2639 218.7 17.3006C218.7 16.3373 218.892 15.4929 219.278 14.7676C219.663 14.0423 220.201 13.4869 220.893 13.1016C221.595 12.7049 222.4 12.5066 223.307 12.5066C224.191 12.5066 224.973 12.6993 225.653 13.0846C226.333 13.4699 226.854 14.0026 227.217 14.6826C227.591 15.3513 227.778 16.1106 227.778 16.9606ZM226.18 16.6376C226.18 16.0483 226.049 15.5439 225.789 15.1246C225.528 14.6939 225.171 14.3709 224.718 14.1556C224.276 13.9289 223.783 13.8156 223.239 13.8156C222.457 13.8156 221.788 14.0649 221.233 14.5636C220.689 15.0623 220.377 15.7536 220.298 16.6376H226.18ZM234.359 12.4896C235.492 12.4896 236.41 12.8353 237.113 13.5266C237.815 14.2066 238.167 15.1926 238.167 16.4846V21.9756H236.637V16.7056C236.637 15.7763 236.404 15.0679 235.94 14.5806C235.475 14.0819 234.84 13.8326 234.036 13.8326C233.22 13.8326 232.568 14.0876 232.081 14.5976C231.605 15.1076 231.367 15.8499 231.367 16.8246V21.9756H229.82V12.6596H231.367V13.9856C231.673 13.5096 232.086 13.1413 232.608 12.8806C233.14 12.6199 233.724 12.4896 234.359 12.4896ZM240.116 17.3006C240.116 16.3373 240.308 15.4986 240.694 14.7846C241.079 14.0593 241.612 13.4983 242.292 13.1016C242.983 12.7049 243.771 12.5066 244.655 12.5066C245.799 12.5066 246.74 12.7843 247.477 13.3396C248.225 13.8949 248.718 14.6656 248.956 15.6516H247.29C247.131 15.0849 246.819 14.6373 246.355 14.3086C245.901 13.9799 245.335 13.8156 244.655 13.8156C243.771 13.8156 243.057 14.1216 242.513 14.7336C241.969 15.3343 241.697 16.1899 241.697 17.3006C241.697 18.4226 241.969 19.2896 242.513 19.9016C243.057 20.5136 243.771 20.8196 244.655 20.8196C245.335 20.8196 245.901 20.6609 246.355 20.3436C246.808 20.0263 247.12 19.5729 247.29 18.9836H248.956C248.706 19.9356 248.208 20.7006 247.46 21.2786C246.712 21.8453 245.777 22.1286 244.655 22.1286C243.771 22.1286 242.983 21.9303 242.292 21.5336C241.612 21.1369 241.079 20.5759 240.694 19.8506C240.308 19.1253 240.116 18.2753 240.116 17.3006ZM259.044 12.6596L253.434 26.3616H251.836L253.672 21.8736L249.915 12.6596H251.632L254.556 20.2076L257.446 12.6596H259.044ZM261.092 22.0776C260.797 22.0776 260.548 21.9756 260.344 21.7716C260.14 21.5676 260.038 21.3183 260.038 21.0236C260.038 20.7289 260.14 20.4796 260.344 20.2756C260.548 20.0716 260.797 19.9696 261.092 19.9696C261.375 19.9696 261.613 20.0716 261.806 20.2756C262.01 20.4796 262.112 20.7289 262.112 21.0236C262.112 21.3183 262.01 21.5676 261.806 21.7716C261.613 21.9756 261.375 22.0776 261.092 22.0776Z" fill="#242321"/>
<rect x="0.355469" y="120.976" width="64" height="64.0002" rx="32" fill="black"/>
<path fill-rule="evenodd" clip-rule="evenodd" d="M6.76771 131.865C6.75956 132.017 6.75545 132.169 6.75545 132.322C6.75545 132.475 6.75956 132.627 6.76771 132.779C6.75956 132.931 6.75545 133.083 6.75545 133.236C6.75545 141.31 18.217 147.856 32.3554 147.856C46.4939 147.856 57.9554 141.31 57.9554 133.236C57.9554 133.083 57.9513 132.931 57.9432 132.779C57.9513 132.627 57.9554 132.475 57.9554 132.322C57.9554 132.169 57.9513 132.017 57.9432 131.865C57.9513 131.714 57.9554 131.561 57.9554 131.409C57.9554 131.256 57.9513 131.104 57.9432 130.952C57.9513 130.8 57.9554 130.648 57.9554 130.495C57.9554 130.342 57.9513 130.19 57.9432 130.038C57.9513 129.886 57.9554 129.734 57.9554 129.581C57.9554 129.428 57.9513 129.276 57.9432 129.124C57.9513 128.973 57.9554 128.82 57.9554 128.668C57.9554 128.515 57.9513 128.362 57.9432 128.211C57.9461 128.156 57.9485 128.101 57.9504 128.046C56.7817 129.212 55.3739 130.29 53.7653 131.257C52.7508 132.203 51.5352 133.084 50.14 133.881C45.6204 136.462 39.334 138.079 32.3554 138.079C25.3769 138.079 19.0904 136.462 14.5709 133.881C12.8304 132.887 11.3695 131.762 10.2297 130.543C14.6681 134.886 22.915 137.805 32.3554 137.805C41.1752 137.805 48.9533 135.257 53.5571 131.381C52.1963 132.183 50.6958 132.906 49.0783 133.539C44.66 135.784 38.8031 137.165 32.3554 137.165C25.3769 137.165 19.0904 135.548 14.5709 132.967C14.1828 132.745 13.8087 132.517 13.4489 132.283C10.7189 130.908 8.44224 129.244 6.76385 127.375C6.75826 127.501 6.75545 127.627 6.75545 127.754C6.75545 127.907 6.75956 128.059 6.76771 128.211C6.75956 128.362 6.75545 128.515 6.75545 128.668C6.75545 128.82 6.75955 128.973 6.7677 129.124C6.75955 129.276 6.75545 129.428 6.75545 129.581C6.75545 129.734 6.75956 129.886 6.76772 130.038C6.75956 130.19 6.75545 130.342 6.75545 130.495C6.75545 130.648 6.75955 130.8 6.7677 130.952C6.75955 131.103 6.75545 131.256 6.75545 131.409C6.75545 131.561 6.75956 131.714 6.76771 131.865ZM10.2352 131.463C14.6749 135.803 22.9189 138.719 32.3554 138.719C41.792 138.719 50.036 135.803 54.4756 131.463C53.3367 132.679 51.8776 133.802 50.14 134.794C45.6204 137.375 39.334 138.992 32.3554 138.992C25.3769 138.992 19.0904 137.375 14.5709 134.794C12.8333 133.802 11.3742 132.679 10.2352 131.463ZM14.5709 135.708C12.8318 134.715 11.3719 133.591 10.2325 132.374C14.6715 136.715 22.917 139.632 32.3554 139.632C41.7939 139.632 50.0394 136.715 54.4784 132.374C53.339 133.591 51.879 134.715 50.14 135.708C45.6204 138.289 39.334 139.906 32.3554 139.906C25.3769 139.906 19.0904 138.289 14.5709 135.708ZM10.2325 133.287C11.3719 134.505 12.8318 135.629 14.5709 136.622C19.0904 139.203 25.3769 140.82 32.3554 140.82C39.334 140.82 45.6204 139.203 50.14 136.622C51.879 135.629 53.339 134.505 54.4784 133.287C50.0394 137.629 41.7939 140.546 32.3554 140.546C22.917 140.546 14.6715 137.629 10.2325 133.287ZM14.5709 137.536C12.8318 136.542 11.3719 135.418 10.2325 134.201C14.6715 138.543 22.917 141.46 32.3554 141.46C41.7939 141.46 50.0394 138.543 54.4784 134.201C53.339 135.419 51.879 136.542 50.14 137.536C45.6204 140.117 39.334 141.733 32.3554 141.733C25.3769 141.733 19.0904 140.117 14.5709 137.536ZM10.2325 135.115C11.3719 136.332 12.8319 137.456 14.5709 138.449C19.0904 141.03 25.3769 142.647 32.3554 142.647C39.334 142.647 45.6204 141.03 50.14 138.449C51.879 137.456 53.339 136.332 54.4784 135.115C50.0394 139.456 41.7939 142.373 32.3554 142.373C22.917 142.373 14.6715 139.456 10.2325 135.115ZM14.5709 139.363C12.8333 138.371 11.3743 137.248 10.2353 136.031C14.6749 140.371 22.919 143.287 32.3554 143.287C41.792 143.287 50.036 140.371 54.4756 136.031C53.3366 137.248 51.8776 138.371 50.14 139.363C45.6204 141.944 39.334 143.561 32.3554 143.561C25.3769 143.561 19.0904 141.944 14.5709 139.363ZM10.2297 136.939C11.3695 138.158 12.8305 139.283 14.5709 140.277C19.0904 142.858 25.3769 144.475 32.3554 144.475C39.334 144.475 45.6204 142.858 50.14 140.277C51.8804 139.283 53.3413 138.158 54.4811 136.939C50.0428 141.282 41.7959 144.201 32.3554 144.201C22.915 144.201 14.6681 141.282 10.2297 136.939ZM14.5709 141.19C12.8333 140.198 11.3743 139.075 10.2353 137.859C14.6749 142.199 22.9189 145.115 32.3554 145.115C41.792 145.115 50.036 142.199 54.4756 137.859C53.3367 139.075 51.8776 140.198 50.14 141.19C45.6204 143.771 39.334 145.388 32.3554 145.388C25.3769 145.388 19.0904 143.771 14.5709 141.19ZM10.2325 138.77C14.6715 143.111 22.917 146.028 32.3554 146.028C41.7939 146.028 50.0394 143.111 54.4784 138.77C53.339 139.987 51.879 141.111 50.14 142.104C45.6204 144.685 39.334 146.302 32.3554 146.302C25.3769 146.302 19.0904 144.685 14.5709 142.104C12.8319 141.111 11.3719 139.987 10.2325 138.77ZM50.14 143.018C51.879 142.025 53.339 140.901 54.4784 139.683C50.0394 144.025 41.7939 146.942 32.3554 146.942C22.917 146.942 14.6715 144.025 10.2325 139.683C11.3719 140.901 12.8318 142.025 14.5709 143.018C19.0904 145.599 25.3769 147.216 32.3554 147.216C39.334 147.216 45.6204 145.599 50.14 143.018Z" fill="url(#paint0_linear_95_165)"/>
<path fill-rule="evenodd" clip-rule="evenodd" d="M57.9432 174.086C57.9514 173.934 57.9555 173.782 57.9555 173.629C57.9555 173.476 57.9514 173.324 57.9432 173.172C57.9514 173.02 57.9555 172.868 57.9555 172.715C57.9555 164.641 46.494 158.096 32.3555 158.096C18.217 158.096 6.75549 164.641 6.75549 172.715C6.75549 172.868 6.7596 173.02 6.76776 173.172C6.7596 173.324 6.75549 173.476 6.75549 173.629C6.75549 173.782 6.7596 173.934 6.76776 174.086C6.7596 174.237 6.75549 174.39 6.75549 174.543C6.75549 174.695 6.7596 174.848 6.76775 174.999C6.7596 175.151 6.75549 175.303 6.75549 175.456C6.75549 175.609 6.7596 175.761 6.76776 175.913C6.7596 176.065 6.75549 176.217 6.75549 176.37C6.75549 176.523 6.7596 176.675 6.76775 176.827C6.7596 176.979 6.75549 177.131 6.75549 177.284C6.75549 177.436 6.7596 177.589 6.76776 177.74C6.76481 177.795 6.76239 177.85 6.7605 177.905C7.92921 176.739 9.33701 175.661 10.9456 174.694C11.9601 173.748 13.1757 172.867 14.5709 172.07C19.0905 169.489 25.3769 167.873 32.3555 167.873C39.3341 167.873 45.6205 169.489 50.14 172.07C51.8805 173.064 53.3414 174.189 54.4812 175.408C50.0429 171.065 41.7959 168.147 32.3555 168.147C23.5357 168.147 15.7577 170.694 11.1538 174.57C12.5147 173.768 14.0151 173.045 15.6326 172.412C20.051 170.167 25.9078 168.787 32.3555 168.787C39.3341 168.787 45.6205 170.403 50.14 172.984C50.5281 173.206 50.9023 173.434 51.2621 173.668C53.9921 175.044 56.2687 176.707 57.9471 178.576C57.9527 178.45 57.9555 178.324 57.9555 178.197C57.9555 178.044 57.9514 177.892 57.9432 177.74C57.9514 177.589 57.9555 177.436 57.9555 177.284C57.9555 177.131 57.9514 176.979 57.9432 176.827C57.9514 176.675 57.9555 176.523 57.9555 176.37C57.9555 176.217 57.9514 176.065 57.9432 175.913C57.9514 175.761 57.9555 175.609 57.9555 175.456C57.9555 175.303 57.9514 175.151 57.9432 174.999C57.9514 174.848 57.9555 174.695 57.9555 174.543C57.9555 174.39 57.9514 174.237 57.9432 174.086ZM54.4757 174.488C50.036 170.148 41.792 167.233 32.3555 167.233C22.919 167.233 14.675 170.148 10.2353 174.488C11.3743 173.272 12.8333 172.149 14.5709 171.157C19.0905 168.576 25.3769 166.959 32.3555 166.959C39.3341 166.959 45.6205 168.576 50.14 171.157C51.8777 172.149 53.3367 173.272 54.4757 174.488ZM50.14 170.243C51.8791 171.236 53.3391 172.36 54.4785 173.578C50.0395 169.236 41.794 166.319 32.3555 166.319C22.917 166.319 14.6715 169.236 10.2325 173.578C11.3719 172.36 12.8319 171.236 14.5709 170.243C19.0905 167.662 25.3769 166.045 32.3555 166.045C39.3341 166.045 45.6205 167.662 50.14 170.243ZM54.4785 172.664C53.3391 171.446 51.8791 170.322 50.14 169.329C45.6205 166.748 39.3341 165.132 32.3555 165.132C25.3769 165.132 19.0905 166.748 14.5709 169.329C12.8319 170.322 11.3719 171.446 10.2325 172.664C14.6715 168.322 22.917 165.405 32.3555 165.405C41.794 165.405 50.0395 168.322 54.4785 172.664ZM50.14 168.416C51.8791 169.409 53.3391 170.533 54.4785 171.75C50.0395 167.409 41.794 164.492 32.3555 164.492C22.917 164.492 14.6715 167.409 10.2325 171.75C11.3719 170.533 12.8319 169.409 14.5709 168.416C19.0905 165.835 25.3769 164.218 32.3555 164.218C39.3341 164.218 45.6205 165.835 50.14 168.416ZM54.4785 170.836C53.3391 169.619 51.8791 168.495 50.14 167.502C45.6205 164.921 39.3341 163.304 32.3555 163.304C25.3769 163.304 19.0905 164.921 14.5709 167.502C12.8319 168.495 11.3719 169.619 10.2326 170.836C14.6716 166.495 22.917 163.578 32.3555 163.578C41.794 163.578 50.0395 166.495 54.4785 170.836ZM50.14 166.588C51.8777 167.581 53.3367 168.704 54.4757 169.92C50.036 165.58 41.792 162.664 32.3555 162.664C22.919 162.664 14.675 165.58 10.2353 169.92C11.3743 168.704 12.8333 167.581 14.5709 166.588C19.0905 164.007 25.3769 162.391 32.3555 162.391C39.3341 162.391 45.6205 164.007 50.14 166.588ZM54.4812 169.012C53.3414 167.793 51.8805 166.668 50.14 165.674C45.6205 163.093 39.3341 161.477 32.3555 161.477C25.3769 161.477 19.0905 163.093 14.5709 165.674C12.8305 166.668 11.3696 167.793 10.2298 169.012C14.6682 164.669 22.9151 161.751 32.3555 161.751C41.7959 161.751 50.0428 164.669 54.4812 169.012ZM50.14 164.761C51.8777 165.753 53.3367 166.876 54.4757 168.092C50.036 163.752 41.792 160.837 32.3555 160.837C22.919 160.837 14.675 163.752 10.2353 168.092C11.3743 166.876 12.8333 165.753 14.5709 164.761C19.0905 162.18 25.3769 160.563 32.3555 160.563C39.3341 160.563 45.6205 162.18 50.14 164.761ZM54.4784 167.181C50.0394 162.84 41.7939 159.923 32.3555 159.923C22.917 159.923 14.6715 162.84 10.2325 167.182C11.3719 165.964 12.8319 164.84 14.5709 163.847C19.0905 161.266 25.3769 159.649 32.3555 159.649C39.3341 159.649 45.6205 161.266 50.14 163.847C51.8791 164.84 53.339 165.964 54.4784 167.181ZM14.5709 162.933C12.8319 163.926 11.3719 165.05 10.2325 166.268C14.6715 161.926 22.917 159.009 32.3555 159.009C41.794 159.009 50.0395 161.926 54.4785 166.268C53.3391 165.05 51.8791 163.926 50.14 162.933C45.6205 160.352 39.3341 158.736 32.3555 158.736C25.3769 158.736 19.0905 160.352 14.5709 162.933Z" fill="url(#paint1_linear_95_165)"/>
<path fill-rule="evenodd" clip-rule="evenodd" d="M53.4656 127.388C53.3138 127.38 53.1615 127.375 53.0087 127.375C52.8558 127.375 52.7035 127.38 52.5518 127.388C52.4001 127.38 52.2478 127.375 52.0949 127.375C44.0208 127.375 37.4755 138.837 37.4755 152.976C37.4755 167.114 44.0208 178.576 52.0949 178.576C52.2478 178.576 52.4001 178.572 52.5518 178.563C52.7035 178.572 52.8558 178.576 53.0087 178.576C53.1615 178.576 53.3138 178.572 53.4656 178.563C53.6173 178.572 53.7696 178.576 53.9224 178.576C54.0752 178.576 54.2275 178.572 54.3792 178.563C54.5309 178.572 54.6831 178.576 54.8359 178.576C54.9888 178.576 55.1412 178.572 55.2929 178.563C55.4447 178.572 55.597 178.576 55.7499 178.576C55.9027 178.576 56.055 178.572 56.2067 178.563C56.3584 178.572 56.5106 178.576 56.6634 178.576C56.8163 178.576 56.9686 178.572 57.1203 178.563C57.1751 178.566 57.2301 178.569 57.285 178.571C56.1187 177.402 55.041 175.994 54.0738 174.385C53.1279 173.371 52.2469 172.155 51.4502 170.76C48.8692 166.241 47.2525 159.954 47.2525 152.976C47.2525 145.997 48.8692 139.711 51.4502 135.191C52.4441 133.451 53.5691 131.99 54.7876 130.85C50.4446 135.288 47.5265 143.535 47.5265 152.976C47.5265 161.795 50.0735 169.573 53.9499 174.177C53.1483 172.816 52.4247 171.316 51.7922 169.698C49.5466 165.28 48.1665 159.423 48.1665 152.976C48.1665 145.997 49.7832 139.711 52.3642 135.191C52.5858 134.803 52.8139 134.429 53.0481 134.069C54.4235 131.339 56.087 129.062 57.9555 127.384C57.8298 127.378 57.7037 127.375 57.5772 127.375C57.4243 127.375 57.272 127.38 57.1203 127.388C56.9686 127.38 56.8163 127.375 56.6634 127.375C56.5106 127.375 56.3584 127.38 56.2067 127.388C56.055 127.38 55.9027 127.375 55.7499 127.375C55.597 127.375 55.4447 127.38 55.2929 127.388C55.1412 127.38 54.9888 127.375 54.8359 127.375C54.6831 127.375 54.5309 127.38 54.3792 127.388C54.2275 127.38 54.0752 127.375 53.9224 127.375C53.7696 127.375 53.6173 127.38 53.4656 127.388ZM53.8682 130.855C49.5282 135.295 46.6125 143.539 46.6125 152.976C46.6125 162.412 49.5282 170.656 53.8682 175.096C52.6519 173.957 51.529 172.498 50.5367 170.76C47.9557 166.241 46.339 159.954 46.339 152.976C46.339 145.997 47.9557 139.711 50.5367 135.191C51.529 133.453 52.6519 131.994 53.8682 130.855ZM49.6229 135.191C50.616 133.452 51.74 131.992 52.9574 130.853C48.616 135.292 45.699 143.537 45.699 152.976C45.699 162.414 48.6159 170.66 52.9574 175.099C51.74 173.959 50.616 172.499 49.6229 170.76C47.0419 166.241 45.4252 159.954 45.4252 152.976C45.4252 145.997 47.0419 139.711 49.6229 135.191ZM52.0437 130.853C50.8263 131.992 49.7023 133.452 48.7092 135.191C46.1282 139.711 44.5115 145.997 44.5115 152.976C44.5115 159.954 46.1282 166.241 48.7092 170.76C49.7023 172.499 50.8263 173.959 52.0436 175.099C47.7022 170.66 44.7852 162.414 44.7852 152.976C44.7852 143.537 47.7022 135.292 52.0437 130.853ZM47.7954 135.191C48.7885 133.452 49.9125 131.992 51.1299 130.853C46.7885 135.292 43.8715 143.537 43.8715 152.976C43.8715 162.414 46.7884 170.66 51.1299 175.099C49.9125 173.959 48.7885 172.499 47.7954 170.76C45.2144 166.241 43.5977 159.954 43.5977 152.976C43.5977 145.997 45.2144 139.711 47.7954 135.191ZM50.2161 130.853C48.9988 131.992 47.8748 133.452 46.8817 135.191C44.3007 139.711 42.684 145.997 42.684 152.976C42.684 159.954 44.3007 166.241 46.8817 170.76C47.8748 172.499 48.9987 173.959 50.2161 175.099C45.8747 170.66 42.9577 162.414 42.9577 152.976C42.9577 143.537 45.8747 135.292 50.2161 130.853ZM45.9682 135.191C46.9605 133.453 48.0834 131.994 49.2997 130.855C44.9597 135.295 42.044 143.539 42.044 152.976C42.044 162.412 44.9597 170.656 49.2997 175.096C48.0834 173.957 46.9605 172.498 45.9682 170.76C43.3872 166.241 41.7705 159.954 41.7705 152.976C41.7705 145.997 43.3872 139.711 45.9682 135.191ZM48.3916 130.85C47.1731 131.99 46.0481 133.451 45.0542 135.191C42.4732 139.711 40.8565 145.997 40.8565 152.976C40.8565 159.954 42.4732 166.241 45.0542 170.76C46.0481 172.501 47.173 173.962 48.3916 175.101C44.0486 170.663 41.1305 162.416 41.1305 152.976C41.1305 143.535 44.0486 135.288 48.3916 130.85ZM44.1407 135.191C45.133 133.453 46.2559 131.994 47.4722 130.855C43.1322 135.295 40.2165 143.539 40.2165 152.976C40.2165 162.412 43.1322 170.656 47.4722 175.096C46.2559 173.957 45.133 172.498 44.1407 170.76C41.5597 166.241 39.943 159.954 39.943 152.976C39.943 145.997 41.5597 139.711 44.1407 135.191ZM46.5614 130.853C42.2199 135.292 39.303 143.537 39.303 152.976C39.303 162.414 42.2199 170.66 46.5614 175.099C45.344 173.959 44.22 172.499 43.2269 170.76C40.6459 166.241 39.0292 159.954 39.0292 152.976C39.0292 145.997 40.6459 139.711 43.2269 135.191C44.22 133.452 45.344 131.992 46.5614 130.853ZM42.3132 170.76C43.3063 172.499 44.4303 173.959 45.6476 175.099C41.3062 170.66 38.3892 162.414 38.3892 152.976C38.3892 143.537 41.3062 135.292 45.6477 130.853C44.4303 131.992 43.3063 133.452 42.3132 135.191C39.7322 139.711 38.1155 145.997 38.1155 152.976C38.1155 159.954 39.7322 166.241 42.3132 170.76Z" fill="url(#paint2_linear_95_165)"/>
<path fill-rule="evenodd" clip-rule="evenodd" d="M11.2453 127.388C11.397 127.38 11.5493 127.375 11.7022 127.375C11.8551 127.375 12.0073 127.38 12.1591 127.388C12.3108 127.38 12.4631 127.375 12.6159 127.375C20.6901 127.375 27.2354 138.837 27.2354 152.976C27.2354 167.114 20.6901 178.576 12.6159 178.576C12.4631 178.576 12.3108 178.572 12.1591 178.563C12.0074 178.572 11.855 178.576 11.7022 178.576C11.5493 178.576 11.397 178.572 11.2453 178.563C11.0936 178.572 10.9413 178.576 10.7884 178.576C10.6356 178.576 10.4834 178.572 10.3317 178.563C10.18 178.572 10.0278 178.576 9.87495 178.576C9.72205 178.576 9.56971 178.572 9.41795 178.563C9.26618 178.572 9.11384 178.576 8.96095 178.576C8.80814 178.576 8.65588 178.572 8.5042 178.563C8.35252 178.572 8.20026 178.576 8.04745 178.576C7.8946 178.576 7.74229 178.572 7.59057 178.563C7.53573 178.566 7.48082 178.569 7.42583 178.571C8.59214 177.402 9.66986 175.994 10.6371 174.385C11.5829 173.371 12.4639 172.155 13.2607 170.76C15.8417 166.241 17.4584 159.954 17.4584 152.976C17.4584 145.997 15.8417 139.711 13.2607 135.191C12.2668 133.451 11.1418 131.99 9.92328 130.85C14.2662 135.288 17.1844 143.535 17.1844 152.976C17.1844 161.795 14.6373 169.573 10.761 174.177C11.5626 172.816 12.2861 171.316 12.9187 169.698C15.1643 165.28 16.5444 159.423 16.5444 152.976C16.5444 145.997 14.9277 139.711 12.3467 135.191C12.1251 134.803 11.897 134.429 11.6628 134.069C10.2874 131.339 8.62392 129.062 6.75537 127.384C6.88109 127.378 7.00721 127.375 7.1337 127.375C7.28655 127.375 7.43883 127.38 7.59056 127.388C7.74229 127.38 7.89459 127.375 8.04745 127.375C8.20026 127.375 8.3525 127.38 8.50418 127.388C8.65587 127.38 8.80813 127.375 8.96095 127.375C9.11384 127.375 9.26617 127.38 9.41793 127.388C9.5697 127.38 9.72205 127.375 9.87495 127.375C10.0278 127.375 10.18 127.38 10.3317 127.388C10.4834 127.38 10.6356 127.375 10.7884 127.375C10.9413 127.375 11.0936 127.38 11.2453 127.388ZM10.8427 130.855C15.1827 135.295 18.0984 143.539 18.0984 152.976C18.0984 162.412 15.1827 170.656 10.8427 175.096C12.0589 173.957 13.1819 172.498 14.1742 170.76C16.7552 166.241 18.3719 159.954 18.3719 152.976C18.3719 145.997 16.7552 139.711 14.1742 135.191C13.1819 133.453 12.0589 131.994 10.8427 130.855ZM15.088 135.191C14.0948 133.452 12.9709 131.992 11.7535 130.853C16.0949 135.292 19.0119 143.537 19.0119 152.976C19.0119 162.414 16.0949 170.66 11.7535 175.099C12.9709 173.959 14.0948 172.499 15.088 170.76C17.669 166.241 19.2857 159.954 19.2857 152.976C19.2857 145.997 17.669 139.711 15.088 135.191ZM12.6672 130.853C13.8846 131.992 15.0086 133.452 16.0017 135.191C18.5827 139.711 20.1994 145.997 20.1994 152.976C20.1994 159.954 18.5827 166.241 16.0017 170.76C15.0086 172.499 13.8846 173.959 12.6672 175.099C17.0087 170.66 19.9257 162.414 19.9257 152.976C19.9257 143.537 17.0087 135.292 12.6672 130.853ZM16.9155 135.191C15.9223 133.452 14.7984 131.992 13.581 130.853C17.9224 135.292 20.8394 143.537 20.8394 152.976C20.8394 162.414 17.9224 170.66 13.581 175.099C14.7984 173.959 15.9223 172.499 16.9155 170.76C19.4965 166.241 21.1132 159.954 21.1132 152.976C21.1132 145.997 19.4965 139.711 16.9155 135.191ZM14.4947 130.853C15.7121 131.992 16.8361 133.452 17.8292 135.191C20.4102 139.711 22.0269 145.997 22.0269 152.976C22.0269 159.954 20.4102 166.241 17.8292 170.76C16.8361 172.499 15.7121 173.959 14.4948 175.099C18.8362 170.66 21.7532 162.414 21.7532 152.976C21.7532 143.537 18.8362 135.292 14.4947 130.853ZM18.7427 135.191C17.7504 133.453 16.6275 131.994 15.4112 130.855C19.7512 135.295 22.6669 143.539 22.6669 152.976C22.6669 162.412 19.7512 170.656 15.4112 175.096C16.6275 173.957 17.7504 172.498 18.7427 170.76C21.3237 166.241 22.9404 159.954 22.9404 152.976C22.9404 145.997 21.3237 139.711 18.7427 135.191ZM16.3193 130.85C17.5378 131.99 18.6628 133.451 19.6567 135.191C22.2377 139.711 23.8544 145.997 23.8544 152.976C23.8544 159.954 22.2377 166.241 19.6567 170.76C18.6628 172.501 17.5378 173.962 16.3193 175.101C20.6622 170.663 23.5804 162.416 23.5804 152.976C23.5804 143.535 20.6622 135.288 16.3193 130.85ZM20.5702 135.191C19.5779 133.453 18.455 131.994 17.2387 130.855C21.5787 135.295 24.4944 143.539 24.4944 152.976C24.4944 162.412 21.5787 170.656 17.2387 175.096C18.4549 173.957 19.5779 172.498 20.5702 170.76C23.1512 166.241 24.7679 159.954 24.7679 152.976C24.7679 145.997 23.1512 139.711 20.5702 135.191ZM18.1495 130.853C22.491 135.292 25.4079 143.537 25.4079 152.976C25.4079 162.414 22.4909 170.66 18.1495 175.099C19.3669 173.959 20.4908 172.499 21.484 170.76C24.065 166.241 25.6817 159.954 25.6817 152.976C25.6817 145.997 24.065 139.711 21.484 135.191C20.4909 133.452 19.3669 131.992 18.1495 130.853ZM22.3977 170.76C21.4046 172.499 20.2806 173.959 19.0632 175.099C23.4047 170.66 26.3217 162.414 26.3217 152.976C26.3217 143.537 23.4047 135.292 19.0632 130.853C20.2806 131.992 21.4046 133.452 22.3977 135.191C24.9787 139.711 26.5954 145.997 26.5954 152.976C26.5954 159.954 24.9787 166.241 22.3977 170.76Z" fill="url(#paint3_linear_95_165)"/>
<path d="M85.0955 134.996C85.0955 133.636 85.4088 132.416 86.0355 131.336C86.6755 130.256 87.5355 129.416 88.6155 128.816C89.7088 128.202 90.9021 127.896 92.1955 127.896C93.6755 127.896 94.9888 128.262 96.1355 128.996C97.2955 129.716 98.1355 130.742 98.6555 132.076H95.9155C95.5555 131.342 95.0555 130.796 94.4155 130.436C93.7755 130.076 93.0355 129.896 92.1955 129.896C91.2755 129.896 90.4555 130.102 89.7355 130.516C89.0155 130.929 88.4488 131.522 88.0355 132.296C87.6355 133.069 87.4355 133.969 87.4355 134.996C87.4355 136.022 87.6355 136.922 88.0355 137.696C88.4488 138.469 89.0155 139.069 89.7355 139.496C90.4555 139.909 91.2755 140.116 92.1955 140.116C93.0355 140.116 93.7755 139.936 94.4155 139.576C95.0555 139.216 95.5555 138.669 95.9155 137.936H98.6555C98.1355 139.269 97.2955 140.296 96.1355 141.016C94.9888 141.736 93.6755 142.096 92.1955 142.096C90.8888 142.096 89.6955 141.796 88.6155 141.196C87.5355 140.582 86.6755 139.736 86.0355 138.656C85.4088 137.576 85.0955 136.356 85.0955 134.996ZM107.024 130.776C107.864 130.776 108.611 130.956 109.264 131.316C109.931 131.676 110.451 132.209 110.824 132.916C111.211 133.622 111.404 134.476 111.404 135.476V141.976H109.144V135.816C109.144 134.829 108.898 134.076 108.404 133.556C107.911 133.022 107.238 132.756 106.384 132.756C105.531 132.756 104.851 133.022 104.344 133.556C103.851 134.076 103.604 134.829 103.604 135.816V141.976H101.324V127.176H103.604V132.236C103.991 131.769 104.478 131.409 105.064 131.156C105.664 130.902 106.318 130.776 107.024 130.776ZM116.593 132.556C116.926 131.996 117.366 131.562 117.913 131.256C118.473 130.936 119.133 130.776 119.893 130.776V133.136H119.313C118.419 133.136 117.739 133.362 117.273 133.816C116.819 134.269 116.593 135.056 116.593 136.176V141.976H114.313V130.956H116.593V132.556ZM123.148 129.496C122.735 129.496 122.388 129.356 122.108 129.076C121.828 128.796 121.688 128.449 121.688 128.036C121.688 127.622 121.828 127.276 122.108 126.996C122.388 126.716 122.735 126.576 123.148 126.576C123.548 126.576 123.888 126.716 124.168 126.996C124.448 127.276 124.588 127.622 124.588 128.036C124.588 128.449 124.448 128.796 124.168 129.076C123.888 129.356 123.548 129.496 123.148 129.496ZM124.268 130.956V141.976H121.988V130.956H124.268ZM131.262 142.156C130.395 142.156 129.615 142.002 128.922 141.696C128.242 141.376 127.702 140.949 127.302 140.416C126.902 139.869 126.688 139.262 126.662 138.596H129.022C129.062 139.062 129.282 139.456 129.682 139.776C130.095 140.082 130.608 140.236 131.222 140.236C131.862 140.236 132.355 140.116 132.702 139.876C133.062 139.622 133.242 139.302 133.242 138.916C133.242 138.502 133.042 138.196 132.642 137.996C132.255 137.796 131.635 137.576 130.782 137.336C129.955 137.109 129.282 136.889 128.762 136.676C128.242 136.462 127.788 136.136 127.402 135.696C127.028 135.256 126.842 134.676 126.842 133.956C126.842 133.369 127.015 132.836 127.362 132.356C127.708 131.862 128.202 131.476 128.842 131.196C129.495 130.916 130.242 130.776 131.082 130.776C132.335 130.776 133.342 131.096 134.102 131.736C134.875 132.362 135.288 133.222 135.342 134.316H133.062C133.022 133.822 132.822 133.429 132.462 133.136C132.102 132.842 131.615 132.696 131.002 132.696C130.402 132.696 129.942 132.809 129.622 133.036C129.302 133.262 129.142 133.562 129.142 133.936C129.142 134.229 129.248 134.476 129.462 134.676C129.675 134.876 129.935 135.036 130.242 135.156C130.548 135.262 131.002 135.402 131.602 135.576C132.402 135.789 133.055 136.009 133.562 136.236C134.082 136.449 134.528 136.769 134.902 137.196C135.275 137.622 135.468 138.189 135.482 138.896C135.482 139.522 135.308 140.082 134.962 140.576C134.615 141.069 134.122 141.456 133.482 141.736C132.855 142.016 132.115 142.156 131.262 142.156ZM140.605 132.816V138.916C140.605 139.329 140.699 139.629 140.885 139.816C141.085 139.989 141.419 140.076 141.885 140.076H143.285V141.976H141.485C140.459 141.976 139.672 141.736 139.125 141.256C138.579 140.776 138.305 139.996 138.305 138.916V132.816H137.005V130.956H138.305V128.216H140.605V130.956H143.285V132.816H140.605ZM146.547 129.496C146.133 129.496 145.787 129.356 145.507 129.076C145.227 128.796 145.087 128.449 145.087 128.036C145.087 127.622 145.227 127.276 145.507 126.996C145.787 126.716 146.133 126.576 146.547 126.576C146.947 126.576 147.287 126.716 147.567 126.996C147.847 127.276 147.987 127.622 147.987 128.036C147.987 128.449 147.847 128.796 147.567 129.076C147.287 129.356 146.947 129.496 146.547 129.496ZM147.667 130.956V141.976H145.387V130.956H147.667ZM149.9 136.416C149.9 135.309 150.127 134.329 150.58 133.476C151.047 132.622 151.673 131.962 152.46 131.496C153.26 131.016 154.14 130.776 155.1 130.776C155.967 130.776 156.72 130.949 157.36 131.296C158.013 131.629 158.533 132.049 158.92 132.556V130.956H161.22V141.976H158.92V140.336C158.533 140.856 158.007 141.289 157.34 141.636C156.673 141.982 155.913 142.156 155.06 142.156C154.113 142.156 153.247 141.916 152.46 141.436C151.673 140.942 151.047 140.262 150.58 139.396C150.127 138.516 149.9 137.522 149.9 136.416ZM158.92 136.456C158.92 135.696 158.76 135.036 158.44 134.476C158.133 133.916 157.727 133.489 157.22 133.196C156.713 132.902 156.167 132.756 155.58 132.756C154.993 132.756 154.447 132.902 153.94 133.196C153.433 133.476 153.02 133.896 152.7 134.456C152.393 135.002 152.24 135.656 152.24 136.416C152.24 137.176 152.393 137.842 152.7 138.416C153.02 138.989 153.433 139.429 153.94 139.736C154.46 140.029 155.007 140.176 155.58 140.176C156.167 140.176 156.713 140.029 157.22 139.736C157.727 139.442 158.133 139.016 158.44 138.456C158.76 137.882 158.92 137.216 158.92 136.456ZM169.775 130.776C170.642 130.776 171.415 130.956 172.095 131.316C172.788 131.676 173.328 132.209 173.715 132.916C174.102 133.622 174.295 134.476 174.295 135.476V141.976H172.035V135.816C172.035 134.829 171.788 134.076 171.295 133.556C170.802 133.022 170.128 132.756 169.275 132.756C168.422 132.756 167.742 133.022 167.235 133.556C166.742 134.076 166.495 134.829 166.495 135.816V141.976H164.215V130.956H166.495V132.216C166.868 131.762 167.342 131.409 167.915 131.156C168.502 130.902 169.122 130.776 169.775 130.776ZM194.378 128.076L189.158 141.976H186.518L181.278 128.076H183.718L187.838 139.636L191.978 128.076H194.378ZM197.445 129.496C197.032 129.496 196.685 129.356 196.405 129.076C196.125 128.796 195.985 128.449 195.985 128.036C195.985 127.622 196.125 127.276 196.405 126.996C196.685 126.716 197.032 126.576 197.445 126.576C197.845 126.576 198.185 126.716 198.465 126.996C198.745 127.276 198.885 127.622 198.885 128.036C198.885 128.449 198.745 128.796 198.465 129.076C198.185 129.356 197.845 129.496 197.445 129.496ZM198.565 130.956V141.976H196.285V130.956H198.565ZM211.659 136.196C211.659 136.609 211.632 136.982 211.579 137.316H203.159C203.225 138.196 203.552 138.902 204.139 139.436C204.725 139.969 205.445 140.236 206.299 140.236C207.525 140.236 208.392 139.722 208.899 138.696H211.359C211.025 139.709 210.419 140.542 209.539 141.196C208.672 141.836 207.592 142.156 206.299 142.156C205.245 142.156 204.299 141.922 203.459 141.456C202.632 140.976 201.979 140.309 201.499 139.456C201.032 138.589 200.799 137.589 200.799 136.456C200.799 135.322 201.025 134.329 201.479 133.476C201.945 132.609 202.592 131.942 203.419 131.476C204.259 131.009 205.219 130.776 206.299 130.776C207.339 130.776 208.265 131.002 209.079 131.456C209.892 131.909 210.525 132.549 210.979 133.376C211.432 134.189 211.659 135.129 211.659 136.196ZM209.279 135.476C209.265 134.636 208.965 133.962 208.379 133.456C207.792 132.949 207.065 132.696 206.199 132.696C205.412 132.696 204.739 132.949 204.179 133.456C203.619 133.949 203.285 134.622 203.179 135.476H209.279ZM216.182 127.176V141.976H213.902V127.176H216.182ZM232.516 130.776C233.382 130.776 234.156 130.956 234.836 131.316C235.529 131.676 236.069 132.209 236.456 132.916C236.856 133.622 237.056 134.476 237.056 135.476V141.976H234.796V135.816C234.796 134.829 234.549 134.076 234.056 133.556C233.562 133.022 232.889 132.756 232.036 132.756C231.182 132.756 230.502 133.022 229.996 133.556C229.502 134.076 229.256 134.829 229.256 135.816V141.976H226.996V135.816C226.996 134.829 226.749 134.076 226.256 133.556C225.762 133.022 225.089 132.756 224.236 132.756C223.382 132.756 222.702 133.022 222.196 133.556C221.702 134.076 221.456 134.829 221.456 135.816V141.976H219.176V130.956H221.456V132.216C221.829 131.762 222.302 131.409 222.876 131.156C223.449 130.902 224.062 130.776 224.716 130.776C225.596 130.776 226.382 130.962 227.076 131.336C227.769 131.709 228.302 132.249 228.676 132.956C229.009 132.289 229.529 131.762 230.236 131.376C230.942 130.976 231.702 130.776 232.516 130.776ZM239.197 136.416C239.197 135.309 239.424 134.329 239.877 133.476C240.344 132.622 240.97 131.962 241.757 131.496C242.557 131.016 243.437 130.776 244.397 130.776C245.264 130.776 246.017 130.949 246.657 131.296C247.31 131.629 247.83 132.049 248.217 132.556V130.956H250.517V141.976H248.217V140.336C247.83 140.856 247.304 141.289 246.637 141.636C245.97 141.982 245.21 142.156 244.357 142.156C243.41 142.156 242.544 141.916 241.757 141.436C240.97 140.942 240.344 140.262 239.877 139.396C239.424 138.516 239.197 137.522 239.197 136.416ZM248.217 136.456C248.217 135.696 248.057 135.036 247.737 134.476C247.43 133.916 247.024 133.489 246.517 133.196C246.01 132.902 245.464 132.756 244.877 132.756C244.29 132.756 243.744 132.902 243.237 133.196C242.73 133.476 242.317 133.896 241.997 134.456C241.69 135.002 241.537 135.656 241.537 136.416C241.537 137.176 241.69 137.842 241.997 138.416C242.317 138.989 242.73 139.429 243.237 139.736C243.757 140.029 244.304 140.176 244.877 140.176C245.464 140.176 246.01 140.029 246.517 139.736C247.024 139.442 247.43 139.016 247.737 138.456C248.057 137.882 248.217 137.216 248.217 136.456ZM259.072 130.776C259.938 130.776 260.712 130.956 261.392 131.316C262.085 131.676 262.625 132.209 263.012 132.916C263.398 133.622 263.592 134.476 263.592 135.476V141.976H261.332V135.816C261.332 134.829 261.085 134.076 260.592 133.556C260.098 133.022 259.425 132.756 258.572 132.756C257.718 132.756 257.038 133.022 256.532 133.556C256.038 134.076 255.792 134.829 255.792 135.816V141.976H253.512V130.956H255.792V132.216C256.165 131.762 256.638 131.409 257.212 131.156C257.798 130.902 258.418 130.776 259.072 130.776Z" fill="#242321"/>
<path opacity="0.8" d="M86.0915 163.058C85.8488 163.058 85.6435 162.974 85.4755 162.806C85.3075 162.638 85.2235 162.432 85.2235 162.19C85.2235 161.947 85.3075 161.742 85.4755 161.574C85.6435 161.406 85.8488 161.322 86.0915 161.322C86.3248 161.322 86.5208 161.406 86.6795 161.574C86.8475 161.742 86.9315 161.947 86.9315 162.19C86.9315 162.432 86.8475 162.638 86.6795 162.806C86.5208 162.974 86.3248 163.058 86.0915 163.058ZM86.7075 164.304V171.976H85.4335V164.304H86.7075ZM93.7648 166.95C94.1194 167.006 94.4414 167.15 94.7308 167.384C95.0294 167.617 95.2628 167.906 95.4308 168.252C95.6081 168.597 95.6968 168.966 95.6968 169.358C95.6968 169.852 95.5708 170.3 95.3188 170.702C95.0668 171.094 94.6981 171.406 94.2128 171.64C93.7368 171.864 93.1721 171.976 92.5188 171.976H88.8788V162.218H92.3788C93.0414 162.218 93.6061 162.33 94.0728 162.554C94.5394 162.768 94.8894 163.062 95.1228 163.436C95.3561 163.809 95.4728 164.229 95.4728 164.696C95.4728 165.274 95.3141 165.755 94.9968 166.138C94.6888 166.511 94.2781 166.782 93.7648 166.95ZM90.1528 166.432H92.2948C92.8921 166.432 93.3541 166.292 93.6808 166.012C94.0074 165.732 94.1708 165.344 94.1708 164.85C94.1708 164.355 94.0074 163.968 93.6808 163.688C93.3541 163.408 92.8828 163.268 92.2668 163.268H90.1528V166.432ZM92.4068 170.926C93.0414 170.926 93.5361 170.776 93.8908 170.478C94.2454 170.179 94.4228 169.764 94.4228 169.232C94.4228 168.69 94.2361 168.266 93.8628 167.958C93.4894 167.64 92.9901 167.482 92.3648 167.482H90.1528V170.926H92.4068ZM98.7107 162.218V168.392C98.7107 169.26 98.9207 169.904 99.3407 170.324C99.7701 170.744 100.363 170.954 101.119 170.954C101.865 170.954 102.449 170.744 102.869 170.324C103.298 169.904 103.513 169.26 103.513 168.392V162.218H104.787V168.378C104.787 169.19 104.623 169.876 104.297 170.436C103.97 170.986 103.527 171.397 102.967 171.668C102.416 171.938 101.795 172.074 101.105 172.074C100.414 172.074 99.7887 171.938 99.2287 171.668C98.6781 171.397 98.2394 170.986 97.9127 170.436C97.5954 169.876 97.4367 169.19 97.4367 168.378V162.218H98.7107ZM113.744 162.218L110.566 168.294V171.976H109.292V168.294L106.1 162.218H107.514L109.922 167.16L112.33 162.218H113.744ZM121.612 165.074C121.612 165.886 121.332 166.562 120.772 167.104C120.221 167.636 119.376 167.902 118.238 167.902H116.362V171.976H115.088V162.218H118.238C119.339 162.218 120.174 162.484 120.744 163.016C121.322 163.548 121.612 164.234 121.612 165.074ZM118.238 166.852C118.947 166.852 119.47 166.698 119.806 166.39C120.142 166.082 120.31 165.643 120.31 165.074C120.31 163.87 119.619 163.268 118.238 163.268H116.362V166.852H118.238ZM127.619 172.074C126.714 172.074 125.888 171.864 125.141 171.444C124.395 171.014 123.802 170.422 123.363 169.666C122.934 168.9 122.719 168.042 122.719 167.09C122.719 166.138 122.934 165.284 123.363 164.528C123.802 163.762 124.395 163.17 125.141 162.75C125.888 162.32 126.714 162.106 127.619 162.106C128.534 162.106 129.365 162.32 130.111 162.75C130.858 163.17 131.446 163.758 131.875 164.514C132.305 165.27 132.519 166.128 132.519 167.09C132.519 168.051 132.305 168.91 131.875 169.666C131.446 170.422 130.858 171.014 130.111 171.444C129.365 171.864 128.534 172.074 127.619 172.074ZM127.619 170.968C128.301 170.968 128.912 170.809 129.453 170.492C130.004 170.174 130.433 169.722 130.741 169.134C131.059 168.546 131.217 167.864 131.217 167.09C131.217 166.306 131.059 165.624 130.741 165.046C130.433 164.458 130.009 164.005 129.467 163.688C128.926 163.37 128.31 163.212 127.619 163.212C126.929 163.212 126.313 163.37 125.771 163.688C125.23 164.005 124.801 164.458 124.483 165.046C124.175 165.624 124.021 166.306 124.021 167.09C124.021 167.864 124.175 168.546 124.483 169.134C124.801 169.722 125.23 170.174 125.771 170.492C126.322 170.809 126.938 170.968 127.619 170.968ZM146.465 162.218L143.637 171.976H142.209L139.941 164.122L137.589 171.976L136.175 171.99L133.445 162.218H134.803L136.931 170.492L139.283 162.218H140.711L142.951 170.464L145.093 162.218H146.465ZM149.133 163.254V166.516H152.689V167.566H149.133V170.926H153.109V171.976H147.859V162.204H153.109V163.254H149.133ZM160.175 171.976L157.851 167.986H156.311V171.976H155.037V162.218H158.187C158.924 162.218 159.545 162.344 160.049 162.596C160.562 162.848 160.945 163.188 161.197 163.618C161.449 164.047 161.575 164.537 161.575 165.088C161.575 165.76 161.379 166.352 160.987 166.866C160.604 167.379 160.026 167.72 159.251 167.888L161.701 171.976H160.175ZM156.311 166.964H158.187C158.878 166.964 159.396 166.796 159.741 166.46C160.086 166.114 160.259 165.657 160.259 165.088C160.259 164.509 160.086 164.061 159.741 163.744C159.405 163.426 158.887 163.268 158.187 163.268H156.311V166.964Z" fill="#242321"/>
<defs>
<linearGradient id="paint0_linear_95_165" x1="31.7154" y1="149.456" x2="33.206" y2="132.628" gradientUnits="userSpaceOnUse">
<stop stop-color="#EB1700"/>
<stop offset="1" stop-color="#EC1700" stop-opacity="0"/>
</linearGradient>
<linearGradient id="paint1_linear_95_165" x1="33.3155" y1="157.328" x2="31.5606" y2="177.14" gradientUnits="userSpaceOnUse">
<stop stop-color="#EB1700"/>
<stop offset="1" stop-color="#EA1700" stop-opacity="0"/>
</linearGradient>
<linearGradient id="paint2_linear_95_165" x1="36.7075" y1="152.016" x2="53.98" y2="153.545" gradientUnits="userSpaceOnUse">
<stop stop-color="#EB1700"/>
<stop offset="1" stop-color="#FF1900" stop-opacity="0"/>
</linearGradient>
<linearGradient id="paint3_linear_95_165" x1="28.0034" y1="152.016" x2="10.4134" y2="153.574" gradientUnits="userSpaceOnUse">
<stop stop-color="#EB1700"/>
<stop offset="1" stop-color="#F01700" stop-opacity="0"/>
</linearGradient>
</defs>
</svg>
