<svg width="249" height="50" viewBox="0 0 249 50" fill="none" xmlns="http://www.w3.org/2000/svg">
<rect x="0.220947" width="248" height="50" rx="25" fill="white"/>
<path d="M41.4689 23.08C41.1809 22.5253 40.7809 22.1093 40.2689 21.832C39.7569 21.544 39.1649 21.4 38.4929 21.4C37.7569 21.4 37.1009 21.5653 36.5249 21.896C35.9489 22.2267 35.4956 22.696 35.1649 23.304C34.8449 23.912 34.6849 24.616 34.6849 25.416C34.6849 26.216 34.8449 26.9253 35.1649 27.544C35.4956 28.152 35.9489 28.6213 36.5249 28.952C37.1009 29.2827 37.7569 29.448 38.4929 29.448C39.4849 29.448 40.2903 29.1707 40.9089 28.616C41.5276 28.0613 41.9063 27.3093 42.0449 26.36H37.8689V24.904H43.9969V26.328C43.8796 27.192 43.5703 27.9867 43.0689 28.712C42.5783 29.4373 41.9329 30.0187 41.1329 30.456C40.3436 30.8827 39.4636 31.096 38.4929 31.096C37.4476 31.096 36.4929 30.856 35.6289 30.376C34.7649 29.8853 34.0769 29.208 33.5649 28.344C33.0636 27.48 32.8129 26.504 32.8129 25.416C32.8129 24.328 33.0636 23.352 33.5649 22.488C34.0769 21.624 34.7649 20.952 35.6289 20.472C36.5036 19.9813 37.4583 19.736 38.4929 19.736C39.6769 19.736 40.7276 20.0293 41.6449 20.616C42.5729 21.192 43.2449 22.0133 43.6609 23.08H41.4689ZM53.8759 26.376C53.8759 26.7067 53.8546 27.0053 53.8119 27.272H47.0759C47.1293 27.976 47.3906 28.5413 47.8599 28.968C48.3293 29.3947 48.9053 29.608 49.5879 29.608C50.5693 29.608 51.2626 29.1973 51.6679 28.376H53.6359C53.3693 29.1867 52.8839 29.8533 52.1799 30.376C51.4866 30.888 50.6226 31.144 49.5879 31.144C48.7453 31.144 47.9879 30.9573 47.3159 30.584C46.6546 30.2 46.1319 29.6667 45.7479 28.984C45.3746 28.2907 45.1879 27.4907 45.1879 26.584C45.1879 25.6773 45.3693 24.8827 45.7319 24.2C46.1053 23.5067 46.6226 22.9733 47.2839 22.6C47.9559 22.2267 48.7239 22.04 49.5879 22.04C50.4199 22.04 51.1613 22.2213 51.8119 22.584C52.4626 22.9467 52.9693 23.4587 53.3319 24.12C53.6946 24.7707 53.8759 25.5227 53.8759 26.376ZM51.9719 25.8C51.9613 25.128 51.7213 24.5893 51.2519 24.184C50.7826 23.7787 50.2013 23.576 49.5079 23.576C48.8786 23.576 48.3399 23.7787 47.8919 24.184C47.4439 24.5787 47.1773 25.1173 47.0919 25.8H51.9719ZM57.7989 23.672V28.552C57.7989 28.8827 57.8736 29.1227 58.0229 29.272C58.1829 29.4107 58.4496 29.48 58.8229 29.48H59.9429V31H58.5029C57.6816 31 57.0523 30.808 56.6149 30.424C56.1776 30.04 55.9589 29.416 55.9589 28.552V23.672H54.9189V22.184H55.9589V19.992H57.7989V22.184H59.9429V23.672H57.7989ZM65.1723 26.552C65.1723 25.6667 65.3537 24.8827 65.7163 24.2C66.0897 23.5173 66.591 22.9893 67.2203 22.616C67.8603 22.232 68.5643 22.04 69.3323 22.04C70.0257 22.04 70.6283 22.1787 71.1403 22.456C71.663 22.7227 72.079 23.0587 72.3883 23.464V22.184H74.2283V31H72.3883V29.688C72.079 30.104 71.6577 30.4507 71.1243 30.728C70.591 31.0053 69.983 31.144 69.3003 31.144C68.543 31.144 67.8497 30.952 67.2203 30.568C66.591 30.1733 66.0897 29.6293 65.7163 28.936C65.3537 28.232 65.1723 27.4373 65.1723 26.552ZM72.3883 26.584C72.3883 25.976 72.2603 25.448 72.0043 25C71.759 24.552 71.4337 24.2107 71.0283 23.976C70.623 23.7413 70.1857 23.624 69.7163 23.624C69.247 23.624 68.8097 23.7413 68.4043 23.976C67.999 24.2 67.6683 24.536 67.4123 24.984C67.167 25.4213 67.0443 25.944 67.0443 26.552C67.0443 27.16 67.167 27.6933 67.4123 28.152C67.6683 28.6107 67.999 28.9627 68.4043 29.208C68.8203 29.4427 69.2577 29.56 69.7163 29.56C70.1857 29.56 70.623 29.4427 71.0283 29.208C71.4337 28.9733 71.759 28.632 72.0043 28.184C72.2603 27.7253 72.3883 27.192 72.3883 26.584ZM84.4763 23.672H82.8443V31H81.0043V23.672H79.9643V22.184H81.0043V21.56C81.0043 20.5467 81.271 19.8107 81.8043 19.352C82.3483 18.8827 83.1963 18.648 84.3483 18.648V20.168C83.7937 20.168 83.4043 20.2747 83.1803 20.488C82.9563 20.6907 82.8443 21.048 82.8443 21.56V22.184H84.4763V23.672ZM87.9168 23.464C88.1835 23.016 88.5355 22.6693 88.9728 22.424C89.4208 22.168 89.9488 22.04 90.5568 22.04V23.928H90.0928C89.3782 23.928 88.8342 24.1093 88.4608 24.472C88.0982 24.8347 87.9168 25.464 87.9168 26.36V31H86.0928V22.184H87.9168V23.464ZM100.313 26.376C100.313 26.7067 100.292 27.0053 100.249 27.272H93.5134C93.5668 27.976 93.8281 28.5413 94.2974 28.968C94.7668 29.3947 95.3428 29.608 96.0254 29.608C97.0068 29.608 97.7001 29.1973 98.1054 28.376H100.073C99.8068 29.1867 99.3214 29.8533 98.6174 30.376C97.9241 30.888 97.0601 31.144 96.0254 31.144C95.1828 31.144 94.4254 30.9573 93.7534 30.584C93.0921 30.2 92.5694 29.6667 92.1854 28.984C91.8121 28.2907 91.6254 27.4907 91.6254 26.584C91.6254 25.6773 91.8068 24.8827 92.1694 24.2C92.5428 23.5067 93.0601 22.9733 93.7214 22.6C94.3934 22.2267 95.1614 22.04 96.0254 22.04C96.8574 22.04 97.5988 22.2213 98.2494 22.584C98.9001 22.9467 99.4068 23.4587 99.7694 24.12C100.132 24.7707 100.313 25.5227 100.313 26.376ZM98.4094 25.8C98.3988 25.128 98.1588 24.5893 97.6894 24.184C97.2201 23.7787 96.6388 23.576 95.9454 23.576C95.3161 23.576 94.7774 23.7787 94.3294 24.184C93.8814 24.5787 93.6148 25.1173 93.5294 25.8H98.4094ZM110.188 26.376C110.188 26.7067 110.167 27.0053 110.124 27.272H103.388C103.442 27.976 103.703 28.5413 104.172 28.968C104.642 29.3947 105.218 29.608 105.9 29.608C106.882 29.608 107.575 29.1973 107.98 28.376H109.948C109.682 29.1867 109.196 29.8533 108.492 30.376C107.799 30.888 106.935 31.144 105.9 31.144C105.058 31.144 104.3 30.9573 103.628 30.584C102.967 30.2 102.444 29.6667 102.06 28.984C101.687 28.2907 101.5 27.4907 101.5 26.584C101.5 25.6773 101.682 24.8827 102.044 24.2C102.418 23.5067 102.935 22.9733 103.596 22.6C104.268 22.2267 105.036 22.04 105.9 22.04C106.732 22.04 107.474 22.2213 108.124 22.584C108.775 22.9467 109.282 23.4587 109.644 24.12C110.007 24.7707 110.188 25.5227 110.188 26.376ZM108.284 25.8C108.274 25.128 108.034 24.5893 107.564 24.184C107.095 23.7787 106.514 23.576 105.82 23.576C105.191 23.576 104.652 23.7787 104.204 24.184C103.756 24.5787 103.49 25.1173 103.404 25.8H108.284ZM115.532 26.584C115.532 25.6773 115.713 24.8827 116.076 24.2C116.449 23.5067 116.961 22.9733 117.612 22.6C118.262 22.2267 119.009 22.04 119.852 22.04C120.918 22.04 121.798 22.296 122.492 22.808C123.196 23.3093 123.67 24.0293 123.916 24.968H121.948C121.788 24.5307 121.532 24.1893 121.18 23.944C120.828 23.6987 120.385 23.576 119.852 23.576C119.105 23.576 118.508 23.8427 118.06 24.376C117.622 24.8987 117.404 25.6347 117.404 26.584C117.404 27.5333 117.622 28.2747 118.06 28.808C118.508 29.3413 119.105 29.608 119.852 29.608C120.908 29.608 121.606 29.144 121.948 28.216H123.916C123.66 29.112 123.18 29.8267 122.476 30.36C121.772 30.8827 120.897 31.144 119.852 31.144C119.009 31.144 118.262 30.9573 117.612 30.584C116.961 30.2 116.449 29.6667 116.076 28.984C115.713 28.2907 115.532 27.4907 115.532 26.584ZM129.557 31.144C128.725 31.144 127.973 30.9573 127.301 30.584C126.629 30.2 126.101 29.6667 125.717 28.984C125.333 28.2907 125.141 27.4907 125.141 26.584C125.141 25.688 125.339 24.8933 125.733 24.2C126.128 23.5067 126.667 22.9733 127.349 22.6C128.032 22.2267 128.795 22.04 129.637 22.04C130.48 22.04 131.243 22.2267 131.925 22.6C132.608 22.9733 133.147 23.5067 133.541 24.2C133.936 24.8933 134.133 25.688 134.133 26.584C134.133 27.48 133.931 28.2747 133.525 28.968C133.12 29.6613 132.565 30.2 131.861 30.584C131.168 30.9573 130.4 31.144 129.557 31.144ZM129.557 29.56C130.027 29.56 130.464 29.448 130.869 29.224C131.285 29 131.621 28.664 131.877 28.216C132.133 27.768 132.261 27.224 132.261 26.584C132.261 25.944 132.139 25.4053 131.893 24.968C131.648 24.52 131.323 24.184 130.917 23.96C130.512 23.736 130.075 23.624 129.605 23.624C129.136 23.624 128.699 23.736 128.293 23.96C127.899 24.184 127.584 24.52 127.349 24.968C127.115 25.4053 126.997 25.944 126.997 26.584C126.997 27.5333 127.237 28.2693 127.717 28.792C128.208 29.304 128.821 29.56 129.557 29.56ZM140.385 22.04C141.078 22.04 141.697 22.184 142.241 22.472C142.795 22.76 143.227 23.1867 143.537 23.752C143.846 24.3173 144.001 25 144.001 25.8V31H142.193V26.072C142.193 25.2827 141.995 24.68 141.601 24.264C141.206 23.8373 140.667 23.624 139.985 23.624C139.302 23.624 138.758 23.8373 138.353 24.264C137.958 24.68 137.761 25.2827 137.761 26.072V31H135.937V22.184H137.761V23.192C138.059 22.8293 138.438 22.5467 138.897 22.344C139.366 22.1413 139.862 22.04 140.385 22.04ZM149.527 31.144C148.834 31.144 148.21 31.0213 147.655 30.776C147.111 30.52 146.679 30.1787 146.359 29.752C146.039 29.3147 145.869 28.8293 145.847 28.296H147.735C147.767 28.6693 147.943 28.984 148.263 29.24C148.594 29.4853 149.005 29.608 149.495 29.608C150.007 29.608 150.402 29.512 150.679 29.32C150.967 29.1173 151.111 28.8613 151.111 28.552C151.111 28.2213 150.951 27.976 150.631 27.816C150.322 27.656 149.826 27.48 149.143 27.288C148.482 27.1067 147.943 26.9307 147.527 26.76C147.111 26.5893 146.749 26.328 146.439 25.976C146.141 25.624 145.991 25.16 145.991 24.584C145.991 24.1147 146.13 23.688 146.407 23.304C146.685 22.9093 147.079 22.6 147.591 22.376C148.114 22.152 148.711 22.04 149.383 22.04C150.386 22.04 151.191 22.296 151.799 22.808C152.418 23.3093 152.749 23.9973 152.791 24.872H150.967C150.935 24.4773 150.775 24.1627 150.487 23.928C150.199 23.6933 149.81 23.576 149.319 23.576C148.839 23.576 148.471 23.6667 148.215 23.848C147.959 24.0293 147.831 24.2693 147.831 24.568C147.831 24.8027 147.917 25 148.087 25.16C148.258 25.32 148.466 25.448 148.711 25.544C148.957 25.6293 149.319 25.7413 149.799 25.88C150.439 26.0507 150.962 26.2267 151.367 26.408C151.783 26.5787 152.141 26.8347 152.439 27.176C152.738 27.5173 152.893 27.9707 152.903 28.536C152.903 29.0373 152.765 29.4853 152.487 29.88C152.21 30.2747 151.815 30.584 151.303 30.808C150.802 31.032 150.21 31.144 149.527 31.144ZM162.858 22.184V31H161.034V29.96C160.746 30.3227 160.367 30.6107 159.898 30.824C159.439 31.0267 158.949 31.128 158.426 31.128C157.733 31.128 157.109 30.984 156.554 30.696C156.01 30.408 155.578 29.9813 155.258 29.416C154.949 28.8507 154.794 28.168 154.794 27.368V22.184H156.602V27.096C156.602 27.8853 156.799 28.4933 157.194 28.92C157.589 29.336 158.127 29.544 158.81 29.544C159.493 29.544 160.031 29.336 160.426 28.92C160.831 28.4933 161.034 27.8853 161.034 27.096V22.184H162.858ZM167.089 19.16V31H165.265V19.16H167.089ZM171.611 23.672V28.552C171.611 28.8827 171.686 29.1227 171.835 29.272C171.995 29.4107 172.262 29.48 172.635 29.48H173.755V31H172.315C171.494 31 170.865 30.808 170.427 30.424C169.99 30.04 169.771 29.416 169.771 28.552V23.672H168.731V22.184H169.771V19.992H171.611V22.184H173.755V23.672H171.611ZM174.829 26.552C174.829 25.6667 175.01 24.8827 175.373 24.2C175.746 23.5173 176.247 22.9893 176.877 22.616C177.517 22.232 178.221 22.04 178.989 22.04C179.682 22.04 180.285 22.1787 180.797 22.456C181.319 22.7227 181.735 23.0587 182.045 23.464V22.184H183.885V31H182.045V29.688C181.735 30.104 181.314 30.4507 180.781 30.728C180.247 31.0053 179.639 31.144 178.957 31.144C178.199 31.144 177.506 30.952 176.877 30.568C176.247 30.1733 175.746 29.6293 175.373 28.936C175.01 28.232 174.829 27.4373 174.829 26.552ZM182.045 26.584C182.045 25.976 181.917 25.448 181.661 25C181.415 24.552 181.09 24.2107 180.685 23.976C180.279 23.7413 179.842 23.624 179.373 23.624C178.903 23.624 178.466 23.7413 178.061 23.976C177.655 24.2 177.325 24.536 177.069 24.984C176.823 25.4213 176.701 25.944 176.701 26.552C176.701 27.16 176.823 27.6933 177.069 28.152C177.325 28.6107 177.655 28.9627 178.061 29.208C178.477 29.4427 178.914 29.56 179.373 29.56C179.842 29.56 180.279 29.4427 180.685 29.208C181.09 28.9733 181.415 28.632 181.661 28.184C181.917 27.7253 182.045 27.192 182.045 26.584ZM188.408 23.672V28.552C188.408 28.8827 188.483 29.1227 188.632 29.272C188.792 29.4107 189.059 29.48 189.432 29.48H190.552V31H189.112C188.291 31 187.662 30.808 187.224 30.424C186.787 30.04 186.568 29.416 186.568 28.552V23.672H185.528V22.184H186.568V19.992H188.408V22.184H190.552V23.672H188.408ZM193.161 21.016C192.831 21.016 192.553 20.904 192.329 20.68C192.105 20.456 191.993 20.1787 191.993 19.848C191.993 19.5173 192.105 19.24 192.329 19.016C192.553 18.792 192.831 18.68 193.161 18.68C193.481 18.68 193.753 18.792 193.977 19.016C194.201 19.24 194.313 19.5173 194.313 19.848C194.313 20.1787 194.201 20.456 193.977 20.68C193.753 20.904 193.481 21.016 193.161 21.016ZM194.057 22.184V31H192.233V22.184H194.057ZM200.276 31.144C199.444 31.144 198.692 30.9573 198.02 30.584C197.348 30.2 196.82 29.6667 196.436 28.984C196.052 28.2907 195.86 27.4907 195.86 26.584C195.86 25.688 196.058 24.8933 196.452 24.2C196.847 23.5067 197.386 22.9733 198.068 22.6C198.751 22.2267 199.514 22.04 200.356 22.04C201.199 22.04 201.962 22.2267 202.644 22.6C203.327 22.9733 203.866 23.5067 204.26 24.2C204.655 24.8933 204.852 25.688 204.852 26.584C204.852 27.48 204.65 28.2747 204.244 28.968C203.839 29.6613 203.284 30.2 202.58 30.584C201.887 30.9573 201.119 31.144 200.276 31.144ZM200.276 29.56C200.746 29.56 201.183 29.448 201.588 29.224C202.004 29 202.34 28.664 202.596 28.216C202.852 27.768 202.98 27.224 202.98 26.584C202.98 25.944 202.858 25.4053 202.612 24.968C202.367 24.52 202.042 24.184 201.636 23.96C201.231 23.736 200.794 23.624 200.324 23.624C199.855 23.624 199.418 23.736 199.012 23.96C198.618 24.184 198.303 24.52 198.068 24.968C197.834 25.4053 197.716 25.944 197.716 26.584C197.716 27.5333 197.956 28.2693 198.436 28.792C198.927 29.304 199.54 29.56 200.276 29.56ZM211.103 22.04C211.797 22.04 212.415 22.184 212.959 22.472C213.514 22.76 213.946 23.1867 214.255 23.752C214.565 24.3173 214.719 25 214.719 25.8V31H212.911V26.072C212.911 25.2827 212.714 24.68 212.319 24.264C211.925 23.8373 211.386 23.624 210.703 23.624C210.021 23.624 209.477 23.8373 209.071 24.264C208.677 24.68 208.479 25.2827 208.479 26.072V31H206.655V22.184H208.479V23.192C208.778 22.8293 209.157 22.5467 209.615 22.344C210.085 22.1413 210.581 22.04 211.103 22.04Z" fill="#BE1E1E"/>
</svg>
