<svg width="255" height="51" viewBox="0 0 255 51" fill="none" xmlns="http://www.w3.org/2000/svg">
<path d="M0 25.7778C0 11.9707 11.1929 0.777832 25 0.777832H230C243.807 0.777832 255 11.9707 255 25.7778C255 39.5849 243.807 50.7778 230 50.7778H25C11.1929 50.7778 0 39.5849 0 25.7778Z" fill="#EB1700"/>
<path d="M64.024 30.3058H67.784V31.7778H62.2V20.6578H64.024V30.3058ZM77.3894 27.1538C77.3894 27.4845 77.368 27.7832 77.3254 28.0498H70.5894C70.6427 28.7538 70.904 29.3192 71.3734 29.7458C71.8427 30.1725 72.4187 30.3858 73.1014 30.3858C74.0827 30.3858 74.776 29.9752 75.1814 29.1538H77.1494C76.8827 29.9645 76.3974 30.6312 75.6934 31.1538C75 31.6658 74.136 31.9218 73.1014 31.9218C72.2587 31.9218 71.5014 31.7352 70.8294 31.3618C70.168 30.9778 69.6454 30.4445 69.2614 29.7618C68.888 29.0685 68.7014 28.2685 68.7014 27.3618C68.7014 26.4552 68.8827 25.6605 69.2454 24.9778C69.6187 24.2845 70.136 23.7512 70.7974 23.3778C71.4694 23.0045 72.2374 22.8178 73.1014 22.8178C73.9334 22.8178 74.6747 22.9992 75.3254 23.3618C75.976 23.7245 76.4827 24.2365 76.8454 24.8978C77.208 25.5485 77.3894 26.3005 77.3894 27.1538ZM75.4854 26.5778C75.4747 25.9058 75.2347 25.3672 74.7654 24.9618C74.296 24.5565 73.7147 24.3538 73.0214 24.3538C72.392 24.3538 71.8534 24.5565 71.4054 24.9618C70.9574 25.3565 70.6907 25.8952 70.6054 26.5778H75.4854ZM81.3124 24.4498V29.3298C81.3124 29.6605 81.387 29.9005 81.5364 30.0498C81.6964 30.1885 81.963 30.2578 82.3364 30.2578H83.4564V31.7778H82.0164C81.195 31.7778 80.5657 31.5858 80.1284 31.2018C79.691 30.8178 79.4724 30.1938 79.4724 29.3298V24.4498H78.4324V22.9618H79.4724V20.7698H81.3124V22.9618H83.4564V24.4498H81.3124ZM85.4255 20.6578H87.4095L85.7295 24.4658H84.4495L85.4255 20.6578ZM92.2125 31.9218C91.5192 31.9218 90.8952 31.7992 90.3405 31.5538C89.7965 31.2978 89.3645 30.9565 89.0445 30.5298C88.7245 30.0925 88.5538 29.6072 88.5325 29.0738H90.4205C90.4525 29.4472 90.6285 29.7618 90.9485 30.0178C91.2792 30.2632 91.6898 30.3858 92.1805 30.3858C92.6925 30.3858 93.0872 30.2898 93.3645 30.0978C93.6525 29.8952 93.7965 29.6392 93.7965 29.3298C93.7965 28.9992 93.6365 28.7538 93.3165 28.5938C93.0072 28.4338 92.5112 28.2578 91.8285 28.0658C91.1672 27.8845 90.6285 27.7085 90.2125 27.5378C89.7965 27.3672 89.4338 27.1058 89.1245 26.7538C88.8258 26.4018 88.6765 25.9378 88.6765 25.3618C88.6765 24.8925 88.8152 24.4658 89.0925 24.0818C89.3698 23.6872 89.7645 23.3778 90.2765 23.1538C90.7992 22.9298 91.3965 22.8178 92.0685 22.8178C93.0712 22.8178 93.8765 23.0738 94.4845 23.5858C95.1032 24.0872 95.4338 24.7752 95.4765 25.6498H93.6525C93.6205 25.2552 93.4605 24.9405 93.1725 24.7058C92.8845 24.4712 92.4952 24.3538 92.0045 24.3538C91.5245 24.3538 91.1565 24.4445 90.9005 24.6258C90.6445 24.8072 90.5165 25.0472 90.5165 25.3458C90.5165 25.5805 90.6018 25.7778 90.7725 25.9378C90.9432 26.0978 91.1512 26.2258 91.3965 26.3218C91.6418 26.4072 92.0045 26.5192 92.4845 26.6578C93.1245 26.8285 93.6472 27.0045 94.0525 27.1858C94.4685 27.3565 94.8258 27.6125 95.1245 27.9538C95.4232 28.2952 95.5778 28.7485 95.5885 29.3138C95.5885 29.8152 95.4498 30.2632 95.1725 30.6578C94.8952 31.0525 94.5005 31.3618 93.9885 31.5858C93.4872 31.8098 92.8952 31.9218 92.2125 31.9218ZM105.268 22.8178C105.95 22.8178 106.553 22.9565 107.076 23.2338C107.609 23.5005 108.025 23.8365 108.324 24.2418V22.9618H110.164V31.9218C110.164 32.7325 109.993 33.4525 109.652 34.0818C109.31 34.7218 108.814 35.2232 108.164 35.5858C107.524 35.9485 106.756 36.1298 105.86 36.1298C104.665 36.1298 103.673 35.8472 102.884 35.2818C102.094 34.7272 101.646 33.9698 101.54 33.0098H103.348C103.486 33.4685 103.78 33.8365 104.228 34.1138C104.686 34.4018 105.23 34.5458 105.86 34.5458C106.596 34.5458 107.188 34.3218 107.636 33.8738C108.094 33.4258 108.324 32.7752 108.324 31.9218V30.4498C108.014 30.8658 107.593 31.2178 107.06 31.5058C106.537 31.7832 105.94 31.9218 105.268 31.9218C104.5 31.9218 103.796 31.7298 103.156 31.3458C102.526 30.9512 102.025 30.4072 101.652 29.7138C101.289 29.0098 101.108 28.2152 101.108 27.3298C101.108 26.4445 101.289 25.6605 101.652 24.9778C102.025 24.2952 102.526 23.7672 103.156 23.3938C103.796 23.0098 104.5 22.8178 105.268 22.8178ZM108.324 27.3618C108.324 26.7538 108.196 26.2258 107.94 25.7778C107.694 25.3298 107.369 24.9885 106.964 24.7538C106.558 24.5192 106.121 24.4018 105.652 24.4018C105.182 24.4018 104.745 24.5192 104.34 24.7538C103.934 24.9778 103.604 25.3138 103.348 25.7618C103.102 26.1992 102.98 26.7218 102.98 27.3298C102.98 27.9378 103.102 28.4712 103.348 28.9298C103.604 29.3885 103.934 29.7405 104.34 29.9858C104.756 30.2205 105.193 30.3378 105.652 30.3378C106.121 30.3378 106.558 30.2205 106.964 29.9858C107.369 29.7512 107.694 29.4098 107.94 28.9618C108.196 28.5032 108.324 27.9698 108.324 27.3618ZM120.639 27.1538C120.639 27.4845 120.618 27.7832 120.575 28.0498H113.839C113.893 28.7538 114.154 29.3192 114.623 29.7458C115.093 30.1725 115.669 30.3858 116.351 30.3858C117.333 30.3858 118.026 29.9752 118.431 29.1538H120.399C120.133 29.9645 119.647 30.6312 118.943 31.1538C118.25 31.6658 117.386 31.9218 116.351 31.9218C115.509 31.9218 114.751 31.7352 114.079 31.3618C113.418 30.9778 112.895 30.4445 112.511 29.7618C112.138 29.0685 111.951 28.2685 111.951 27.3618C111.951 26.4552 112.133 25.6605 112.495 24.9778C112.869 24.2845 113.386 23.7512 114.047 23.3778C114.719 23.0045 115.487 22.8178 116.351 22.8178C117.183 22.8178 117.925 22.9992 118.575 23.3618C119.226 23.7245 119.733 24.2365 120.095 24.8978C120.458 25.5485 120.639 26.3005 120.639 27.1538ZM118.735 26.5778C118.725 25.9058 118.485 25.3672 118.015 24.9618C117.546 24.5565 116.965 24.3538 116.271 24.3538C115.642 24.3538 115.103 24.5565 114.655 24.9618C114.207 25.3565 113.941 25.8952 113.855 26.5778H118.735ZM124.562 24.4498V29.3298C124.562 29.6605 124.637 29.9005 124.786 30.0498C124.946 30.1885 125.213 30.2578 125.586 30.2578H126.706V31.7778H125.266C124.445 31.7778 123.816 31.5858 123.378 31.2018C122.941 30.8178 122.722 30.1938 122.722 29.3298V24.4498H121.682V22.9618H122.722V20.7698H124.562V22.9618H126.706V24.4498H124.562ZM135.744 31.9218C135.05 31.9218 134.426 31.7992 133.872 31.5538C133.328 31.2978 132.896 30.9565 132.576 30.5298C132.256 30.0925 132.085 29.6072 132.064 29.0738H133.952C133.984 29.4472 134.16 29.7618 134.48 30.0178C134.81 30.2632 135.221 30.3858 135.712 30.3858C136.224 30.3858 136.618 30.2898 136.896 30.0978C137.184 29.8952 137.328 29.6392 137.328 29.3298C137.328 28.9992 137.168 28.7538 136.848 28.5938C136.538 28.4338 136.042 28.2578 135.36 28.0658C134.698 27.8845 134.16 27.7085 133.744 27.5378C133.328 27.3672 132.965 27.1058 132.656 26.7538C132.357 26.4018 132.208 25.9378 132.208 25.3618C132.208 24.8925 132.346 24.4658 132.624 24.0818C132.901 23.6872 133.296 23.3778 133.808 23.1538C134.33 22.9298 134.928 22.8178 135.6 22.8178C136.602 22.8178 137.408 23.0738 138.016 23.5858C138.634 24.0872 138.965 24.7752 139.008 25.6498H137.184C137.152 25.2552 136.992 24.9405 136.704 24.7058C136.416 24.4712 136.026 24.3538 135.536 24.3538C135.056 24.3538 134.688 24.4445 134.432 24.6258C134.176 24.8072 134.048 25.0472 134.048 25.3458C134.048 25.5805 134.133 25.7778 134.304 25.9378C134.474 26.0978 134.682 26.2258 134.928 26.3218C135.173 26.4072 135.536 26.5192 136.016 26.6578C136.656 26.8285 137.178 27.0045 137.584 27.1858C138 27.3565 138.357 27.6125 138.656 27.9538C138.954 28.2952 139.109 28.7485 139.12 29.3138C139.12 29.8152 138.981 30.2632 138.704 30.6578C138.426 31.0525 138.032 31.3618 137.52 31.5858C137.018 31.8098 136.426 31.9218 135.744 31.9218ZM143.219 24.4498V29.3298C143.219 29.6605 143.293 29.9005 143.443 30.0498C143.603 30.1885 143.869 30.2578 144.243 30.2578H145.363V31.7778H143.923C143.101 31.7778 142.472 31.5858 142.035 31.2018C141.597 30.8178 141.379 30.1938 141.379 29.3298V24.4498H140.339V22.9618H141.379V20.7698H143.219V22.9618H145.363V24.4498H143.219ZM146.436 27.3298C146.436 26.4445 146.617 25.6605 146.98 24.9778C147.353 24.2952 147.854 23.7672 148.484 23.3938C149.124 23.0098 149.828 22.8178 150.596 22.8178C151.289 22.8178 151.892 22.9565 152.404 23.2338C152.926 23.5005 153.342 23.8365 153.652 24.2418V22.9618H155.492V31.7778H153.652V30.4658C153.342 30.8818 152.921 31.2285 152.388 31.5058C151.854 31.7832 151.246 31.9218 150.564 31.9218C149.806 31.9218 149.113 31.7298 148.484 31.3458C147.854 30.9512 147.353 30.4072 146.98 29.7138C146.617 29.0098 146.436 28.2152 146.436 27.3298ZM153.652 27.3618C153.652 26.7538 153.524 26.2258 153.268 25.7778C153.022 25.3298 152.697 24.9885 152.292 24.7538C151.886 24.5192 151.449 24.4018 150.98 24.4018C150.51 24.4018 150.073 24.5192 149.668 24.7538C149.262 24.9778 148.932 25.3138 148.676 25.7618C148.43 26.1992 148.308 26.7218 148.308 27.3298C148.308 27.9378 148.43 28.4712 148.676 28.9298C148.932 29.3885 149.262 29.7405 149.668 29.9858C150.084 30.2205 150.521 30.3378 150.98 30.3378C151.449 30.3378 151.886 30.2205 152.292 29.9858C152.697 29.7512 153.022 29.4098 153.268 28.9618C153.524 28.5032 153.652 27.9698 153.652 27.3618ZM159.712 24.2418C159.978 23.7938 160.33 23.4472 160.768 23.2018C161.216 22.9458 161.744 22.8178 162.352 22.8178V24.7058H161.888C161.173 24.7058 160.629 24.8872 160.256 25.2498C159.893 25.6125 159.712 26.2418 159.712 27.1378V31.7778H157.888V22.9618H159.712V24.2418ZM166.156 24.4498V29.3298C166.156 29.6605 166.231 29.9005 166.38 30.0498C166.54 30.1885 166.807 30.2578 167.18 30.2578H168.3V31.7778H166.86C166.039 31.7778 165.409 31.5858 164.972 31.2018C164.535 30.8178 164.316 30.1938 164.316 29.3298V24.4498H163.276V22.9618H164.316V20.7698H166.156V22.9618H168.3V24.4498H166.156ZM178.061 27.1538C178.061 27.4845 178.04 27.7832 177.997 28.0498H171.261C171.315 28.7538 171.576 29.3192 172.045 29.7458C172.515 30.1725 173.091 30.3858 173.773 30.3858C174.755 30.3858 175.448 29.9752 175.853 29.1538H177.821C177.555 29.9645 177.069 30.6312 176.365 31.1538C175.672 31.6658 174.808 31.9218 173.773 31.9218C172.931 31.9218 172.173 31.7352 171.501 31.3618C170.84 30.9778 170.317 30.4445 169.933 29.7618C169.56 29.0685 169.373 28.2685 169.373 27.3618C169.373 26.4552 169.555 25.6605 169.917 24.9778C170.291 24.2845 170.808 23.7512 171.469 23.3778C172.141 23.0045 172.909 22.8178 173.773 22.8178C174.605 22.8178 175.347 22.9992 175.997 23.3618C176.648 23.7245 177.155 24.2365 177.517 24.8978C177.88 25.5485 178.061 26.3005 178.061 27.1538ZM176.157 26.5778C176.147 25.9058 175.907 25.3672 175.437 24.9618C174.968 24.5565 174.387 24.3538 173.693 24.3538C173.064 24.3538 172.525 24.5565 172.077 24.9618C171.629 25.3565 171.363 25.8952 171.277 26.5778H176.157ZM179.248 27.3298C179.248 26.4445 179.43 25.6605 179.792 24.9778C180.166 24.2952 180.667 23.7672 181.296 23.3938C181.936 23.0098 182.646 22.8178 183.424 22.8178C184 22.8178 184.566 22.9458 185.12 23.2018C185.686 23.4472 186.134 23.7778 186.464 24.1938V19.9378H188.304V31.7778H186.464V30.4498C186.166 30.8765 185.75 31.2285 185.216 31.5058C184.694 31.7832 184.091 31.9218 183.408 31.9218C182.64 31.9218 181.936 31.7298 181.296 31.3458C180.667 30.9512 180.166 30.4072 179.792 29.7138C179.43 29.0098 179.248 28.2152 179.248 27.3298ZM186.464 27.3618C186.464 26.7538 186.336 26.2258 186.08 25.7778C185.835 25.3298 185.51 24.9885 185.104 24.7538C184.699 24.5192 184.262 24.4018 183.792 24.4018C183.323 24.4018 182.886 24.5192 182.48 24.7538C182.075 24.9778 181.744 25.3138 181.488 25.7618C181.243 26.1992 181.12 26.7218 181.12 27.3298C181.12 27.9378 181.243 28.4712 181.488 28.9298C181.744 29.3885 182.075 29.7405 182.48 29.9858C182.896 30.2205 183.334 30.3378 183.792 30.3378C184.262 30.3378 184.699 30.2205 185.104 29.9858C185.51 29.7512 185.835 29.4098 186.08 28.9618C186.336 28.5032 186.464 27.9698 186.464 27.3618ZM191.436 31.8898C191.105 31.8898 190.828 31.7778 190.604 31.5538C190.38 31.3298 190.268 31.0525 190.268 30.7218C190.268 30.3912 190.38 30.1138 190.604 29.8898C190.828 29.6658 191.105 29.5538 191.436 29.5538C191.756 29.5538 192.028 29.6658 192.252 29.8898C192.476 30.1138 192.588 30.3912 192.588 30.7218C192.588 31.0525 192.476 31.3298 192.252 31.5538C192.028 31.7778 191.756 31.8898 191.436 31.8898Z" fill="white"/>
</svg>
