<svg width="115" height="36" viewBox="0 0 115 36" fill="none" xmlns="http://www.w3.org/2000/svg">
<rect x="0.220947" y="0.591309" width="114" height="35" rx="17.5" fill="#EB1700"/>
<path d="M27.7349 16.1563C27.5009 15.7056 27.1759 15.3676 26.7599 15.1423C26.3439 14.9083 25.8629 14.7913 25.3169 14.7913C24.7189 14.7913 24.1859 14.9256 23.7179 15.1943C23.2499 15.463 22.8816 15.8443 22.6129 16.3383C22.3529 16.8323 22.2229 17.4043 22.2229 18.0543C22.2229 18.7043 22.3529 19.2806 22.6129 19.7833C22.8816 20.2773 23.2499 20.6586 23.7179 20.9273C24.1859 21.196 24.7189 21.3303 25.3169 21.3303C26.1229 21.3303 26.7773 21.105 27.2799 20.6543C27.7826 20.2036 28.0903 19.5926 28.2029 18.8213H24.8099V17.6383H29.7889V18.7953C29.6936 19.4973 29.4423 20.143 29.0349 20.7323C28.6363 21.3216 28.1119 21.794 27.4619 22.1493C26.8206 22.496 26.1056 22.6693 25.3169 22.6693C24.4676 22.6693 23.6919 22.4743 22.9899 22.0843C22.2879 21.6856 21.7289 21.1353 21.3129 20.4333C20.9056 19.7313 20.7019 18.9383 20.7019 18.0543C20.7019 17.1703 20.9056 16.3773 21.3129 15.6753C21.7289 14.9733 22.2879 14.4273 22.9899 14.0373C23.7006 13.6386 24.4763 13.4393 25.3169 13.4393C26.2789 13.4393 27.1326 13.6776 27.8779 14.1543C28.6319 14.6223 29.1779 15.2896 29.5159 16.1563H27.7349ZM37.8156 18.8343C37.8156 19.103 37.7983 19.3456 37.7636 19.5623H32.2906C32.334 20.1343 32.5463 20.5936 32.9276 20.9403C33.309 21.287 33.777 21.4603 34.3316 21.4603C35.129 21.4603 35.6923 21.1266 36.0216 20.4593H37.6206C37.404 21.118 37.0096 21.6596 36.4376 22.0843C35.8743 22.5003 35.1723 22.7083 34.3316 22.7083C33.647 22.7083 33.0316 22.5566 32.4856 22.2533C31.9483 21.9413 31.5236 21.508 31.2116 20.9533C30.9083 20.39 30.7566 19.74 30.7566 19.0033C30.7566 18.2666 30.904 17.621 31.1986 17.0663C31.502 16.503 31.9223 16.0696 32.4596 15.7663C33.0056 15.463 33.6296 15.3113 34.3316 15.3113C35.0076 15.3113 35.61 15.4586 36.1386 15.7533C36.6673 16.048 37.079 16.464 37.3736 17.0013C37.6683 17.53 37.8156 18.141 37.8156 18.8343ZM36.2686 18.3663C36.26 17.8203 36.065 17.3826 35.6836 17.0533C35.3023 16.724 34.83 16.5593 34.2666 16.5593C33.7553 16.5593 33.3176 16.724 32.9536 17.0533C32.5896 17.374 32.373 17.8116 32.3036 18.3663H36.2686ZM41.0031 16.6373V20.6023C41.0031 20.871 41.0637 21.066 41.1851 21.1873C41.3151 21.3 41.5317 21.3563 41.8351 21.3563H42.7451V22.5913H41.5751C40.9077 22.5913 40.3964 22.4353 40.0411 22.1233C39.6857 21.8113 39.5081 21.3043 39.5081 20.6023V16.6373H38.6631V15.4283H39.5081V13.6473H41.0031V15.4283H42.7451V16.6373H41.0031ZM50.0879 22.7083C49.5246 22.7083 49.0176 22.6086 48.5669 22.4093C48.1249 22.2013 47.7739 21.924 47.5139 21.5773C47.2539 21.222 47.1153 20.8276 47.0979 20.3943H48.6319C48.6579 20.6976 48.8009 20.9533 49.0609 21.1613C49.3296 21.3606 49.6633 21.4603 50.0619 21.4603C50.4779 21.4603 50.7986 21.3823 51.0239 21.2263C51.2579 21.0616 51.3749 20.8536 51.3749 20.6023C51.3749 20.3336 51.2449 20.1343 50.9849 20.0043C50.7336 19.8743 50.3306 19.7313 49.7759 19.5753C49.2386 19.428 48.8009 19.285 48.4629 19.1463C48.1249 19.0076 47.8303 18.7953 47.5789 18.5093C47.3363 18.2233 47.2149 17.8463 47.2149 17.3783C47.2149 16.997 47.3276 16.6503 47.5529 16.3383C47.7783 16.0176 48.0989 15.7663 48.5149 15.5843C48.9396 15.4023 49.4249 15.3113 49.9709 15.3113C50.7856 15.3113 51.4399 15.5193 51.9339 15.9353C52.4366 16.3426 52.7053 16.9016 52.7399 17.6123H51.2579C51.2319 17.2916 51.1019 17.036 50.8679 16.8453C50.6339 16.6546 50.3176 16.5593 49.9189 16.5593C49.5289 16.5593 49.2299 16.633 49.0219 16.7803C48.8139 16.9276 48.7099 17.1226 48.7099 17.3653C48.7099 17.556 48.7793 17.7163 48.9179 17.8463C49.0566 17.9763 49.2256 18.0803 49.4249 18.1583C49.6243 18.2276 49.9189 18.3186 50.3089 18.4313C50.8289 18.57 51.2536 18.713 51.5829 18.8603C51.9209 18.999 52.2113 19.207 52.4539 19.4843C52.6966 19.7616 52.8223 20.13 52.8309 20.5893C52.8309 20.9966 52.7183 21.3606 52.4929 21.6813C52.2676 22.002 51.9469 22.2533 51.5309 22.4353C51.1236 22.6173 50.6426 22.7083 50.0879 22.7083ZM56.1613 16.6373V20.6023C56.1613 20.871 56.2219 21.066 56.3433 21.1873C56.4733 21.3 56.6899 21.3563 56.9933 21.3563H57.9033V22.5913H56.7333C56.0659 22.5913 55.5546 22.4353 55.1993 22.1233C54.8439 21.8113 54.6663 21.3043 54.6663 20.6023V16.6373H53.8213V15.4283H54.6663V13.6473H56.1613V15.4283H57.9033V16.6373H56.1613ZM58.7752 18.9773C58.7752 18.258 58.9225 17.621 59.2172 17.0663C59.5205 16.5116 59.9279 16.0826 60.4392 15.7793C60.9592 15.4673 61.5312 15.3113 62.1552 15.3113C62.7185 15.3113 63.2082 15.424 63.6242 15.6493C64.0489 15.866 64.3869 16.139 64.6382 16.4683V15.4283H66.1332V22.5913H64.6382V21.5253C64.3869 21.8633 64.0445 22.145 63.6112 22.3703C63.1779 22.5956 62.6839 22.7083 62.1292 22.7083C61.5139 22.7083 60.9505 22.5523 60.4392 22.2403C59.9279 21.9196 59.5205 21.4776 59.2172 20.9143C58.9225 20.3423 58.7752 19.6966 58.7752 18.9773ZM64.6382 19.0033C64.6382 18.5093 64.5342 18.0803 64.3262 17.7163C64.1269 17.3523 63.8625 17.075 63.5332 16.8843C63.2039 16.6936 62.8485 16.5983 62.4672 16.5983C62.0859 16.5983 61.7305 16.6936 61.4012 16.8843C61.0719 17.0663 60.8032 17.3393 60.5952 17.7033C60.3959 18.0586 60.2962 18.4833 60.2962 18.9773C60.2962 19.4713 60.3959 19.9046 60.5952 20.2773C60.8032 20.65 61.0719 20.936 61.4012 21.1353C61.7392 21.326 62.0945 21.4213 62.4672 21.4213C62.8485 21.4213 63.2039 21.326 63.5332 21.1353C63.8625 20.9446 64.1269 20.6673 64.3262 20.3033C64.5342 19.9306 64.6382 19.4973 64.6382 19.0033ZM69.5617 16.4683C69.7784 16.1043 70.0644 15.8226 70.4197 15.6233C70.7837 15.4153 71.2127 15.3113 71.7067 15.3113V16.8453H71.3297C70.7491 16.8453 70.3071 16.9926 70.0037 17.2873C69.7091 17.582 69.5617 18.0933 69.5617 18.8213V22.5913H68.0797V15.4283H69.5617V16.4683ZM74.798 16.6373V20.6023C74.798 20.871 74.8587 21.066 74.98 21.1873C75.11 21.3 75.3267 21.3563 75.63 21.3563H76.54V22.5913H75.37C74.7027 22.5913 74.1913 22.4353 73.836 22.1233C73.4807 21.8113 73.303 21.3043 73.303 20.6023V16.6373H72.458V15.4283H73.303V13.6473H74.798V15.4283H76.54V16.6373H74.798ZM84.4709 18.8343C84.4709 19.103 84.4536 19.3456 84.4189 19.5623H78.9459C78.9892 20.1343 79.2016 20.5936 79.5829 20.9403C79.9642 21.287 80.4322 21.4603 80.9869 21.4603C81.7842 21.4603 82.3476 21.1266 82.6769 20.4593H84.2759C84.0592 21.118 83.6649 21.6596 83.0929 22.0843C82.5296 22.5003 81.8276 22.7083 80.9869 22.7083C80.3022 22.7083 79.6869 22.5566 79.1409 22.2533C78.6036 21.9413 78.1789 21.508 77.8669 20.9533C77.5636 20.39 77.4119 19.74 77.4119 19.0033C77.4119 18.2666 77.5592 17.621 77.8539 17.0663C78.1572 16.503 78.5776 16.0696 79.1149 15.7663C79.6609 15.463 80.2849 15.3113 80.9869 15.3113C81.6629 15.3113 82.2652 15.4586 82.7939 15.7533C83.3226 16.048 83.7342 16.464 84.0289 17.0013C84.3236 17.53 84.4709 18.141 84.4709 18.8343ZM82.9239 18.3663C82.9152 17.8203 82.7202 17.3826 82.3389 17.0533C81.9576 16.724 81.4852 16.5593 80.9219 16.5593C80.4106 16.5593 79.9729 16.724 79.6089 17.0533C79.2449 17.374 79.0282 17.8116 78.9589 18.3663H82.9239ZM85.4353 18.9773C85.4353 18.258 85.5827 17.621 85.8773 17.0663C86.1807 16.5116 86.588 16.0826 87.0993 15.7793C87.6193 15.4673 88.1957 15.3113 88.8283 15.3113C89.2963 15.3113 89.7557 15.4153 90.2063 15.6233C90.6657 15.8226 91.0297 16.0913 91.2983 16.4293V12.9713H92.7933V22.5913H91.2983V21.5123C91.0557 21.859 90.7177 22.145 90.2843 22.3703C89.8597 22.5956 89.37 22.7083 88.8153 22.7083C88.1913 22.7083 87.6193 22.5523 87.0993 22.2403C86.588 21.9196 86.1807 21.4776 85.8773 20.9143C85.5827 20.3423 85.4353 19.6966 85.4353 18.9773ZM91.2983 19.0033C91.2983 18.5093 91.1943 18.0803 90.9863 17.7163C90.787 17.3523 90.5227 17.075 90.1933 16.8843C89.864 16.6936 89.5087 16.5983 89.1273 16.5983C88.746 16.5983 88.3907 16.6936 88.0613 16.8843C87.732 17.0663 87.4633 17.3393 87.2553 17.7033C87.056 18.0586 86.9563 18.4833 86.9563 18.9773C86.9563 19.4713 87.056 19.9046 87.2553 20.2773C87.4633 20.65 87.732 20.936 88.0613 21.1353C88.3993 21.326 88.7547 21.4213 89.1273 21.4213C89.5087 21.4213 89.864 21.326 90.1933 21.1353C90.5227 20.9446 90.787 20.6673 90.9863 20.3033C91.1943 19.9306 91.2983 19.4973 91.2983 19.0033Z" fill="white"/>
</svg>
