<svg width="451" height="184" viewBox="0 0 451 184" fill="none" xmlns="http://www.w3.org/2000/svg">
<path opacity="0.8" d="M16.5565 9.151L13.1225 21H11.3885L8.63447 11.463L5.77847 21L4.06147 21.017L0.746469 9.151H2.39547L4.97947 19.198L7.83547 9.151H9.56947L12.2895 19.164L14.8905 9.151H16.5565ZM26.7494 15.985C26.7494 16.2797 26.7324 16.5913 26.6984 16.92H19.2524C19.3091 17.838 19.6208 18.5577 20.1874 19.079C20.7654 19.589 21.4624 19.844 22.2784 19.844C22.9471 19.844 23.5024 19.691 23.9444 19.385C24.3978 19.0677 24.7151 18.6483 24.8964 18.127H26.5624C26.3131 19.0223 25.8144 19.7533 25.0664 20.32C24.3184 20.8753 23.3891 21.153 22.2784 21.153C21.3944 21.153 20.6011 20.9547 19.8984 20.558C19.2071 20.1613 18.6631 19.6003 18.2664 18.875C17.8698 18.1383 17.6714 17.2883 17.6714 16.325C17.6714 15.3617 17.8641 14.5173 18.2494 13.792C18.6348 13.0667 19.1731 12.5113 19.8644 12.126C20.5671 11.7293 21.3718 11.531 22.2784 11.531C23.1624 11.531 23.9444 11.7237 24.6244 12.109C25.3044 12.4943 25.8258 13.027 26.1884 13.707C26.5624 14.3757 26.7494 15.135 26.7494 15.985ZM25.1514 15.662C25.1514 15.0727 25.0211 14.5683 24.7604 14.149C24.4998 13.7183 24.1428 13.3953 23.6894 13.18C23.2474 12.9533 22.7544 12.84 22.2104 12.84C21.4284 12.84 20.7598 13.0893 20.2044 13.588C19.6604 14.0867 19.3488 14.778 19.2694 15.662H25.1514ZM45.7336 11.684L42.8266 21H41.2286L38.9846 13.605L36.7406 21H35.1426L32.2186 11.684H33.7996L35.9416 19.504L38.2536 11.684H39.8346L42.0956 19.521L44.2036 11.684H45.7336ZM55.769 15.985C55.769 16.2797 55.752 16.5913 55.718 16.92H48.272C48.3286 17.838 48.6403 18.5577 49.207 19.079C49.785 19.589 50.482 19.844 51.298 19.844C51.9666 19.844 52.522 19.691 52.964 19.385C53.4173 19.0677 53.7346 18.6483 53.916 18.127H55.582C55.3326 19.0223 54.834 19.7533 54.086 20.32C53.338 20.8753 52.4086 21.153 51.298 21.153C50.414 21.153 49.6206 20.9547 48.918 20.558C48.2266 20.1613 47.6826 19.6003 47.286 18.875C46.8893 18.1383 46.691 17.2883 46.691 16.325C46.691 15.3617 46.8836 14.5173 47.269 13.792C47.6543 13.0667 48.1926 12.5113 48.884 12.126C49.5866 11.7293 50.3913 11.531 51.298 11.531C52.182 11.531 52.964 11.7237 53.644 12.109C54.324 12.4943 54.8453 13.027 55.208 13.707C55.582 14.3757 55.769 15.135 55.769 15.985ZM54.171 15.662C54.171 15.0727 54.0406 14.5683 53.78 14.149C53.5193 13.7183 53.1623 13.3953 52.709 13.18C52.267 12.9533 51.774 12.84 51.23 12.84C50.448 12.84 49.7793 13.0893 49.224 13.588C48.68 14.0867 48.3683 14.778 48.289 15.662H54.171ZM59.358 13.197C59.63 12.6643 60.0153 12.2507 60.514 11.956C61.024 11.6613 61.6416 11.514 62.367 11.514V13.112H61.959C60.225 13.112 59.358 14.0527 59.358 15.934V21H57.811V11.684H59.358V13.197ZM72.6528 15.985C72.6528 16.2797 72.6358 16.5913 72.6018 16.92H65.1558C65.2124 17.838 65.5241 18.5577 66.0908 19.079C66.6688 19.589 67.3658 19.844 68.1818 19.844C68.8504 19.844 69.4058 19.691 69.8478 19.385C70.3011 19.0677 70.6184 18.6483 70.7998 18.127H72.4658C72.2164 19.0223 71.7178 19.7533 70.9698 20.32C70.2218 20.8753 69.2924 21.153 68.1818 21.153C67.2978 21.153 66.5044 20.9547 65.8018 20.558C65.1104 20.1613 64.5664 19.6003 64.1698 18.875C63.7731 18.1383 63.5748 17.2883 63.5748 16.325C63.5748 15.3617 63.7674 14.5173 64.1528 13.792C64.5381 13.0667 65.0764 12.5113 65.7678 12.126C66.4704 11.7293 67.2751 11.531 68.1818 11.531C69.0658 11.531 69.8478 11.7237 70.5278 12.109C71.2078 12.4943 71.7291 13.027 72.0918 13.707C72.4658 14.3757 72.6528 15.135 72.6528 15.985ZM71.0548 15.662C71.0548 15.0727 70.9244 14.5683 70.6638 14.149C70.4031 13.7183 70.0461 13.3953 69.5928 13.18C69.1508 12.9533 68.6578 12.84 68.1138 12.84C67.3318 12.84 66.6631 13.0893 66.1078 13.588C65.5638 14.0867 65.2521 14.778 65.1728 15.662H71.0548ZM80.026 10.171C79.7313 10.171 79.482 10.069 79.278 9.865C79.074 9.661 78.972 9.41167 78.972 9.117C78.972 8.82233 79.074 8.573 79.278 8.369C79.482 8.165 79.7313 8.063 80.026 8.063C80.3093 8.063 80.5473 8.165 80.74 8.369C80.944 8.573 81.046 8.82233 81.046 9.117C81.046 9.41167 80.944 9.661 80.74 9.865C80.5473 10.069 80.3093 10.171 80.026 10.171ZM80.774 11.684V21H79.227V11.684H80.774ZM94.6136 11.514C95.3389 11.514 95.9849 11.667 96.5516 11.973C97.1182 12.2677 97.5659 12.7153 97.8946 13.316C98.2232 13.9167 98.3876 14.6477 98.3876 15.509V21H96.8576V15.73C96.8576 14.8007 96.6252 14.0923 96.1606 13.605C95.7072 13.1063 95.0896 12.857 94.3076 12.857C93.5029 12.857 92.8626 13.1177 92.3866 13.639C91.9106 14.149 91.6726 14.8913 91.6726 15.866V21H90.1426V15.73C90.1426 14.8007 89.9102 14.0923 89.4456 13.605C88.9922 13.1063 88.3746 12.857 87.5926 12.857C86.7879 12.857 86.1476 13.1177 85.6716 13.639C85.1956 14.149 84.9576 14.8913 84.9576 15.866V21H83.4106V11.684H84.9576V13.027C85.2636 12.5397 85.6716 12.1657 86.1816 11.905C86.7029 11.6443 87.2752 11.514 87.8986 11.514C88.6806 11.514 89.3719 11.6897 89.9726 12.041C90.5732 12.3923 91.0209 12.908 91.3156 13.588C91.5762 12.9307 92.0069 12.4207 92.6076 12.058C93.2082 11.6953 93.8769 11.514 94.6136 11.514ZM102.472 13.401C102.778 12.8683 103.232 12.4263 103.832 12.075C104.444 11.7123 105.153 11.531 105.957 11.531C106.785 11.531 107.533 11.7293 108.201 12.126C108.881 12.5227 109.414 13.0837 109.799 13.809C110.185 14.523 110.377 15.356 110.377 16.308C110.377 17.2487 110.185 18.0873 109.799 18.824C109.414 19.5607 108.881 20.133 108.201 20.541C107.533 20.949 106.785 21.153 105.957 21.153C105.164 21.153 104.461 20.9773 103.849 20.626C103.249 20.2633 102.79 19.8157 102.472 19.283V25.42H100.925V11.684H102.472V13.401ZM108.796 16.308C108.796 15.6053 108.655 14.9933 108.371 14.472C108.088 13.9507 107.703 13.554 107.215 13.282C106.739 13.01 106.212 12.874 105.634 12.874C105.068 12.874 104.541 13.0157 104.053 13.299C103.577 13.571 103.192 13.9733 102.897 14.506C102.614 15.0273 102.472 15.6337 102.472 16.325C102.472 17.0277 102.614 17.6453 102.897 18.178C103.192 18.6993 103.577 19.1017 104.053 19.385C104.541 19.657 105.068 19.793 105.634 19.793C106.212 19.793 106.739 19.657 107.215 19.385C107.703 19.1017 108.088 18.6993 108.371 18.178C108.655 17.6453 108.796 17.022 108.796 16.308ZM113.96 13.197C114.232 12.6643 114.618 12.2507 115.116 11.956C115.626 11.6613 116.244 11.514 116.969 11.514V13.112H116.561C114.827 13.112 113.96 14.0527 113.96 15.934V21H112.413V11.684H113.96V13.197ZM127.255 15.985C127.255 16.2797 127.238 16.5913 127.204 16.92H119.758C119.815 17.838 120.127 18.5577 120.693 19.079C121.271 19.589 121.968 19.844 122.784 19.844C123.453 19.844 124.008 19.691 124.45 19.385C124.904 19.0677 125.221 18.6483 125.402 18.127H127.068C126.819 19.0223 126.32 19.7533 125.572 20.32C124.824 20.8753 123.895 21.153 122.784 21.153C121.9 21.153 121.107 20.9547 120.404 20.558C119.713 20.1613 119.169 19.6003 118.772 18.875C118.376 18.1383 118.177 17.2883 118.177 16.325C118.177 15.3617 118.37 14.5173 118.755 13.792C119.141 13.0667 119.679 12.5113 120.37 12.126C121.073 11.7293 121.878 11.531 122.784 11.531C123.668 11.531 124.45 11.7237 125.13 12.109C125.81 12.4943 126.332 13.027 126.694 13.707C127.068 14.3757 127.255 15.135 127.255 15.985ZM125.657 15.662C125.657 15.0727 125.527 14.5683 125.266 14.149C125.006 13.7183 124.649 13.3953 124.195 13.18C123.753 12.9533 123.26 12.84 122.716 12.84C121.934 12.84 121.266 13.0893 120.71 13.588C120.166 14.0867 119.855 14.778 119.775 15.662H125.657ZM132.595 21.153C131.881 21.153 131.241 21.034 130.674 20.796C130.108 20.5467 129.66 20.2067 129.331 19.776C129.003 19.334 128.821 18.8297 128.787 18.263H130.385C130.431 18.7277 130.646 19.1073 131.031 19.402C131.428 19.6967 131.944 19.844 132.578 19.844C133.168 19.844 133.632 19.7137 133.972 19.453C134.312 19.1923 134.482 18.8637 134.482 18.467C134.482 18.059 134.301 17.7587 133.938 17.566C133.576 17.362 133.015 17.1637 132.255 16.971C131.564 16.7897 130.997 16.6083 130.555 16.427C130.125 16.2343 129.751 15.9567 129.433 15.594C129.127 15.22 128.974 14.7327 128.974 14.132C128.974 13.656 129.116 13.2197 129.399 12.823C129.683 12.4263 130.085 12.1147 130.606 11.888C131.128 11.65 131.723 11.531 132.391 11.531C133.423 11.531 134.256 11.7917 134.89 12.313C135.525 12.8343 135.865 13.5483 135.91 14.455H134.363C134.329 13.9677 134.131 13.5767 133.768 13.282C133.417 12.9873 132.941 12.84 132.34 12.84C131.785 12.84 131.343 12.959 131.014 13.197C130.686 13.435 130.521 13.7467 130.521 14.132C130.521 14.438 130.618 14.693 130.81 14.897C131.014 15.0897 131.264 15.2483 131.558 15.373C131.864 15.4863 132.284 15.6167 132.816 15.764C133.485 15.9453 134.029 16.1267 134.448 16.308C134.868 16.478 135.225 16.7387 135.519 17.09C135.825 17.4413 135.984 17.9003 135.995 18.467C135.995 18.977 135.854 19.436 135.57 19.844C135.287 20.252 134.885 20.575 134.363 20.813C133.853 21.0397 133.264 21.153 132.595 21.153ZM141.477 21.153C140.763 21.153 140.123 21.034 139.556 20.796C138.989 20.5467 138.542 20.2067 138.213 19.776C137.884 19.334 137.703 18.8297 137.669 18.263H139.267C139.312 18.7277 139.528 19.1073 139.913 19.402C140.31 19.6967 140.825 19.844 141.46 19.844C142.049 19.844 142.514 19.7137 142.854 19.453C143.194 19.1923 143.364 18.8637 143.364 18.467C143.364 18.059 143.183 17.7587 142.82 17.566C142.457 17.362 141.896 17.1637 141.137 16.971C140.446 16.7897 139.879 16.6083 139.437 16.427C139.006 16.2343 138.632 15.9567 138.315 15.594C138.009 15.22 137.856 14.7327 137.856 14.132C137.856 13.656 137.998 13.2197 138.281 12.823C138.564 12.4263 138.967 12.1147 139.488 11.888C140.009 11.65 140.604 11.531 141.273 11.531C142.304 11.531 143.137 11.7917 143.772 12.313C144.407 12.8343 144.747 13.5483 144.792 14.455H143.245C143.211 13.9677 143.013 13.5767 142.65 13.282C142.299 12.9873 141.823 12.84 141.222 12.84C140.667 12.84 140.225 12.959 139.896 13.197C139.567 13.435 139.403 13.7467 139.403 14.132C139.403 14.438 139.499 14.693 139.692 14.897C139.896 15.0897 140.145 15.2483 140.44 15.373C140.746 15.4863 141.165 15.6167 141.698 15.764C142.367 15.9453 142.911 16.1267 143.33 16.308C143.749 16.478 144.106 16.7387 144.401 17.09C144.707 17.4413 144.866 17.9003 144.877 18.467C144.877 18.977 144.735 19.436 144.452 19.844C144.169 20.252 143.766 20.575 143.245 20.813C142.735 21.0397 142.146 21.153 141.477 21.153ZM155.561 15.985C155.561 16.2797 155.544 16.5913 155.51 16.92H148.064C148.121 17.838 148.432 18.5577 148.999 19.079C149.577 19.589 150.274 19.844 151.09 19.844C151.759 19.844 152.314 19.691 152.756 19.385C153.209 19.0677 153.527 18.6483 153.708 18.127H155.374C155.125 19.0223 154.626 19.7533 153.878 20.32C153.13 20.8753 152.201 21.153 151.09 21.153C150.206 21.153 149.413 20.9547 148.71 20.558C148.019 20.1613 147.475 19.6003 147.078 18.875C146.681 18.1383 146.483 17.2883 146.483 16.325C146.483 15.3617 146.676 14.5173 147.061 13.792C147.446 13.0667 147.985 12.5113 148.676 12.126C149.379 11.7293 150.183 11.531 151.09 11.531C151.974 11.531 152.756 11.7237 153.436 12.109C154.116 12.4943 154.637 13.027 155 13.707C155.374 14.3757 155.561 15.135 155.561 15.985ZM153.963 15.662C153.963 15.0727 153.833 14.5683 153.572 14.149C153.311 13.7183 152.954 13.3953 152.501 13.18C152.059 12.9533 151.566 12.84 151.022 12.84C150.24 12.84 149.571 13.0893 149.016 13.588C148.472 14.0867 148.16 14.778 148.081 15.662H153.963ZM157.025 16.308C157.025 15.356 157.218 14.523 157.603 13.809C157.988 13.0837 158.515 12.5227 159.184 12.126C159.864 11.7293 160.623 11.531 161.462 11.531C162.187 11.531 162.862 11.701 163.485 12.041C164.108 12.3697 164.584 12.806 164.913 13.35V8.42H166.477V21H164.913V19.249C164.607 19.8043 164.154 20.2633 163.553 20.626C162.952 20.9773 162.25 21.153 161.445 21.153C160.618 21.153 159.864 20.949 159.184 20.541C158.515 20.133 157.988 19.5607 157.603 18.824C157.218 18.0873 157.025 17.2487 157.025 16.308ZM164.913 16.325C164.913 15.6223 164.771 15.0103 164.488 14.489C164.205 13.9677 163.819 13.571 163.332 13.299C162.856 13.0157 162.329 12.874 161.751 12.874C161.173 12.874 160.646 13.01 160.17 13.282C159.694 13.554 159.314 13.9507 159.031 14.472C158.748 14.9933 158.606 15.6053 158.606 16.308C158.606 17.022 158.748 17.6453 159.031 18.178C159.314 18.6993 159.694 19.1017 160.17 19.385C160.646 19.657 161.173 19.793 161.751 19.793C162.329 19.793 162.856 19.657 163.332 19.385C163.819 19.1017 164.205 18.6993 164.488 18.178C164.771 17.6453 164.913 17.0277 164.913 16.325ZM175.17 13.418C175.488 12.8627 175.952 12.4093 176.564 12.058C177.176 11.7067 177.873 11.531 178.655 11.531C179.494 11.531 180.248 11.7293 180.916 12.126C181.585 12.5227 182.112 13.0837 182.497 13.809C182.883 14.523 183.075 15.356 183.075 16.308C183.075 17.2487 182.883 18.0873 182.497 18.824C182.112 19.5607 181.579 20.133 180.899 20.541C180.231 20.949 179.483 21.153 178.655 21.153C177.851 21.153 177.142 20.9773 176.53 20.626C175.93 20.2747 175.476 19.827 175.17 19.283V21H173.623V8.42H175.17V13.418ZM181.494 16.308C181.494 15.6053 181.353 14.9933 181.069 14.472C180.786 13.9507 180.401 13.554 179.913 13.282C179.437 13.01 178.91 12.874 178.332 12.874C177.766 12.874 177.239 13.0157 176.751 13.299C176.275 13.571 175.89 13.9733 175.595 14.506C175.312 15.0273 175.17 15.6337 175.17 16.325C175.17 17.0277 175.312 17.6453 175.595 18.178C175.89 18.6993 176.275 19.1017 176.751 19.385C177.239 19.657 177.766 19.793 178.332 19.793C178.91 19.793 179.437 19.657 179.913 19.385C180.401 19.1017 180.786 18.6993 181.069 18.178C181.353 17.6453 181.494 17.022 181.494 16.308ZM193.136 11.684L187.526 25.386H185.928L187.764 20.898L184.007 11.684H185.724L188.648 19.232L191.538 11.684H193.136ZM201.11 12.959V18.45C201.11 18.9033 201.206 19.2263 201.399 19.419C201.592 19.6003 201.926 19.691 202.402 19.691H203.541V21H202.147C201.286 21 200.64 20.8017 200.209 20.405C199.778 20.0083 199.563 19.3567 199.563 18.45V12.959H198.356V11.684H199.563V9.338H201.11V11.684H203.541V12.959H201.11ZM210.039 11.514C210.742 11.514 211.377 11.667 211.943 11.973C212.51 12.2677 212.952 12.7153 213.269 13.316C213.598 13.9167 213.762 14.6477 213.762 15.509V21H212.232V15.73C212.232 14.8007 212 14.0923 211.535 13.605C211.071 13.1063 210.436 12.857 209.631 12.857C208.815 12.857 208.164 13.112 207.676 13.622C207.2 14.132 206.962 14.8743 206.962 15.849V21H205.415V8.42H206.962V13.01C207.268 12.534 207.688 12.1657 208.22 11.905C208.764 11.6443 209.371 11.514 210.039 11.514ZM224.789 15.985C224.789 16.2797 224.772 16.5913 224.738 16.92H217.292C217.349 17.838 217.661 18.5577 218.227 19.079C218.805 19.589 219.502 19.844 220.318 19.844C220.987 19.844 221.542 19.691 221.984 19.385C222.438 19.0677 222.755 18.6483 222.936 18.127H224.602C224.353 19.0223 223.854 19.7533 223.106 20.32C222.358 20.8753 221.429 21.153 220.318 21.153C219.434 21.153 218.641 20.9547 217.938 20.558C217.247 20.1613 216.703 19.6003 216.306 18.875C215.91 18.1383 215.711 17.2883 215.711 16.325C215.711 15.3617 215.904 14.5173 216.289 13.792C216.675 13.0667 217.213 12.5113 217.904 12.126C218.607 11.7293 219.412 11.531 220.318 11.531C221.202 11.531 221.984 11.7237 222.664 12.109C223.344 12.4943 223.866 13.027 224.228 13.707C224.602 14.3757 224.789 15.135 224.789 15.985ZM223.191 15.662C223.191 15.0727 223.061 14.5683 222.8 14.149C222.54 13.7183 222.183 13.3953 221.729 13.18C221.287 12.9533 220.794 12.84 220.25 12.84C219.468 12.84 218.8 13.0893 218.244 13.588C217.7 14.0867 217.389 14.778 217.309 15.662H223.191ZM227.63 10.171C227.336 10.171 227.086 10.069 226.882 9.865C226.678 9.661 226.576 9.41167 226.576 9.117C226.576 8.82233 226.678 8.573 226.882 8.369C227.086 8.165 227.336 8.063 227.63 8.063C227.914 8.063 228.152 8.165 228.344 8.369C228.548 8.573 228.65 8.82233 228.65 9.117C228.65 9.41167 228.548 9.661 228.344 9.865C228.152 10.069 227.914 10.171 227.63 10.171ZM228.378 11.684V21H226.831V11.684H228.378ZM232.562 13.197C232.834 12.6643 233.219 12.2507 233.718 11.956C234.228 11.6613 234.846 11.514 235.571 11.514V13.112H235.163C233.429 13.112 232.562 14.0527 232.562 15.934V21H231.015V11.684H232.562V13.197ZM247.091 21L243.436 16.886V21H241.889V8.42H243.436V15.815L247.023 11.684H249.182L244.796 16.325L249.199 21H247.091ZM255.177 11.514C256.31 11.514 257.228 11.8597 257.931 12.551C258.634 13.231 258.985 14.217 258.985 15.509V21H257.455V15.73C257.455 14.8007 257.223 14.0923 256.758 13.605C256.293 13.1063 255.659 12.857 254.854 12.857C254.038 12.857 253.386 13.112 252.899 13.622C252.423 14.132 252.185 14.8743 252.185 15.849V21H250.638V11.684H252.185V13.01C252.491 12.534 252.905 12.1657 253.426 11.905C253.959 11.6443 254.542 11.514 255.177 11.514ZM265.575 21.153C264.702 21.153 263.909 20.9547 263.195 20.558C262.492 20.1613 261.937 19.6003 261.529 18.875C261.132 18.1383 260.934 17.2883 260.934 16.325C260.934 15.373 261.138 14.5343 261.546 13.809C261.965 13.0723 262.532 12.5113 263.246 12.126C263.96 11.7293 264.759 11.531 265.643 11.531C266.527 11.531 267.326 11.7293 268.04 12.126C268.754 12.5113 269.315 13.0667 269.723 13.792C270.142 14.5173 270.352 15.3617 270.352 16.325C270.352 17.2883 270.137 18.1383 269.706 18.875C269.287 19.6003 268.714 20.1613 267.989 20.558C267.264 20.9547 266.459 21.153 265.575 21.153ZM265.575 19.793C266.13 19.793 266.652 19.6627 267.139 19.402C267.626 19.1413 268.017 18.7503 268.312 18.229C268.618 17.7077 268.771 17.073 268.771 16.325C268.771 15.577 268.624 14.9423 268.329 14.421C268.034 13.8997 267.649 13.5143 267.173 13.265C266.697 13.0043 266.181 12.874 265.626 12.874C265.059 12.874 264.538 13.0043 264.062 13.265C263.597 13.5143 263.223 13.8997 262.94 14.421C262.657 14.9423 262.515 15.577 262.515 16.325C262.515 17.0843 262.651 17.7247 262.923 18.246C263.206 18.7673 263.58 19.1583 264.045 19.419C264.51 19.6683 265.02 19.793 265.575 19.793ZM284.796 11.684L281.889 21H280.291L278.047 13.605L275.803 21H274.205L271.281 11.684H272.862L275.004 19.504L277.316 11.684H278.897L281.158 19.521L283.266 11.684H284.796ZM287.878 8.42V21H286.331V8.42H287.878ZM299.015 15.985C299.015 16.2797 298.998 16.5913 298.964 16.92H291.518C291.575 17.838 291.886 18.5577 292.453 19.079C293.031 19.589 293.728 19.844 294.544 19.844C295.213 19.844 295.768 19.691 296.21 19.385C296.663 19.0677 296.981 18.6483 297.162 18.127H298.828C298.579 19.0223 298.08 19.7533 297.332 20.32C296.584 20.8753 295.655 21.153 294.544 21.153C293.66 21.153 292.867 20.9547 292.164 20.558C291.473 20.1613 290.929 19.6003 290.532 18.875C290.135 18.1383 289.937 17.2883 289.937 16.325C289.937 15.3617 290.13 14.5173 290.515 13.792C290.9 13.0667 291.439 12.5113 292.13 12.126C292.833 11.7293 293.637 11.531 294.544 11.531C295.428 11.531 296.21 11.7237 296.89 12.109C297.57 12.4943 298.091 13.027 298.454 13.707C298.828 14.3757 299.015 15.135 299.015 15.985ZM297.417 15.662C297.417 15.0727 297.287 14.5683 297.026 14.149C296.765 13.7183 296.408 13.3953 295.955 13.18C295.513 12.9533 295.02 12.84 294.476 12.84C293.694 12.84 293.025 13.0893 292.47 13.588C291.926 14.0867 291.614 14.778 291.535 15.662H297.417ZM300.479 16.308C300.479 15.356 300.672 14.523 301.057 13.809C301.442 13.0837 301.969 12.5227 302.638 12.126C303.318 11.7293 304.077 11.531 304.916 11.531C305.641 11.531 306.316 11.701 306.939 12.041C307.562 12.3697 308.038 12.806 308.367 13.35V8.42H309.931V21H308.367V19.249C308.061 19.8043 307.608 20.2633 307.007 20.626C306.406 20.9773 305.704 21.153 304.899 21.153C304.072 21.153 303.318 20.949 302.638 20.541C301.969 20.133 301.442 19.5607 301.057 18.824C300.672 18.0873 300.479 17.2487 300.479 16.308ZM308.367 16.325C308.367 15.6223 308.225 15.0103 307.942 14.489C307.659 13.9677 307.273 13.571 306.786 13.299C306.31 13.0157 305.783 12.874 305.205 12.874C304.627 12.874 304.1 13.01 303.624 13.282C303.148 13.554 302.768 13.9507 302.485 14.472C302.202 14.9933 302.06 15.6053 302.06 16.308C302.06 17.022 302.202 17.6453 302.485 18.178C302.768 18.6993 303.148 19.1017 303.624 19.385C304.1 19.657 304.627 19.793 305.205 19.793C305.783 19.793 306.31 19.657 306.786 19.385C307.273 19.1017 307.659 18.6993 307.942 18.178C308.225 17.6453 308.367 17.0277 308.367 16.325ZM316.387 11.531C317.192 11.531 317.895 11.7067 318.495 12.058C319.107 12.4093 319.561 12.8513 319.855 13.384V11.684H321.419V21.204C321.419 22.054 321.238 22.8077 320.875 23.465C320.513 24.1337 319.991 24.655 319.311 25.029C318.643 25.403 317.861 25.59 316.965 25.59C315.741 25.59 314.721 25.301 313.905 24.723C313.089 24.145 312.608 23.3573 312.46 22.36H313.99C314.16 22.9267 314.512 23.38 315.044 23.72C315.577 24.0713 316.217 24.247 316.965 24.247C317.815 24.247 318.507 23.9807 319.039 23.448C319.583 22.9153 319.855 22.1673 319.855 21.204V19.249C319.549 19.793 319.096 20.2463 318.495 20.609C317.895 20.9717 317.192 21.153 316.387 21.153C315.56 21.153 314.806 20.949 314.126 20.541C313.458 20.133 312.931 19.5607 312.545 18.824C312.16 18.0873 311.967 17.2487 311.967 16.308C311.967 15.356 312.16 14.523 312.545 13.809C312.931 13.0837 313.458 12.5227 314.126 12.126C314.806 11.7293 315.56 11.531 316.387 11.531ZM319.855 16.325C319.855 15.6223 319.714 15.0103 319.43 14.489C319.147 13.9677 318.762 13.571 318.274 13.299C317.798 13.0157 317.271 12.874 316.693 12.874C316.115 12.874 315.588 13.01 315.112 13.282C314.636 13.554 314.257 13.9507 313.973 14.472C313.69 14.9933 313.548 15.6053 313.548 16.308C313.548 17.022 313.69 17.6453 313.973 18.178C314.257 18.6993 314.636 19.1017 315.112 19.385C315.588 19.657 316.115 19.793 316.693 19.793C317.271 19.793 317.798 19.657 318.274 19.385C318.762 19.1017 319.147 18.6993 319.43 18.178C319.714 17.6453 319.855 17.0277 319.855 16.325ZM332.534 15.985C332.534 16.2797 332.517 16.5913 332.483 16.92H325.037C325.093 17.838 325.405 18.5577 325.972 19.079C326.55 19.589 327.247 19.844 328.063 19.844C328.731 19.844 329.287 19.691 329.729 19.385C330.182 19.0677 330.499 18.6483 330.681 18.127H332.347C332.097 19.0223 331.599 19.7533 330.851 20.32C330.103 20.8753 329.173 21.153 328.063 21.153C327.179 21.153 326.385 20.9547 325.683 20.558C324.991 20.1613 324.447 19.6003 324.051 18.875C323.654 18.1383 323.456 17.2883 323.456 16.325C323.456 15.3617 323.648 14.5173 324.034 13.792C324.419 13.0667 324.957 12.5113 325.649 12.126C326.351 11.7293 327.156 11.531 328.063 11.531C328.947 11.531 329.729 11.7237 330.409 12.109C331.089 12.4943 331.61 13.027 331.973 13.707C332.347 14.3757 332.534 15.135 332.534 15.985ZM330.936 15.662C330.936 15.0727 330.805 14.5683 330.545 14.149C330.284 13.7183 329.927 13.3953 329.474 13.18C329.032 12.9533 328.539 12.84 327.995 12.84C327.213 12.84 326.544 13.0893 325.989 13.588C325.445 14.0867 325.133 14.778 325.054 15.662H330.936ZM336.174 18.858L334.27 23.431H333.233L334.474 18.858H336.174ZM3.21147 43.401C3.51747 42.8683 3.9708 42.4263 4.57147 42.075C5.18347 41.7123 5.8918 41.531 6.69647 41.531C7.5238 41.531 8.2718 41.7293 8.94047 42.126C9.62047 42.5227 10.1531 43.0837 10.5385 43.809C10.9238 44.523 11.1165 45.356 11.1165 46.308C11.1165 47.2487 10.9238 48.0873 10.5385 48.824C10.1531 49.5607 9.62047 50.133 8.94047 50.541C8.2718 50.949 7.5238 51.153 6.69647 51.153C5.90314 51.153 5.20047 50.9773 4.58847 50.626C3.9878 50.2633 3.5288 49.8157 3.21147 49.283V55.42H1.66447V41.684H3.21147V43.401ZM9.53547 46.308C9.53547 45.6053 9.3938 44.9933 9.11047 44.472C8.82714 43.9507 8.4418 43.554 7.95447 43.282C7.47847 43.01 6.95147 42.874 6.37347 42.874C5.8068 42.874 5.2798 43.0157 4.79247 43.299C4.31647 43.571 3.93114 43.9733 3.63647 44.506C3.35314 45.0273 3.21147 45.6337 3.21147 46.325C3.21147 47.0277 3.35314 47.6453 3.63647 48.178C3.93114 48.6993 4.31647 49.1017 4.79247 49.385C5.2798 49.657 5.8068 49.793 6.37347 49.793C6.95147 49.793 7.47847 49.657 7.95447 49.385C8.4418 49.1017 8.82714 48.6993 9.11047 48.178C9.3938 47.6453 9.53547 47.022 9.53547 46.308ZM14.6998 43.197C14.9718 42.6643 15.3571 42.2507 15.8558 41.956C16.3658 41.6613 16.9834 41.514 17.7088 41.514V43.112H17.3008C15.5668 43.112 14.6998 44.0527 14.6998 45.934V51H13.1528V41.684H14.6998V43.197ZM23.5575 51.153C22.6849 51.153 21.8915 50.9547 21.1775 50.558C20.4749 50.1613 19.9195 49.6003 19.5115 48.875C19.1149 48.1383 18.9165 47.2883 18.9165 46.325C18.9165 45.373 19.1205 44.5343 19.5285 43.809C19.9479 43.0723 20.5145 42.5113 21.2285 42.126C21.9425 41.7293 22.7415 41.531 23.6255 41.531C24.5095 41.531 25.3085 41.7293 26.0225 42.126C26.7365 42.5113 27.2975 43.0667 27.7055 43.792C28.1249 44.5173 28.3345 45.3617 28.3345 46.325C28.3345 47.2883 28.1192 48.1383 27.6885 48.875C27.2692 49.6003 26.6969 50.1613 25.9715 50.558C25.2462 50.9547 24.4415 51.153 23.5575 51.153ZM23.5575 49.793C24.1129 49.793 24.6342 49.6627 25.1215 49.402C25.6089 49.1413 25.9999 48.7503 26.2945 48.229C26.6005 47.7077 26.7535 47.073 26.7535 46.325C26.7535 45.577 26.6062 44.9423 26.3115 44.421C26.0169 43.8997 25.6315 43.5143 25.1555 43.265C24.6795 43.0043 24.1639 42.874 23.6085 42.874C23.0419 42.874 22.5205 43.0043 22.0445 43.265C21.5799 43.5143 21.2059 43.8997 20.9225 44.421C20.6392 44.9423 20.4975 45.577 20.4975 46.325C20.4975 47.0843 20.6335 47.7247 20.9055 48.246C21.1889 48.7673 21.5629 49.1583 22.0275 49.419C22.4922 49.6683 23.0022 49.793 23.5575 49.793ZM34.1596 42.959H32.2046V51H30.6576V42.959H29.4506V41.684H30.6576V41.021C30.6576 39.9783 30.9239 39.219 31.4566 38.743C32.0006 38.2557 32.8676 38.012 34.0576 38.012V39.304C33.3776 39.304 32.8959 39.44 32.6126 39.712C32.3406 39.9727 32.2046 40.409 32.2046 41.021V41.684H34.1596V42.959ZM44.4633 45.985C44.4633 46.2797 44.4463 46.5913 44.4123 46.92H36.9663C37.023 47.838 37.3346 48.5577 37.9013 49.079C38.4793 49.589 39.1763 49.844 39.9923 49.844C40.661 49.844 41.2163 49.691 41.6583 49.385C42.1116 49.0677 42.429 48.6483 42.6103 48.127H44.2763C44.027 49.0223 43.5283 49.7533 42.7803 50.32C42.0323 50.8753 41.103 51.153 39.9923 51.153C39.1083 51.153 38.315 50.9547 37.6123 50.558C36.921 50.1613 36.377 49.6003 35.9803 48.875C35.5836 48.1383 35.3853 47.2883 35.3853 46.325C35.3853 45.3617 35.578 44.5173 35.9633 43.792C36.3486 43.0667 36.887 42.5113 37.5783 42.126C38.281 41.7293 39.0856 41.531 39.9923 41.531C40.8763 41.531 41.6583 41.7237 42.3383 42.109C43.0183 42.4943 43.5396 43.027 43.9023 43.707C44.2763 44.3757 44.4633 45.135 44.4633 45.985ZM42.8653 45.662C42.8653 45.0727 42.735 44.5683 42.4743 44.149C42.2136 43.7183 41.8566 43.3953 41.4033 43.18C40.9613 42.9533 40.4683 42.84 39.9243 42.84C39.1423 42.84 38.4736 43.0893 37.9183 43.588C37.3743 44.0867 37.0626 44.778 36.9833 45.662H42.8653ZM49.8033 51.153C49.0893 51.153 48.449 51.034 47.8823 50.796C47.3156 50.5467 46.868 50.2067 46.5393 49.776C46.2106 49.334 46.0293 48.8297 45.9953 48.263H47.5933C47.6386 48.7277 47.854 49.1073 48.2393 49.402C48.636 49.6967 49.1516 49.844 49.7863 49.844C50.3756 49.844 50.8403 49.7137 51.1803 49.453C51.5203 49.1923 51.6903 48.8637 51.6903 48.467C51.6903 48.059 51.509 47.7587 51.1463 47.566C50.7836 47.362 50.2226 47.1637 49.4633 46.971C48.772 46.7897 48.2053 46.6083 47.7633 46.427C47.3326 46.2343 46.9586 45.9567 46.6413 45.594C46.3353 45.22 46.1823 44.7327 46.1823 44.132C46.1823 43.656 46.324 43.2197 46.6073 42.823C46.8906 42.4263 47.293 42.1147 47.8143 41.888C48.3356 41.65 48.9306 41.531 49.5993 41.531C50.6306 41.531 51.4636 41.7917 52.0983 42.313C52.733 42.8343 53.073 43.5483 53.1183 44.455H51.5713C51.5373 43.9677 51.339 43.5767 50.9763 43.282C50.625 42.9873 50.149 42.84 49.5483 42.84C48.993 42.84 48.551 42.959 48.2223 43.197C47.8936 43.435 47.7293 43.7467 47.7293 44.132C47.7293 44.438 47.8256 44.693 48.0183 44.897C48.2223 45.0897 48.4716 45.2483 48.7663 45.373C49.0723 45.4863 49.4916 45.6167 50.0243 45.764C50.693 45.9453 51.237 46.1267 51.6563 46.308C52.0756 46.478 52.4326 46.7387 52.7273 47.09C53.0333 47.4413 53.192 47.9003 53.2033 48.467C53.2033 48.977 53.0616 49.436 52.7783 49.844C52.495 50.252 52.0926 50.575 51.5713 50.813C51.0613 51.0397 50.472 51.153 49.8033 51.153ZM58.6851 51.153C57.9711 51.153 57.3308 51.034 56.7641 50.796C56.1975 50.5467 55.7498 50.2067 55.4211 49.776C55.0925 49.334 54.9111 48.8297 54.8771 48.263H56.4751C56.5205 48.7277 56.7358 49.1073 57.1211 49.402C57.5178 49.6967 58.0335 49.844 58.6681 49.844C59.2575 49.844 59.7221 49.7137 60.0621 49.453C60.4021 49.1923 60.5721 48.8637 60.5721 48.467C60.5721 48.059 60.3908 47.7587 60.0281 47.566C59.6655 47.362 59.1045 47.1637 58.3451 46.971C57.6538 46.7897 57.0871 46.6083 56.6451 46.427C56.2145 46.2343 55.8405 45.9567 55.5231 45.594C55.2171 45.22 55.0641 44.7327 55.0641 44.132C55.0641 43.656 55.2058 43.2197 55.4891 42.823C55.7725 42.4263 56.1748 42.1147 56.6961 41.888C57.2175 41.65 57.8125 41.531 58.4811 41.531C59.5125 41.531 60.3455 41.7917 60.9801 42.313C61.6148 42.8343 61.9548 43.5483 62.0001 44.455H60.4531C60.4191 43.9677 60.2208 43.5767 59.8581 43.282C59.5068 42.9873 59.0308 42.84 58.4301 42.84C57.8748 42.84 57.4328 42.959 57.1041 43.197C56.7755 43.435 56.6111 43.7467 56.6111 44.132C56.6111 44.438 56.7075 44.693 56.9001 44.897C57.1041 45.0897 57.3535 45.2483 57.6481 45.373C57.9541 45.4863 58.3735 45.6167 58.9061 45.764C59.5748 45.9453 60.1188 46.1267 60.5381 46.308C60.9575 46.478 61.3145 46.7387 61.6091 47.09C61.9151 47.4413 62.0738 47.9003 62.0851 48.467C62.0851 48.977 61.9435 49.436 61.6601 49.844C61.3768 50.252 60.9745 50.575 60.4531 50.813C59.9431 51.0397 59.3538 51.153 58.6851 51.153ZM65.068 40.171C64.7733 40.171 64.524 40.069 64.32 39.865C64.116 39.661 64.014 39.4117 64.014 39.117C64.014 38.8223 64.116 38.573 64.32 38.369C64.524 38.165 64.7733 38.063 65.068 38.063C65.3513 38.063 65.5893 38.165 65.782 38.369C65.986 38.573 66.088 38.8223 66.088 39.117C66.088 39.4117 65.986 39.661 65.782 39.865C65.5893 40.069 65.3513 40.171 65.068 40.171ZM65.816 41.684V51H64.269V41.684H65.816ZM72.5156 51.153C71.6429 51.153 70.8496 50.9547 70.1356 50.558C69.4329 50.1613 68.8776 49.6003 68.4696 48.875C68.0729 48.1383 67.8746 47.2883 67.8746 46.325C67.8746 45.373 68.0786 44.5343 68.4866 43.809C68.9059 43.0723 69.4726 42.5113 70.1866 42.126C70.9006 41.7293 71.6996 41.531 72.5836 41.531C73.4676 41.531 74.2666 41.7293 74.9806 42.126C75.6946 42.5113 76.2556 43.0667 76.6636 43.792C77.0829 44.5173 77.2926 45.3617 77.2926 46.325C77.2926 47.2883 77.0772 48.1383 76.6466 48.875C76.2272 49.6003 75.6549 50.1613 74.9296 50.558C74.2042 50.9547 73.3996 51.153 72.5156 51.153ZM72.5156 49.793C73.0709 49.793 73.5922 49.6627 74.0796 49.402C74.5669 49.1413 74.9579 48.7503 75.2526 48.229C75.5586 47.7077 75.7116 47.073 75.7116 46.325C75.7116 45.577 75.5642 44.9423 75.2696 44.421C74.9749 43.8997 74.5896 43.5143 74.1136 43.265C73.6376 43.0043 73.1219 42.874 72.5666 42.874C71.9999 42.874 71.4786 43.0043 71.0026 43.265C70.5379 43.5143 70.1639 43.8997 69.8806 44.421C69.5972 44.9423 69.4556 45.577 69.4556 46.325C69.4556 47.0843 69.5916 47.7247 69.8636 48.246C70.1469 48.7673 70.5209 49.1583 70.9856 49.419C71.4502 49.6683 71.9602 49.793 72.5156 49.793ZM83.8656 41.514C84.9989 41.514 85.9169 41.8597 86.6196 42.551C87.3222 43.231 87.6736 44.217 87.6736 45.509V51H86.1436V45.73C86.1436 44.8007 85.9112 44.0923 85.4466 43.605C84.9819 43.1063 84.3472 42.857 83.5426 42.857C82.7266 42.857 82.0749 43.112 81.5876 43.622C81.1116 44.132 80.8736 44.8743 80.8736 45.849V51H79.3266V41.684H80.8736V43.01C81.1796 42.534 81.5932 42.1657 82.1146 41.905C82.6472 41.6443 83.2309 41.514 83.8656 41.514ZM89.6226 46.308C89.6226 45.356 89.8153 44.523 90.2006 43.809C90.5859 43.0837 91.1129 42.5227 91.7816 42.126C92.4616 41.7293 93.2153 41.531 94.0426 41.531C94.8586 41.531 95.5669 41.7067 96.1676 42.058C96.7683 42.4093 97.2159 42.8513 97.5106 43.384V41.684H99.0746V51H97.5106V49.266C97.2046 49.81 96.7456 50.2633 96.1336 50.626C95.5329 50.9773 94.8303 51.153 94.0256 51.153C93.1983 51.153 92.4503 50.949 91.7816 50.541C91.1129 50.133 90.5859 49.5607 90.2006 48.824C89.8153 48.0873 89.6226 47.2487 89.6226 46.308ZM97.5106 46.325C97.5106 45.6223 97.3689 45.0103 97.0856 44.489C96.8023 43.9677 96.4169 43.571 95.9296 43.299C95.4536 43.0157 94.9266 42.874 94.3486 42.874C93.7706 42.874 93.2436 43.01 92.7676 43.282C92.2916 43.554 91.9119 43.9507 91.6286 44.472C91.3453 44.9933 91.2036 45.6053 91.2036 46.308C91.2036 47.022 91.3453 47.6453 91.6286 48.178C91.9119 48.6993 92.2916 49.1017 92.7676 49.385C93.2436 49.657 93.7706 49.793 94.3486 49.793C94.9266 49.793 95.4536 49.657 95.9296 49.385C96.4169 49.1017 96.8023 48.6993 97.0856 48.178C97.3689 47.6453 97.5106 47.0277 97.5106 46.325ZM103.236 38.42V51H101.689V38.42H103.236ZM106.671 40.171C106.377 40.171 106.127 40.069 105.923 39.865C105.719 39.661 105.617 39.4117 105.617 39.117C105.617 38.8223 105.719 38.573 105.923 38.369C106.127 38.165 106.377 38.063 106.671 38.063C106.955 38.063 107.193 38.165 107.385 38.369C107.589 38.573 107.691 38.8223 107.691 39.117C107.691 39.4117 107.589 39.661 107.385 39.865C107.193 40.069 106.955 40.171 106.671 40.171ZM107.419 41.684V51H105.872V41.684H107.419ZM113.354 51.153C112.64 51.153 112 51.034 111.433 50.796C110.866 50.5467 110.419 50.2067 110.09 49.776C109.761 49.334 109.58 48.8297 109.546 48.263H111.144C111.189 48.7277 111.405 49.1073 111.79 49.402C112.187 49.6967 112.702 49.844 113.337 49.844C113.926 49.844 114.391 49.7137 114.731 49.453C115.071 49.1923 115.241 48.8637 115.241 48.467C115.241 48.059 115.06 47.7587 114.697 47.566C114.334 47.362 113.773 47.1637 113.014 46.971C112.323 46.7897 111.756 46.6083 111.314 46.427C110.883 46.2343 110.509 45.9567 110.192 45.594C109.886 45.22 109.733 44.7327 109.733 44.132C109.733 43.656 109.875 43.2197 110.158 42.823C110.441 42.4263 110.844 42.1147 111.365 41.888C111.886 41.65 112.481 41.531 113.15 41.531C114.181 41.531 115.014 41.7917 115.649 42.313C116.284 42.8343 116.624 43.5483 116.669 44.455H115.122C115.088 43.9677 114.89 43.5767 114.527 43.282C114.176 42.9873 113.7 42.84 113.099 42.84C112.544 42.84 112.102 42.959 111.773 43.197C111.444 43.435 111.28 43.7467 111.28 44.132C111.28 44.438 111.376 44.693 111.569 44.897C111.773 45.0897 112.022 45.2483 112.317 45.373C112.623 45.4863 113.042 45.6167 113.575 45.764C114.244 45.9453 114.788 46.1267 115.207 46.308C115.626 46.478 115.983 46.7387 116.278 47.09C116.584 47.4413 116.743 47.9003 116.754 48.467C116.754 48.977 116.612 49.436 116.329 49.844C116.046 50.252 115.643 50.575 115.122 50.813C114.612 51.0397 114.023 51.153 113.354 51.153ZM130.141 41.514C130.866 41.514 131.512 41.667 132.079 41.973C132.646 42.2677 133.093 42.7153 133.422 43.316C133.751 43.9167 133.915 44.6477 133.915 45.509V51H132.385V45.73C132.385 44.8007 132.153 44.0923 131.688 43.605C131.235 43.1063 130.617 42.857 129.835 42.857C129.03 42.857 128.39 43.1177 127.914 43.639C127.438 44.149 127.2 44.8913 127.2 45.866V51H125.67V45.73C125.67 44.8007 125.438 44.0923 124.973 43.605C124.52 43.1063 123.902 42.857 123.12 42.857C122.315 42.857 121.675 43.1177 121.199 43.639C120.723 44.149 120.485 44.8913 120.485 45.866V51H118.938V41.684H120.485V43.027C120.791 42.5397 121.199 42.1657 121.709 41.905C122.23 41.6443 122.803 41.514 123.426 41.514C124.208 41.514 124.899 41.6897 125.5 42.041C126.101 42.3923 126.548 42.908 126.843 43.588C127.104 42.9307 127.534 42.4207 128.135 42.058C128.736 41.6953 129.404 41.514 130.141 41.514ZM138.051 48.858L136.147 53.431H135.11L136.351 48.858H138.051ZM143.777 46.308C143.777 45.356 143.97 44.523 144.355 43.809C144.74 43.0837 145.267 42.5227 145.936 42.126C146.616 41.7293 147.37 41.531 148.197 41.531C149.013 41.531 149.721 41.7067 150.322 42.058C150.923 42.4093 151.37 42.8513 151.665 43.384V41.684H153.229V51H151.665V49.266C151.359 49.81 150.9 50.2633 150.288 50.626C149.687 50.9773 148.985 51.153 148.18 51.153C147.353 51.153 146.605 50.949 145.936 50.541C145.267 50.133 144.74 49.5607 144.355 48.824C143.97 48.0873 143.777 47.2487 143.777 46.308ZM151.665 46.325C151.665 45.6223 151.523 45.0103 151.24 44.489C150.957 43.9677 150.571 43.571 150.084 43.299C149.608 43.0157 149.081 42.874 148.503 42.874C147.925 42.874 147.398 43.01 146.922 43.282C146.446 43.554 146.066 43.9507 145.783 44.472C145.5 44.9933 145.358 45.6053 145.358 46.308C145.358 47.022 145.5 47.6453 145.783 48.178C146.066 48.6993 146.446 49.1017 146.922 49.385C147.398 49.657 147.925 49.793 148.503 49.793C149.081 49.793 149.608 49.657 150.084 49.385C150.571 49.1017 150.957 48.6993 151.24 48.178C151.523 47.6453 151.665 47.0277 151.665 46.325ZM160.382 41.514C161.516 41.514 162.434 41.8597 163.136 42.551C163.839 43.231 164.19 44.217 164.19 45.509V51H162.66V45.73C162.66 44.8007 162.428 44.0923 161.963 43.605C161.499 43.1063 160.864 42.857 160.059 42.857C159.243 42.857 158.592 43.112 158.104 43.622C157.628 44.132 157.39 44.8743 157.39 45.849V51H155.843V41.684H157.39V43.01C157.696 42.534 158.11 42.1657 158.631 41.905C159.164 41.6443 159.748 41.514 160.382 41.514ZM166.139 46.308C166.139 45.356 166.332 44.523 166.717 43.809C167.103 43.0837 167.63 42.5227 168.298 42.126C168.978 41.7293 169.738 41.531 170.576 41.531C171.302 41.531 171.976 41.701 172.599 42.041C173.223 42.3697 173.699 42.806 174.027 43.35V38.42H175.591V51H174.027V49.249C173.721 49.8043 173.268 50.2633 172.667 50.626C172.067 50.9773 171.364 51.153 170.559 51.153C169.732 51.153 168.978 50.949 168.298 50.541C167.63 50.133 167.103 49.5607 166.717 48.824C166.332 48.0873 166.139 47.2487 166.139 46.308ZM174.027 46.325C174.027 45.6223 173.886 45.0103 173.602 44.489C173.319 43.9677 172.934 43.571 172.446 43.299C171.97 43.0157 171.443 42.874 170.865 42.874C170.287 42.874 169.76 43.01 169.284 43.282C168.808 43.554 168.429 43.9507 168.145 44.472C167.862 44.9933 167.72 45.6053 167.72 46.308C167.72 47.022 167.862 47.6453 168.145 48.178C168.429 48.6993 168.808 49.1017 169.284 49.385C169.76 49.657 170.287 49.793 170.865 49.793C171.443 49.793 171.97 49.657 172.446 49.385C172.934 49.1017 173.319 48.6993 173.602 48.178C173.886 47.6453 174.027 47.0277 174.027 46.325ZM184.285 43.401C184.591 42.8683 185.044 42.4263 185.645 42.075C186.257 41.7123 186.965 41.531 187.77 41.531C188.597 41.531 189.345 41.7293 190.014 42.126C190.694 42.5227 191.226 43.0837 191.612 43.809C191.997 44.523 192.19 45.356 192.19 46.308C192.19 47.2487 191.997 48.0873 191.612 48.824C191.226 49.5607 190.694 50.133 190.014 50.541C189.345 50.949 188.597 51.153 187.77 51.153C186.976 51.153 186.274 50.9773 185.662 50.626C185.061 50.2633 184.602 49.8157 184.285 49.283V55.42H182.738V41.684H184.285V43.401ZM190.609 46.308C190.609 45.6053 190.467 44.9933 190.184 44.472C189.9 43.9507 189.515 43.554 189.028 43.282C188.552 43.01 188.025 42.874 187.447 42.874C186.88 42.874 186.353 43.0157 185.866 43.299C185.39 43.571 185.004 43.9733 184.71 44.506C184.426 45.0273 184.285 45.6337 184.285 46.325C184.285 47.0277 184.426 47.6453 184.71 48.178C185.004 48.6993 185.39 49.1017 185.866 49.385C186.353 49.657 186.88 49.793 187.447 49.793C188.025 49.793 188.552 49.657 189.028 49.385C189.515 49.1017 189.9 48.6993 190.184 48.178C190.467 47.6453 190.609 47.022 190.609 46.308ZM198.289 51.153C197.416 51.153 196.623 50.9547 195.909 50.558C195.206 50.1613 194.651 49.6003 194.243 48.875C193.846 48.1383 193.648 47.2883 193.648 46.325C193.648 45.373 193.852 44.5343 194.26 43.809C194.679 43.0723 195.246 42.5113 195.96 42.126C196.674 41.7293 197.473 41.531 198.357 41.531C199.241 41.531 200.04 41.7293 200.754 42.126C201.468 42.5113 202.029 43.0667 202.437 43.792C202.856 44.5173 203.066 45.3617 203.066 46.325C203.066 47.2883 202.851 48.1383 202.42 48.875C202.001 49.6003 201.428 50.1613 200.703 50.558C199.978 50.9547 199.173 51.153 198.289 51.153ZM198.289 49.793C198.844 49.793 199.366 49.6627 199.853 49.402C200.34 49.1413 200.731 48.7503 201.026 48.229C201.332 47.7077 201.485 47.073 201.485 46.325C201.485 45.577 201.338 44.9423 201.043 44.421C200.748 43.8997 200.363 43.5143 199.887 43.265C199.411 43.0043 198.895 42.874 198.34 42.874C197.773 42.874 197.252 43.0043 196.776 43.265C196.311 43.5143 195.937 43.8997 195.654 44.421C195.371 44.9423 195.229 45.577 195.229 46.325C195.229 47.0843 195.365 47.7247 195.637 48.246C195.92 48.7673 196.294 49.1583 196.759 49.419C197.224 49.6683 197.734 49.793 198.289 49.793ZM208.398 51.153C207.684 51.153 207.044 51.034 206.477 50.796C205.91 50.5467 205.463 50.2067 205.134 49.776C204.805 49.334 204.624 48.8297 204.59 48.263H206.188C206.233 48.7277 206.449 49.1073 206.834 49.402C207.231 49.6967 207.746 49.844 208.381 49.844C208.97 49.844 209.435 49.7137 209.775 49.453C210.115 49.1923 210.285 48.8637 210.285 48.467C210.285 48.059 210.104 47.7587 209.741 47.566C209.378 47.362 208.817 47.1637 208.058 46.971C207.367 46.7897 206.8 46.6083 206.358 46.427C205.927 46.2343 205.553 45.9567 205.236 45.594C204.93 45.22 204.777 44.7327 204.777 44.132C204.777 43.656 204.919 43.2197 205.202 42.823C205.485 42.4263 205.888 42.1147 206.409 41.888C206.93 41.65 207.525 41.531 208.194 41.531C209.225 41.531 210.058 41.7917 210.693 42.313C211.328 42.8343 211.668 43.5483 211.713 44.455H210.166C210.132 43.9677 209.934 43.5767 209.571 43.282C209.22 42.9873 208.744 42.84 208.143 42.84C207.588 42.84 207.146 42.959 206.817 43.197C206.488 43.435 206.324 43.7467 206.324 44.132C206.324 44.438 206.42 44.693 206.613 44.897C206.817 45.0897 207.066 45.2483 207.361 45.373C207.667 45.4863 208.086 45.6167 208.619 45.764C209.288 45.9453 209.832 46.1267 210.251 46.308C210.67 46.478 211.027 46.7387 211.322 47.09C211.628 47.4413 211.787 47.9003 211.798 48.467C211.798 48.977 211.656 49.436 211.373 49.844C211.09 50.252 210.687 50.575 210.166 50.813C209.656 51.0397 209.067 51.153 208.398 51.153ZM214.781 40.171C214.486 40.171 214.237 40.069 214.033 39.865C213.829 39.661 213.727 39.4117 213.727 39.117C213.727 38.8223 213.829 38.573 214.033 38.369C214.237 38.165 214.486 38.063 214.781 38.063C215.064 38.063 215.302 38.165 215.495 38.369C215.699 38.573 215.801 38.8223 215.801 39.117C215.801 39.4117 215.699 39.661 215.495 39.865C215.302 40.069 215.064 40.171 214.781 40.171ZM215.529 41.684V51H213.982V41.684H215.529ZM220.052 42.959V48.45C220.052 48.9033 220.149 49.2263 220.341 49.419C220.534 49.6003 220.868 49.691 221.344 49.691H222.483V51H221.089C220.228 51 219.582 50.8017 219.151 50.405C218.721 50.0083 218.505 49.3567 218.505 48.45V42.959H217.298V41.684H218.505V39.338H220.052V41.684H222.483V42.959H220.052ZM225.157 40.171C224.862 40.171 224.613 40.069 224.409 39.865C224.205 39.661 224.103 39.4117 224.103 39.117C224.103 38.8223 224.205 38.573 224.409 38.369C224.613 38.165 224.862 38.063 225.157 38.063C225.44 38.063 225.678 38.165 225.871 38.369C226.075 38.573 226.177 38.8223 226.177 39.117C226.177 39.4117 226.075 39.661 225.871 39.865C225.678 40.069 225.44 40.171 225.157 40.171ZM225.905 41.684V51H224.358V41.684H225.905ZM232.009 49.572L234.899 41.684H236.548L232.893 51H231.091L227.436 41.684H229.102L232.009 49.572ZM246.571 45.985C246.571 46.2797 246.554 46.5913 246.52 46.92H239.074C239.13 47.838 239.442 48.5577 240.009 49.079C240.587 49.589 241.284 49.844 242.1 49.844C242.768 49.844 243.324 49.691 243.766 49.385C244.219 49.0677 244.536 48.6483 244.718 48.127H246.384C246.134 49.0223 245.636 49.7533 244.888 50.32C244.14 50.8753 243.21 51.153 242.1 51.153C241.216 51.153 240.422 50.9547 239.72 50.558C239.028 50.1613 238.484 49.6003 238.088 48.875C237.691 48.1383 237.493 47.2883 237.493 46.325C237.493 45.3617 237.685 44.5173 238.071 43.792C238.456 43.0667 238.994 42.5113 239.686 42.126C240.388 41.7293 241.193 41.531 242.1 41.531C242.984 41.531 243.766 41.7237 244.446 42.109C245.126 42.4943 245.647 43.027 246.01 43.707C246.384 44.3757 246.571 45.135 246.571 45.985ZM244.973 45.662C244.973 45.0727 244.842 44.5683 244.582 44.149C244.321 43.7183 243.964 43.3953 243.511 43.18C243.069 42.9533 242.576 42.84 242.032 42.84C241.25 42.84 240.581 43.0893 240.026 43.588C239.482 44.0867 239.17 44.778 239.091 45.662H244.973ZM252.567 46.308C252.567 45.356 252.76 44.523 253.145 43.809C253.53 43.0837 254.057 42.5227 254.726 42.126C255.406 41.7293 256.165 41.531 257.004 41.531C257.729 41.531 258.404 41.701 259.027 42.041C259.65 42.3697 260.126 42.806 260.455 43.35V38.42H262.019V51H260.455V49.249C260.149 49.8043 259.696 50.2633 259.095 50.626C258.494 50.9773 257.792 51.153 256.987 51.153C256.16 51.153 255.406 50.949 254.726 50.541C254.057 50.133 253.53 49.5607 253.145 48.824C252.76 48.0873 252.567 47.2487 252.567 46.308ZM260.455 46.325C260.455 45.6223 260.313 45.0103 260.03 44.489C259.747 43.9677 259.361 43.571 258.874 43.299C258.398 43.0157 257.871 42.874 257.293 42.874C256.715 42.874 256.188 43.01 255.712 43.282C255.236 43.554 254.856 43.9507 254.573 44.472C254.29 44.9933 254.148 45.6053 254.148 46.308C254.148 47.022 254.29 47.6453 254.573 48.178C254.856 48.6993 255.236 49.1017 255.712 49.385C256.188 49.657 256.715 49.793 257.293 49.793C257.871 49.793 258.398 49.657 258.874 49.385C259.361 49.1017 259.747 48.6993 260.03 48.178C260.313 47.6453 260.455 47.0277 260.455 46.325ZM273.133 45.985C273.133 46.2797 273.116 46.5913 273.082 46.92H265.636C265.693 47.838 266.005 48.5577 266.571 49.079C267.149 49.589 267.846 49.844 268.662 49.844C269.331 49.844 269.886 49.691 270.328 49.385C270.782 49.0677 271.099 48.6483 271.28 48.127H272.946C272.697 49.0223 272.198 49.7533 271.45 50.32C270.702 50.8753 269.773 51.153 268.662 51.153C267.778 51.153 266.985 50.9547 266.282 50.558C265.591 50.1613 265.047 49.6003 264.65 48.875C264.254 48.1383 264.055 47.2883 264.055 46.325C264.055 45.3617 264.248 44.5173 264.633 43.792C265.019 43.0667 265.557 42.5113 266.248 42.126C266.951 41.7293 267.756 41.531 268.662 41.531C269.546 41.531 270.328 41.7237 271.008 42.109C271.688 42.4943 272.21 43.027 272.572 43.707C272.946 44.3757 273.133 45.135 273.133 45.985ZM271.535 45.662C271.535 45.0727 271.405 44.5683 271.144 44.149C270.884 43.7183 270.527 43.3953 270.073 43.18C269.631 42.9533 269.138 42.84 268.594 42.84C267.812 42.84 267.144 43.0893 266.588 43.588C266.044 44.0867 265.733 44.778 265.653 45.662H271.535ZM286.378 41.514C287.104 41.514 287.75 41.667 288.316 41.973C288.883 42.2677 289.331 42.7153 289.659 43.316C289.988 43.9167 290.152 44.6477 290.152 45.509V51H288.622V45.73C288.622 44.8007 288.39 44.0923 287.925 43.605C287.472 43.1063 286.854 42.857 286.072 42.857C285.268 42.857 284.627 43.1177 284.151 43.639C283.675 44.149 283.437 44.8913 283.437 45.866V51H281.907V45.73C281.907 44.8007 281.675 44.0923 281.21 43.605C280.757 43.1063 280.139 42.857 279.357 42.857C278.553 42.857 277.912 43.1177 277.436 43.639C276.96 44.149 276.722 44.8913 276.722 45.866V51H275.175V41.684H276.722V43.027C277.028 42.5397 277.436 42.1657 277.946 41.905C278.468 41.6443 279.04 41.514 279.663 41.514C280.445 41.514 281.137 41.6897 281.737 42.041C282.338 42.3923 282.786 42.908 283.08 43.588C283.341 42.9307 283.772 42.4207 284.372 42.058C284.973 41.6953 285.642 41.514 286.378 41.514ZM301.19 45.985C301.19 46.2797 301.173 46.5913 301.139 46.92H293.693C293.75 47.838 294.061 48.5577 294.628 49.079C295.206 49.589 295.903 49.844 296.719 49.844C297.388 49.844 297.943 49.691 298.385 49.385C298.838 49.0677 299.156 48.6483 299.337 48.127H301.003C300.754 49.0223 300.255 49.7533 299.507 50.32C298.759 50.8753 297.83 51.153 296.719 51.153C295.835 51.153 295.042 50.9547 294.339 50.558C293.648 50.1613 293.104 49.6003 292.707 48.875C292.31 48.1383 292.112 47.2883 292.112 46.325C292.112 45.3617 292.305 44.5173 292.69 43.792C293.075 43.0667 293.614 42.5113 294.305 42.126C295.008 41.7293 295.812 41.531 296.719 41.531C297.603 41.531 298.385 41.7237 299.065 42.109C299.745 42.4943 300.266 43.027 300.629 43.707C301.003 44.3757 301.19 45.135 301.19 45.985ZM299.592 45.662C299.592 45.0727 299.462 44.5683 299.201 44.149C298.94 43.7183 298.583 43.3953 298.13 43.18C297.688 42.9533 297.195 42.84 296.651 42.84C295.869 42.84 295.2 43.0893 294.645 43.588C294.101 44.0867 293.789 44.778 293.71 45.662H299.592ZM302.654 46.308C302.654 45.356 302.847 44.523 303.232 43.809C303.617 43.0837 304.144 42.5227 304.813 42.126C305.493 41.7293 306.247 41.531 307.074 41.531C307.89 41.531 308.598 41.7067 309.199 42.058C309.8 42.4093 310.247 42.8513 310.542 43.384V41.684H312.106V51H310.542V49.266C310.236 49.81 309.777 50.2633 309.165 50.626C308.564 50.9773 307.862 51.153 307.057 51.153C306.23 51.153 305.482 50.949 304.813 50.541C304.144 50.133 303.617 49.5607 303.232 48.824C302.847 48.0873 302.654 47.2487 302.654 46.308ZM310.542 46.325C310.542 45.6223 310.4 45.0103 310.117 44.489C309.834 43.9677 309.448 43.571 308.961 43.299C308.485 43.0157 307.958 42.874 307.38 42.874C306.802 42.874 306.275 43.01 305.799 43.282C305.323 43.554 304.943 43.9507 304.66 44.472C304.377 44.9933 304.235 45.6053 304.235 46.308C304.235 47.022 304.377 47.6453 304.66 48.178C304.943 48.6993 305.323 49.1017 305.799 49.385C306.275 49.657 306.802 49.793 307.38 49.793C307.958 49.793 308.485 49.657 308.961 49.385C309.448 49.1017 309.834 48.6993 310.117 48.178C310.4 47.6453 310.542 47.0277 310.542 46.325ZM319.259 41.514C320.392 41.514 321.31 41.8597 322.013 42.551C322.716 43.231 323.067 44.217 323.067 45.509V51H321.537V45.73C321.537 44.8007 321.305 44.0923 320.84 43.605C320.375 43.1063 319.741 42.857 318.936 42.857C318.12 42.857 317.468 43.112 316.981 43.622C316.505 44.132 316.267 44.8743 316.267 45.849V51H314.72V41.684H316.267V43.01C316.573 42.534 316.987 42.1657 317.508 41.905C318.041 41.6443 318.624 41.514 319.259 41.514ZM329.657 51.153C328.784 51.153 327.991 50.9547 327.277 50.558C326.574 50.1613 326.019 49.6003 325.611 48.875C325.214 48.1383 325.016 47.2883 325.016 46.325C325.016 45.373 325.22 44.5343 325.628 43.809C326.047 43.0723 326.614 42.5113 327.328 42.126C328.042 41.7293 328.841 41.531 329.725 41.531C330.609 41.531 331.408 41.7293 332.122 42.126C332.836 42.5113 333.397 43.0667 333.805 43.792C334.224 44.5173 334.434 45.3617 334.434 46.325C334.434 47.2883 334.219 48.1383 333.788 48.875C333.369 49.6003 332.796 50.1613 332.071 50.558C331.346 50.9547 330.541 51.153 329.657 51.153ZM329.657 49.793C330.212 49.793 330.734 49.6627 331.221 49.402C331.708 49.1413 332.099 48.7503 332.394 48.229C332.7 47.7077 332.853 47.073 332.853 46.325C332.853 45.577 332.706 44.9423 332.411 44.421C332.116 43.8997 331.731 43.5143 331.255 43.265C330.779 43.0043 330.263 42.874 329.708 42.874C329.141 42.874 328.62 43.0043 328.144 43.265C327.679 43.5143 327.305 43.8997 327.022 44.421C326.739 44.9423 326.597 45.577 326.597 46.325C326.597 47.0843 326.733 47.7247 327.005 48.246C327.288 48.7673 327.662 49.1583 328.127 49.419C328.592 49.6683 329.102 49.793 329.657 49.793ZM338.015 43.197C338.287 42.6643 338.673 42.2507 339.171 41.956C339.681 41.6613 340.299 41.514 341.024 41.514V43.112H340.616C338.882 43.112 338.015 44.0527 338.015 45.934V51H336.468V41.684H338.015V43.197ZM343.303 51.102C343.008 51.102 342.759 51 342.555 50.796C342.351 50.592 342.249 50.3427 342.249 50.048C342.249 49.7533 342.351 49.504 342.555 49.3C342.759 49.096 343.008 48.994 343.303 48.994C343.586 48.994 343.824 49.096 344.017 49.3C344.221 49.504 344.323 49.7533 344.323 50.048C344.323 50.3427 344.221 50.592 344.017 50.796C343.824 51 343.586 51.102 343.303 51.102Z" fill="#242321"/>
<rect x="0.355469" y="120" width="64" height="64" rx="32" fill="black"/>
<rect width="14.2701" height="14.2701" transform="matrix(0.5 -0.866025 1 2.20305e-08 10.9504 170.651)" fill="url(#paint0_linear_95_284)"/>
<rect width="14.2701" height="14.2701" transform="matrix(0.5 0.866025 1 -2.20305e-08 10.9504 145.934)" fill="url(#paint1_linear_95_284)"/>
<rect width="14.2701" height="14.2701" transform="matrix(0.5 -0.866025 1 2.20305e-08 10.9504 145.934)" fill="url(#paint2_linear_95_284)"/>
<rect width="14.2701" height="14.2701" transform="matrix(0.5 -0.866025 1 2.20305e-08 21.653 170.651)" fill="url(#paint3_linear_95_284)"/>
<rect width="14.2701" height="14.2701" transform="matrix(0.5 0.866025 1 -2.20305e-08 21.653 145.934)" fill="url(#paint4_linear_95_284)"/>
<rect width="14.2701" height="14.2701" transform="matrix(0.5 -0.866025 1 2.20305e-08 21.653 145.934)" fill="url(#paint5_linear_95_284)"/>
<rect width="14.2701" height="14.2701" transform="matrix(0.5 -0.866025 1 2.20305e-08 32.3555 170.651)" fill="url(#paint6_linear_95_284)"/>
<rect width="14.2701" height="14.2701" transform="matrix(0.5 0.866025 1 -2.20305e-08 32.3555 145.934)" fill="url(#paint7_linear_95_284)"/>
<rect width="14.2701" height="14.2701" transform="matrix(0.5 -0.866025 1 2.20305e-08 32.3555 145.934)" fill="url(#paint8_linear_95_284)"/>
<path d="M90.4355 141.14C89.5021 141.14 88.6621 140.98 87.9155 140.66C87.1688 140.327 86.5821 139.86 86.1555 139.26C85.7288 138.66 85.5155 137.96 85.5155 137.16H87.9555C88.0088 137.76 88.2421 138.253 88.6555 138.64C89.0821 139.027 89.6755 139.22 90.4355 139.22C91.2221 139.22 91.8355 139.033 92.2755 138.66C92.7155 138.273 92.9355 137.78 92.9355 137.18C92.9355 136.713 92.7955 136.333 92.5155 136.04C92.2488 135.747 91.9088 135.52 91.4955 135.36C91.0955 135.2 90.5355 135.027 89.8155 134.84C88.9088 134.6 88.1688 134.36 87.5955 134.12C87.0355 133.867 86.5555 133.48 86.1555 132.96C85.7555 132.44 85.5555 131.747 85.5555 130.88C85.5555 130.08 85.7555 129.38 86.1555 128.78C86.5555 128.18 87.1155 127.72 87.8355 127.4C88.5555 127.08 89.3888 126.92 90.3355 126.92C91.6821 126.92 92.7821 127.26 93.6355 127.94C94.5021 128.607 94.9821 129.527 95.0755 130.7H92.5555C92.5155 130.193 92.2755 129.76 91.8355 129.4C91.3955 129.04 90.8155 128.86 90.0955 128.86C89.4421 128.86 88.9088 129.027 88.4955 129.36C88.0821 129.693 87.8755 130.173 87.8755 130.8C87.8755 131.227 88.0021 131.58 88.2555 131.86C88.5221 132.127 88.8555 132.34 89.2555 132.5C89.6555 132.66 90.2021 132.833 90.8955 133.02C91.8155 133.273 92.5621 133.527 93.1355 133.78C93.7221 134.033 94.2155 134.427 94.6155 134.96C95.0288 135.48 95.2355 136.18 95.2355 137.06C95.2355 137.767 95.0421 138.433 94.6555 139.06C94.2821 139.687 93.7288 140.193 92.9955 140.58C92.2755 140.953 91.4221 141.14 90.4355 141.14ZM97.1658 135.48C97.1658 134.347 97.3924 133.353 97.8458 132.5C98.3124 131.633 98.9524 130.967 99.7658 130.5C100.579 130.033 101.512 129.8 102.566 129.8C103.899 129.8 104.999 130.12 105.866 130.76C106.746 131.387 107.339 132.287 107.646 133.46H105.186C104.986 132.913 104.666 132.487 104.226 132.18C103.786 131.873 103.232 131.72 102.566 131.72C101.632 131.72 100.886 132.053 100.326 132.72C99.7791 133.373 99.5058 134.293 99.5058 135.48C99.5058 136.667 99.7791 137.593 100.326 138.26C100.886 138.927 101.632 139.26 102.566 139.26C103.886 139.26 104.759 138.68 105.186 137.52H107.646C107.326 138.64 106.726 139.533 105.846 140.2C104.966 140.853 103.872 141.18 102.566 141.18C101.512 141.18 100.579 140.947 99.7658 140.48C98.9524 140 98.3124 139.333 97.8458 138.48C97.3924 137.613 97.1658 136.613 97.1658 135.48ZM114.698 141.18C113.658 141.18 112.718 140.947 111.878 140.48C111.038 140 110.378 139.333 109.898 138.48C109.418 137.613 109.178 136.613 109.178 135.48C109.178 134.36 109.425 133.367 109.918 132.5C110.411 131.633 111.085 130.967 111.938 130.5C112.791 130.033 113.745 129.8 114.798 129.8C115.851 129.8 116.805 130.033 117.658 130.5C118.511 130.967 119.185 131.633 119.678 132.5C120.171 133.367 120.418 134.36 120.418 135.48C120.418 136.6 120.165 137.593 119.658 138.46C119.151 139.327 118.458 140 117.578 140.48C116.711 140.947 115.751 141.18 114.698 141.18ZM114.698 139.2C115.285 139.2 115.831 139.06 116.338 138.78C116.858 138.5 117.278 138.08 117.598 137.52C117.918 136.96 118.078 136.28 118.078 135.48C118.078 134.68 117.925 134.007 117.618 133.46C117.311 132.9 116.905 132.48 116.398 132.2C115.891 131.92 115.345 131.78 114.758 131.78C114.171 131.78 113.625 131.92 113.118 132.2C112.625 132.48 112.231 132.9 111.938 133.46C111.645 134.007 111.498 134.68 111.498 135.48C111.498 136.667 111.798 137.587 112.398 138.24C113.011 138.88 113.778 139.2 114.698 139.2ZM125.332 131.84V137.94C125.332 138.353 125.425 138.653 125.612 138.84C125.812 139.013 126.145 139.1 126.612 139.1H128.012V141H126.212C125.185 141 124.399 140.76 123.852 140.28C123.305 139.8 123.032 139.02 123.032 137.94V131.84H121.732V129.98H123.032V127.24H125.332V129.98H128.012V131.84H125.332ZM132.773 131.84V137.94C132.773 138.353 132.867 138.653 133.053 138.84C133.253 139.013 133.587 139.1 134.053 139.1H135.453V141H133.653C132.627 141 131.84 140.76 131.293 140.28C130.747 139.8 130.473 139.02 130.473 137.94V131.84H129.173V129.98H130.473V127.24H132.773V129.98H135.453V131.84H132.773ZM147.33 141.14C146.397 141.14 145.557 140.98 144.81 140.66C144.063 140.327 143.477 139.86 143.05 139.26C142.623 138.66 142.41 137.96 142.41 137.16H144.85C144.903 137.76 145.137 138.253 145.55 138.64C145.977 139.027 146.57 139.22 147.33 139.22C148.117 139.22 148.73 139.033 149.17 138.66C149.61 138.273 149.83 137.78 149.83 137.18C149.83 136.713 149.69 136.333 149.41 136.04C149.143 135.747 148.803 135.52 148.39 135.36C147.99 135.2 147.43 135.027 146.71 134.84C145.803 134.6 145.063 134.36 144.49 134.12C143.93 133.867 143.45 133.48 143.05 132.96C142.65 132.44 142.45 131.747 142.45 130.88C142.45 130.08 142.65 129.38 143.05 128.78C143.45 128.18 144.01 127.72 144.73 127.4C145.45 127.08 146.283 126.92 147.23 126.92C148.577 126.92 149.677 127.26 150.53 127.94C151.397 128.607 151.877 129.527 151.97 130.7H149.45C149.41 130.193 149.17 129.76 148.73 129.4C148.29 129.04 147.71 128.86 146.99 128.86C146.337 128.86 145.803 129.027 145.39 129.36C144.977 129.693 144.77 130.173 144.77 130.8C144.77 131.227 144.897 131.58 145.15 131.86C145.417 132.127 145.75 132.34 146.15 132.5C146.55 132.66 147.097 132.833 147.79 133.02C148.71 133.273 149.457 133.527 150.03 133.78C150.617 134.033 151.11 134.427 151.51 134.96C151.923 135.48 152.13 136.18 152.13 137.06C152.13 137.767 151.937 138.433 151.55 139.06C151.177 139.687 150.623 140.193 149.89 140.58C149.17 140.953 148.317 141.14 147.33 141.14ZM157.48 131.84V137.94C157.48 138.353 157.574 138.653 157.76 138.84C157.96 139.013 158.294 139.1 158.76 139.1H160.16V141H158.36C157.334 141 156.547 140.76 156 140.28C155.454 139.8 155.18 139.02 155.18 137.94V131.84H153.88V129.98H155.18V127.24H157.48V129.98H160.16V131.84H157.48ZM172.362 135.22C172.362 135.633 172.335 136.007 172.282 136.34H163.862C163.928 137.22 164.255 137.927 164.842 138.46C165.428 138.993 166.148 139.26 167.002 139.26C168.228 139.26 169.095 138.747 169.602 137.72H172.062C171.728 138.733 171.122 139.567 170.242 140.22C169.375 140.86 168.295 141.18 167.002 141.18C165.948 141.18 165.002 140.947 164.162 140.48C163.335 140 162.682 139.333 162.202 138.48C161.735 137.613 161.502 136.613 161.502 135.48C161.502 134.347 161.728 133.353 162.182 132.5C162.648 131.633 163.295 130.967 164.122 130.5C164.962 130.033 165.922 129.8 167.002 129.8C168.042 129.8 168.968 130.027 169.782 130.48C170.595 130.933 171.228 131.573 171.682 132.4C172.135 133.213 172.362 134.153 172.362 135.22ZM169.982 134.5C169.968 133.66 169.668 132.987 169.082 132.48C168.495 131.973 167.768 131.72 166.902 131.72C166.115 131.72 165.442 131.973 164.882 132.48C164.322 132.973 163.988 133.647 163.882 134.5H169.982ZM178.865 138.96L181.985 129.98H184.405L180.205 141H177.485L173.305 129.98H175.745L178.865 138.96ZM196.229 135.22C196.229 135.633 196.202 136.007 196.149 136.34H187.729C187.796 137.22 188.122 137.927 188.709 138.46C189.296 138.993 190.016 139.26 190.869 139.26C192.096 139.26 192.962 138.747 193.469 137.72H195.929C195.596 138.733 194.989 139.567 194.109 140.22C193.242 140.86 192.162 141.18 190.869 141.18C189.816 141.18 188.869 140.947 188.029 140.48C187.202 140 186.549 139.333 186.069 138.48C185.602 137.613 185.369 136.613 185.369 135.48C185.369 134.347 185.596 133.353 186.049 132.5C186.516 131.633 187.162 130.967 187.989 130.5C188.829 130.033 189.789 129.8 190.869 129.8C191.909 129.8 192.836 130.027 193.649 130.48C194.462 130.933 195.096 131.573 195.549 132.4C196.002 133.213 196.229 134.153 196.229 135.22ZM193.849 134.5C193.836 133.66 193.536 132.987 192.949 132.48C192.362 131.973 191.636 131.72 190.769 131.72C189.982 131.72 189.309 131.973 188.749 132.48C188.189 132.973 187.856 133.647 187.749 134.5H193.849ZM204.033 129.8C204.899 129.8 205.673 129.98 206.353 130.34C207.046 130.7 207.586 131.233 207.973 131.94C208.359 132.647 208.553 133.5 208.553 134.5V141H206.293V134.84C206.293 133.853 206.046 133.1 205.553 132.58C205.059 132.047 204.386 131.78 203.533 131.78C202.679 131.78 201.999 132.047 201.493 132.58C200.999 133.1 200.753 133.853 200.753 134.84V141H198.473V129.98H200.753V131.24C201.126 130.787 201.599 130.433 202.173 130.18C202.759 129.927 203.379 129.8 204.033 129.8ZM215.461 141.18C214.594 141.18 213.814 141.027 213.121 140.72C212.441 140.4 211.901 139.973 211.501 139.44C211.101 138.893 210.888 138.287 210.861 137.62H213.221C213.261 138.087 213.481 138.48 213.881 138.8C214.294 139.107 214.808 139.26 215.421 139.26C216.061 139.26 216.554 139.14 216.901 138.9C217.261 138.647 217.441 138.327 217.441 137.94C217.441 137.527 217.241 137.22 216.841 137.02C216.454 136.82 215.834 136.6 214.981 136.36C214.154 136.133 213.481 135.913 212.961 135.7C212.441 135.487 211.988 135.16 211.601 134.72C211.228 134.28 211.041 133.7 211.041 132.98C211.041 132.393 211.214 131.86 211.561 131.38C211.908 130.887 212.401 130.5 213.041 130.22C213.694 129.94 214.441 129.8 215.281 129.8C216.534 129.8 217.541 130.12 218.301 130.76C219.074 131.387 219.488 132.247 219.541 133.34H217.261C217.221 132.847 217.021 132.453 216.661 132.16C216.301 131.867 215.814 131.72 215.201 131.72C214.601 131.72 214.141 131.833 213.821 132.06C213.501 132.287 213.341 132.587 213.341 132.96C213.341 133.253 213.448 133.5 213.661 133.7C213.874 133.9 214.134 134.06 214.441 134.18C214.748 134.287 215.201 134.427 215.801 134.6C216.601 134.813 217.254 135.033 217.761 135.26C218.281 135.473 218.728 135.793 219.101 136.22C219.474 136.647 219.668 137.213 219.681 137.92C219.681 138.547 219.508 139.107 219.161 139.6C218.814 140.093 218.321 140.48 217.681 140.76C217.054 141.04 216.314 141.18 215.461 141.18ZM226.925 141.18C225.885 141.18 224.945 140.947 224.105 140.48C223.265 140 222.605 139.333 222.125 138.48C221.645 137.613 221.405 136.613 221.405 135.48C221.405 134.36 221.651 133.367 222.145 132.5C222.638 131.633 223.311 130.967 224.165 130.5C225.018 130.033 225.971 129.8 227.025 129.8C228.078 129.8 229.031 130.033 229.885 130.5C230.738 130.967 231.411 131.633 231.905 132.5C232.398 133.367 232.645 134.36 232.645 135.48C232.645 136.6 232.391 137.593 231.885 138.46C231.378 139.327 230.685 140 229.805 140.48C228.938 140.947 227.978 141.18 226.925 141.18ZM226.925 139.2C227.511 139.2 228.058 139.06 228.565 138.78C229.085 138.5 229.505 138.08 229.825 137.52C230.145 136.96 230.305 136.28 230.305 135.48C230.305 134.68 230.151 134.007 229.845 133.46C229.538 132.9 229.131 132.48 228.625 132.2C228.118 131.92 227.571 131.78 226.985 131.78C226.398 131.78 225.851 131.92 225.345 132.2C224.851 132.48 224.458 132.9 224.165 133.46C223.871 134.007 223.725 134.68 223.725 135.48C223.725 136.667 224.025 137.587 224.625 138.24C225.238 138.88 226.005 139.2 226.925 139.2ZM240.458 129.8C241.325 129.8 242.098 129.98 242.778 130.34C243.472 130.7 244.012 131.233 244.398 131.94C244.785 132.647 244.978 133.5 244.978 134.5V141H242.718V134.84C242.718 133.853 242.472 133.1 241.978 132.58C241.485 132.047 240.812 131.78 239.958 131.78C239.105 131.78 238.425 132.047 237.918 132.58C237.425 133.1 237.178 133.853 237.178 134.84V141H234.898V129.98H237.178V131.24C237.552 130.787 238.025 130.433 238.598 130.18C239.185 129.927 239.805 129.8 240.458 129.8Z" fill="#242321"/>
<path opacity="0.8" d="M86.6795 161.242V167.416C86.6795 168.284 86.8895 168.928 87.3095 169.348C87.7388 169.768 88.3315 169.978 89.0875 169.978C89.8341 169.978 90.4175 169.768 90.8375 169.348C91.2668 168.928 91.4815 168.284 91.4815 167.416V161.242H92.7555V167.402C92.7555 168.214 92.5921 168.9 92.2655 169.46C91.9388 170.011 91.4955 170.421 90.9355 170.692C90.3848 170.963 89.7641 171.098 89.0735 171.098C88.3828 171.098 87.7575 170.963 87.1975 170.692C86.6468 170.421 86.2081 170.011 85.8815 169.46C85.5641 168.9 85.4055 168.214 85.4055 167.402V161.242H86.6795ZM96.1547 160.64V171H94.8807V160.64H96.1547ZM99.88 164.378V168.9C99.88 169.273 99.9594 169.539 100.118 169.698C100.277 169.847 100.552 169.922 100.944 169.922H101.882V171H100.734C100.025 171 99.4927 170.837 99.138 170.51C98.7834 170.183 98.606 169.647 98.606 168.9V164.378H97.612V163.328H98.606V161.396H99.88V163.328H101.882V164.378H99.88ZM104.7 164.574C104.924 164.135 105.241 163.795 105.652 163.552C106.072 163.309 106.58 163.188 107.178 163.188V164.504H106.842C105.414 164.504 104.7 165.279 104.7 166.828V171H103.426V163.328H104.7V164.574ZM108.172 167.136C108.172 166.352 108.331 165.666 108.648 165.078C108.966 164.481 109.4 164.019 109.95 163.692C110.51 163.365 111.131 163.202 111.812 163.202C112.484 163.202 113.068 163.347 113.562 163.636C114.057 163.925 114.426 164.289 114.668 164.728V163.328H115.956V171H114.668V169.572C114.416 170.02 114.038 170.393 113.534 170.692C113.04 170.981 112.461 171.126 111.798 171.126C111.117 171.126 110.501 170.958 109.95 170.622C109.4 170.286 108.966 169.815 108.648 169.208C108.331 168.601 108.172 167.911 108.172 167.136ZM114.668 167.15C114.668 166.571 114.552 166.067 114.318 165.638C114.085 165.209 113.768 164.882 113.366 164.658C112.974 164.425 112.54 164.308 112.064 164.308C111.588 164.308 111.154 164.42 110.762 164.644C110.37 164.868 110.058 165.195 109.824 165.624C109.591 166.053 109.474 166.557 109.474 167.136C109.474 167.724 109.591 168.237 109.824 168.676C110.058 169.105 110.37 169.437 110.762 169.67C111.154 169.894 111.588 170.006 112.064 170.006C112.54 170.006 112.974 169.894 113.366 169.67C113.768 169.437 114.085 169.105 114.318 168.676C114.552 168.237 114.668 167.729 114.668 167.15ZM128.366 164.098C128.366 164.91 128.086 165.587 127.526 166.128C126.975 166.66 126.13 166.926 124.992 166.926H123.116V171H121.842V161.242H124.992C126.093 161.242 126.928 161.508 127.498 162.04C128.076 162.572 128.366 163.258 128.366 164.098ZM124.992 165.876C125.701 165.876 126.224 165.722 126.56 165.414C126.896 165.106 127.064 164.667 127.064 164.098C127.064 162.894 126.373 162.292 124.992 162.292H123.116V165.876H124.992ZM135.087 171L132.763 167.01H131.223V171H129.949V161.242H133.099C133.836 161.242 134.457 161.368 134.961 161.62C135.474 161.872 135.857 162.213 136.109 162.642C136.361 163.071 136.487 163.561 136.487 164.112C136.487 164.784 136.291 165.377 135.899 165.89C135.516 166.403 134.938 166.744 134.163 166.912L136.613 171H135.087ZM131.223 165.988H133.099C133.79 165.988 134.308 165.82 134.653 165.484C134.998 165.139 135.171 164.681 135.171 164.112C135.171 163.533 134.998 163.085 134.653 162.768C134.317 162.451 133.799 162.292 133.099 162.292H131.223V165.988ZM142.891 171.098C141.985 171.098 141.159 170.888 140.413 170.468C139.666 170.039 139.073 169.446 138.635 168.69C138.205 167.925 137.991 167.066 137.991 166.114C137.991 165.162 138.205 164.308 138.635 163.552C139.073 162.787 139.666 162.194 140.413 161.774C141.159 161.345 141.985 161.13 142.891 161.13C143.805 161.13 144.636 161.345 145.383 161.774C146.129 162.194 146.717 162.782 147.147 163.538C147.576 164.294 147.791 165.153 147.791 166.114C147.791 167.075 147.576 167.934 147.147 168.69C146.717 169.446 146.129 170.039 145.383 170.468C144.636 170.888 143.805 171.098 142.891 171.098ZM142.891 169.992C143.572 169.992 144.183 169.833 144.725 169.516C145.275 169.199 145.705 168.746 146.013 168.158C146.33 167.57 146.489 166.889 146.489 166.114C146.489 165.33 146.33 164.649 146.013 164.07C145.705 163.482 145.28 163.029 144.739 162.712C144.197 162.395 143.581 162.236 142.891 162.236C142.2 162.236 141.584 162.395 141.043 162.712C140.501 163.029 140.072 163.482 139.755 164.07C139.447 164.649 139.293 165.33 139.293 166.114C139.293 166.889 139.447 167.57 139.755 168.158C140.072 168.746 140.501 169.199 141.043 169.516C141.593 169.833 142.209 169.992 142.891 169.992ZM154.479 161.242V171H153.205V161.242H154.479ZM160.388 163.188C161.322 163.188 162.078 163.473 162.656 164.042C163.235 164.602 163.524 165.414 163.524 166.478V171H162.264V166.66C162.264 165.895 162.073 165.311 161.69 164.91C161.308 164.499 160.785 164.294 160.122 164.294C159.45 164.294 158.914 164.504 158.512 164.924C158.12 165.344 157.924 165.955 157.924 166.758V171H156.65V163.328H157.924V164.42C158.176 164.028 158.517 163.725 158.946 163.51C159.385 163.295 159.866 163.188 160.388 163.188ZM167.159 164.378V168.9C167.159 169.273 167.239 169.539 167.397 169.698C167.556 169.847 167.831 169.922 168.223 169.922H169.161V171H168.013C167.304 171 166.772 170.837 166.417 170.51C166.063 170.183 165.885 169.647 165.885 168.9V164.378H164.891V163.328H165.885V161.396H167.159V163.328H169.161V164.378H167.159ZM177.705 166.87C177.705 167.113 177.691 167.369 177.663 167.64H171.531C171.578 168.396 171.834 168.989 172.301 169.418C172.777 169.838 173.351 170.048 174.023 170.048C174.574 170.048 175.031 169.922 175.395 169.67C175.768 169.409 176.03 169.063 176.179 168.634H177.551C177.346 169.371 176.935 169.973 176.319 170.44C175.703 170.897 174.938 171.126 174.023 171.126C173.295 171.126 172.642 170.963 172.063 170.636C171.494 170.309 171.046 169.847 170.719 169.25C170.392 168.643 170.229 167.943 170.229 167.15C170.229 166.357 170.388 165.661 170.705 165.064C171.022 164.467 171.466 164.009 172.035 163.692C172.614 163.365 173.276 163.202 174.023 163.202C174.751 163.202 175.395 163.361 175.955 163.678C176.515 163.995 176.944 164.434 177.243 164.994C177.551 165.545 177.705 166.17 177.705 166.87ZM176.389 166.604C176.389 166.119 176.282 165.703 176.067 165.358C175.852 165.003 175.558 164.737 175.185 164.56C174.821 164.373 174.415 164.28 173.967 164.28C173.323 164.28 172.772 164.485 172.315 164.896C171.867 165.307 171.61 165.876 171.545 166.604H176.389ZM180.661 164.574C180.885 164.135 181.202 163.795 181.613 163.552C182.033 163.309 182.541 163.188 183.139 163.188V164.504H182.803C181.375 164.504 180.661 165.279 180.661 166.828V171H179.387V163.328H180.661V164.574ZM188.347 163.188C189.281 163.188 190.037 163.473 190.615 164.042C191.194 164.602 191.483 165.414 191.483 166.478V171H190.223V166.66C190.223 165.895 190.032 165.311 189.649 164.91C189.267 164.499 188.744 164.294 188.081 164.294C187.409 164.294 186.873 164.504 186.471 164.924C186.079 165.344 185.883 165.955 185.883 166.758V171H184.609V163.328H185.883V164.42C186.135 164.028 186.476 163.725 186.905 163.51C187.344 163.295 187.825 163.188 188.347 163.188ZM193.088 167.136C193.088 166.352 193.247 165.666 193.564 165.078C193.882 164.481 194.316 164.019 194.866 163.692C195.426 163.365 196.047 163.202 196.728 163.202C197.4 163.202 197.984 163.347 198.478 163.636C198.973 163.925 199.342 164.289 199.584 164.728V163.328H200.872V171H199.584V169.572C199.332 170.02 198.954 170.393 198.45 170.692C197.956 170.981 197.377 171.126 196.714 171.126C196.033 171.126 195.417 170.958 194.866 170.622C194.316 170.286 193.882 169.815 193.564 169.208C193.247 168.601 193.088 167.911 193.088 167.136ZM199.584 167.15C199.584 166.571 199.468 166.067 199.234 165.638C199.001 165.209 198.684 164.882 198.282 164.658C197.89 164.425 197.456 164.308 196.98 164.308C196.504 164.308 196.07 164.42 195.678 164.644C195.286 164.868 194.974 165.195 194.74 165.624C194.507 166.053 194.39 166.557 194.39 167.136C194.39 167.724 194.507 168.237 194.74 168.676C194.974 169.105 195.286 169.437 195.678 169.67C196.07 169.894 196.504 170.006 196.98 170.006C197.456 170.006 197.89 169.894 198.282 169.67C198.684 169.437 199.001 169.105 199.234 168.676C199.468 168.237 199.584 167.729 199.584 167.15ZM204.579 164.378V168.9C204.579 169.273 204.659 169.539 204.817 169.698C204.976 169.847 205.251 169.922 205.643 169.922H206.581V171H205.433C204.724 171 204.192 170.837 203.837 170.51C203.483 170.183 203.305 169.647 203.305 168.9V164.378H202.311V163.328H203.305V161.396H204.579V163.328H206.581V164.378H204.579ZM208.783 162.082C208.54 162.082 208.335 161.998 208.167 161.83C207.999 161.662 207.915 161.457 207.915 161.214C207.915 160.971 207.999 160.766 208.167 160.598C208.335 160.43 208.54 160.346 208.783 160.346C209.016 160.346 209.212 160.43 209.371 160.598C209.539 160.766 209.623 160.971 209.623 161.214C209.623 161.457 209.539 161.662 209.371 161.83C209.212 161.998 209.016 162.082 208.783 162.082ZM209.399 163.328V171H208.125V163.328H209.399ZM214.916 171.126C214.198 171.126 213.544 170.963 212.956 170.636C212.378 170.309 211.92 169.847 211.584 169.25C211.258 168.643 211.094 167.943 211.094 167.15C211.094 166.366 211.262 165.675 211.598 165.078C211.944 164.471 212.41 164.009 212.998 163.692C213.586 163.365 214.244 163.202 214.972 163.202C215.7 163.202 216.358 163.365 216.946 163.692C217.534 164.009 217.996 164.467 218.332 165.064C218.678 165.661 218.85 166.357 218.85 167.15C218.85 167.943 218.673 168.643 218.318 169.25C217.973 169.847 217.502 170.309 216.904 170.636C216.307 170.963 215.644 171.126 214.916 171.126ZM214.916 170.006C215.374 170.006 215.803 169.899 216.204 169.684C216.606 169.469 216.928 169.147 217.17 168.718C217.422 168.289 217.548 167.766 217.548 167.15C217.548 166.534 217.427 166.011 217.184 165.582C216.942 165.153 216.624 164.835 216.232 164.63C215.84 164.415 215.416 164.308 214.958 164.308C214.492 164.308 214.062 164.415 213.67 164.63C213.288 164.835 212.98 165.153 212.746 165.582C212.513 166.011 212.396 166.534 212.396 167.15C212.396 167.775 212.508 168.303 212.732 168.732C212.966 169.161 213.274 169.483 213.656 169.698C214.039 169.903 214.459 170.006 214.916 170.006ZM224.263 163.188C225.197 163.188 225.953 163.473 226.531 164.042C227.11 164.602 227.399 165.414 227.399 166.478V171H226.139V166.66C226.139 165.895 225.948 165.311 225.565 164.91C225.183 164.499 224.66 164.294 223.997 164.294C223.325 164.294 222.789 164.504 222.387 164.924C221.995 165.344 221.799 165.955 221.799 166.758V171H220.525V163.328H221.799V164.42C222.051 164.028 222.392 163.725 222.821 163.51C223.26 163.295 223.741 163.188 224.263 163.188ZM229.004 167.136C229.004 166.352 229.163 165.666 229.48 165.078C229.798 164.481 230.232 164.019 230.782 163.692C231.342 163.365 231.963 163.202 232.644 163.202C233.316 163.202 233.9 163.347 234.394 163.636C234.889 163.925 235.258 164.289 235.5 164.728V163.328H236.788V171H235.5V169.572C235.248 170.02 234.87 170.393 234.366 170.692C233.872 170.981 233.293 171.126 232.63 171.126C231.949 171.126 231.333 170.958 230.782 170.622C230.232 170.286 229.798 169.815 229.48 169.208C229.163 168.601 229.004 167.911 229.004 167.136ZM235.5 167.15C235.5 166.571 235.384 166.067 235.15 165.638C234.917 165.209 234.6 164.882 234.198 164.658C233.806 164.425 233.372 164.308 232.896 164.308C232.42 164.308 231.986 164.42 231.594 164.644C231.202 164.868 230.89 165.195 230.656 165.624C230.423 166.053 230.306 166.557 230.306 167.136C230.306 167.724 230.423 168.237 230.656 168.676C230.89 169.105 231.202 169.437 231.594 169.67C231.986 169.894 232.42 170.006 232.896 170.006C233.372 170.006 233.806 169.894 234.198 169.67C234.6 169.437 234.917 169.105 235.15 168.676C235.384 168.237 235.5 167.729 235.5 167.15ZM240.215 160.64V171H238.941V160.64H240.215Z" fill="#242321"/>
<defs>
<linearGradient id="paint0_linear_95_284" x1="7.13503" y1="0" x2="7.13503" y2="14.2701" gradientUnits="userSpaceOnUse">
<stop stop-color="#EB1700"/>
<stop offset="1" stop-color="#EB1700" stop-opacity="0"/>
</linearGradient>
<linearGradient id="paint1_linear_95_284" x1="7.13503" y1="0" x2="7.13503" y2="14.2701" gradientUnits="userSpaceOnUse">
<stop stop-color="#EB1700"/>
<stop offset="1" stop-color="#EB1700" stop-opacity="0"/>
</linearGradient>
<linearGradient id="paint2_linear_95_284" x1="7.13503" y1="0" x2="7.13503" y2="14.2701" gradientUnits="userSpaceOnUse">
<stop stop-color="#EB1700"/>
<stop offset="1" stop-color="#EB1700" stop-opacity="0"/>
</linearGradient>
<linearGradient id="paint3_linear_95_284" x1="7.13503" y1="0" x2="7.13503" y2="14.2701" gradientUnits="userSpaceOnUse">
<stop stop-color="#EB1700"/>
<stop offset="1" stop-color="#EB1700" stop-opacity="0"/>
</linearGradient>
<linearGradient id="paint4_linear_95_284" x1="7.13503" y1="0" x2="7.13503" y2="14.2701" gradientUnits="userSpaceOnUse">
<stop stop-color="#EB1700"/>
<stop offset="1" stop-color="#EB1700" stop-opacity="0"/>
</linearGradient>
<linearGradient id="paint5_linear_95_284" x1="7.13503" y1="0" x2="7.13503" y2="14.2701" gradientUnits="userSpaceOnUse">
<stop stop-color="#EB1700"/>
<stop offset="1" stop-color="#EB1700" stop-opacity="0"/>
</linearGradient>
<linearGradient id="paint6_linear_95_284" x1="7.13503" y1="0" x2="7.13503" y2="14.2701" gradientUnits="userSpaceOnUse">
<stop stop-color="#EB1700"/>
<stop offset="1" stop-color="#EB1700" stop-opacity="0"/>
</linearGradient>
<linearGradient id="paint7_linear_95_284" x1="7.13503" y1="0" x2="7.13503" y2="14.2701" gradientUnits="userSpaceOnUse">
<stop stop-color="#EB1700"/>
<stop offset="1" stop-color="#EB1700" stop-opacity="0"/>
</linearGradient>
<linearGradient id="paint8_linear_95_284" x1="7.13503" y1="0" x2="7.13503" y2="14.2701" gradientUnits="userSpaceOnUse">
<stop stop-color="#EB1700"/>
<stop offset="1" stop-color="#EB1700" stop-opacity="0"/>
</linearGradient>
</defs>
</svg>
