<svg width="351" height="43" viewBox="0 0 351 43" fill="none" xmlns="http://www.w3.org/2000/svg">
<path d="M0 21.926C0 10.328 9.40202 0.926025 21 0.926025H330C341.598 0.926025 351 10.328 351 21.926C351 33.524 341.598 42.926 330 42.926H21C9.40202 42.926 0 33.524 0 21.926Z" fill="#FFEDEB"/>
<path d="M92.748 20.006C92.46 19.4514 92.06 19.0354 91.548 18.758C91.036 18.47 90.444 18.326 89.772 18.326C89.036 18.326 88.38 18.4914 87.804 18.822C87.228 19.1527 86.7747 19.622 86.444 20.23C86.124 20.838 85.964 21.542 85.964 22.342C85.964 23.142 86.124 23.8514 86.444 24.47C86.7747 25.078 87.228 25.5474 87.804 25.878C88.38 26.2087 89.036 26.374 89.772 26.374C90.764 26.374 91.5693 26.0967 92.188 25.542C92.8067 24.9874 93.1853 24.2354 93.324 23.286H89.148V21.83H95.276V23.254C95.1587 24.118 94.8493 24.9127 94.348 25.638C93.8573 26.3634 93.212 26.9447 92.412 27.382C91.6227 27.8087 90.7427 28.022 89.772 28.022C88.7267 28.022 87.772 27.782 86.908 27.302C86.044 26.8114 85.356 26.134 84.844 25.27C84.3427 24.406 84.092 23.43 84.092 22.342C84.092 21.254 84.3427 20.278 84.844 19.414C85.356 18.55 86.044 17.878 86.908 17.398C87.7827 16.9074 88.7373 16.662 89.772 16.662C90.956 16.662 92.0067 16.9554 92.924 17.542C93.852 18.118 94.524 18.9394 94.94 20.006H92.748ZM105.155 23.302C105.155 23.6327 105.134 23.9314 105.091 24.198H98.355C98.4083 24.902 98.6697 25.4674 99.139 25.894C99.6083 26.3207 100.184 26.534 100.867 26.534C101.848 26.534 102.542 26.1234 102.947 25.302H104.915C104.648 26.1127 104.163 26.7794 103.459 27.302C102.766 27.814 101.902 28.07 100.867 28.07C100.024 28.07 99.267 27.8834 98.595 27.51C97.9337 27.126 97.411 26.5927 97.027 25.91C96.6537 25.2167 96.467 24.4167 96.467 23.51C96.467 22.6034 96.6483 21.8087 97.011 21.126C97.3843 20.4327 97.9017 19.8994 98.563 19.526C99.235 19.1527 100.003 18.966 100.867 18.966C101.699 18.966 102.44 19.1474 103.091 19.51C103.742 19.8727 104.248 20.3847 104.611 21.046C104.974 21.6967 105.155 22.4487 105.155 23.302ZM103.251 22.726C103.24 22.054 103 21.5154 102.531 21.11C102.062 20.7047 101.48 20.502 100.787 20.502C100.158 20.502 99.619 20.7047 99.171 21.11C98.723 21.5047 98.4563 22.0434 98.371 22.726H103.251ZM109.078 20.598V25.478C109.078 25.8087 109.153 26.0487 109.302 26.198C109.462 26.3367 109.729 26.406 110.102 26.406H111.222V27.926H109.782C108.961 27.926 108.331 27.734 107.894 27.35C107.457 26.966 107.238 26.342 107.238 25.478V20.598H106.198V19.11H107.238V16.918H109.078V19.11H111.222V20.598H109.078ZM116.451 23.478C116.451 22.5927 116.633 21.8087 116.995 21.126C117.369 20.4434 117.87 19.9154 118.499 19.542C119.139 19.158 119.843 18.966 120.611 18.966C121.305 18.966 121.907 19.1047 122.419 19.382C122.942 19.6487 123.358 19.9847 123.667 20.39V19.11H125.507V27.926H123.667V26.614C123.358 27.03 122.937 27.3767 122.403 27.654C121.87 27.9314 121.262 28.07 120.579 28.07C119.822 28.07 119.129 27.878 118.499 27.494C117.87 27.0994 117.369 26.5554 116.995 25.862C116.633 25.158 116.451 24.3634 116.451 23.478ZM123.667 23.51C123.667 22.902 123.539 22.374 123.283 21.926C123.038 21.478 122.713 21.1367 122.307 20.902C121.902 20.6674 121.465 20.55 120.995 20.55C120.526 20.55 120.089 20.6674 119.683 20.902C119.278 21.126 118.947 21.462 118.691 21.91C118.446 22.3474 118.323 22.87 118.323 23.478C118.323 24.086 118.446 24.6194 118.691 25.078C118.947 25.5367 119.278 25.8887 119.683 26.134C120.099 26.3687 120.537 26.486 120.995 26.486C121.465 26.486 121.902 26.3687 122.307 26.134C122.713 25.8994 123.038 25.558 123.283 25.11C123.539 24.6514 123.667 24.118 123.667 23.51ZM135.755 20.598H134.123V27.926H132.283V20.598H131.243V19.11H132.283V18.486C132.283 17.4727 132.55 16.7367 133.083 16.278C133.627 15.8087 134.475 15.574 135.627 15.574V17.094C135.073 17.094 134.683 17.2007 134.459 17.414C134.235 17.6167 134.123 17.974 134.123 18.486V19.11H135.755V20.598ZM139.196 20.39C139.463 19.942 139.815 19.5954 140.252 19.35C140.7 19.094 141.228 18.966 141.836 18.966V20.854H141.372C140.657 20.854 140.113 21.0354 139.74 21.398C139.377 21.7607 139.196 22.39 139.196 23.286V27.926H137.372V19.11H139.196V20.39ZM151.593 23.302C151.593 23.6327 151.571 23.9314 151.529 24.198H144.793C144.846 24.902 145.107 25.4674 145.577 25.894C146.046 26.3207 146.622 26.534 147.305 26.534C148.286 26.534 148.979 26.1234 149.385 25.302H151.352C151.086 26.1127 150.601 26.7794 149.897 27.302C149.203 27.814 148.339 28.07 147.305 28.07C146.462 28.07 145.705 27.8834 145.033 27.51C144.371 27.126 143.849 26.5927 143.465 25.91C143.091 25.2167 142.905 24.4167 142.905 23.51C142.905 22.6034 143.086 21.8087 143.449 21.126C143.822 20.4327 144.339 19.8994 145.001 19.526C145.673 19.1527 146.441 18.966 147.305 18.966C148.137 18.966 148.878 19.1474 149.529 19.51C150.179 19.8727 150.686 20.3847 151.049 21.046C151.411 21.6967 151.593 22.4487 151.593 23.302ZM149.689 22.726C149.678 22.054 149.438 21.5154 148.969 21.11C148.499 20.7047 147.918 20.502 147.225 20.502C146.595 20.502 146.057 20.7047 145.609 21.11C145.161 21.5047 144.894 22.0434 144.809 22.726H149.689ZM161.468 23.302C161.468 23.6327 161.446 23.9314 161.404 24.198H154.668C154.721 24.902 154.982 25.4674 155.452 25.894C155.921 26.3207 156.497 26.534 157.18 26.534C158.161 26.534 158.854 26.1234 159.26 25.302H161.227C160.961 26.1127 160.476 26.7794 159.772 27.302C159.078 27.814 158.214 28.07 157.18 28.07C156.337 28.07 155.58 27.8834 154.908 27.51C154.246 27.126 153.724 26.5927 153.34 25.91C152.966 25.2167 152.78 24.4167 152.78 23.51C152.78 22.6034 152.961 21.8087 153.324 21.126C153.697 20.4327 154.214 19.8994 154.876 19.526C155.548 19.1527 156.316 18.966 157.18 18.966C158.012 18.966 158.753 19.1474 159.404 19.51C160.054 19.8727 160.561 20.3847 160.924 21.046C161.286 21.6967 161.468 22.4487 161.468 23.302ZM159.564 22.726C159.553 22.054 159.313 21.5154 158.844 21.11C158.374 20.7047 157.793 20.502 157.1 20.502C156.47 20.502 155.932 20.7047 155.484 21.11C155.036 21.5047 154.769 22.0434 154.684 22.726H159.564ZM166.811 23.51C166.811 22.6034 166.992 21.8087 167.355 21.126C167.728 20.4327 168.24 19.8994 168.891 19.526C169.541 19.1527 170.288 18.966 171.131 18.966C172.197 18.966 173.077 19.222 173.771 19.734C174.475 20.2354 174.949 20.9554 175.195 21.894H173.227C173.067 21.4567 172.811 21.1154 172.459 20.87C172.107 20.6247 171.664 20.502 171.131 20.502C170.384 20.502 169.787 20.7687 169.339 21.302C168.901 21.8247 168.683 22.5607 168.683 23.51C168.683 24.4594 168.901 25.2007 169.339 25.734C169.787 26.2674 170.384 26.534 171.131 26.534C172.187 26.534 172.885 26.07 173.227 25.142H175.195C174.939 26.038 174.459 26.7527 173.755 27.286C173.051 27.8087 172.176 28.07 171.131 28.07C170.288 28.07 169.541 27.8834 168.891 27.51C168.24 27.126 167.728 26.5927 167.355 25.91C166.992 25.2167 166.811 24.4167 166.811 23.51ZM180.837 28.07C180.005 28.07 179.253 27.8834 178.581 27.51C177.909 27.126 177.381 26.5927 176.997 25.91C176.613 25.2167 176.421 24.4167 176.421 23.51C176.421 22.614 176.618 21.8194 177.013 21.126C177.407 20.4327 177.946 19.8994 178.629 19.526C179.311 19.1527 180.074 18.966 180.917 18.966C181.759 18.966 182.522 19.1527 183.205 19.526C183.887 19.8994 184.426 20.4327 184.821 21.126C185.215 21.8194 185.413 22.614 185.413 23.51C185.413 24.406 185.21 25.2007 184.805 25.894C184.399 26.5874 183.845 27.126 183.141 27.51C182.447 27.8834 181.679 28.07 180.837 28.07ZM180.837 26.486C181.306 26.486 181.743 26.374 182.149 26.15C182.565 25.926 182.901 25.59 183.157 25.142C183.413 24.694 183.541 24.15 183.541 23.51C183.541 22.87 183.418 22.3314 183.173 21.894C182.927 21.446 182.602 21.11 182.197 20.886C181.791 20.662 181.354 20.55 180.885 20.55C180.415 20.55 179.978 20.662 179.573 20.886C179.178 21.11 178.863 21.446 178.629 21.894C178.394 22.3314 178.277 22.87 178.277 23.51C178.277 24.4594 178.517 25.1954 178.997 25.718C179.487 26.23 180.101 26.486 180.837 26.486ZM191.664 18.966C192.357 18.966 192.976 19.11 193.52 19.398C194.074 19.686 194.506 20.1127 194.816 20.678C195.125 21.2434 195.28 21.926 195.28 22.726V27.926H193.472V22.998C193.472 22.2087 193.274 21.606 192.88 21.19C192.485 20.7634 191.946 20.55 191.264 20.55C190.581 20.55 190.037 20.7634 189.632 21.19C189.237 21.606 189.04 22.2087 189.04 22.998V27.926H187.216V19.11H189.04V20.118C189.338 19.7554 189.717 19.4727 190.176 19.27C190.645 19.0674 191.141 18.966 191.664 18.966ZM200.806 28.07C200.113 28.07 199.489 27.9474 198.934 27.702C198.39 27.446 197.958 27.1047 197.638 26.678C197.318 26.2407 197.148 25.7554 197.126 25.222H199.014C199.046 25.5954 199.222 25.91 199.542 26.166C199.873 26.4114 200.284 26.534 200.774 26.534C201.286 26.534 201.681 26.438 201.958 26.246C202.246 26.0434 202.39 25.7874 202.39 25.478C202.39 25.1474 202.23 24.902 201.91 24.742C201.601 24.582 201.105 24.406 200.422 24.214C199.761 24.0327 199.222 23.8567 198.806 23.686C198.39 23.5154 198.028 23.254 197.718 22.902C197.42 22.55 197.27 22.086 197.27 21.51C197.27 21.0407 197.409 20.614 197.686 20.23C197.964 19.8354 198.358 19.526 198.87 19.302C199.393 19.078 199.99 18.966 200.662 18.966C201.665 18.966 202.47 19.222 203.078 19.734C203.697 20.2354 204.028 20.9234 204.07 21.798H202.246C202.214 21.4034 202.054 21.0887 201.766 20.854C201.478 20.6194 201.089 20.502 200.598 20.502C200.118 20.502 199.75 20.5927 199.494 20.774C199.238 20.9554 199.11 21.1954 199.11 21.494C199.11 21.7287 199.196 21.926 199.366 22.086C199.537 22.246 199.745 22.374 199.99 22.47C200.236 22.5554 200.598 22.6674 201.078 22.806C201.718 22.9767 202.241 23.1527 202.646 23.334C203.062 23.5047 203.42 23.7607 203.718 24.102C204.017 24.4434 204.172 24.8967 204.182 25.462C204.182 25.9634 204.044 26.4114 203.766 26.806C203.489 27.2007 203.094 27.51 202.582 27.734C202.081 27.958 201.489 28.07 200.806 28.07ZM214.137 19.11V27.926H212.313V26.886C212.025 27.2487 211.646 27.5367 211.177 27.75C210.718 27.9527 210.228 28.054 209.705 28.054C209.012 28.054 208.388 27.91 207.833 27.622C207.289 27.334 206.857 26.9074 206.537 26.342C206.228 25.7767 206.073 25.094 206.073 24.294V19.11H207.881V24.022C207.881 24.8114 208.078 25.4194 208.473 25.846C208.868 26.262 209.406 26.47 210.089 26.47C210.772 26.47 211.31 26.262 211.705 25.846C212.11 25.4194 212.313 24.8114 212.313 24.022V19.11H214.137ZM218.368 16.086V27.926H216.544V16.086H218.368ZM222.891 20.598V25.478C222.891 25.8087 222.965 26.0487 223.115 26.198C223.275 26.3367 223.541 26.406 223.915 26.406H225.035V27.926H223.595C222.773 27.926 222.144 27.734 221.707 27.35C221.269 26.966 221.051 26.342 221.051 25.478V20.598H220.011V19.11H221.051V16.918H222.891V19.11H225.035V20.598H222.891ZM226.108 23.478C226.108 22.5927 226.289 21.8087 226.652 21.126C227.025 20.4434 227.526 19.9154 228.156 19.542C228.796 19.158 229.5 18.966 230.268 18.966C230.961 18.966 231.564 19.1047 232.076 19.382C232.598 19.6487 233.014 19.9847 233.324 20.39V19.11H235.164V27.926H233.324V26.614C233.014 27.03 232.593 27.3767 232.06 27.654C231.526 27.9314 230.918 28.07 230.236 28.07C229.478 28.07 228.785 27.878 228.156 27.494C227.526 27.0994 227.025 26.5554 226.652 25.862C226.289 25.158 226.108 24.3634 226.108 23.478ZM233.324 23.51C233.324 22.902 233.196 22.374 232.94 21.926C232.694 21.478 232.369 21.1367 231.964 20.902C231.558 20.6674 231.121 20.55 230.652 20.55C230.182 20.55 229.745 20.6674 229.34 20.902C228.934 21.126 228.604 21.462 228.348 21.91C228.102 22.3474 227.98 22.87 227.98 23.478C227.98 24.086 228.102 24.6194 228.348 25.078C228.604 25.5367 228.934 25.8887 229.34 26.134C229.756 26.3687 230.193 26.486 230.652 26.486C231.121 26.486 231.558 26.3687 231.964 26.134C232.369 25.8994 232.694 25.558 232.94 25.11C233.196 24.6514 233.324 24.118 233.324 23.51ZM239.687 20.598V25.478C239.687 25.8087 239.762 26.0487 239.911 26.198C240.071 26.3367 240.338 26.406 240.711 26.406H241.831V27.926H240.391C239.57 27.926 238.941 27.734 238.503 27.35C238.066 26.966 237.847 26.342 237.847 25.478V20.598H236.807V19.11H237.847V16.918H239.687V19.11H241.831V20.598H239.687ZM244.441 17.942C244.11 17.942 243.833 17.83 243.609 17.606C243.385 17.382 243.273 17.1047 243.273 16.774C243.273 16.4434 243.385 16.166 243.609 15.942C243.833 15.718 244.11 15.606 244.441 15.606C244.761 15.606 245.033 15.718 245.257 15.942C245.481 16.166 245.593 16.4434 245.593 16.774C245.593 17.1047 245.481 17.382 245.257 17.606C245.033 17.83 244.761 17.942 244.441 17.942ZM245.337 19.11V27.926H243.513V19.11H245.337ZM251.555 28.07C250.723 28.07 249.971 27.8834 249.299 27.51C248.627 27.126 248.099 26.5927 247.715 25.91C247.331 25.2167 247.139 24.4167 247.139 23.51C247.139 22.614 247.337 21.8194 247.731 21.126C248.126 20.4327 248.665 19.8994 249.347 19.526C250.03 19.1527 250.793 18.966 251.635 18.966C252.478 18.966 253.241 19.1527 253.923 19.526C254.606 19.8994 255.145 20.4327 255.539 21.126C255.934 21.8194 256.131 22.614 256.131 23.51C256.131 24.406 255.929 25.2007 255.523 25.894C255.118 26.5874 254.563 27.126 253.859 27.51C253.166 27.8834 252.398 28.07 251.555 28.07ZM251.555 26.486C252.025 26.486 252.462 26.374 252.867 26.15C253.283 25.926 253.619 25.59 253.875 25.142C254.131 24.694 254.259 24.15 254.259 23.51C254.259 22.87 254.137 22.3314 253.891 21.894C253.646 21.446 253.321 21.11 252.915 20.886C252.51 20.662 252.073 20.55 251.603 20.55C251.134 20.55 250.697 20.662 250.291 20.886C249.897 21.11 249.582 21.446 249.347 21.894C249.113 22.3314 248.995 22.87 248.995 23.51C248.995 24.4594 249.235 25.1954 249.715 25.718C250.206 26.23 250.819 26.486 251.555 26.486ZM262.382 18.966C263.076 18.966 263.694 19.11 264.238 19.398C264.793 19.686 265.225 20.1127 265.534 20.678C265.844 21.2434 265.998 21.926 265.998 22.726V27.926H264.19V22.998C264.19 22.2087 263.993 21.606 263.598 21.19C263.204 20.7634 262.665 20.55 261.982 20.55C261.3 20.55 260.756 20.7634 260.35 21.19C259.956 21.606 259.758 22.2087 259.758 22.998V27.926H257.934V19.11H259.758V20.118C260.057 19.7554 260.436 19.4727 260.894 19.27C261.364 19.0674 261.86 18.966 262.382 18.966Z" fill="#E91700"/>
</svg>
