<svg width="66" height="16" viewBox="0 0 66 16" fill="none" xmlns="http://www.w3.org/2000/svg">
<path d="M2.67795 3.55631V12.5913H1.19595V3.55631H2.67795ZM8.23768 5.31131C8.80102 5.31131 9.30368 5.42831 9.74568 5.66231C10.1963 5.89631 10.5473 6.24297 10.7987 6.70231C11.05 7.16164 11.1757 7.71631 11.1757 8.36631V12.5913H9.70668V8.58731C9.70668 7.94597 9.54635 7.45631 9.22568 7.11831C8.90502 6.77164 8.46735 6.59831 7.91268 6.59831C7.35802 6.59831 6.91602 6.77164 6.58668 7.11831C6.26602 7.45631 6.10568 7.94597 6.10568 8.58731V12.5913H4.62368V5.42831H6.10568V6.24731C6.34835 5.95264 6.65602 5.72298 7.02868 5.55831C7.41002 5.39364 7.81302 5.31131 8.23768 5.31131ZM12.5721 8.97731C12.5721 8.25797 12.7194 7.62097 13.0141 7.06631C13.3174 6.51164 13.7247 6.08264 14.2361 5.77931C14.7561 5.46731 15.3324 5.31131 15.9651 5.31131C16.4331 5.31131 16.8924 5.41531 17.3431 5.62331C17.8024 5.82264 18.1664 6.09131 18.4351 6.42931V2.97131H19.9301V12.5913H18.4351V11.5123C18.1924 11.859 17.8544 12.145 17.4211 12.3703C16.9964 12.5956 16.5067 12.7083 15.9521 12.7083C15.3281 12.7083 14.7561 12.5523 14.2361 12.2403C13.7247 11.9196 13.3174 11.4776 13.0141 10.9143C12.7194 10.3423 12.5721 9.69664 12.5721 8.97731ZM18.4351 9.00331C18.4351 8.50931 18.3311 8.08031 18.1231 7.71631C17.9237 7.35231 17.6594 7.07497 17.3301 6.88431C17.0007 6.69364 16.6454 6.59831 16.2641 6.59831C15.8827 6.59831 15.5274 6.69364 15.1981 6.88431C14.8687 7.06631 14.6001 7.33931 14.3921 7.70331C14.1927 8.05864 14.0931 8.48331 14.0931 8.97731C14.0931 9.47131 14.1927 9.90464 14.3921 10.2773C14.6001 10.65 14.8687 10.936 15.1981 11.1353C15.5361 11.326 15.8914 11.4213 16.2641 11.4213C16.6454 11.4213 17.0007 11.326 17.3301 11.1353C17.6594 10.9446 17.9237 10.6673 18.1231 10.3033C18.3311 9.93064 18.4351 9.49731 18.4351 9.00331ZM28.3636 5.42831V12.5913H26.8816V11.7463C26.6476 12.041 26.3399 12.275 25.9586 12.4483C25.5859 12.613 25.1873 12.6953 24.7626 12.6953C24.1993 12.6953 23.6923 12.5783 23.2416 12.3443C22.7996 12.1103 22.4486 11.7636 22.1886 11.3043C21.9373 10.845 21.8116 10.2903 21.8116 9.64031V5.42831H23.2806V9.41931C23.2806 10.0606 23.4409 10.5546 23.7616 10.9013C24.0823 11.2393 24.5199 11.4083 25.0746 11.4083C25.6293 11.4083 26.0669 11.2393 26.3876 10.9013C26.7169 10.5546 26.8816 10.0606 26.8816 9.41931V5.42831H28.3636ZM32.919 12.7083C32.3557 12.7083 31.8487 12.6086 31.398 12.4093C30.956 12.2013 30.605 11.924 30.345 11.5773C30.085 11.222 29.9463 10.8276 29.929 10.3943H31.463C31.489 10.6976 31.632 10.9533 31.892 11.1613C32.1607 11.3606 32.4943 11.4603 32.893 11.4603C33.309 11.4603 33.6297 11.3823 33.855 11.2263C34.089 11.0616 34.206 10.8536 34.206 10.6023C34.206 10.3336 34.076 10.1343 33.816 10.0043C33.5647 9.87431 33.1617 9.73131 32.607 9.57531C32.0697 9.42798 31.632 9.28498 31.294 9.14631C30.956 9.00764 30.6613 8.79531 30.41 8.50931C30.1673 8.22331 30.046 7.84631 30.046 7.37831C30.046 6.99697 30.1587 6.65031 30.384 6.33831C30.6093 6.01764 30.93 5.76631 31.346 5.58431C31.7707 5.40231 32.256 5.31131 32.802 5.31131C33.6167 5.31131 34.271 5.51931 34.765 5.93531C35.2677 6.34264 35.5363 6.90164 35.571 7.61231H34.089C34.063 7.29164 33.933 7.03597 33.699 6.84531C33.465 6.65464 33.1487 6.55931 32.75 6.55931C32.36 6.55931 32.061 6.63298 31.853 6.78031C31.645 6.92764 31.541 7.12264 31.541 7.36531C31.541 7.55598 31.6103 7.71631 31.749 7.84631C31.8877 7.97631 32.0567 8.08031 32.256 8.15831C32.4553 8.22764 32.75 8.31864 33.14 8.43131C33.66 8.56997 34.0847 8.71298 34.414 8.86031C34.752 8.99898 35.0423 9.20697 35.285 9.48431C35.5277 9.76164 35.6533 10.13 35.662 10.5893C35.662 10.9966 35.5493 11.3606 35.324 11.6813C35.0987 12.002 34.778 12.2533 34.362 12.4353C33.9547 12.6173 33.4737 12.7083 32.919 12.7083ZM38.9923 6.63731V10.6023C38.9923 10.871 39.053 11.066 39.1743 11.1873C39.3043 11.3 39.521 11.3563 39.8243 11.3563H40.7343V12.5913H39.5643C38.897 12.5913 38.3857 12.4353 38.0303 12.1233C37.675 11.8113 37.4973 11.3043 37.4973 10.6023V6.63731H36.6523V5.42831H37.4973V3.64731H38.9923V5.42831H40.7343V6.63731H38.9923ZM43.5822 6.46831C43.7989 6.10431 44.0849 5.82264 44.4402 5.62331C44.8042 5.41531 45.2332 5.31131 45.7272 5.31131V6.84531H45.3502C44.7696 6.84531 44.3276 6.99264 44.0242 7.28731C43.7296 7.58198 43.5822 8.09331 43.5822 8.82131V12.5913H42.1002V5.42831H43.5822V6.46831ZM47.8435 4.47931C47.5748 4.47931 47.3495 4.38831 47.1675 4.20631C46.9855 4.02431 46.8945 3.79898 46.8945 3.53031C46.8945 3.26164 46.9855 3.03631 47.1675 2.85431C47.3495 2.67231 47.5748 2.58131 47.8435 2.58131C48.1035 2.58131 48.3245 2.67231 48.5065 2.85431C48.6885 3.03631 48.7795 3.26164 48.7795 3.53031C48.7795 3.79898 48.6885 4.02431 48.5065 4.20631C48.3245 4.38831 48.1035 4.47931 47.8435 4.47931ZM48.5715 5.42831V12.5913H47.0895V5.42831H48.5715ZM57.0822 8.83431C57.0822 9.10298 57.0649 9.34564 57.0302 9.56231H51.5572C51.6006 10.1343 51.8129 10.5936 52.1942 10.9403C52.5756 11.287 53.0436 11.4603 53.5982 11.4603C54.3956 11.4603 54.9589 11.1266 55.2882 10.4593H56.8872C56.6706 11.118 56.2762 11.6596 55.7042 12.0843C55.1409 12.5003 54.4389 12.7083 53.5982 12.7083C52.9136 12.7083 52.2982 12.5566 51.7522 12.2533C51.2149 11.9413 50.7902 11.508 50.4782 10.9533C50.1749 10.39 50.0232 9.73998 50.0232 9.00331C50.0232 8.26664 50.1706 7.62097 50.4652 7.06631C50.7686 6.50298 51.1889 6.06964 51.7262 5.76631C52.2722 5.46298 52.8962 5.31131 53.5982 5.31131C54.2742 5.31131 54.8766 5.45864 55.4052 5.75331C55.9339 6.04798 56.3456 6.46398 56.6402 7.00131C56.9349 7.52998 57.0822 8.14098 57.0822 8.83431ZM55.5352 8.36631C55.5266 7.82031 55.3316 7.38264 54.9502 7.05331C54.5689 6.72397 54.0966 6.55931 53.5332 6.55931C53.0219 6.55931 52.5842 6.72397 52.2202 7.05331C51.8562 7.37397 51.6396 7.81164 51.5702 8.36631H55.5352ZM61.1407 12.7083C60.5773 12.7083 60.0703 12.6086 59.6197 12.4093C59.1777 12.2013 58.8267 11.924 58.5667 11.5773C58.3067 11.222 58.168 10.8276 58.1507 10.3943H59.6847C59.7107 10.6976 59.8537 10.9533 60.1137 11.1613C60.3823 11.3606 60.716 11.4603 61.1147 11.4603C61.5307 11.4603 61.8513 11.3823 62.0767 11.2263C62.3107 11.0616 62.4277 10.8536 62.4277 10.6023C62.4277 10.3336 62.2977 10.1343 62.0377 10.0043C61.7863 9.87431 61.3833 9.73131 60.8287 9.57531C60.2913 9.42798 59.8537 9.28498 59.5157 9.14631C59.1777 9.00764 58.883 8.79531 58.6317 8.50931C58.389 8.22331 58.2677 7.84631 58.2677 7.37831C58.2677 6.99697 58.3803 6.65031 58.6057 6.33831C58.831 6.01764 59.1517 5.76631 59.5677 5.58431C59.9923 5.40231 60.4777 5.31131 61.0237 5.31131C61.8383 5.31131 62.4927 5.51931 62.9867 5.93531C63.4893 6.34264 63.758 6.90164 63.7927 7.61231H62.3107C62.2847 7.29164 62.1547 7.03597 61.9207 6.84531C61.6867 6.65464 61.3703 6.55931 60.9717 6.55931C60.5817 6.55931 60.2827 6.63298 60.0747 6.78031C59.8667 6.92764 59.7627 7.12264 59.7627 7.36531C59.7627 7.55598 59.832 7.71631 59.9707 7.84631C60.1093 7.97631 60.2783 8.08031 60.4777 8.15831C60.677 8.22764 60.9717 8.31864 61.3617 8.43131C61.8817 8.56997 62.3063 8.71298 62.6357 8.86031C62.9737 8.99898 63.264 9.20697 63.5067 9.48431C63.7493 9.76164 63.875 10.13 63.8837 10.5893C63.8837 10.9966 63.771 11.3606 63.5457 11.6813C63.3203 12.002 62.9997 12.2533 62.5837 12.4353C62.1763 12.6173 61.6953 12.7083 61.1407 12.7083Z" fill="black"/>
</svg>
