<svg width="56" height="16" viewBox="0 0 56 16" fill="none" xmlns="http://www.w3.org/2000/svg">
<path d="M4.17295 12.6823C3.56628 12.6823 3.02028 12.5783 2.53495 12.3703C2.04961 12.1536 1.66828 11.8503 1.39095 11.4603C1.11361 11.0703 0.974947 10.6153 0.974947 10.0953H2.56095C2.59561 10.4853 2.74728 10.806 3.01595 11.0573C3.29328 11.3086 3.67895 11.4343 4.17295 11.4343C4.68428 11.4343 5.08295 11.313 5.36895 11.0703C5.65495 10.819 5.79795 10.4983 5.79795 10.1083C5.79795 9.80498 5.70695 9.55798 5.52495 9.36731C5.35161 9.17664 5.13061 9.02931 4.86195 8.92531C4.60195 8.82131 4.23795 8.70864 3.76995 8.58731C3.18061 8.43131 2.69961 8.27531 2.32695 8.11931C1.96295 7.95464 1.65095 7.70331 1.39095 7.36531C1.13095 7.02731 1.00095 6.57664 1.00095 6.01331C1.00095 5.49331 1.13095 5.03831 1.39095 4.64831C1.65095 4.25831 2.01495 3.95931 2.48295 3.75131C2.95095 3.54331 3.49261 3.43931 4.10795 3.43931C4.98328 3.43931 5.69828 3.66031 6.25295 4.10231C6.81628 4.53564 7.12828 5.13364 7.18895 5.89631H5.55095C5.52495 5.56697 5.36895 5.28531 5.08295 5.05131C4.79695 4.81731 4.41995 4.70031 3.95195 4.70031C3.52728 4.70031 3.18061 4.80864 2.91195 5.02531C2.64328 5.24197 2.50895 5.55397 2.50895 5.96131C2.50895 6.23864 2.59128 6.46831 2.75595 6.65031C2.92928 6.82364 3.14595 6.96231 3.40595 7.06631C3.66595 7.17031 4.02128 7.28298 4.47195 7.40431C5.06995 7.56897 5.55528 7.73364 5.92795 7.89831C6.30928 8.06298 6.62995 8.31864 6.88995 8.66531C7.15861 9.00331 7.29295 9.45831 7.29295 10.0303C7.29295 10.4896 7.16728 10.923 6.91595 11.3303C6.67328 11.7376 6.31361 12.067 5.83695 12.3183C5.36895 12.561 4.81428 12.6823 4.17295 12.6823ZM15.6067 8.83431C15.6067 9.10298 15.5893 9.34564 15.5547 9.56231H10.0817C10.125 10.1343 10.3373 10.5936 10.7187 10.9403C11.1 11.287 11.568 11.4603 12.1227 11.4603C12.92 11.4603 13.4833 11.1266 13.8127 10.4593H15.4117C15.195 11.118 14.8007 11.6596 14.2287 12.0843C13.6653 12.5003 12.9633 12.7083 12.1227 12.7083C11.438 12.7083 10.8227 12.5566 10.2767 12.2533C9.73932 11.9413 9.31465 11.508 9.00265 10.9533C8.69932 10.39 8.54765 9.73998 8.54765 9.00331C8.54765 8.26664 8.69498 7.62097 8.98965 7.06631C9.29298 6.50298 9.71332 6.06964 10.2507 5.76631C10.7967 5.46298 11.4207 5.31131 12.1227 5.31131C12.7987 5.31131 13.401 5.45864 13.9297 5.75331C14.4583 6.04798 14.87 6.46398 15.1647 7.00131C15.4593 7.52998 15.6067 8.14098 15.6067 8.83431ZM14.0597 8.36631C14.051 7.82031 13.856 7.38264 13.4747 7.05331C13.0933 6.72397 12.621 6.55931 12.0577 6.55931C11.5463 6.55931 11.1087 6.72397 10.7447 7.05331C10.3807 7.37397 10.164 7.81164 10.0947 8.36631H14.0597ZM18.5471 6.46831C18.7638 6.10431 19.0498 5.82264 19.4051 5.62331C19.7691 5.41531 20.1981 5.31131 20.6921 5.31131V6.84531H20.3151C19.7344 6.84531 19.2924 6.99264 18.9891 7.28731C18.6944 7.58198 18.5471 8.09331 18.5471 8.82131V12.5913H17.0651V5.42831H18.5471V6.46831ZM24.8233 11.2653L26.8513 5.42831H28.4243L25.6943 12.5913H23.9263L21.2093 5.42831H22.7953L24.8233 11.2653ZM30.2986 4.47931C30.0299 4.47931 29.8046 4.38831 29.6226 4.20631C29.4406 4.02431 29.3496 3.79898 29.3496 3.53031C29.3496 3.26164 29.4406 3.03631 29.6226 2.85431C29.8046 2.67231 30.0299 2.58131 30.2986 2.58131C30.5586 2.58131 30.7796 2.67231 30.9616 2.85431C31.1436 3.03631 31.2346 3.26164 31.2346 3.53031C31.2346 3.79898 31.1436 4.02431 30.9616 4.20631C30.7796 4.38831 30.5586 4.47931 30.2986 4.47931ZM31.0266 5.42831V12.5913H29.5446V5.42831H31.0266ZM32.4783 9.00331C32.4783 8.26664 32.6256 7.62097 32.9203 7.06631C33.2236 6.50298 33.6396 6.06964 34.1683 5.76631C34.697 5.46298 35.3036 5.31131 35.9883 5.31131C36.855 5.31131 37.57 5.51931 38.1333 5.93531C38.7053 6.34264 39.091 6.92764 39.2903 7.69031H37.6913C37.5613 7.33498 37.3533 7.05764 37.0673 6.85831C36.7813 6.65898 36.4216 6.55931 35.9883 6.55931C35.3816 6.55931 34.8963 6.77597 34.5323 7.20931C34.177 7.63398 33.9993 8.23198 33.9993 9.00331C33.9993 9.77464 34.177 10.377 34.5323 10.8103C34.8963 11.2436 35.3816 11.4603 35.9883 11.4603C36.8463 11.4603 37.414 11.0833 37.6913 10.3293H39.2903C39.0823 11.0573 38.6923 11.638 38.1203 12.0713C37.5483 12.496 36.8376 12.7083 35.9883 12.7083C35.3036 12.7083 34.697 12.5566 34.1683 12.2533C33.6396 11.9413 33.2236 11.508 32.9203 10.9533C32.6256 10.39 32.4783 9.73998 32.4783 9.00331ZM47.3322 8.83431C47.3322 9.10298 47.3149 9.34564 47.2802 9.56231H41.8072C41.8506 10.1343 42.0629 10.5936 42.4442 10.9403C42.8256 11.287 43.2936 11.4603 43.8482 11.4603C44.6456 11.4603 45.2089 11.1266 45.5382 10.4593H47.1372C46.9206 11.118 46.5262 11.6596 45.9542 12.0843C45.3909 12.5003 44.6889 12.7083 43.8482 12.7083C43.1636 12.7083 42.5482 12.5566 42.0022 12.2533C41.4649 11.9413 41.0402 11.508 40.7282 10.9533C40.4249 10.39 40.2732 9.73998 40.2732 9.00331C40.2732 8.26664 40.4206 7.62097 40.7152 7.06631C41.0186 6.50298 41.4389 6.06964 41.9762 5.76631C42.5222 5.46298 43.1462 5.31131 43.8482 5.31131C44.5242 5.31131 45.1266 5.45864 45.6552 5.75331C46.1839 6.04798 46.5956 6.46398 46.8902 7.00131C47.1849 7.52998 47.3322 8.14098 47.3322 8.83431ZM45.7852 8.36631C45.7766 7.82031 45.5816 7.38264 45.2002 7.05331C44.8189 6.72397 44.3466 6.55931 43.7832 6.55931C43.2719 6.55931 42.8342 6.72397 42.4702 7.05331C42.1062 7.37397 41.8896 7.81164 41.8202 8.36631H45.7852ZM51.3907 12.7083C50.8273 12.7083 50.3203 12.6086 49.8697 12.4093C49.4277 12.2013 49.0767 11.924 48.8167 11.5773C48.5567 11.222 48.418 10.8276 48.4007 10.3943H49.9347C49.9607 10.6976 50.1037 10.9533 50.3637 11.1613C50.6323 11.3606 50.966 11.4603 51.3647 11.4603C51.7807 11.4603 52.1013 11.3823 52.3267 11.2263C52.5607 11.0616 52.6777 10.8536 52.6777 10.6023C52.6777 10.3336 52.5477 10.1343 52.2877 10.0043C52.0363 9.87431 51.6333 9.73131 51.0787 9.57531C50.5413 9.42798 50.1037 9.28498 49.7657 9.14631C49.4277 9.00764 49.133 8.79531 48.8817 8.50931C48.639 8.22331 48.5177 7.84631 48.5177 7.37831C48.5177 6.99697 48.6303 6.65031 48.8557 6.33831C49.081 6.01764 49.4017 5.76631 49.8177 5.58431C50.2423 5.40231 50.7277 5.31131 51.2737 5.31131C52.0883 5.31131 52.7427 5.51931 53.2367 5.93531C53.7393 6.34264 54.008 6.90164 54.0427 7.61231H52.5607C52.5347 7.29164 52.4047 7.03597 52.1707 6.84531C51.9367 6.65464 51.6203 6.55931 51.2217 6.55931C50.8317 6.55931 50.5327 6.63298 50.3247 6.78031C50.1167 6.92764 50.0127 7.12264 50.0127 7.36531C50.0127 7.55598 50.082 7.71631 50.2207 7.84631C50.3593 7.97631 50.5283 8.08031 50.7277 8.15831C50.927 8.22764 51.2217 8.31864 51.6117 8.43131C52.1317 8.56997 52.5563 8.71298 52.8857 8.86031C53.2237 8.99898 53.514 9.20697 53.7567 9.48431C53.9993 9.76164 54.125 10.13 54.1337 10.5893C54.1337 10.9966 54.021 11.3606 53.7957 11.6813C53.5703 12.002 53.2497 12.2533 52.8337 12.4353C52.4263 12.6173 51.9453 12.7083 51.3907 12.7083Z" fill="black"/>
</svg>
