<svg width="100" height="13" viewBox="0 0 100 13" fill="none" xmlns="http://www.w3.org/2000/svg">
<path d="M2.016 1.45003V4.24603H5.064V5.14603H2.016V8.02603H5.424V8.92603H0.924V0.550025H5.424V1.45003H2.016ZM10.2803 2.23003C11.0803 2.23003 11.7283 2.47403 12.2243 2.96203C12.7203 3.44203 12.9683 4.13803 12.9683 5.05003V8.92603H11.8883V5.20603C11.8883 4.55003 11.7243 4.05003 11.3963 3.70603C11.0683 3.35403 10.6203 3.17803 10.0523 3.17803C9.47634 3.17803 9.01634 3.35803 8.67234 3.71803C8.33634 4.07803 8.16834 4.60203 8.16834 5.29003V8.92603H7.07634V2.35002H8.16834V3.28603C8.38434 2.95003 8.67634 2.69003 9.04434 2.50603C9.42034 2.32203 9.83234 2.23003 10.2803 2.23003ZM16.0841 3.25003V7.12603C16.0841 7.44603 16.1521 7.67403 16.2881 7.81003C16.4241 7.93803 16.6601 8.00203 16.9961 8.00203H17.8001V8.92603H16.8161C16.2081 8.92603 15.7521 8.78603 15.4481 8.50603C15.1441 8.22603 14.9921 7.76603 14.9921 7.12603V3.25003H14.1401V2.35002H14.9921V0.694025H16.0841V2.35002H17.8001V3.25003H16.0841ZM25.1232 5.38603C25.1232 5.59403 25.1112 5.81403 25.0872 6.04603H19.8312C19.8712 6.69403 20.0912 7.20203 20.4912 7.57003C20.8992 7.93003 21.3912 8.11003 21.9672 8.11003C22.4392 8.11003 22.8312 8.00203 23.1432 7.78603C23.4632 7.56203 23.6872 7.26603 23.8152 6.89803H24.9912C24.8152 7.53003 24.4632 8.04603 23.9352 8.44603C23.4072 8.83803 22.7512 9.03403 21.9672 9.03403C21.3432 9.03403 20.7832 8.89403 20.2872 8.61403C19.7992 8.33403 19.4152 7.93803 19.1352 7.42603C18.8552 6.90603 18.7152 6.30603 18.7152 5.62603C18.7152 4.94603 18.8512 4.35003 19.1232 3.83803C19.3952 3.32603 19.7752 2.93403 20.2632 2.66203C20.7592 2.38203 21.3272 2.24202 21.9672 2.24202C22.5912 2.24202 23.1432 2.37803 23.6232 2.65003C24.1032 2.92203 24.4712 3.29803 24.7272 3.77803C24.9912 4.25003 25.1232 4.78603 25.1232 5.38603ZM23.9952 5.15803C23.9952 4.74203 23.9032 4.38603 23.7192 4.09003C23.5352 3.78603 23.2832 3.55803 22.9632 3.40603C22.6512 3.24603 22.3032 3.16603 21.9192 3.16603C21.3672 3.16603 20.8952 3.34203 20.5032 3.69403C20.1192 4.04603 19.8992 4.53403 19.8432 5.15803H23.9952ZM27.6566 3.41803C27.8486 3.04202 28.1206 2.75003 28.4726 2.54203C28.8326 2.33403 29.2686 2.23003 29.7806 2.23003V3.35803H29.4926C28.2686 3.35803 27.6566 4.02203 27.6566 5.35003V8.92603H26.5646V2.35002H27.6566V3.41803ZM39.9044 2.35002L35.9444 12.022H34.8164L36.1124 8.85403L33.4604 2.35002H34.6724L36.7364 7.67803L38.7764 2.35002H39.9044ZM43.8701 9.03403C43.2541 9.03403 42.6941 8.89403 42.1901 8.61403C41.6941 8.33403 41.3021 7.93803 41.0141 7.42603C40.7341 6.90603 40.5941 6.30603 40.5941 5.62603C40.5941 4.95403 40.7381 4.36203 41.0261 3.85003C41.3221 3.33003 41.7221 2.93403 42.2261 2.66203C42.7301 2.38203 43.2941 2.24202 43.9181 2.24202C44.5421 2.24202 45.1061 2.38203 45.6101 2.66203C46.1141 2.93403 46.5101 3.32603 46.7981 3.83803C47.0941 4.35003 47.2421 4.94603 47.2421 5.62603C47.2421 6.30603 47.0901 6.90603 46.7861 7.42603C46.4901 7.93803 46.0861 8.33403 45.5741 8.61403C45.0621 8.89403 44.4941 9.03403 43.8701 9.03403ZM43.8701 8.07403C44.2621 8.07403 44.6301 7.98203 44.9741 7.79803C45.3181 7.61403 45.5941 7.33803 45.8021 6.97003C46.0181 6.60203 46.1261 6.15403 46.1261 5.62603C46.1261 5.09803 46.0221 4.65003 45.8141 4.28203C45.6061 3.91403 45.3341 3.64203 44.9981 3.46603C44.6621 3.28203 44.2981 3.19003 43.9061 3.19003C43.5061 3.19003 43.1381 3.28203 42.8021 3.46603C42.4741 3.64203 42.2101 3.91403 42.0101 4.28203C41.8101 4.65003 41.7101 5.09803 41.7101 5.62603C41.7101 6.16203 41.8061 6.61403 41.9981 6.98203C42.1981 7.35003 42.4621 7.62603 42.7901 7.81003C43.1181 7.98603 43.4781 8.07403 43.8701 8.07403ZM54.5099 2.35002V8.92603H53.4179V7.95403C53.2099 8.29003 52.9179 8.55403 52.5419 8.74603C52.1739 8.93003 51.7659 9.02203 51.3179 9.02203C50.8059 9.02203 50.3459 8.91803 49.9379 8.71003C49.5299 8.49403 49.2059 8.17403 48.9659 7.75003C48.7339 7.32603 48.6179 6.81003 48.6179 6.20203V2.35002H49.6979V6.05803C49.6979 6.70603 49.8619 7.20603 50.1899 7.55803C50.5179 7.90203 50.9659 8.07403 51.5339 8.07403C52.1179 8.07403 52.5779 7.89403 52.9139 7.53403C53.2499 7.17403 53.4179 6.65003 53.4179 5.96203V2.35002H54.5099ZM57.4457 3.41803C57.6377 3.04202 57.9097 2.75003 58.2617 2.54203C58.6217 2.33403 59.0577 2.23003 59.5697 2.23003V3.35803H59.2817C58.0577 3.35803 57.4457 4.02203 57.4457 5.35003V8.92603H56.3537V2.35002H57.4457V3.41803ZM69.6215 3.01003C69.6215 3.70603 69.3815 4.28603 68.9015 4.75003C68.4295 5.20603 67.7055 5.43403 66.7295 5.43403H65.1215V8.92603H64.0295V0.562025H66.7295C67.6735 0.562025 68.3895 0.790025 68.8775 1.24602C69.3735 1.70203 69.6215 2.29003 69.6215 3.01003ZM66.7295 4.53403C67.3375 4.53403 67.7855 4.40203 68.0735 4.13803C68.3615 3.87403 68.5055 3.49803 68.5055 3.01003C68.5055 1.97802 67.9135 1.46202 66.7295 1.46202H65.1215V4.53403H66.7295ZM74.2427 2.23003C74.7387 2.23003 75.1867 2.33803 75.5867 2.55403C75.9867 2.76203 76.2987 3.07803 76.5227 3.50203C76.7547 3.92603 76.8707 4.44203 76.8707 5.05003V8.92603H75.7907V5.20603C75.7907 4.55003 75.6267 4.05003 75.2987 3.70603C74.9707 3.35403 74.5227 3.17803 73.9547 3.17803C73.3787 3.17803 72.9187 3.35803 72.5747 3.71803C72.2387 4.07803 72.0707 4.60203 72.0707 5.29003V8.92603H70.9787V0.0460253H72.0707V3.28603C72.2867 2.95003 72.5827 2.69003 72.9587 2.50603C73.3427 2.32203 73.7707 2.23003 74.2427 2.23003ZM81.5225 9.03403C80.9065 9.03403 80.3465 8.89403 79.8425 8.61403C79.3465 8.33403 78.9545 7.93803 78.6665 7.42603C78.3865 6.90603 78.2465 6.30603 78.2465 5.62603C78.2465 4.95403 78.3905 4.36203 78.6785 3.85003C78.9745 3.33003 79.3745 2.93403 79.8785 2.66203C80.3825 2.38203 80.9465 2.24202 81.5705 2.24202C82.1945 2.24202 82.7585 2.38203 83.2625 2.66203C83.7665 2.93403 84.1625 3.32603 84.4505 3.83803C84.7465 4.35003 84.8945 4.94603 84.8945 5.62603C84.8945 6.30603 84.7425 6.90603 84.4385 7.42603C84.1425 7.93803 83.7385 8.33403 83.2265 8.61403C82.7145 8.89403 82.1465 9.03403 81.5225 9.03403ZM81.5225 8.07403C81.9145 8.07403 82.2825 7.98203 82.6265 7.79803C82.9705 7.61403 83.2465 7.33803 83.4545 6.97003C83.6705 6.60203 83.7785 6.15403 83.7785 5.62603C83.7785 5.09803 83.6745 4.65003 83.4665 4.28203C83.2585 3.91403 82.9865 3.64203 82.6505 3.46603C82.3145 3.28203 81.9505 3.19003 81.5585 3.19003C81.1585 3.19003 80.7905 3.28203 80.4545 3.46603C80.1265 3.64203 79.8625 3.91403 79.6625 4.28203C79.4625 4.65003 79.3625 5.09803 79.3625 5.62603C79.3625 6.16203 79.4585 6.61403 79.6505 6.98203C79.8505 7.35003 80.1145 7.62603 80.4425 7.81003C80.7705 7.98603 81.1305 8.07403 81.5225 8.07403ZM89.5343 2.23003C90.3343 2.23003 90.9823 2.47403 91.4783 2.96203C91.9743 3.44203 92.2223 4.13803 92.2223 5.05003V8.92603H91.1423V5.20603C91.1423 4.55003 90.9783 4.05003 90.6503 3.70603C90.3223 3.35403 89.8743 3.17803 89.3063 3.17803C88.7303 3.17803 88.2703 3.35803 87.9263 3.71803C87.5903 4.07803 87.4223 4.60203 87.4223 5.29003V8.92603H86.3303V2.35002H87.4223V3.28603C87.6383 2.95003 87.9303 2.69003 88.2983 2.50603C88.6743 2.32203 89.0863 2.23003 89.5343 2.23003ZM100.006 5.38603C100.006 5.59403 99.994 5.81403 99.97 6.04603H94.714C94.754 6.69403 94.974 7.20203 95.374 7.57003C95.782 7.93003 96.274 8.11003 96.85 8.11003C97.322 8.11003 97.714 8.00203 98.026 7.78603C98.346 7.56203 98.57 7.26603 98.698 6.89803H99.874C99.698 7.53003 99.346 8.04603 98.818 8.44603C98.29 8.83803 97.634 9.03403 96.85 9.03403C96.226 9.03403 95.666 8.89403 95.17 8.61403C94.682 8.33403 94.298 7.93803 94.018 7.42603C93.738 6.90603 93.598 6.30603 93.598 5.62603C93.598 4.94603 93.734 4.35003 94.006 3.83803C94.278 3.32603 94.658 2.93403 95.146 2.66203C95.642 2.38203 96.21 2.24202 96.85 2.24202C97.474 2.24202 98.026 2.37803 98.506 2.65003C98.986 2.92203 99.354 3.29803 99.61 3.77803C99.874 4.25003 100.006 4.78603 100.006 5.38603ZM98.878 5.15803C98.878 4.74203 98.786 4.38603 98.602 4.09003C98.418 3.78603 98.166 3.55803 97.846 3.40603C97.534 3.24603 97.186 3.16603 96.802 3.16603C96.25 3.16603 95.778 3.34203 95.386 3.69403C95.002 4.04603 94.782 4.53403 94.726 5.15803H98.878Z" fill="#242321"/>
</svg>
