<svg width="150" height="14" viewBox="0 0 150 14" fill="none" xmlns="http://www.w3.org/2000/svg">
<path d="M2.016 2.45003V5.24603H5.064V6.14603H2.016V9.02603H5.424V9.92603H0.924V1.55003H5.424V2.45003H2.016ZM10.2803 3.23003C11.0803 3.23003 11.7283 3.47403 12.2243 3.96203C12.7203 4.44203 12.9683 5.13803 12.9683 6.05003V9.92603H11.8883V6.20603C11.8883 5.55003 11.7243 5.05003 11.3963 4.70603C11.0683 4.35403 10.6203 4.17803 10.0523 4.17803C9.47634 4.17803 9.01634 4.35803 8.67234 4.71803C8.33634 5.07803 8.16834 5.60203 8.16834 6.29003V9.92603H7.07634V3.35002H8.16834V4.28603C8.38434 3.95003 8.67634 3.69003 9.04434 3.50603C9.42034 3.32203 9.83234 3.23003 10.2803 3.23003ZM16.0841 4.25003V8.12603C16.0841 8.44603 16.1521 8.67403 16.2881 8.81003C16.4241 8.93803 16.6601 9.00203 16.9961 9.00203H17.8001V9.92603H16.8161C16.2081 9.92603 15.7521 9.78603 15.4481 9.50603C15.1441 9.22603 14.9921 8.76603 14.9921 8.12603V4.25003H14.1401V3.35002H14.9921V1.69402H16.0841V3.35002H17.8001V4.25003H16.0841ZM25.1232 6.38603C25.1232 6.59403 25.1112 6.81403 25.0872 7.04603H19.8312C19.8712 7.69403 20.0912 8.20203 20.4912 8.57003C20.8992 8.93003 21.3912 9.11003 21.9672 9.11003C22.4392 9.11003 22.8312 9.00203 23.1432 8.78603C23.4632 8.56203 23.6872 8.26603 23.8152 7.89803H24.9912C24.8152 8.53003 24.4632 9.04603 23.9352 9.44603C23.4072 9.83803 22.7512 10.034 21.9672 10.034C21.3432 10.034 20.7832 9.89403 20.2872 9.61403C19.7992 9.33403 19.4152 8.93803 19.1352 8.42603C18.8552 7.90603 18.7152 7.30603 18.7152 6.62603C18.7152 5.94603 18.8512 5.35003 19.1232 4.83803C19.3952 4.32603 19.7752 3.93403 20.2632 3.66203C20.7592 3.38203 21.3272 3.24202 21.9672 3.24202C22.5912 3.24202 23.1432 3.37803 23.6232 3.65003C24.1032 3.92203 24.4712 4.29803 24.7272 4.77803C24.9912 5.25003 25.1232 5.78603 25.1232 6.38603ZM23.9952 6.15803C23.9952 5.74203 23.9032 5.38603 23.7192 5.09003C23.5352 4.78603 23.2832 4.55803 22.9632 4.40603C22.6512 4.24603 22.3032 4.16603 21.9192 4.16603C21.3672 4.16603 20.8952 4.34203 20.5032 4.69403C20.1192 5.04603 19.8992 5.53403 19.8432 6.15803H23.9952ZM27.6566 4.41803C27.8486 4.04202 28.1206 3.75003 28.4726 3.54203C28.8326 3.33403 29.2686 3.23003 29.7806 3.23003V4.35803H29.4926C28.2686 4.35803 27.6566 5.02203 27.6566 6.35003V9.92603H26.5646V3.35002H27.6566V4.41803ZM39.9044 3.35002L35.9444 13.022H34.8164L36.1124 9.85403L33.4604 3.35002H34.6724L36.7364 8.67803L38.7764 3.35002H39.9044ZM43.8701 10.034C43.2541 10.034 42.6941 9.89403 42.1901 9.61403C41.6941 9.33403 41.3021 8.93803 41.0141 8.42603C40.7341 7.90603 40.5941 7.30603 40.5941 6.62603C40.5941 5.95403 40.7381 5.36203 41.0261 4.85003C41.3221 4.33003 41.7221 3.93403 42.2261 3.66203C42.7301 3.38203 43.2941 3.24202 43.9181 3.24202C44.5421 3.24202 45.1061 3.38203 45.6101 3.66203C46.1141 3.93403 46.5101 4.32603 46.7981 4.83803C47.0941 5.35003 47.2421 5.94603 47.2421 6.62603C47.2421 7.30603 47.0901 7.90603 46.7861 8.42603C46.4901 8.93803 46.0861 9.33403 45.5741 9.61403C45.0621 9.89403 44.4941 10.034 43.8701 10.034ZM43.8701 9.07403C44.2621 9.07403 44.6301 8.98203 44.9741 8.79803C45.3181 8.61403 45.5941 8.33803 45.8021 7.97003C46.0181 7.60203 46.1261 7.15403 46.1261 6.62603C46.1261 6.09803 46.0221 5.65003 45.8141 5.28203C45.6061 4.91403 45.3341 4.64203 44.9981 4.46603C44.6621 4.28203 44.2981 4.19003 43.9061 4.19003C43.5061 4.19003 43.1381 4.28203 42.8021 4.46603C42.4741 4.64203 42.2101 4.91403 42.0101 5.28203C41.8101 5.65003 41.7101 6.09803 41.7101 6.62603C41.7101 7.16203 41.8061 7.61403 41.9981 7.98203C42.1981 8.35003 42.4621 8.62603 42.7901 8.81003C43.1181 8.98603 43.4781 9.07403 43.8701 9.07403ZM54.5099 3.35002V9.92603H53.4179V8.95403C53.2099 9.29003 52.9179 9.55403 52.5419 9.74603C52.1739 9.93003 51.7659 10.022 51.3179 10.022C50.8059 10.022 50.3459 9.91803 49.9379 9.71003C49.5299 9.49403 49.2059 9.17403 48.9659 8.75003C48.7339 8.32603 48.6179 7.81003 48.6179 7.20203V3.35002H49.6979V7.05803C49.6979 7.70603 49.8619 8.20603 50.1899 8.55803C50.5179 8.90203 50.9659 9.07403 51.5339 9.07403C52.1179 9.07403 52.5779 8.89403 52.9139 8.53403C53.2499 8.17403 53.4179 7.65003 53.4179 6.96203V3.35002H54.5099ZM57.4457 4.41803C57.6377 4.04202 57.9097 3.75003 58.2617 3.54203C58.6217 3.33403 59.0577 3.23003 59.5697 3.23003V4.35803H59.2817C58.0577 4.35803 57.4457 5.02203 57.4457 6.35003V9.92603H56.3537V3.35002H57.4457V4.41803ZM68.2175 5.61803C68.5215 5.66603 68.7975 5.79003 69.0455 5.99003C69.3015 6.19003 69.5015 6.43803 69.6455 6.73403C69.7975 7.03003 69.8735 7.34603 69.8735 7.68203C69.8735 8.10603 69.7655 8.49003 69.5495 8.83403C69.3335 9.17003 69.0175 9.43803 68.6015 9.63803C68.1935 9.83003 67.7095 9.92603 67.1495 9.92603H64.0295V1.56203H67.0295C67.5975 1.56203 68.0815 1.65803 68.4815 1.85002C68.8815 2.03402 69.1815 2.28603 69.3815 2.60603C69.5815 2.92602 69.6815 3.28602 69.6815 3.68602C69.6815 4.18202 69.5455 4.59403 69.2735 4.92203C69.0095 5.24203 68.6575 5.47403 68.2175 5.61803ZM65.1215 5.17403H66.9575C67.4695 5.17403 67.8655 5.05403 68.1455 4.81403C68.4255 4.57403 68.5655 4.24203 68.5655 3.81803C68.5655 3.39403 68.4255 3.06203 68.1455 2.82203C67.8655 2.58203 67.4615 2.46202 66.9335 2.46202H65.1215V5.17403ZM67.0535 9.02603C67.5975 9.02603 68.0215 8.89803 68.3255 8.64203C68.6295 8.38603 68.7815 8.03003 68.7815 7.57403C68.7815 7.11003 68.6215 6.74603 68.3015 6.48203C67.9815 6.21003 67.5535 6.07403 67.0175 6.07403H65.1215V9.02603H67.0535ZM77.2208 3.35002V9.92603H76.1288V8.95403C75.9208 9.29003 75.6288 9.55403 75.2528 9.74603C74.8848 9.93003 74.4768 10.022 74.0288 10.022C73.5168 10.022 73.0568 9.91803 72.6488 9.71003C72.2408 9.49403 71.9168 9.17403 71.6768 8.75003C71.4448 8.32603 71.3288 7.81003 71.3288 7.20203V3.35002H72.4088V7.05803C72.4088 7.70603 72.5728 8.20603 72.9008 8.55803C73.2288 8.90203 73.6768 9.07403 74.2448 9.07403C74.8288 9.07403 75.2888 8.89403 75.6248 8.53403C75.9608 8.17403 76.1288 7.65003 76.1288 6.96203V3.35002H77.2208ZM81.3926 10.034C80.8886 10.034 80.4366 9.95003 80.0366 9.78203C79.6366 9.60603 79.3206 9.36603 79.0886 9.06203C78.8566 8.75003 78.7286 8.39403 78.7046 7.99403H79.8326C79.8646 8.32203 80.0166 8.59003 80.2886 8.79803C80.5686 9.00603 80.9326 9.11003 81.3806 9.11003C81.7966 9.11003 82.1246 9.01803 82.3646 8.83403C82.6046 8.65003 82.7246 8.41803 82.7246 8.13803C82.7246 7.85003 82.5966 7.63803 82.3406 7.50203C82.0846 7.35803 81.6886 7.21803 81.1526 7.08203C80.6646 6.95403 80.2646 6.82603 79.9526 6.69803C79.6486 6.56203 79.3846 6.36603 79.1606 6.11003C78.9446 5.84603 78.8366 5.50203 78.8366 5.07803C78.8366 4.74203 78.9366 4.43403 79.1366 4.15402C79.3366 3.87402 79.6206 3.65403 79.9886 3.49403C80.3566 3.32603 80.7766 3.24202 81.2486 3.24202C81.9766 3.24202 82.5646 3.42602 83.0126 3.79402C83.4606 4.16202 83.7006 4.66603 83.7326 5.30603H82.6406C82.6166 4.96203 82.4766 4.68603 82.2206 4.47803C81.9726 4.27003 81.6366 4.16603 81.2126 4.16603C80.8206 4.16603 80.5086 4.25003 80.2766 4.41803C80.0446 4.58603 79.9286 4.80603 79.9286 5.07803C79.9286 5.29403 79.9966 5.47403 80.1326 5.61803C80.2766 5.75403 80.4526 5.86603 80.6606 5.95403C80.8766 6.03403 81.1726 6.12603 81.5486 6.23003C82.0206 6.35803 82.4046 6.48603 82.7006 6.61403C82.9966 6.73403 83.2486 6.91803 83.4566 7.16603C83.6726 7.41403 83.7846 7.73803 83.7926 8.13803C83.7926 8.49803 83.6926 8.82203 83.4926 9.11003C83.2926 9.39803 83.0086 9.62603 82.6406 9.79403C82.2806 9.95403 81.8646 10.034 81.3926 10.034ZM85.8982 2.28203C85.6902 2.28203 85.5142 2.21003 85.3702 2.06603C85.2262 1.92202 85.1542 1.74602 85.1542 1.53802C85.1542 1.33002 85.2262 1.15403 85.3702 1.01003C85.5142 0.866025 85.6902 0.794025 85.8982 0.794025C86.0982 0.794025 86.2662 0.866025 86.4022 1.01003C86.5462 1.15403 86.6182 1.33002 86.6182 1.53802C86.6182 1.74602 86.5462 1.92202 86.4022 2.06603C86.2662 2.21003 86.0982 2.28203 85.8982 2.28203ZM86.4262 3.35002V9.92603H85.3342V3.35002H86.4262ZM91.4913 3.23003C92.2913 3.23003 92.9393 3.47403 93.4353 3.96203C93.9313 4.44203 94.1793 5.13803 94.1793 6.05003V9.92603H93.0993V6.20603C93.0993 5.55003 92.9353 5.05003 92.6073 4.70603C92.2793 4.35403 91.8313 4.17803 91.2633 4.17803C90.6873 4.17803 90.2273 4.35803 89.8833 4.71803C89.5473 5.07803 89.3793 5.60203 89.3793 6.29003V9.92603H88.2873V3.35002H89.3793V4.28603C89.5953 3.95003 89.8873 3.69003 90.2553 3.50603C90.6313 3.32203 91.0433 3.23003 91.4913 3.23003ZM101.963 6.38603C101.963 6.59403 101.951 6.81403 101.927 7.04603H96.6711C96.7111 7.69403 96.9311 8.20203 97.3311 8.57003C97.7391 8.93003 98.2311 9.11003 98.8071 9.11003C99.2791 9.11003 99.6711 9.00203 99.9831 8.78603C100.303 8.56203 100.527 8.26603 100.655 7.89803H101.831C101.655 8.53003 101.303 9.04603 100.775 9.44603C100.247 9.83803 99.5911 10.034 98.8071 10.034C98.1831 10.034 97.6231 9.89403 97.1271 9.61403C96.6391 9.33403 96.2551 8.93803 95.9751 8.42603C95.6951 7.90603 95.5551 7.30603 95.5551 6.62603C95.5551 5.94603 95.6911 5.35003 95.9631 4.83803C96.2351 4.32603 96.6151 3.93403 97.1031 3.66203C97.5991 3.38203 98.1671 3.24202 98.8071 3.24202C99.4311 3.24202 99.9831 3.37803 100.463 3.65003C100.943 3.92203 101.311 4.29803 101.567 4.77803C101.831 5.25003 101.963 5.78603 101.963 6.38603ZM100.835 6.15803C100.835 5.74203 100.743 5.38603 100.559 5.09003C100.375 4.78603 100.123 4.55803 99.8031 4.40603C99.4911 4.24603 99.1431 4.16603 98.7591 4.16603C98.2071 4.16603 97.7351 4.34203 97.3431 4.69403C96.9591 5.04603 96.7391 5.53403 96.6831 6.15803H100.835ZM105.732 10.034C105.228 10.034 104.776 9.95003 104.376 9.78203C103.976 9.60603 103.66 9.36603 103.428 9.06203C103.196 8.75003 103.068 8.39403 103.044 7.99403H104.172C104.204 8.32203 104.356 8.59003 104.628 8.79803C104.908 9.00603 105.272 9.11003 105.72 9.11003C106.136 9.11003 106.464 9.01803 106.704 8.83403C106.944 8.65003 107.064 8.41803 107.064 8.13803C107.064 7.85003 106.936 7.63803 106.68 7.50203C106.424 7.35803 106.028 7.21803 105.492 7.08203C105.004 6.95403 104.604 6.82603 104.292 6.69803C103.988 6.56203 103.724 6.36603 103.5 6.11003C103.284 5.84603 103.176 5.50203 103.176 5.07803C103.176 4.74203 103.276 4.43403 103.476 4.15402C103.676 3.87402 103.96 3.65403 104.328 3.49403C104.696 3.32603 105.116 3.24202 105.588 3.24202C106.316 3.24202 106.904 3.42602 107.352 3.79402C107.8 4.16202 108.04 4.66603 108.072 5.30603H106.98C106.956 4.96203 106.816 4.68603 106.56 4.47803C106.312 4.27003 105.976 4.16603 105.552 4.16603C105.16 4.16603 104.848 4.25003 104.616 4.41803C104.384 4.58603 104.268 4.80603 104.268 5.07803C104.268 5.29403 104.336 5.47403 104.472 5.61803C104.616 5.75403 104.792 5.86603 105 5.95403C105.216 6.03403 105.512 6.12603 105.888 6.23003C106.36 6.35803 106.744 6.48603 107.04 6.61403C107.336 6.73403 107.588 6.91803 107.796 7.16603C108.012 7.41403 108.124 7.73803 108.132 8.13803C108.132 8.49803 108.032 8.82203 107.832 9.11003C107.632 9.39803 107.348 9.62603 106.98 9.79403C106.62 9.95403 106.204 10.034 105.732 10.034ZM112.002 10.034C111.498 10.034 111.046 9.95003 110.646 9.78203C110.246 9.60603 109.93 9.36603 109.698 9.06203C109.466 8.75003 109.338 8.39403 109.314 7.99403H110.442C110.474 8.32203 110.626 8.59003 110.898 8.79803C111.178 9.00603 111.542 9.11003 111.99 9.11003C112.406 9.11003 112.734 9.01803 112.974 8.83403C113.214 8.65003 113.334 8.41803 113.334 8.13803C113.334 7.85003 113.206 7.63803 112.95 7.50203C112.694 7.35803 112.298 7.21803 111.762 7.08203C111.274 6.95403 110.874 6.82603 110.562 6.69803C110.258 6.56203 109.994 6.36603 109.77 6.11003C109.554 5.84603 109.446 5.50203 109.446 5.07803C109.446 4.74203 109.546 4.43403 109.746 4.15402C109.946 3.87402 110.23 3.65403 110.598 3.49403C110.966 3.32603 111.386 3.24202 111.858 3.24202C112.586 3.24202 113.174 3.42602 113.622 3.79402C114.07 4.16202 114.31 4.66603 114.342 5.30603H113.25C113.226 4.96203 113.086 4.68603 112.83 4.47803C112.582 4.27003 112.246 4.16603 111.822 4.16603C111.43 4.16603 111.118 4.25003 110.886 4.41803C110.654 4.58603 110.538 4.80603 110.538 5.07803C110.538 5.29403 110.606 5.47403 110.742 5.61803C110.886 5.75403 111.062 5.86603 111.27 5.95403C111.486 6.03403 111.782 6.12603 112.158 6.23003C112.63 6.35803 113.014 6.48603 113.31 6.61403C113.606 6.73403 113.858 6.91803 114.066 7.16603C114.282 7.41403 114.394 7.73803 114.402 8.13803C114.402 8.49803 114.302 8.82203 114.102 9.11003C113.902 9.39803 113.618 9.62603 113.25 9.79403C112.89 9.95403 112.474 10.034 112.002 10.034ZM120.235 2.45003V5.24603H123.283V6.14603H120.235V9.02603H123.643V9.92603H119.143V1.55003H123.643V2.45003H120.235ZM133.203 3.23003C133.715 3.23003 134.171 3.33803 134.571 3.55403C134.971 3.76203 135.287 4.07803 135.519 4.50203C135.751 4.92603 135.867 5.44203 135.867 6.05003V9.92603H134.787V6.20603C134.787 5.55003 134.623 5.05003 134.295 4.70603C133.975 4.35403 133.539 4.17803 132.987 4.17803C132.419 4.17803 131.967 4.36203 131.631 4.73003C131.295 5.09003 131.127 5.61403 131.127 6.30203V9.92603H130.047V6.20603C130.047 5.55003 129.883 5.05003 129.555 4.70603C129.235 4.35403 128.799 4.17803 128.247 4.17803C127.679 4.17803 127.227 4.36203 126.891 4.73003C126.555 5.09003 126.387 5.61403 126.387 6.30203V9.92603H125.295V3.35002H126.387V4.29803C126.603 3.95403 126.891 3.69003 127.251 3.50603C127.619 3.32203 128.023 3.23003 128.463 3.23003C129.015 3.23003 129.503 3.35403 129.927 3.60203C130.351 3.85003 130.667 4.21403 130.875 4.69403C131.059 4.23003 131.363 3.87003 131.787 3.61403C132.211 3.35803 132.683 3.23003 133.203 3.23003ZM137.25 6.61403C137.25 5.94203 137.386 5.35403 137.658 4.85003C137.93 4.33803 138.302 3.94203 138.774 3.66203C139.254 3.38203 139.786 3.24202 140.37 3.24202C140.946 3.24202 141.446 3.36602 141.87 3.61403C142.294 3.86203 142.61 4.17403 142.818 4.55003V3.35002H143.922V9.92603H142.818V8.70203C142.602 9.08603 142.278 9.40603 141.846 9.66203C141.422 9.91003 140.926 10.034 140.358 10.034C139.774 10.034 139.246 9.89003 138.774 9.60203C138.302 9.31403 137.93 8.91003 137.658 8.39003C137.386 7.87003 137.25 7.27803 137.25 6.61403ZM142.818 6.62603C142.818 6.13003 142.718 5.69803 142.518 5.33003C142.318 4.96203 142.046 4.68203 141.702 4.49003C141.366 4.29003 140.994 4.19003 140.586 4.19003C140.178 4.19003 139.806 4.28603 139.47 4.47803C139.134 4.67003 138.866 4.95003 138.666 5.31803C138.466 5.68603 138.366 6.11803 138.366 6.61403C138.366 7.11803 138.466 7.55803 138.666 7.93403C138.866 8.30203 139.134 8.58603 139.47 8.78603C139.806 8.97803 140.178 9.07403 140.586 9.07403C140.994 9.07403 141.366 8.97803 141.702 8.78603C142.046 8.58603 142.318 8.30203 142.518 7.93403C142.718 7.55803 142.818 7.12203 142.818 6.62603ZM146.332 2.28203C146.124 2.28203 145.948 2.21003 145.804 2.06603C145.66 1.92202 145.588 1.74602 145.588 1.53802C145.588 1.33002 145.66 1.15403 145.804 1.01003C145.948 0.866025 146.124 0.794025 146.332 0.794025C146.532 0.794025 146.7 0.866025 146.836 1.01003C146.98 1.15403 147.052 1.33002 147.052 1.53802C147.052 1.74602 146.98 1.92202 146.836 2.06603C146.7 2.21003 146.532 2.28203 146.332 2.28203ZM146.86 3.35002V9.92603H145.768V3.35002H146.86ZM149.813 1.04603V9.92603H148.721V1.04603H149.813Z" fill="#242321"/>
</svg>
