<svg width="112" height="11" viewBox="0 0 112 11" fill="none" xmlns="http://www.w3.org/2000/svg">
<path d="M2.016 1.56203V9.92603H0.924V1.56203H2.016ZM6.66834 6.61403C6.66834 5.94203 6.80434 5.35403 7.07634 4.85003C7.34834 4.33803 7.72034 3.94203 8.19234 3.66203C8.67234 3.38203 9.20434 3.24202 9.78834 3.24202C10.3643 3.24202 10.8643 3.36602 11.2883 3.61403C11.7123 3.86203 12.0283 4.17403 12.2363 4.55003V3.35002H13.3403V9.92603H12.2363V8.70203C12.0203 9.08603 11.6963 9.40603 11.2643 9.66203C10.8403 9.91003 10.3443 10.034 9.77634 10.034C9.19234 10.034 8.66434 9.89003 8.19234 9.60203C7.72034 9.31403 7.34834 8.91003 7.07634 8.39003C6.80434 7.87003 6.66834 7.27803 6.66834 6.61403ZM12.2363 6.62603C12.2363 6.13003 12.1363 5.69803 11.9363 5.33003C11.7363 4.96203 11.4643 4.68203 11.1203 4.49003C10.7843 4.29003 10.4123 4.19003 10.0043 4.19003C9.59634 4.19003 9.22434 4.28603 8.88834 4.47803C8.55234 4.67003 8.28434 4.95003 8.08434 5.31803C7.88434 5.68603 7.78434 6.11803 7.78434 6.61403C7.78434 7.11803 7.88434 7.55803 8.08434 7.93403C8.28434 8.30203 8.55234 8.58603 8.88834 8.78603C9.22434 8.97803 9.59634 9.07403 10.0043 9.07403C10.4123 9.07403 10.7843 8.97803 11.1203 8.78603C11.4643 8.58603 11.7363 8.30203 11.9363 7.93403C12.1363 7.55803 12.2363 7.12203 12.2363 6.62603ZM23.0937 3.23003C23.6057 3.23003 24.0617 3.33803 24.4617 3.55403C24.8617 3.76203 25.1777 4.07803 25.4097 4.50203C25.6417 4.92603 25.7577 5.44203 25.7577 6.05003V9.92603H24.6777V6.20603C24.6777 5.55003 24.5137 5.05003 24.1857 4.70603C23.8657 4.35403 23.4297 4.17803 22.8777 4.17803C22.3097 4.17803 21.8577 4.36203 21.5217 4.73003C21.1857 5.09003 21.0177 5.61403 21.0177 6.30203V9.92603H19.9377V6.20603C19.9377 5.55003 19.7737 5.05003 19.4457 4.70603C19.1257 4.35403 18.6897 4.17803 18.1377 4.17803C17.5697 4.17803 17.1177 4.36203 16.7817 4.73003C16.4457 5.09003 16.2777 5.61403 16.2777 6.30203V9.92603H15.1857V3.35002H16.2777V4.29803C16.4937 3.95403 16.7817 3.69003 17.1417 3.50603C17.5097 3.32203 17.9137 3.23003 18.3537 3.23003C18.9057 3.23003 19.3937 3.35403 19.8177 3.60203C20.2417 3.85003 20.5577 4.21403 20.7657 4.69403C20.9497 4.23003 21.2537 3.87003 21.6777 3.61403C22.1017 3.35803 22.5737 3.23003 23.0937 3.23003ZM31.3122 2.28203C31.1042 2.28203 30.9282 2.21003 30.7842 2.06603C30.6402 1.92202 30.5682 1.74602 30.5682 1.53802C30.5682 1.33002 30.6402 1.15403 30.7842 1.01003C30.9282 0.866025 31.1042 0.794025 31.3122 0.794025C31.5122 0.794025 31.6802 0.866025 31.8162 1.01003C31.9602 1.15403 32.0322 1.33002 32.0322 1.53802C32.0322 1.74602 31.9602 1.92202 31.8162 2.06603C31.6802 2.21003 31.5122 2.28203 31.3122 2.28203ZM31.8402 3.35002V9.92603H30.7482V3.35002H31.8402ZM36.9053 3.23003C37.7053 3.23003 38.3533 3.47403 38.8493 3.96203C39.3453 4.44203 39.5933 5.13803 39.5933 6.05003V9.92603H38.5133V6.20603C38.5133 5.55003 38.3493 5.05003 38.0213 4.70603C37.6933 4.35403 37.2453 4.17803 36.6773 4.17803C36.1013 4.17803 35.6413 4.35803 35.2973 4.71803C34.9613 5.07803 34.7933 5.60203 34.7933 6.29003V9.92603H33.7013V3.35002H34.7933V4.28603C35.0093 3.95003 35.3013 3.69003 35.6693 3.50603C36.0453 3.32203 36.4573 3.23003 36.9053 3.23003ZM42.7091 4.25003V8.12603C42.7091 8.44603 42.7771 8.67403 42.9131 8.81003C43.0491 8.93803 43.2851 9.00203 43.6211 9.00203H44.4251V9.92603H43.4411C42.8331 9.92603 42.3771 9.78603 42.0731 9.50603C41.7691 9.22603 41.6171 8.76603 41.6171 8.12603V4.25003H40.7651V3.35002H41.6171V1.69402H42.7091V3.35002H44.4251V4.25003H42.7091ZM51.7482 6.38603C51.7482 6.59403 51.7362 6.81403 51.7122 7.04603H46.4562C46.4962 7.69403 46.7162 8.20203 47.1162 8.57003C47.5242 8.93003 48.0162 9.11003 48.5922 9.11003C49.0642 9.11003 49.4562 9.00203 49.7682 8.78603C50.0882 8.56203 50.3122 8.26603 50.4402 7.89803H51.6162C51.4402 8.53003 51.0882 9.04603 50.5602 9.44603C50.0322 9.83803 49.3762 10.034 48.5922 10.034C47.9682 10.034 47.4082 9.89403 46.9122 9.61403C46.4242 9.33403 46.0402 8.93803 45.7602 8.42603C45.4802 7.90603 45.3402 7.30603 45.3402 6.62603C45.3402 5.94603 45.4762 5.35003 45.7482 4.83803C46.0202 4.32603 46.4002 3.93403 46.8882 3.66203C47.3842 3.38203 47.9522 3.24202 48.5922 3.24202C49.2162 3.24202 49.7682 3.37803 50.2482 3.65003C50.7282 3.92203 51.0962 4.29803 51.3522 4.77803C51.6162 5.25003 51.7482 5.78603 51.7482 6.38603ZM50.6202 6.15803C50.6202 5.74203 50.5282 5.38603 50.3442 5.09003C50.1602 4.78603 49.9082 4.55803 49.5882 4.40603C49.2762 4.24603 48.9282 4.16603 48.5442 4.16603C47.9922 4.16603 47.5202 4.34203 47.1282 4.69403C46.7442 5.04603 46.5242 5.53403 46.4682 6.15803H50.6202ZM54.2816 4.41803C54.4736 4.04202 54.7456 3.75003 55.0976 3.54203C55.4576 3.33403 55.8936 3.23003 56.4056 3.23003V4.35803H56.1176C54.8936 4.35803 54.2816 5.02203 54.2816 6.35003V9.92603H53.1896V3.35002H54.2816V4.41803ZM63.6662 6.38603C63.6662 6.59403 63.6542 6.81403 63.6302 7.04603H58.3742C58.4142 7.69403 58.6342 8.20203 59.0342 8.57003C59.4422 8.93003 59.9342 9.11003 60.5102 9.11003C60.9822 9.11003 61.3742 9.00203 61.6862 8.78603C62.0062 8.56203 62.2302 8.26603 62.3582 7.89803H63.5342C63.3582 8.53003 63.0062 9.04603 62.4782 9.44603C61.9502 9.83803 61.2942 10.034 60.5102 10.034C59.8862 10.034 59.3262 9.89403 58.8302 9.61403C58.3422 9.33403 57.9582 8.93803 57.6782 8.42603C57.3982 7.90603 57.2582 7.30603 57.2582 6.62603C57.2582 5.94603 57.3942 5.35003 57.6662 4.83803C57.9382 4.32603 58.3182 3.93403 58.8062 3.66203C59.3022 3.38203 59.8702 3.24202 60.5102 3.24202C61.1342 3.24202 61.6862 3.37803 62.1662 3.65003C62.6462 3.92203 63.0142 4.29803 63.2702 4.77803C63.5342 5.25003 63.6662 5.78603 63.6662 6.38603ZM62.5382 6.15803C62.5382 5.74203 62.4462 5.38603 62.2622 5.09003C62.0782 4.78603 61.8262 4.55803 61.5062 4.40603C61.1942 4.24603 60.8462 4.16603 60.4622 4.16603C59.9102 4.16603 59.4382 4.34203 59.0462 4.69403C58.6622 5.04603 58.4422 5.53403 58.3862 6.15803H62.5382ZM67.4356 10.034C66.9316 10.034 66.4796 9.95003 66.0796 9.78203C65.6796 9.60603 65.3636 9.36603 65.1316 9.06203C64.8996 8.75003 64.7716 8.39403 64.7476 7.99403H65.8756C65.9076 8.32203 66.0596 8.59003 66.3316 8.79803C66.6116 9.00603 66.9756 9.11003 67.4236 9.11003C67.8396 9.11003 68.1676 9.01803 68.4076 8.83403C68.6476 8.65003 68.7676 8.41803 68.7676 8.13803C68.7676 7.85003 68.6396 7.63803 68.3836 7.50203C68.1276 7.35803 67.7316 7.21803 67.1956 7.08203C66.7076 6.95403 66.3076 6.82603 65.9956 6.69803C65.6916 6.56203 65.4276 6.36603 65.2036 6.11003C64.9876 5.84603 64.8796 5.50203 64.8796 5.07803C64.8796 4.74203 64.9796 4.43403 65.1796 4.15402C65.3796 3.87402 65.6636 3.65403 66.0316 3.49403C66.3996 3.32603 66.8196 3.24202 67.2916 3.24202C68.0196 3.24202 68.6076 3.42602 69.0556 3.79402C69.5036 4.16202 69.7436 4.66603 69.7756 5.30603H68.6836C68.6596 4.96203 68.5196 4.68603 68.2636 4.47803C68.0156 4.27003 67.6796 4.16603 67.2556 4.16603C66.8636 4.16603 66.5516 4.25003 66.3196 4.41803C66.0876 4.58603 65.9716 4.80603 65.9716 5.07803C65.9716 5.29403 66.0396 5.47403 66.1756 5.61803C66.3196 5.75403 66.4956 5.86603 66.7036 5.95403C66.9196 6.03403 67.2156 6.12603 67.5916 6.23003C68.0636 6.35803 68.4476 6.48603 68.7436 6.61403C69.0396 6.73403 69.2916 6.91803 69.4996 7.16603C69.7156 7.41403 69.8276 7.73803 69.8356 8.13803C69.8356 8.49803 69.7356 8.82203 69.5356 9.11003C69.3356 9.39803 69.0516 9.62603 68.6836 9.79403C68.3236 9.95403 67.9076 10.034 67.4356 10.034ZM72.7091 4.25003V8.12603C72.7091 8.44603 72.7771 8.67403 72.9131 8.81003C73.0491 8.93803 73.2851 9.00203 73.6211 9.00203H74.4251V9.92603H73.4411C72.8331 9.92603 72.3771 9.78603 72.0731 9.50603C71.7691 9.22603 71.6171 8.76603 71.6171 8.12603V4.25003H70.7651V3.35002H71.6171V1.69402H72.7091V3.35002H74.4251V4.25003H72.7091ZM81.7482 6.38603C81.7482 6.59403 81.7362 6.81403 81.7122 7.04603H76.4562C76.4962 7.69403 76.7162 8.20203 77.1162 8.57003C77.5242 8.93003 78.0162 9.11003 78.5922 9.11003C79.0642 9.11003 79.4562 9.00203 79.7682 8.78603C80.0882 8.56203 80.3122 8.26603 80.4402 7.89803H81.6162C81.4402 8.53003 81.0882 9.04603 80.5602 9.44603C80.0322 9.83803 79.3762 10.034 78.5922 10.034C77.9682 10.034 77.4082 9.89403 76.9122 9.61403C76.4242 9.33403 76.0402 8.93803 75.7602 8.42603C75.4802 7.90603 75.3402 7.30603 75.3402 6.62603C75.3402 5.94603 75.4762 5.35003 75.7482 4.83803C76.0202 4.32603 76.4002 3.93403 76.8882 3.66203C77.3842 3.38203 77.9522 3.24202 78.5922 3.24202C79.2162 3.24202 79.7682 3.37803 80.2482 3.65003C80.7282 3.92203 81.0962 4.29803 81.3522 4.77803C81.6162 5.25003 81.7482 5.78603 81.7482 6.38603ZM80.6202 6.15803C80.6202 5.74203 80.5282 5.38603 80.3442 5.09003C80.1602 4.78603 79.9082 4.55803 79.5882 4.40603C79.2762 4.24603 78.9282 4.16603 78.5442 4.16603C77.9922 4.16603 77.5202 4.34203 77.1282 4.69403C76.7442 5.04603 76.5242 5.53403 76.4682 6.15803H80.6202ZM82.7816 6.61403C82.7816 5.94203 82.9176 5.35403 83.1896 4.85003C83.4616 4.33803 83.8336 3.94203 84.3056 3.66203C84.7856 3.38203 85.3216 3.24202 85.9136 3.24202C86.4256 3.24202 86.9016 3.36203 87.3416 3.60203C87.7816 3.83403 88.1176 4.14203 88.3496 4.52603V1.04603H89.4536V9.92603H88.3496V8.69003C88.1336 9.08203 87.8136 9.40603 87.3896 9.66203C86.9656 9.91003 86.4696 10.034 85.9016 10.034C85.3176 10.034 84.7856 9.89003 84.3056 9.60203C83.8336 9.31403 83.4616 8.91003 83.1896 8.39003C82.9176 7.87003 82.7816 7.27803 82.7816 6.61403ZM88.3496 6.62603C88.3496 6.13003 88.2496 5.69803 88.0496 5.33003C87.8496 4.96203 87.5776 4.68203 87.2336 4.49003C86.8976 4.29003 86.5256 4.19003 86.1176 4.19003C85.7096 4.19003 85.3376 4.28603 85.0016 4.47803C84.6656 4.67003 84.3976 4.95003 84.1976 5.31803C83.9976 5.68603 83.8976 6.11803 83.8976 6.61403C83.8976 7.11803 83.9976 7.55803 84.1976 7.93403C84.3976 8.30203 84.6656 8.58603 85.0016 8.78603C85.3376 8.97803 85.7096 9.07403 86.1176 9.07403C86.5256 9.07403 86.8976 8.97803 87.2336 8.78603C87.5776 8.58603 87.8496 8.30203 88.0496 7.93403C88.2496 7.55803 88.3496 7.12203 88.3496 6.62603ZM95.0622 2.28203C94.8542 2.28203 94.6782 2.21003 94.5342 2.06603C94.3902 1.92202 94.3182 1.74602 94.3182 1.53802C94.3182 1.33002 94.3902 1.15403 94.5342 1.01003C94.6782 0.866025 94.8542 0.794025 95.0622 0.794025C95.2622 0.794025 95.4302 0.866025 95.5662 1.01003C95.7102 1.15403 95.7822 1.33002 95.7822 1.53802C95.7822 1.74602 95.7102 1.92202 95.5662 2.06603C95.4302 2.21003 95.2622 2.28203 95.0622 2.28203ZM95.5902 3.35002V9.92603H94.4982V3.35002H95.5902ZM100.655 3.23003C101.455 3.23003 102.103 3.47403 102.599 3.96203C103.095 4.44203 103.343 5.13803 103.343 6.05003V9.92603H102.263V6.20603C102.263 5.55003 102.099 5.05003 101.771 4.70603C101.443 4.35403 100.995 4.17803 100.427 4.17803C99.8513 4.17803 99.3913 4.35803 99.0473 4.71803C98.7113 5.07803 98.5433 5.60203 98.5433 6.29003V9.92603H97.4513V3.35002H98.5433V4.28603C98.7593 3.95003 99.0513 3.69003 99.4193 3.50603C99.7953 3.32203 100.207 3.23003 100.655 3.23003ZM105.475 9.99803C105.267 9.99803 105.091 9.92603 104.947 9.78203C104.803 9.63803 104.731 9.46203 104.731 9.25403C104.731 9.04603 104.803 8.87003 104.947 8.72603C105.091 8.58203 105.267 8.51003 105.475 8.51003C105.675 8.51003 105.843 8.58203 105.979 8.72603C106.123 8.87003 106.195 9.04603 106.195 9.25403C106.195 9.46203 106.123 9.63803 105.979 9.78203C105.843 9.92603 105.675 9.99803 105.475 9.99803ZM107.995 9.99803C107.787 9.99803 107.611 9.92603 107.467 9.78203C107.323 9.63803 107.251 9.46203 107.251 9.25403C107.251 9.04603 107.323 8.87003 107.467 8.72603C107.611 8.58203 107.787 8.51003 107.995 8.51003C108.195 8.51003 108.363 8.58203 108.499 8.72603C108.643 8.87003 108.715 9.04603 108.715 9.25403C108.715 9.46203 108.643 9.63803 108.499 9.78203C108.363 9.92603 108.195 9.99803 107.995 9.99803ZM110.514 9.99803C110.306 9.99803 110.13 9.92603 109.986 9.78203C109.842 9.63803 109.77 9.46203 109.77 9.25403C109.77 9.04603 109.842 8.87003 109.986 8.72603C110.13 8.58203 110.306 8.51003 110.514 8.51003C110.714 8.51003 110.882 8.58203 111.018 8.72603C111.162 8.87003 111.234 9.04603 111.234 9.25403C111.234 9.46203 111.162 9.63803 111.018 9.78203C110.882 9.92603 110.714 9.99803 110.514 9.99803Z" fill="#242321"/>
</svg>
