<svg width="99" height="13" viewBox="0 0 99 13" fill="none" xmlns="http://www.w3.org/2000/svg">
<path d="M2.016 1.45003V4.24603H5.064V5.14603H2.016V8.02603H5.424V8.92603H0.924V0.550025H5.424V1.45003H2.016ZM10.2803 2.23003C11.0803 2.23003 11.7283 2.47403 12.2243 2.96203C12.7203 3.44203 12.9683 4.13803 12.9683 5.05003V8.92603H11.8883V5.20603C11.8883 4.55003 11.7243 4.05003 11.3963 3.70603C11.0683 3.35403 10.6203 3.17803 10.0523 3.17803C9.47634 3.17803 9.01634 3.35803 8.67234 3.71803C8.33634 4.07803 8.16834 4.60203 8.16834 5.29003V8.92603H7.07634V2.35002H8.16834V3.28603C8.38434 2.95003 8.67634 2.69003 9.04434 2.50603C9.42034 2.32203 9.83234 2.23003 10.2803 2.23003ZM16.0841 3.25003V7.12603C16.0841 7.44603 16.1521 7.67403 16.2881 7.81003C16.4241 7.93803 16.6601 8.00203 16.9961 8.00203H17.8001V8.92603H16.8161C16.2081 8.92603 15.7521 8.78603 15.4481 8.50603C15.1441 8.22603 14.9921 7.76603 14.9921 7.12603V3.25003H14.1401V2.35002H14.9921V0.694025H16.0841V2.35002H17.8001V3.25003H16.0841ZM25.1232 5.38603C25.1232 5.59403 25.1112 5.81403 25.0872 6.04603H19.8312C19.8712 6.69403 20.0912 7.20203 20.4912 7.57003C20.8992 7.93003 21.3912 8.11003 21.9672 8.11003C22.4392 8.11003 22.8312 8.00203 23.1432 7.78603C23.4632 7.56203 23.6872 7.26603 23.8152 6.89803H24.9912C24.8152 7.53003 24.4632 8.04603 23.9352 8.44603C23.4072 8.83803 22.7512 9.03403 21.9672 9.03403C21.3432 9.03403 20.7832 8.89403 20.2872 8.61403C19.7992 8.33403 19.4152 7.93803 19.1352 7.42603C18.8552 6.90603 18.7152 6.30603 18.7152 5.62603C18.7152 4.94603 18.8512 4.35003 19.1232 3.83803C19.3952 3.32603 19.7752 2.93403 20.2632 2.66203C20.7592 2.38203 21.3272 2.24202 21.9672 2.24202C22.5912 2.24202 23.1432 2.37803 23.6232 2.65003C24.1032 2.92203 24.4712 3.29803 24.7272 3.77803C24.9912 4.25003 25.1232 4.78603 25.1232 5.38603ZM23.9952 5.15803C23.9952 4.74203 23.9032 4.38603 23.7192 4.09003C23.5352 3.78603 23.2832 3.55803 22.9632 3.40603C22.6512 3.24603 22.3032 3.16603 21.9192 3.16603C21.3672 3.16603 20.8952 3.34203 20.5032 3.69403C20.1192 4.04603 19.8992 4.53403 19.8432 5.15803H23.9952ZM27.6566 3.41803C27.8486 3.04202 28.1206 2.75003 28.4726 2.54203C28.8326 2.33403 29.2686 2.23003 29.7806 2.23003V3.35803H29.4926C28.2686 3.35803 27.6566 4.02203 27.6566 5.35003V8.92603H26.5646V2.35002H27.6566V3.41803ZM39.9044 2.35002L35.9444 12.022H34.8164L36.1124 8.85403L33.4604 2.35002H34.6724L36.7364 7.67803L38.7764 2.35002H39.9044ZM43.8701 9.03403C43.2541 9.03403 42.6941 8.89403 42.1901 8.61403C41.6941 8.33403 41.3021 7.93803 41.0141 7.42603C40.7341 6.90603 40.5941 6.30603 40.5941 5.62603C40.5941 4.95403 40.7381 4.36203 41.0261 3.85003C41.3221 3.33003 41.7221 2.93403 42.2261 2.66203C42.7301 2.38203 43.2941 2.24202 43.9181 2.24202C44.5421 2.24202 45.1061 2.38203 45.6101 2.66203C46.1141 2.93403 46.5101 3.32603 46.7981 3.83803C47.0941 4.35003 47.2421 4.94603 47.2421 5.62603C47.2421 6.30603 47.0901 6.90603 46.7861 7.42603C46.4901 7.93803 46.0861 8.33403 45.5741 8.61403C45.0621 8.89403 44.4941 9.03403 43.8701 9.03403ZM43.8701 8.07403C44.2621 8.07403 44.6301 7.98203 44.9741 7.79803C45.3181 7.61403 45.5941 7.33803 45.8021 6.97003C46.0181 6.60203 46.1261 6.15403 46.1261 5.62603C46.1261 5.09803 46.0221 4.65003 45.8141 4.28203C45.6061 3.91403 45.3341 3.64203 44.9981 3.46603C44.6621 3.28203 44.2981 3.19003 43.9061 3.19003C43.5061 3.19003 43.1381 3.28203 42.8021 3.46603C42.4741 3.64203 42.2101 3.91403 42.0101 4.28203C41.8101 4.65003 41.7101 5.09803 41.7101 5.62603C41.7101 6.16203 41.8061 6.61403 41.9981 6.98203C42.1981 7.35003 42.4621 7.62603 42.7901 7.81003C43.1181 7.98603 43.4781 8.07403 43.8701 8.07403ZM54.5099 2.35002V8.92603H53.4179V7.95403C53.2099 8.29003 52.9179 8.55403 52.5419 8.74603C52.1739 8.93003 51.7659 9.02203 51.3179 9.02203C50.8059 9.02203 50.3459 8.91803 49.9379 8.71003C49.5299 8.49403 49.2059 8.17403 48.9659 7.75003C48.7339 7.32603 48.6179 6.81003 48.6179 6.20203V2.35002H49.6979V6.05803C49.6979 6.70603 49.8619 7.20603 50.1899 7.55803C50.5179 7.90203 50.9659 8.07403 51.5339 8.07403C52.1179 8.07403 52.5779 7.89403 52.9139 7.53403C53.2499 7.17403 53.4179 6.65003 53.4179 5.96203V2.35002H54.5099ZM57.4457 3.41803C57.6377 3.04202 57.9097 2.75003 58.2617 2.54203C58.6217 2.33403 59.0577 2.23003 59.5697 2.23003V3.35803H59.2817C58.0577 3.35803 57.4457 4.02203 57.4457 5.35003V8.92603H56.3537V2.35002H57.4457V3.41803ZM70.6055 8.92603H69.5135L65.1215 2.26603V8.92603H64.0295V0.550025H65.1215L69.5135 7.19803V0.550025H70.6055V8.92603ZM72.059 5.61403C72.059 4.94203 72.195 4.35403 72.467 3.85003C72.739 3.33803 73.111 2.94203 73.583 2.66203C74.063 2.38203 74.595 2.24202 75.179 2.24202C75.755 2.24202 76.255 2.36602 76.679 2.61403C77.103 2.86203 77.419 3.17403 77.627 3.55003V2.35002H78.731V8.92603H77.627V7.70203C77.411 8.08603 77.087 8.40603 76.655 8.66203C76.231 8.91003 75.735 9.03403 75.167 9.03403C74.583 9.03403 74.055 8.89003 73.583 8.60203C73.111 8.31403 72.739 7.91003 72.467 7.39003C72.195 6.87003 72.059 6.27803 72.059 5.61403ZM77.627 5.62603C77.627 5.13003 77.527 4.69803 77.327 4.33003C77.127 3.96203 76.855 3.68203 76.511 3.49003C76.175 3.29003 75.803 3.19003 75.395 3.19003C74.987 3.19003 74.615 3.28603 74.279 3.47803C73.943 3.67003 73.675 3.95003 73.475 4.31803C73.275 4.68603 73.175 5.11803 73.175 5.61403C73.175 6.11803 73.275 6.55803 73.475 6.93403C73.675 7.30203 73.943 7.58603 74.279 7.78603C74.615 7.97803 74.987 8.07403 75.395 8.07403C75.803 8.07403 76.175 7.97803 76.511 7.78603C76.855 7.58603 77.127 7.30203 77.327 6.93403C77.527 6.55803 77.627 6.12203 77.627 5.62603ZM88.4843 2.23003C88.9963 2.23003 89.4523 2.33803 89.8523 2.55403C90.2523 2.76203 90.5683 3.07803 90.8003 3.50203C91.0323 3.92603 91.1483 4.44203 91.1483 5.05003V8.92603H90.0683V5.20603C90.0683 4.55003 89.9043 4.05003 89.5763 3.70603C89.2563 3.35403 88.8203 3.17803 88.2683 3.17803C87.7003 3.17803 87.2483 3.36203 86.9123 3.73003C86.5763 4.09003 86.4083 4.61403 86.4083 5.30203V8.92603H85.3283V5.20603C85.3283 4.55003 85.1643 4.05003 84.8363 3.70603C84.5163 3.35403 84.0803 3.17803 83.5283 3.17803C82.9603 3.17803 82.5083 3.36203 82.1723 3.73003C81.8363 4.09003 81.6683 4.61403 81.6683 5.30203V8.92603H80.5763V2.35002H81.6683V3.29803C81.8843 2.95403 82.1723 2.69003 82.5323 2.50603C82.9003 2.32203 83.3043 2.23003 83.7443 2.23003C84.2963 2.23003 84.7843 2.35403 85.2083 2.60203C85.6323 2.85003 85.9483 3.21403 86.1563 3.69403C86.3403 3.23003 86.6443 2.87003 87.0683 2.61403C87.4923 2.35803 87.9643 2.23003 88.4843 2.23003ZM98.9396 5.38603C98.9396 5.59403 98.9276 5.81403 98.9036 6.04603H93.6476C93.6876 6.69403 93.9076 7.20203 94.3076 7.57003C94.7156 7.93003 95.2076 8.11003 95.7836 8.11003C96.2556 8.11003 96.6476 8.00203 96.9596 7.78603C97.2796 7.56203 97.5036 7.26603 97.6316 6.89803H98.8076C98.6316 7.53003 98.2796 8.04603 97.7516 8.44603C97.2236 8.83803 96.5676 9.03403 95.7836 9.03403C95.1596 9.03403 94.5996 8.89403 94.1036 8.61403C93.6156 8.33403 93.2316 7.93803 92.9516 7.42603C92.6716 6.90603 92.5316 6.30603 92.5316 5.62603C92.5316 4.94603 92.6676 4.35003 92.9396 3.83803C93.2116 3.32603 93.5916 2.93403 94.0796 2.66203C94.5756 2.38203 95.1436 2.24202 95.7836 2.24202C96.4076 2.24202 96.9596 2.37803 97.4396 2.65003C97.9196 2.92203 98.2876 3.29803 98.5436 3.77803C98.8076 4.25003 98.9396 4.78603 98.9396 5.38603ZM97.8116 5.15803C97.8116 4.74203 97.7196 4.38603 97.5356 4.09003C97.3516 3.78603 97.0996 3.55803 96.7796 3.40603C96.4676 3.24603 96.1196 3.16603 95.7356 3.16603C95.1836 3.16603 94.7116 3.34203 94.3196 3.69403C93.9356 4.04603 93.7156 4.53403 93.6596 5.15803H97.8116Z" fill="#242321"/>
</svg>
